G04 Layer_Physical_Order=2*
G04 Layer_Color=11436288*
%FSLAX25Y25*%
%MOIN*%
G70*
G01*
G75*
%ADD24C,0.00984*%
%ADD26C,0.00787*%
%ADD27C,0.03937*%
%ADD30C,0.21654*%
G04:AMPARAMS|DCode=31|XSize=60mil|YSize=80mil|CornerRadius=15mil|HoleSize=0mil|Usage=FLASHONLY|Rotation=90.000|XOffset=0mil|YOffset=0mil|HoleType=Round|Shape=RoundedRectangle|*
%AMROUNDEDRECTD31*
21,1,0.06000,0.05000,0,0,90.0*
21,1,0.03000,0.08000,0,0,90.0*
1,1,0.03000,0.02500,0.01500*
1,1,0.03000,0.02500,-0.01500*
1,1,0.03000,-0.02500,-0.01500*
1,1,0.03000,-0.02500,0.01500*
%
%ADD31ROUNDEDRECTD31*%
%ADD32R,0.08000X0.06000*%
G04:AMPARAMS|DCode=33|XSize=59.84mil|YSize=59.84mil|CornerRadius=14.96mil|HoleSize=0mil|Usage=FLASHONLY|Rotation=0.000|XOffset=0mil|YOffset=0mil|HoleType=Round|Shape=RoundedRectangle|*
%AMROUNDEDRECTD33*
21,1,0.05984,0.02992,0,0,0.0*
21,1,0.02992,0.05984,0,0,0.0*
1,1,0.02992,0.01496,-0.01496*
1,1,0.02992,-0.01496,-0.01496*
1,1,0.02992,-0.01496,0.01496*
1,1,0.02992,0.01496,0.01496*
%
%ADD33ROUNDEDRECTD33*%
%ADD34C,0.05984*%
%ADD35O,0.05512X0.09843*%
G04:AMPARAMS|DCode=36|XSize=60mil|YSize=80mil|CornerRadius=0mil|HoleSize=0mil|Usage=FLASHONLY|Rotation=90.000|XOffset=0mil|YOffset=0mil|HoleType=Round|Shape=Octagon|*
%AMOCTAGOND36*
4,1,8,-0.04000,-0.01500,-0.04000,0.01500,-0.02500,0.03000,0.02500,0.03000,0.04000,0.01500,0.04000,-0.01500,0.02500,-0.03000,-0.02500,-0.03000,-0.04000,-0.01500,0.0*
%
%ADD36OCTAGOND36*%

%ADD37O,0.10236X0.09055*%
%ADD38O,0.09055X0.10236*%
%ADD39C,0.06890*%
%ADD40R,0.06890X0.06890*%
%ADD41C,0.07874*%
%ADD42O,0.03937X0.06890*%
%ADD43C,0.06000*%
%ADD44C,0.05906*%
%ADD45O,0.11811X0.15748*%
%ADD46O,0.05512X0.09449*%
%ADD47C,0.07087*%
%ADD48R,0.05906X0.05906*%
%ADD49C,0.05000*%
%ADD50C,0.02362*%
%ADD51C,0.02756*%
%ADD52C,0.03937*%
G36*
X509842Y100747D02*
X509489Y100394D01*
X246652D01*
X246552Y100894D01*
X247564Y101313D01*
X248756Y102228D01*
X249672Y103420D01*
X250247Y104809D01*
X250443Y106299D01*
X250247Y107789D01*
X249672Y109178D01*
X248756Y110371D01*
X247564Y111286D01*
X247271Y111407D01*
Y116794D01*
X254215Y123738D01*
X254720Y124396D01*
X255037Y125162D01*
X255145Y125984D01*
X255037Y126806D01*
X254720Y127573D01*
X254215Y128231D01*
X253557Y128735D01*
X252791Y129053D01*
X251969Y129161D01*
X251146Y129053D01*
X250380Y128735D01*
X249722Y128231D01*
X241848Y120357D01*
X241343Y119699D01*
X241026Y118932D01*
X240918Y118110D01*
Y111407D01*
X240625Y111286D01*
X239432Y110371D01*
X238517Y109178D01*
X237942Y107789D01*
X237746Y106299D01*
X237942Y104809D01*
X238517Y103420D01*
X239432Y102228D01*
X240625Y101313D01*
X241636Y100894D01*
X241537Y100394D01*
X173228D01*
X173228Y167323D01*
X149606Y190945D01*
X149606Y312992D01*
X177165Y340551D01*
X177165Y352651D01*
X177665Y352985D01*
X178357Y352698D01*
X179449Y352554D01*
X180540Y352698D01*
X181557Y353119D01*
X182431Y353790D01*
X183101Y354663D01*
X183522Y355680D01*
X183666Y356772D01*
X183522Y357863D01*
X183101Y358880D01*
X182431Y359754D01*
X181557Y360424D01*
X180540Y360845D01*
X179449Y360989D01*
X178357Y360845D01*
X177665Y360559D01*
X177165Y360893D01*
Y362891D01*
X177665Y363181D01*
X178405Y362875D01*
X178949Y362803D01*
Y366772D01*
Y370740D01*
X178405Y370669D01*
X177665Y370362D01*
X177165Y370653D01*
Y372047D01*
X419922Y372047D01*
X420275Y371694D01*
Y351378D01*
X426181Y345472D01*
X432087Y345472D01*
X434055Y343012D01*
Y333169D01*
X435039Y332185D01*
X437992D01*
X438976Y333169D01*
X438976Y343012D01*
X440945Y345472D01*
X446850Y345472D01*
X453740Y352362D01*
Y372047D01*
X509842Y372047D01*
X509842Y100747D01*
D02*
G37*
G36*
X171260Y372047D02*
Y370801D01*
X170844Y370523D01*
X170493Y370669D01*
X169949Y370740D01*
Y366772D01*
Y362803D01*
X170493Y362875D01*
X170844Y363020D01*
X171260Y362742D01*
Y360997D01*
X170844Y360719D01*
X170540Y360845D01*
X169449Y360989D01*
X168357Y360845D01*
X167340Y360424D01*
X166467Y359754D01*
X165797Y358880D01*
X165375Y357863D01*
X165232Y356772D01*
X165375Y355680D01*
X165797Y354663D01*
X166467Y353790D01*
X167340Y353119D01*
X168357Y352698D01*
X169449Y352554D01*
X170540Y352698D01*
X170844Y352824D01*
X171260Y352546D01*
Y340551D01*
X145669Y314961D01*
Y188976D01*
X169291Y165354D01*
X169291Y100747D01*
X168938Y100394D01*
X153231D01*
X153010Y100842D01*
X153025Y100862D01*
X153403Y101775D01*
X153532Y102756D01*
Y104224D01*
X145956D01*
Y102756D01*
X146085Y101775D01*
X146463Y100862D01*
X146478Y100842D01*
X146257Y100394D01*
X121459D01*
X121238Y100842D01*
X121253Y100862D01*
X121632Y101775D01*
X121761Y102756D01*
Y104224D01*
X114184D01*
Y102756D01*
X114313Y101775D01*
X114692Y100862D01*
X114707Y100842D01*
X114486Y100394D01*
X100394D01*
Y371694D01*
X100747Y372047D01*
X171260Y372047D01*
D02*
G37*
%LPC*%
G36*
X305895Y137295D02*
X302606D01*
Y131907D01*
X303087Y131971D01*
X304000Y132349D01*
X304785Y132951D01*
X305387Y133736D01*
X305766Y134649D01*
X305895Y135630D01*
Y137295D01*
D02*
G37*
G36*
X301606D02*
X298318D01*
Y135630D01*
X298447Y134649D01*
X298826Y133736D01*
X299428Y132951D01*
X300212Y132349D01*
X301126Y131971D01*
X301606Y131907D01*
Y137295D01*
D02*
G37*
G36*
X280071D02*
X276782D01*
Y135630D01*
X276912Y134649D01*
X277290Y133736D01*
X277892Y132951D01*
X278677Y132349D01*
X279590Y131971D01*
X280071Y131907D01*
Y137295D01*
D02*
G37*
G36*
X284359D02*
X281071D01*
Y131907D01*
X281551Y131971D01*
X282465Y132349D01*
X283250Y132951D01*
X283852Y133736D01*
X284230Y134649D01*
X284359Y135630D01*
Y137295D01*
D02*
G37*
G36*
X432571Y138567D02*
X432039Y138497D01*
X431077Y138098D01*
X430252Y137465D01*
X429618Y136639D01*
X429220Y135678D01*
X429150Y135146D01*
X432571D01*
Y138567D01*
D02*
G37*
G36*
X433571D02*
Y135146D01*
X436992D01*
X436922Y135678D01*
X436523Y136639D01*
X435890Y137465D01*
X435064Y138098D01*
X434103Y138497D01*
X433571Y138567D01*
D02*
G37*
G36*
X375484D02*
X374952Y138497D01*
X373991Y138098D01*
X373165Y137465D01*
X372532Y136639D01*
X372133Y135678D01*
X372063Y135146D01*
X375484D01*
Y138567D01*
D02*
G37*
G36*
X376484D02*
Y135146D01*
X379905D01*
X379835Y135678D01*
X379437Y136639D01*
X378803Y137465D01*
X377978Y138098D01*
X377016Y138497D01*
X376484Y138567D01*
D02*
G37*
G36*
X436992Y134146D02*
X433571D01*
Y130725D01*
X434103Y130795D01*
X435064Y131193D01*
X435890Y131826D01*
X436523Y132652D01*
X436922Y133614D01*
X436992Y134146D01*
D02*
G37*
G36*
X452756Y138815D02*
X451677Y138673D01*
X450671Y138257D01*
X449808Y137594D01*
X449145Y136730D01*
X448728Y135725D01*
X448586Y134646D01*
X448728Y133566D01*
X449145Y132561D01*
X449808Y131697D01*
X450671Y131035D01*
X451677Y130618D01*
X451861Y130594D01*
X452141Y130406D01*
X452756Y130284D01*
X453370Y130406D01*
X453651Y130594D01*
X453835Y130618D01*
X454841Y131035D01*
X455704Y131697D01*
X456367Y132561D01*
X456783Y133566D01*
X456925Y134646D01*
X456783Y135725D01*
X456367Y136730D01*
X455704Y137594D01*
X454841Y138257D01*
X453835Y138673D01*
X452756Y138815D01*
D02*
G37*
G36*
X385827D02*
X384748Y138673D01*
X383742Y138257D01*
X382878Y137594D01*
X382216Y136730D01*
X381799Y135725D01*
X381657Y134646D01*
X381799Y133566D01*
X382216Y132561D01*
X382878Y131697D01*
X383742Y131035D01*
X384748Y130618D01*
X385827Y130476D01*
X386906Y130618D01*
X387912Y131035D01*
X388775Y131697D01*
X389438Y132561D01*
X389854Y133566D01*
X389996Y134646D01*
X389854Y135725D01*
X389438Y136730D01*
X388775Y137594D01*
X387912Y138257D01*
X386906Y138673D01*
X385827Y138815D01*
D02*
G37*
G36*
X151031Y124982D02*
Y119791D01*
X154320D01*
Y121260D01*
X154191Y122240D01*
X153812Y123154D01*
X153210Y123939D01*
X152426Y124541D01*
X151512Y124919D01*
X151031Y124982D01*
D02*
G37*
G36*
X223622Y143356D02*
X222132Y143160D01*
X220743Y142585D01*
X219550Y141670D01*
X218636Y140477D01*
X218060Y139089D01*
X217864Y137598D01*
Y136417D01*
X218060Y134927D01*
X218636Y133538D01*
X219550Y132346D01*
X220743Y131431D01*
X222132Y130856D01*
X223622Y130659D01*
X225112Y130856D01*
X226501Y131431D01*
X227694Y132346D01*
X228092Y132866D01*
X228571Y132667D01*
X228494Y132087D01*
Y130905D01*
X228690Y129415D01*
X229265Y128026D01*
X230181Y126834D01*
X231373Y125919D01*
X232762Y125344D01*
X234252Y125148D01*
X235742Y125344D01*
X237131Y125919D01*
X238323Y126834D01*
X239238Y128026D01*
X239814Y129415D01*
X240010Y130905D01*
Y132087D01*
X239814Y133577D01*
X239238Y134966D01*
X238323Y136158D01*
X237131Y137073D01*
X235742Y137648D01*
X234252Y137845D01*
X232762Y137648D01*
X231373Y137073D01*
X230181Y136158D01*
X229782Y135638D01*
X229304Y135836D01*
X229380Y136417D01*
Y137598D01*
X229184Y139089D01*
X228608Y140477D01*
X227694Y141670D01*
X226501Y142585D01*
X225112Y143160D01*
X223622Y143356D01*
D02*
G37*
G36*
X395669Y138815D02*
X394590Y138673D01*
X393584Y138257D01*
X392721Y137594D01*
X392058Y136730D01*
X391642Y135725D01*
X391500Y134646D01*
X391642Y133566D01*
X392058Y132561D01*
X392721Y131697D01*
X393584Y131035D01*
X394590Y130618D01*
X395669Y130476D01*
X396748Y130618D01*
X397754Y131035D01*
X398618Y131697D01*
X399280Y132561D01*
X399697Y133566D01*
X399839Y134646D01*
X399697Y135725D01*
X399280Y136730D01*
X398618Y137594D01*
X397754Y138257D01*
X396748Y138673D01*
X395669Y138815D01*
D02*
G37*
G36*
X379905Y134146D02*
X376484D01*
Y130725D01*
X377016Y130795D01*
X377978Y131193D01*
X378803Y131826D01*
X379437Y132652D01*
X379835Y133614D01*
X379905Y134146D01*
D02*
G37*
G36*
X432571D02*
X429150D01*
X429220Y133614D01*
X429618Y132652D01*
X430252Y131826D01*
X431077Y131193D01*
X432039Y130795D01*
X432571Y130725D01*
Y134146D01*
D02*
G37*
G36*
X442913Y138815D02*
X441834Y138673D01*
X440829Y138257D01*
X439965Y137594D01*
X439302Y136730D01*
X438886Y135725D01*
X438744Y134646D01*
X438886Y133566D01*
X439302Y132561D01*
X439965Y131697D01*
X440829Y131035D01*
X441834Y130618D01*
X442913Y130476D01*
X443993Y130618D01*
X444998Y131035D01*
X445862Y131697D01*
X446524Y132561D01*
X446941Y133566D01*
X447083Y134646D01*
X446941Y135725D01*
X446524Y136730D01*
X445862Y137594D01*
X444998Y138257D01*
X443993Y138673D01*
X442913Y138815D01*
D02*
G37*
G36*
X375484Y134146D02*
X372063D01*
X372133Y133614D01*
X372532Y132652D01*
X373165Y131826D01*
X373991Y131193D01*
X374952Y130795D01*
X375484Y130725D01*
Y134146D01*
D02*
G37*
G36*
X290839Y140169D02*
X287378D01*
X287449Y139627D01*
X287851Y138656D01*
X288491Y137822D01*
X289325Y137182D01*
X290296Y136780D01*
X290839Y136708D01*
Y140169D01*
D02*
G37*
G36*
X430167Y147138D02*
X423728D01*
Y138780D01*
X424582Y138864D01*
X425884Y139259D01*
X427083Y139900D01*
X428135Y140763D01*
X428998Y141814D01*
X429639Y143014D01*
X430034Y144316D01*
X430167Y145669D01*
Y147138D01*
D02*
G37*
G36*
X462098D02*
X455659D01*
Y145669D01*
X455793Y144316D01*
X456188Y143014D01*
X456829Y141814D01*
X457692Y140763D01*
X458743Y139900D01*
X459943Y139259D01*
X461245Y138864D01*
X462098Y138780D01*
Y147138D01*
D02*
G37*
G36*
X412451D02*
X406012D01*
Y138780D01*
X406866Y138864D01*
X408167Y139259D01*
X409367Y139900D01*
X410418Y140763D01*
X411281Y141814D01*
X411923Y143014D01*
X412317Y144316D01*
X412451Y145669D01*
Y147138D01*
D02*
G37*
G36*
X422728D02*
X416289D01*
Y145669D01*
X416423Y144316D01*
X416818Y143014D01*
X417459Y141814D01*
X418322Y140763D01*
X419373Y139900D01*
X420573Y139259D01*
X421875Y138864D01*
X422728Y138780D01*
Y147138D01*
D02*
G37*
G36*
X469537D02*
X463098D01*
Y138780D01*
X463952Y138864D01*
X465254Y139259D01*
X466453Y139900D01*
X467505Y140763D01*
X468368Y141814D01*
X469009Y143014D01*
X469404Y144316D01*
X469537Y145669D01*
Y147138D01*
D02*
G37*
G36*
X133871Y153043D02*
X122547D01*
Y141719D01*
X123903Y141826D01*
X125713Y142261D01*
X127433Y142973D01*
X129020Y143946D01*
X130436Y145155D01*
X131645Y146570D01*
X132617Y148157D01*
X133330Y149877D01*
X133765Y151687D01*
X133871Y153043D01*
D02*
G37*
G36*
X487689D02*
X476365D01*
X476472Y151687D01*
X476906Y149877D01*
X477619Y148157D01*
X478591Y146570D01*
X479800Y145155D01*
X481216Y143946D01*
X482803Y142973D01*
X484523Y142261D01*
X486333Y141826D01*
X487689Y141719D01*
Y153043D01*
D02*
G37*
G36*
X292835Y168488D02*
X289843D01*
X289144Y168396D01*
X288492Y168126D01*
X287933Y167697D01*
X287504Y167138D01*
X287234Y166486D01*
X287142Y165787D01*
Y162795D01*
X287234Y162096D01*
X287504Y161445D01*
X287933Y160886D01*
X288492Y160457D01*
X288774Y160340D01*
X288849Y159768D01*
X288362Y159394D01*
X287693Y158522D01*
X287273Y157507D01*
X287129Y156417D01*
X287273Y155328D01*
X287693Y154313D01*
X288362Y153441D01*
X289234Y152772D01*
X289335Y152730D01*
Y152230D01*
X289234Y152189D01*
X288362Y151520D01*
X287693Y150648D01*
X287273Y149633D01*
X287129Y148543D01*
X287273Y147454D01*
X287693Y146439D01*
X288362Y145567D01*
X289234Y144898D01*
X289571Y144758D01*
X289571Y144258D01*
X289325Y144156D01*
X288491Y143517D01*
X287851Y142683D01*
X287449Y141711D01*
X287378Y141169D01*
X295299D01*
X295228Y141711D01*
X294826Y142683D01*
X294186Y143517D01*
X293352Y144156D01*
X293106Y144258D01*
X293106Y144758D01*
X293443Y144898D01*
X294315Y145567D01*
X294984Y146439D01*
X295404Y147454D01*
X295548Y148543D01*
X295404Y149633D01*
X294984Y150648D01*
X294315Y151520D01*
X293443Y152189D01*
X293342Y152230D01*
Y152730D01*
X293443Y152772D01*
X294315Y153441D01*
X294984Y154313D01*
X295404Y155328D01*
X295548Y156417D01*
X295404Y157507D01*
X294984Y158522D01*
X294315Y159394D01*
X293828Y159768D01*
X293903Y160340D01*
X294185Y160457D01*
X294744Y160886D01*
X295173Y161445D01*
X295443Y162096D01*
X295535Y162795D01*
Y165787D01*
X295443Y166486D01*
X295173Y167138D01*
X294744Y167697D01*
X294185Y168126D01*
X293533Y168396D01*
X292835Y168488D01*
D02*
G37*
G36*
X121547Y153043D02*
X110223D01*
X110330Y151687D01*
X110765Y149877D01*
X111477Y148157D01*
X112450Y146570D01*
X113658Y145155D01*
X115074Y143946D01*
X116661Y142973D01*
X118381Y142261D01*
X120191Y141826D01*
X121547Y141719D01*
Y153043D01*
D02*
G37*
G36*
X405012Y147138D02*
X398573D01*
Y145669D01*
X398706Y144316D01*
X399101Y143014D01*
X399742Y141814D01*
X400605Y140763D01*
X401657Y139900D01*
X402856Y139259D01*
X404158Y138864D01*
X405012Y138780D01*
Y147138D01*
D02*
G37*
G36*
X201575Y146696D02*
X200290Y146527D01*
X199093Y146031D01*
X198065Y145242D01*
X197276Y144214D01*
X196780Y143017D01*
X196611Y141732D01*
X196780Y140447D01*
X197276Y139250D01*
X198065Y138222D01*
X199093Y137434D01*
X200290Y136938D01*
X201575Y136768D01*
X202859Y136938D01*
X204057Y137434D01*
X205085Y138222D01*
X205873Y139250D01*
X206369Y140447D01*
X206539Y141732D01*
X206369Y143017D01*
X205873Y144214D01*
X205085Y145242D01*
X204057Y146031D01*
X202859Y146527D01*
X201575Y146696D01*
D02*
G37*
G36*
X280071Y143683D02*
X279590Y143620D01*
X278677Y143241D01*
X277892Y142639D01*
X277290Y141855D01*
X276912Y140941D01*
X276782Y139961D01*
Y138295D01*
X280071D01*
Y143683D01*
D02*
G37*
G36*
X295299Y140169D02*
X291839D01*
Y136708D01*
X292381Y136780D01*
X293352Y137182D01*
X294186Y137822D01*
X294826Y138656D01*
X295228Y139627D01*
X295299Y140169D01*
D02*
G37*
G36*
X184252Y146696D02*
X182967Y146527D01*
X181770Y146031D01*
X180742Y145242D01*
X179953Y144214D01*
X179457Y143017D01*
X179288Y141732D01*
X179457Y140447D01*
X179953Y139250D01*
X180742Y138222D01*
X181770Y137434D01*
X182967Y136938D01*
X184252Y136768D01*
X185537Y136938D01*
X186734Y137434D01*
X187762Y138222D01*
X188551Y139250D01*
X189047Y140447D01*
X189216Y141732D01*
X189047Y143017D01*
X188551Y144214D01*
X187762Y145242D01*
X186734Y146031D01*
X185537Y146527D01*
X184252Y146696D01*
D02*
G37*
G36*
X281071Y143683D02*
Y138295D01*
X284359D01*
Y139961D01*
X284230Y140941D01*
X283852Y141855D01*
X283250Y142639D01*
X282465Y143241D01*
X281551Y143620D01*
X281071Y143683D01*
D02*
G37*
G36*
X365642Y147138D02*
X359203D01*
Y145669D01*
X359336Y144316D01*
X359731Y143014D01*
X360372Y141814D01*
X361235Y140763D01*
X362287Y139900D01*
X363486Y139259D01*
X364788Y138864D01*
X365642Y138780D01*
Y147138D01*
D02*
G37*
G36*
X373081D02*
X366642D01*
Y138780D01*
X367495Y138864D01*
X368797Y139259D01*
X369997Y139900D01*
X371048Y140763D01*
X371911Y141814D01*
X372552Y143014D01*
X372947Y144316D01*
X373081Y145669D01*
Y147138D01*
D02*
G37*
G36*
X301606Y143683D02*
X301126Y143620D01*
X300212Y143241D01*
X299428Y142639D01*
X298826Y141855D01*
X298447Y140941D01*
X298318Y139961D01*
Y138295D01*
X301606D01*
Y143683D01*
D02*
G37*
G36*
X302606D02*
Y138295D01*
X305895D01*
Y139961D01*
X305766Y140941D01*
X305387Y141855D01*
X304785Y142639D01*
X304000Y143241D01*
X303087Y143620D01*
X302606Y143683D01*
D02*
G37*
G36*
X479323Y118634D02*
X474909D01*
Y114220D01*
X475698Y114324D01*
X476467Y114642D01*
X476719Y114206D01*
X476229Y113830D01*
X475753Y113210D01*
X475454Y112487D01*
X475352Y111713D01*
Y110736D01*
X477846D01*
Y114641D01*
X477571Y114605D01*
X477282Y114485D01*
X477030Y114921D01*
X477931Y115613D01*
X478722Y116644D01*
X479219Y117845D01*
X479323Y118634D01*
D02*
G37*
G36*
X485244Y114641D02*
Y110736D01*
X487738D01*
Y111713D01*
X487636Y112487D01*
X487337Y113210D01*
X486861Y113830D01*
X486241Y114306D01*
X485519Y114605D01*
X485244Y114641D01*
D02*
G37*
G36*
X331685Y118634D02*
X327272D01*
Y114220D01*
X328061Y114324D01*
X328829Y114642D01*
X329081Y114206D01*
X328591Y113830D01*
X328116Y113210D01*
X327817Y112487D01*
X327715Y111713D01*
Y110736D01*
X330209D01*
Y114641D01*
X329934Y114605D01*
X329644Y114485D01*
X329392Y114921D01*
X330293Y115613D01*
X331084Y116644D01*
X331582Y117845D01*
X331685Y118634D01*
D02*
G37*
G36*
X337606Y114641D02*
Y110736D01*
X340100D01*
Y111713D01*
X339998Y112487D01*
X339699Y113210D01*
X339224Y113830D01*
X338603Y114306D01*
X337881Y114605D01*
X337606Y114641D01*
D02*
G37*
G36*
X336606D02*
X336331Y114605D01*
X335609Y114306D01*
X334989Y113830D01*
X334513Y113210D01*
X334214Y112487D01*
X334160Y112073D01*
X333655D01*
X333601Y112487D01*
X333302Y113210D01*
X332826Y113830D01*
X332206Y114306D01*
X331484Y114605D01*
X331209Y114641D01*
Y110236D01*
Y105832D01*
X331484Y105868D01*
X332206Y106167D01*
X332826Y106643D01*
X333302Y107263D01*
X333601Y107985D01*
X333655Y108399D01*
X334160D01*
X334214Y107985D01*
X334513Y107263D01*
X334989Y106643D01*
X335609Y106167D01*
X336331Y105868D01*
X336606Y105832D01*
Y110236D01*
Y114641D01*
D02*
G37*
G36*
X116685Y118791D02*
X113397D01*
Y117323D01*
X113526Y116342D01*
X113904Y115429D01*
X114506Y114644D01*
X115291Y114042D01*
X116205Y113664D01*
X116685Y113600D01*
Y118791D01*
D02*
G37*
G36*
X120973D02*
X117685D01*
Y113600D01*
X118166Y113664D01*
X119079Y114042D01*
X119864Y114644D01*
X120466Y115429D01*
X120844Y116342D01*
X120973Y117323D01*
Y118791D01*
D02*
G37*
G36*
X484244Y114641D02*
X483969Y114605D01*
X483247Y114306D01*
X482627Y113830D01*
X482151Y113210D01*
X481852Y112487D01*
X481797Y112073D01*
X481293D01*
X481239Y112487D01*
X480939Y113210D01*
X480464Y113830D01*
X479844Y114306D01*
X479121Y114605D01*
X478847Y114641D01*
Y110236D01*
Y105832D01*
X479121Y105868D01*
X479844Y106167D01*
X480464Y106643D01*
X480939Y107263D01*
X481239Y107985D01*
X481293Y108399D01*
X481797D01*
X481852Y107985D01*
X482151Y107263D01*
X482627Y106643D01*
X483247Y106167D01*
X483969Y105868D01*
X484244Y105832D01*
Y110236D01*
Y114641D01*
D02*
G37*
G36*
X261811Y126033D02*
X260321Y125837D01*
X258932Y125262D01*
X257739Y124347D01*
X256824Y123154D01*
X256249Y121766D01*
X256053Y120275D01*
Y119094D01*
X256249Y117604D01*
X256824Y116216D01*
X257739Y115023D01*
X258932Y114108D01*
X260321Y113533D01*
X261811Y113337D01*
X263301Y113533D01*
X264690Y114108D01*
X265882Y115023D01*
X266797Y116216D01*
X267373Y117604D01*
X267569Y119094D01*
Y120275D01*
X267373Y121766D01*
X266797Y123154D01*
X265882Y124347D01*
X264690Y125262D01*
X263301Y125837D01*
X261811Y126033D01*
D02*
G37*
G36*
X487738Y109736D02*
X485244D01*
Y105832D01*
X485519Y105868D01*
X486241Y106167D01*
X486861Y106643D01*
X487337Y107263D01*
X487636Y107985D01*
X487738Y108760D01*
Y109736D01*
D02*
G37*
G36*
X117472Y110415D02*
X116992Y110352D01*
X116078Y109974D01*
X115294Y109372D01*
X114692Y108587D01*
X114313Y107673D01*
X114184Y106693D01*
Y105224D01*
X117472D01*
Y110415D01*
D02*
G37*
G36*
X118472D02*
Y105224D01*
X121761D01*
Y106693D01*
X121632Y107673D01*
X121253Y108587D01*
X120651Y109372D01*
X119867Y109974D01*
X118953Y110352D01*
X118472Y110415D01*
D02*
G37*
G36*
X106299Y110078D02*
X105117Y109923D01*
X104016Y109467D01*
X103070Y108741D01*
X102344Y107795D01*
X101888Y106694D01*
X101733Y105512D01*
X101888Y104330D01*
X102344Y103228D01*
X103070Y102283D01*
X104016Y101557D01*
X105117Y101101D01*
X106299Y100945D01*
X107481Y101101D01*
X108582Y101557D01*
X109528Y102283D01*
X110254Y103228D01*
X110710Y104330D01*
X110866Y105512D01*
X110710Y106694D01*
X110254Y107795D01*
X109528Y108741D01*
X108582Y109467D01*
X107481Y109923D01*
X106299Y110078D01*
D02*
G37*
G36*
X161417Y109681D02*
X160338Y109539D01*
X159333Y109123D01*
X158469Y108460D01*
X157806Y107597D01*
X157390Y106591D01*
X157248Y105512D01*
X157390Y104433D01*
X157806Y103427D01*
X158469Y102564D01*
X159333Y101901D01*
X160338Y101484D01*
X161417Y101342D01*
X162496Y101484D01*
X163502Y101901D01*
X164366Y102564D01*
X165028Y103427D01*
X165445Y104433D01*
X165587Y105512D01*
X165445Y106591D01*
X165028Y107597D01*
X164366Y108460D01*
X163502Y109123D01*
X162496Y109539D01*
X161417Y109681D01*
D02*
G37*
G36*
X149244Y110415D02*
X148764Y110352D01*
X147850Y109974D01*
X147065Y109372D01*
X146463Y108587D01*
X146085Y107673D01*
X145956Y106693D01*
Y105224D01*
X149244D01*
Y110415D01*
D02*
G37*
G36*
X340100Y109736D02*
X337606D01*
Y105832D01*
X337881Y105868D01*
X338603Y106167D01*
X339224Y106643D01*
X339699Y107263D01*
X339998Y107985D01*
X340100Y108760D01*
Y109736D01*
D02*
G37*
G36*
X477846D02*
X475352D01*
Y108760D01*
X475454Y107985D01*
X475753Y107263D01*
X476229Y106643D01*
X476849Y106167D01*
X477571Y105868D01*
X477846Y105832D01*
Y109736D01*
D02*
G37*
G36*
X150244Y110415D02*
Y105224D01*
X153532D01*
Y106693D01*
X153403Y107673D01*
X153025Y108587D01*
X152423Y109372D01*
X151638Y109974D01*
X150724Y110352D01*
X150244Y110415D01*
D02*
G37*
G36*
X330209Y109736D02*
X327715D01*
Y108760D01*
X327817Y107985D01*
X328116Y107263D01*
X328591Y106643D01*
X329212Y106167D01*
X329934Y105868D01*
X330209Y105832D01*
Y109736D01*
D02*
G37*
G36*
X473910Y124048D02*
X473121Y123944D01*
X471920Y123446D01*
X470888Y122655D01*
X470097Y121624D01*
X469599Y120423D01*
X469496Y119634D01*
X473910D01*
Y124048D01*
D02*
G37*
G36*
X474909D02*
Y119634D01*
X479323D01*
X479219Y120423D01*
X478722Y121624D01*
X477931Y122655D01*
X476899Y123446D01*
X475698Y123944D01*
X474909Y124048D01*
D02*
G37*
G36*
X353831D02*
X353042Y123944D01*
X351841Y123446D01*
X350810Y122655D01*
X350018Y121624D01*
X349521Y120423D01*
X349417Y119634D01*
X353831D01*
Y124048D01*
D02*
G37*
G36*
X354831D02*
Y119634D01*
X359244D01*
X359141Y120423D01*
X358643Y121624D01*
X357852Y122655D01*
X356821Y123446D01*
X355620Y123944D01*
X354831Y124048D01*
D02*
G37*
G36*
X501469D02*
X500680Y123944D01*
X499479Y123446D01*
X498447Y122655D01*
X497656Y121624D01*
X497159Y120423D01*
X497055Y119634D01*
X501469D01*
Y124048D01*
D02*
G37*
G36*
X117685Y124982D02*
Y119791D01*
X120973D01*
Y121260D01*
X120844Y122240D01*
X120466Y123154D01*
X119864Y123939D01*
X119079Y124541D01*
X118166Y124919D01*
X117685Y124982D01*
D02*
G37*
G36*
X150031D02*
X149551Y124919D01*
X148637Y124541D01*
X147853Y123939D01*
X147251Y123154D01*
X146872Y122240D01*
X146743Y121260D01*
Y119791D01*
X150031D01*
Y124982D01*
D02*
G37*
G36*
X502468Y124048D02*
Y119634D01*
X506882D01*
X506778Y120423D01*
X506281Y121624D01*
X505490Y122655D01*
X504458Y123446D01*
X503257Y123944D01*
X502468Y124048D01*
D02*
G37*
G36*
X116685Y124982D02*
X116205Y124919D01*
X115291Y124541D01*
X114506Y123939D01*
X113904Y123154D01*
X113526Y122240D01*
X113397Y121260D01*
Y119791D01*
X116685D01*
Y124982D01*
D02*
G37*
G36*
X327272Y124048D02*
Y119634D01*
X331685D01*
X331582Y120423D01*
X331084Y121624D01*
X330293Y122655D01*
X329261Y123446D01*
X328061Y123944D01*
X327272Y124048D01*
D02*
G37*
G36*
X326272Y118634D02*
X321858D01*
X321962Y117845D01*
X322459Y116644D01*
X323251Y115613D01*
X324282Y114821D01*
X325483Y114324D01*
X326272Y114220D01*
Y118634D01*
D02*
G37*
G36*
X359244D02*
X354831D01*
Y114220D01*
X355620Y114324D01*
X356821Y114821D01*
X357852Y115613D01*
X358643Y116644D01*
X359141Y117845D01*
X359244Y118634D01*
D02*
G37*
G36*
X150031Y118791D02*
X146743D01*
Y117323D01*
X146872Y116342D01*
X147251Y115429D01*
X147853Y114644D01*
X148637Y114042D01*
X149551Y113664D01*
X150031Y113600D01*
Y118791D01*
D02*
G37*
G36*
X154320D02*
X151031D01*
Y113600D01*
X151512Y113664D01*
X152426Y114042D01*
X153210Y114644D01*
X153812Y115429D01*
X154191Y116342D01*
X154320Y117323D01*
Y118791D01*
D02*
G37*
G36*
X473910Y118634D02*
X469496D01*
X469599Y117845D01*
X470097Y116644D01*
X470888Y115613D01*
X471920Y114821D01*
X473121Y114324D01*
X473910Y114220D01*
Y118634D01*
D02*
G37*
G36*
X353831D02*
X349417D01*
X349521Y117845D01*
X350018Y116644D01*
X350810Y115613D01*
X351240Y115282D01*
X351042Y114804D01*
X350394Y114889D01*
X349571Y114781D01*
X348805Y114464D01*
X348147Y113959D01*
X347642Y113301D01*
X347465Y112874D01*
X346924D01*
X346747Y113301D01*
X346242Y113959D01*
X345585Y114464D01*
X344818Y114781D01*
X343996Y114889D01*
X343174Y114781D01*
X342408Y114464D01*
X341750Y113959D01*
X341245Y113301D01*
X340928Y112535D01*
X340819Y111713D01*
Y108760D01*
X340928Y107938D01*
X341245Y107171D01*
X341750Y106514D01*
X342408Y106009D01*
X343174Y105691D01*
X343996Y105583D01*
X344818Y105691D01*
X345585Y106009D01*
X346242Y106514D01*
X346747Y107171D01*
X346924Y107599D01*
X347465D01*
X347642Y107171D01*
X348147Y106514D01*
X348805Y106009D01*
X349571Y105691D01*
X350394Y105583D01*
X351216Y105691D01*
X351982Y106009D01*
X352640Y106514D01*
X353145Y107171D01*
X353462Y107938D01*
X353571Y108760D01*
Y111713D01*
X353462Y112535D01*
X353145Y113301D01*
X352640Y113959D01*
X352920Y114374D01*
X353042Y114324D01*
X353831Y114220D01*
Y118634D01*
D02*
G37*
G36*
X326272Y124048D02*
X325483Y123944D01*
X324282Y123446D01*
X323251Y122655D01*
X322459Y121624D01*
X321962Y120423D01*
X321858Y119634D01*
X326272D01*
Y124048D01*
D02*
G37*
G36*
X506882Y118634D02*
X502468D01*
Y114220D01*
X503257Y114324D01*
X504458Y114821D01*
X505490Y115613D01*
X506281Y116644D01*
X506778Y117845D01*
X506882Y118634D01*
D02*
G37*
G36*
X501469D02*
X497055D01*
X497159Y117845D01*
X497656Y116644D01*
X498447Y115613D01*
X498878Y115282D01*
X498680Y114804D01*
X498032Y114889D01*
X497209Y114781D01*
X496443Y114464D01*
X495785Y113959D01*
X495280Y113301D01*
X495103Y112874D01*
X494562D01*
X494385Y113301D01*
X493880Y113959D01*
X493222Y114464D01*
X492456Y114781D01*
X491634Y114889D01*
X490812Y114781D01*
X490045Y114464D01*
X489388Y113959D01*
X488883Y113301D01*
X488565Y112535D01*
X488457Y111713D01*
Y108760D01*
X488565Y107938D01*
X488883Y107171D01*
X489388Y106514D01*
X490045Y106009D01*
X490812Y105691D01*
X491634Y105583D01*
X492456Y105691D01*
X493222Y106009D01*
X493880Y106514D01*
X494385Y107171D01*
X494562Y107599D01*
X495103D01*
X495280Y107171D01*
X495785Y106514D01*
X496443Y106009D01*
X497209Y105691D01*
X498032Y105583D01*
X498854Y105691D01*
X499620Y106009D01*
X500278Y106514D01*
X500783Y107171D01*
X501100Y107938D01*
X501208Y108760D01*
Y111713D01*
X501100Y112535D01*
X500783Y113301D01*
X500278Y113959D01*
X500558Y114374D01*
X500680Y114324D01*
X501469Y114220D01*
Y118634D01*
D02*
G37*
G36*
X487689Y349894D02*
X476365D01*
X476472Y348538D01*
X476906Y346728D01*
X477619Y345008D01*
X478591Y343421D01*
X479800Y342005D01*
X481216Y340796D01*
X482803Y339823D01*
X484523Y339111D01*
X486333Y338676D01*
X487689Y338570D01*
Y349894D01*
D02*
G37*
G36*
X500013D02*
X488689D01*
Y338570D01*
X490045Y338676D01*
X491855Y339111D01*
X493575Y339823D01*
X495162Y340796D01*
X496578Y342005D01*
X497787Y343421D01*
X498759Y345008D01*
X499472Y346728D01*
X499906Y348538D01*
X500013Y349894D01*
D02*
G37*
G36*
X345957D02*
X334633D01*
X334739Y348538D01*
X335174Y346728D01*
X335886Y345008D01*
X336859Y343421D01*
X338068Y342005D01*
X339484Y340796D01*
X341071Y339823D01*
X342791Y339111D01*
X344601Y338676D01*
X345957Y338570D01*
Y349894D01*
D02*
G37*
G36*
X358281D02*
X346957D01*
Y338570D01*
X348312Y338676D01*
X350123Y339111D01*
X351842Y339823D01*
X353430Y340796D01*
X354845Y342005D01*
X356054Y343421D01*
X357027Y345008D01*
X357739Y346728D01*
X358174Y348538D01*
X358281Y349894D01*
D02*
G37*
G36*
X232441Y354563D02*
X231362Y354421D01*
X230356Y354005D01*
X229493Y353342D01*
X228830Y352478D01*
X228414Y351473D01*
X228271Y350394D01*
X228414Y349314D01*
X228830Y348309D01*
X229493Y347445D01*
X230356Y346783D01*
X231362Y346366D01*
X232441Y346224D01*
X233520Y346366D01*
X234526Y346783D01*
X235389Y347445D01*
X236052Y348309D01*
X236468Y349314D01*
X236610Y350394D01*
X236468Y351473D01*
X236052Y352478D01*
X235389Y353342D01*
X234526Y354005D01*
X233520Y354421D01*
X232441Y354563D01*
D02*
G37*
G36*
X121547Y362218D02*
X120191Y362111D01*
X118381Y361676D01*
X116661Y360964D01*
X115074Y359991D01*
X113658Y358782D01*
X112450Y357367D01*
X111477Y355780D01*
X110765Y354060D01*
X110330Y352250D01*
X110223Y350894D01*
X121547D01*
Y362218D01*
D02*
G37*
G36*
X122547D02*
Y350894D01*
X133871D01*
X133765Y352250D01*
X133330Y354060D01*
X132617Y355780D01*
X131645Y357367D01*
X130436Y358782D01*
X129020Y359991D01*
X127433Y360964D01*
X125713Y361676D01*
X123903Y362111D01*
X122547Y362218D01*
D02*
G37*
G36*
X221941Y349894D02*
X218488D01*
Y346441D01*
X221941D01*
Y349894D01*
D02*
G37*
G36*
X226394D02*
X222941D01*
Y346441D01*
X226394D01*
Y349894D01*
D02*
G37*
G36*
X275604D02*
X264280D01*
Y338570D01*
X265635Y338676D01*
X267445Y339111D01*
X269165Y339823D01*
X270753Y340796D01*
X272168Y342005D01*
X273377Y343421D01*
X274350Y345008D01*
X275062Y346728D01*
X275497Y348538D01*
X275604Y349894D01*
D02*
G37*
G36*
X222441Y334563D02*
X221362Y334421D01*
X220356Y334005D01*
X219493Y333342D01*
X218830Y332478D01*
X218413Y331473D01*
X218271Y330394D01*
X218413Y329314D01*
X218830Y328309D01*
X219493Y327445D01*
X220356Y326783D01*
X221362Y326366D01*
X222441Y326224D01*
X223520Y326366D01*
X224526Y326783D01*
X225389Y327445D01*
X226052Y328309D01*
X226468Y329314D01*
X226610Y330394D01*
X226468Y331473D01*
X226052Y332478D01*
X225389Y333342D01*
X224526Y334005D01*
X223520Y334421D01*
X222441Y334563D01*
D02*
G37*
G36*
X232441D02*
X231362Y334421D01*
X230356Y334005D01*
X229493Y333342D01*
X228830Y332478D01*
X228414Y331473D01*
X228271Y330394D01*
X228414Y329314D01*
X228830Y328309D01*
X229493Y327445D01*
X230356Y326783D01*
X231362Y326366D01*
X232441Y326224D01*
X233520Y326366D01*
X234526Y326783D01*
X235389Y327445D01*
X236052Y328309D01*
X236468Y329314D01*
X236610Y330394D01*
X236468Y331473D01*
X236052Y332478D01*
X235389Y333342D01*
X234526Y334005D01*
X233520Y334421D01*
X232441Y334563D01*
D02*
G37*
G36*
Y324563D02*
X231362Y324421D01*
X230356Y324005D01*
X229493Y323342D01*
X228830Y322478D01*
X228414Y321473D01*
X228271Y320394D01*
X228414Y319315D01*
X228830Y318309D01*
X229493Y317445D01*
X230356Y316783D01*
X231362Y316366D01*
X232441Y316224D01*
X233520Y316366D01*
X234526Y316783D01*
X235389Y317445D01*
X236052Y318309D01*
X236468Y319315D01*
X236610Y320394D01*
X236468Y321473D01*
X236052Y322478D01*
X235389Y323342D01*
X234526Y324005D01*
X233520Y324421D01*
X232441Y324563D01*
D02*
G37*
G36*
X358799Y327826D02*
X353799D01*
X353099Y327734D01*
X352447Y327464D01*
X351887Y327034D01*
X351457Y326474D01*
X351187Y325822D01*
X351095Y325122D01*
Y322122D01*
X351187Y321422D01*
X351457Y320770D01*
X351887Y320210D01*
X352447Y319780D01*
X353099Y319510D01*
X353799Y319418D01*
X358799D01*
X359499Y319510D01*
X360151Y319780D01*
X360711Y320210D01*
X361141Y320770D01*
X361411Y321422D01*
X361503Y322122D01*
Y325122D01*
X361411Y325822D01*
X361141Y326474D01*
X360711Y327034D01*
X360151Y327464D01*
X359499Y327734D01*
X358799Y327826D01*
D02*
G37*
G36*
X222441Y344563D02*
X221362Y344421D01*
X220356Y344005D01*
X219493Y343342D01*
X218830Y342478D01*
X218413Y341473D01*
X218271Y340394D01*
X218413Y339315D01*
X218830Y338309D01*
X219493Y337445D01*
X220356Y336783D01*
X221362Y336366D01*
X222441Y336224D01*
X223520Y336366D01*
X224526Y336783D01*
X225389Y337445D01*
X226052Y338309D01*
X226468Y339315D01*
X226610Y340394D01*
X226468Y341473D01*
X226052Y342478D01*
X225389Y343342D01*
X224526Y344005D01*
X223520Y344421D01*
X222441Y344563D01*
D02*
G37*
G36*
X133871Y349894D02*
X122547D01*
Y338570D01*
X123903Y338676D01*
X125713Y339111D01*
X127433Y339823D01*
X129020Y340796D01*
X130436Y342005D01*
X131645Y343421D01*
X132617Y345008D01*
X133330Y346728D01*
X133765Y348538D01*
X133871Y349894D01*
D02*
G37*
G36*
X263280D02*
X251956D01*
X252062Y348538D01*
X252497Y346728D01*
X253209Y345008D01*
X254182Y343421D01*
X255391Y342005D01*
X256806Y340796D01*
X258394Y339823D01*
X260114Y339111D01*
X261924Y338676D01*
X263280Y338570D01*
Y349894D01*
D02*
G37*
G36*
X232441Y344563D02*
X231362Y344421D01*
X230356Y344005D01*
X229493Y343342D01*
X228830Y342478D01*
X228414Y341473D01*
X228271Y340394D01*
X228414Y339315D01*
X228830Y338309D01*
X229493Y337445D01*
X230356Y336783D01*
X231362Y336366D01*
X232441Y336224D01*
X233520Y336366D01*
X234526Y336783D01*
X235389Y337445D01*
X236052Y338309D01*
X236468Y339315D01*
X236610Y340394D01*
X236468Y341473D01*
X236052Y342478D01*
X235389Y343342D01*
X234526Y344005D01*
X233520Y344421D01*
X232441Y344563D01*
D02*
G37*
G36*
X121547Y349894D02*
X110223D01*
X110330Y348538D01*
X110765Y346728D01*
X111477Y345008D01*
X112450Y343421D01*
X113658Y342005D01*
X115074Y340796D01*
X116661Y339823D01*
X118381Y339111D01*
X120191Y338676D01*
X121547Y338570D01*
Y349894D01*
D02*
G37*
G36*
X413146Y357768D02*
X409201D01*
Y353823D01*
X413146D01*
Y357768D01*
D02*
G37*
G36*
X408201Y362713D02*
X404256D01*
Y358768D01*
X408201D01*
Y362713D01*
D02*
G37*
G36*
X398701Y362934D02*
X397493Y362775D01*
X396368Y362309D01*
X395402Y361567D01*
X394660Y360601D01*
X394194Y359475D01*
X394035Y358268D01*
X394194Y357060D01*
X394660Y355935D01*
X395402Y354968D01*
X396368Y354227D01*
X397493Y353761D01*
X398701Y353602D01*
X399908Y353761D01*
X401034Y354227D01*
X402000Y354968D01*
X402741Y355935D01*
X403208Y357060D01*
X403367Y358268D01*
X403208Y359475D01*
X402741Y360601D01*
X402000Y361567D01*
X401034Y362309D01*
X399908Y362775D01*
X398701Y362934D01*
D02*
G37*
G36*
X408201Y357768D02*
X404256D01*
Y353823D01*
X408201D01*
Y357768D01*
D02*
G37*
G36*
X413146Y362713D02*
X409201D01*
Y358768D01*
X413146D01*
Y362713D01*
D02*
G37*
G36*
X168949Y370740D02*
X168405Y370669D01*
X167431Y370266D01*
X166596Y369624D01*
X165955Y368789D01*
X165552Y367816D01*
X165480Y367272D01*
X168949D01*
Y370740D01*
D02*
G37*
G36*
X179949D02*
Y367272D01*
X183417D01*
X183346Y367816D01*
X182943Y368789D01*
X182302Y369624D01*
X181466Y370266D01*
X180493Y370669D01*
X179949Y370740D01*
D02*
G37*
G36*
X168949Y366272D02*
X165480D01*
X165552Y365727D01*
X165955Y364754D01*
X166596Y363919D01*
X167431Y363278D01*
X168405Y362875D01*
X168949Y362803D01*
Y366272D01*
D02*
G37*
G36*
X183417D02*
X179949D01*
Y362803D01*
X180493Y362875D01*
X181466Y363278D01*
X182302Y363919D01*
X182943Y364754D01*
X183346Y365727D01*
X183417Y366272D01*
D02*
G37*
G36*
X388701Y362934D02*
X387493Y362775D01*
X386368Y362309D01*
X385402Y361567D01*
X384660Y360601D01*
X384194Y359475D01*
X384035Y358268D01*
X384194Y357060D01*
X384660Y355935D01*
X385402Y354968D01*
X386368Y354227D01*
X387493Y353761D01*
X388701Y353602D01*
X389908Y353761D01*
X391034Y354227D01*
X392000Y354968D01*
X392741Y355935D01*
X393208Y357060D01*
X393367Y358268D01*
X393208Y359475D01*
X392741Y360601D01*
X392000Y361567D01*
X391034Y362309D01*
X389908Y362775D01*
X388701Y362934D01*
D02*
G37*
G36*
X263280Y362218D02*
X261924Y362111D01*
X260114Y361676D01*
X258394Y360964D01*
X256806Y359991D01*
X255391Y358782D01*
X254182Y357367D01*
X253209Y355780D01*
X252497Y354060D01*
X252062Y352250D01*
X251956Y350894D01*
X263280D01*
Y362218D01*
D02*
G37*
G36*
X264280D02*
Y350894D01*
X275604D01*
X275497Y352250D01*
X275062Y354060D01*
X274350Y355780D01*
X273377Y357367D01*
X272168Y358782D01*
X270753Y359991D01*
X269165Y360964D01*
X267445Y361676D01*
X265635Y362111D01*
X264280Y362218D01*
D02*
G37*
G36*
X221941Y354346D02*
X218488D01*
Y350894D01*
X221941D01*
Y354346D01*
D02*
G37*
G36*
X226394D02*
X222941D01*
Y350894D01*
X226394D01*
Y354346D01*
D02*
G37*
G36*
X345957Y362218D02*
X344601Y362111D01*
X342791Y361676D01*
X341071Y360964D01*
X339484Y359991D01*
X338068Y358782D01*
X336859Y357367D01*
X335886Y355780D01*
X335174Y354060D01*
X334739Y352250D01*
X334633Y350894D01*
X345957D01*
Y362218D01*
D02*
G37*
G36*
X488689D02*
Y350894D01*
X500013D01*
X499906Y352250D01*
X499472Y354060D01*
X498759Y355780D01*
X497787Y357367D01*
X496578Y358782D01*
X495162Y359991D01*
X493575Y360964D01*
X491855Y361676D01*
X490045Y362111D01*
X488689Y362218D01*
D02*
G37*
G36*
X378701Y362934D02*
X377493Y362775D01*
X376368Y362309D01*
X375401Y361567D01*
X374660Y360601D01*
X374194Y359475D01*
X374035Y358268D01*
X374194Y357060D01*
X374660Y355935D01*
X375401Y354968D01*
X376368Y354227D01*
X377493Y353761D01*
X378701Y353602D01*
X379908Y353761D01*
X381034Y354227D01*
X382000Y354968D01*
X382741Y355935D01*
X383208Y357060D01*
X383367Y358268D01*
X383208Y359475D01*
X382741Y360601D01*
X382000Y361567D01*
X381034Y362309D01*
X379908Y362775D01*
X378701Y362934D01*
D02*
G37*
G36*
X346957Y362218D02*
Y350894D01*
X358281D01*
X358174Y352250D01*
X357739Y354060D01*
X357027Y355780D01*
X356054Y357367D01*
X354845Y358782D01*
X353430Y359991D01*
X351842Y360964D01*
X350123Y361676D01*
X348312Y362111D01*
X346957Y362218D01*
D02*
G37*
G36*
X487689D02*
X486333Y362111D01*
X484523Y361676D01*
X482803Y360964D01*
X481216Y359991D01*
X479800Y358782D01*
X478591Y357367D01*
X477619Y355780D01*
X476906Y354060D01*
X476472Y352250D01*
X476365Y350894D01*
X487689D01*
Y362218D01*
D02*
G37*
G36*
Y165367D02*
X486333Y165261D01*
X484523Y164826D01*
X482803Y164114D01*
X481216Y163141D01*
X479800Y161932D01*
X478591Y160516D01*
X477619Y158929D01*
X476906Y157209D01*
X476472Y155399D01*
X476365Y154043D01*
X487689D01*
Y165367D01*
D02*
G37*
G36*
X488689D02*
Y154043D01*
X500013D01*
X499906Y155399D01*
X499472Y157209D01*
X498759Y158929D01*
X497787Y160516D01*
X496578Y161932D01*
X495162Y163141D01*
X493575Y164114D01*
X491855Y164826D01*
X490045Y165261D01*
X488689Y165367D01*
D02*
G37*
G36*
X121547D02*
X120191Y165261D01*
X118381Y164826D01*
X116661Y164114D01*
X115074Y163141D01*
X113658Y161932D01*
X112450Y160516D01*
X111477Y158929D01*
X110765Y157209D01*
X110330Y155399D01*
X110223Y154043D01*
X121547D01*
Y165367D01*
D02*
G37*
G36*
X122547D02*
Y154043D01*
X133871D01*
X133765Y155399D01*
X133330Y157209D01*
X132617Y158929D01*
X131645Y160516D01*
X130436Y161932D01*
X129020Y163141D01*
X127433Y164114D01*
X125713Y164826D01*
X123903Y165261D01*
X122547Y165367D01*
D02*
G37*
G36*
X280071Y164854D02*
X276782D01*
Y163189D01*
X276912Y162208D01*
X277290Y161295D01*
X277892Y160510D01*
X278677Y159908D01*
X279590Y159530D01*
X280071Y159466D01*
Y164854D01*
D02*
G37*
G36*
X305895D02*
X302606D01*
Y159466D01*
X303087Y159530D01*
X304000Y159908D01*
X304785Y160510D01*
X305387Y161295D01*
X305766Y162208D01*
X305895Y163189D01*
Y164854D01*
D02*
G37*
G36*
X280071Y171242D02*
X279590Y171179D01*
X278677Y170800D01*
X277892Y170198D01*
X277290Y169414D01*
X276912Y168500D01*
X276782Y167520D01*
Y165854D01*
X280071D01*
Y171242D01*
D02*
G37*
G36*
X284359Y164854D02*
X281071D01*
Y159466D01*
X281551Y159530D01*
X282465Y159908D01*
X283250Y160510D01*
X283852Y161295D01*
X284230Y162208D01*
X284359Y163189D01*
Y164854D01*
D02*
G37*
G36*
X301606D02*
X298318D01*
Y163189D01*
X298447Y162208D01*
X298826Y161295D01*
X299428Y160510D01*
X300212Y159908D01*
X301126Y159530D01*
X301606Y159466D01*
Y164854D01*
D02*
G37*
G36*
X463098Y156496D02*
Y148138D01*
X469537D01*
Y149606D01*
X469404Y150960D01*
X469009Y152262D01*
X468368Y153461D01*
X467505Y154513D01*
X466453Y155376D01*
X465254Y156017D01*
X463952Y156412D01*
X463098Y156496D01*
D02*
G37*
G36*
X365642D02*
X364788Y156412D01*
X363486Y156017D01*
X362287Y155376D01*
X361235Y154513D01*
X360372Y153461D01*
X359731Y152262D01*
X359336Y150960D01*
X359203Y149606D01*
Y148138D01*
X365642D01*
Y156496D01*
D02*
G37*
G36*
X366642D02*
Y148138D01*
X373081D01*
Y149606D01*
X372947Y150960D01*
X372552Y152262D01*
X371911Y153461D01*
X371048Y154513D01*
X369997Y155376D01*
X368797Y156017D01*
X367495Y156412D01*
X366642Y156496D01*
D02*
G37*
G36*
X500013Y153043D02*
X488689D01*
Y141719D01*
X490045Y141826D01*
X491855Y142261D01*
X493575Y142973D01*
X495162Y143946D01*
X496578Y145155D01*
X497787Y146570D01*
X498759Y148157D01*
X499472Y149877D01*
X499906Y151687D01*
X500013Y153043D01*
D02*
G37*
G36*
X260433Y155364D02*
X259252D01*
X257762Y155168D01*
X256373Y154593D01*
X255181Y153678D01*
X254265Y152485D01*
X253690Y151096D01*
X253494Y149606D01*
X253690Y148116D01*
X254265Y146727D01*
X255181Y145535D01*
X256373Y144620D01*
X257762Y144044D01*
X259252Y143848D01*
X260433D01*
X261923Y144044D01*
X263312Y144620D01*
X264505Y145535D01*
X265420Y146727D01*
X265995Y148116D01*
X266191Y149606D01*
X265995Y151096D01*
X265420Y152485D01*
X264505Y153678D01*
X263312Y154593D01*
X261923Y155168D01*
X260433Y155364D01*
D02*
G37*
G36*
X405012Y156496D02*
X404158Y156412D01*
X402856Y156017D01*
X401657Y155376D01*
X400605Y154513D01*
X399742Y153461D01*
X399101Y152262D01*
X398706Y150960D01*
X398573Y149606D01*
Y148138D01*
X405012D01*
Y156496D01*
D02*
G37*
G36*
X423728D02*
Y148138D01*
X430167D01*
Y149606D01*
X430034Y150960D01*
X429639Y152262D01*
X428998Y153461D01*
X428135Y154513D01*
X427083Y155376D01*
X425884Y156017D01*
X424582Y156412D01*
X423728Y156496D01*
D02*
G37*
G36*
X462098D02*
X461245Y156412D01*
X459943Y156017D01*
X458743Y155376D01*
X457692Y154513D01*
X456829Y153461D01*
X456188Y152262D01*
X455793Y150960D01*
X455659Y149606D01*
Y148138D01*
X462098D01*
Y156496D01*
D02*
G37*
G36*
X406012D02*
Y148138D01*
X412451D01*
Y149606D01*
X412317Y150960D01*
X411923Y152262D01*
X411281Y153461D01*
X410418Y154513D01*
X409367Y155376D01*
X408167Y156017D01*
X406866Y156412D01*
X406012Y156496D01*
D02*
G37*
G36*
X422728D02*
X421875Y156412D01*
X420573Y156017D01*
X419373Y155376D01*
X418322Y154513D01*
X417459Y153461D01*
X416818Y152262D01*
X416423Y150960D01*
X416289Y149606D01*
Y148138D01*
X422728D01*
Y156496D01*
D02*
G37*
G36*
X355799Y297671D02*
X353799D01*
X352824Y297477D01*
X351997Y296924D01*
X351444Y296097D01*
X351250Y295122D01*
Y294122D01*
X355799D01*
Y297671D01*
D02*
G37*
G36*
X358799D02*
X356799D01*
Y294122D01*
X361348D01*
Y295122D01*
X361154Y296097D01*
X360602Y296924D01*
X359775Y297477D01*
X358799Y297671D01*
D02*
G37*
G36*
X355799Y293122D02*
X351250D01*
Y292122D01*
X351444Y291146D01*
X351997Y290320D01*
X352824Y289767D01*
X353799Y289573D01*
X355799D01*
Y293122D01*
D02*
G37*
G36*
X361348D02*
X356799D01*
Y289573D01*
X358799D01*
X359775Y289767D01*
X360602Y290320D01*
X361154Y291146D01*
X361348Y292122D01*
Y293122D01*
D02*
G37*
G36*
X358799Y307826D02*
X353799D01*
X353099Y307734D01*
X352447Y307464D01*
X351887Y307034D01*
X351457Y306474D01*
X351187Y305822D01*
X351095Y305122D01*
Y302122D01*
X351187Y301422D01*
X351457Y300770D01*
X351887Y300210D01*
X352447Y299780D01*
X353099Y299510D01*
X353799Y299418D01*
X358799D01*
X359499Y299510D01*
X360151Y299780D01*
X360711Y300210D01*
X361141Y300770D01*
X361411Y301422D01*
X361503Y302122D01*
Y305122D01*
X361411Y305822D01*
X361141Y306474D01*
X360711Y307034D01*
X360151Y307464D01*
X359499Y307734D01*
X358799Y307826D01*
D02*
G37*
G36*
Y317826D02*
X353799D01*
X353099Y317734D01*
X352447Y317464D01*
X351887Y317034D01*
X351457Y316474D01*
X351187Y315822D01*
X351095Y315122D01*
Y312122D01*
X351187Y311422D01*
X351457Y310770D01*
X351887Y310210D01*
X352447Y309780D01*
X353099Y309510D01*
X353799Y309418D01*
X358799D01*
X359499Y309510D01*
X360151Y309780D01*
X360711Y310210D01*
X361141Y310770D01*
X361411Y311422D01*
X361503Y312122D01*
Y315122D01*
X361411Y315822D01*
X361141Y316474D01*
X360711Y317034D01*
X360151Y317464D01*
X359499Y317734D01*
X358799Y317826D01*
D02*
G37*
G36*
X222441Y324563D02*
X221362Y324421D01*
X220356Y324005D01*
X219493Y323342D01*
X218830Y322478D01*
X218413Y321473D01*
X218271Y320394D01*
X218413Y319315D01*
X218830Y318309D01*
X219493Y317445D01*
X220356Y316783D01*
X221362Y316366D01*
X222441Y316224D01*
X223520Y316366D01*
X224526Y316783D01*
X225389Y317445D01*
X226052Y318309D01*
X226468Y319315D01*
X226610Y320394D01*
X226468Y321473D01*
X226052Y322478D01*
X225389Y323342D01*
X224526Y324005D01*
X223520Y324421D01*
X222441Y324563D01*
D02*
G37*
G36*
Y314563D02*
X221362Y314421D01*
X220356Y314005D01*
X219493Y313342D01*
X218830Y312478D01*
X218413Y311473D01*
X218271Y310394D01*
X218413Y309314D01*
X218830Y308309D01*
X219493Y307445D01*
X220356Y306783D01*
X221362Y306366D01*
X222441Y306224D01*
X223520Y306366D01*
X224526Y306783D01*
X225389Y307445D01*
X226052Y308309D01*
X226468Y309314D01*
X226610Y310394D01*
X226468Y311473D01*
X226052Y312478D01*
X225389Y313342D01*
X224526Y314005D01*
X223520Y314421D01*
X222441Y314563D01*
D02*
G37*
G36*
X232441D02*
X231362Y314421D01*
X230356Y314005D01*
X229493Y313342D01*
X228830Y312478D01*
X228414Y311473D01*
X228271Y310394D01*
X228414Y309314D01*
X228830Y308309D01*
X229493Y307445D01*
X230356Y306783D01*
X231362Y306366D01*
X232441Y306224D01*
X233520Y306366D01*
X234526Y306783D01*
X235389Y307445D01*
X236052Y308309D01*
X236468Y309314D01*
X236610Y310394D01*
X236468Y311473D01*
X236052Y312478D01*
X235389Y313342D01*
X234526Y314005D01*
X233520Y314421D01*
X232441Y314563D01*
D02*
G37*
G36*
X358799Y287826D02*
X353799D01*
X353099Y287734D01*
X352447Y287464D01*
X351887Y287034D01*
X351457Y286474D01*
X351187Y285822D01*
X351095Y285122D01*
Y282122D01*
X351187Y281422D01*
X351457Y280770D01*
X351887Y280210D01*
X352447Y279780D01*
X353099Y279510D01*
X353799Y279418D01*
X358799D01*
X359499Y279510D01*
X360151Y279780D01*
X360711Y280210D01*
X361141Y280770D01*
X361411Y281422D01*
X361503Y282122D01*
Y285122D01*
X361411Y285822D01*
X361141Y286474D01*
X360711Y287034D01*
X360151Y287464D01*
X359499Y287734D01*
X358799Y287826D01*
D02*
G37*
G36*
X302606Y171242D02*
Y165854D01*
X305895D01*
Y167520D01*
X305766Y168500D01*
X305387Y169414D01*
X304785Y170198D01*
X304000Y170800D01*
X303087Y171179D01*
X302606Y171242D01*
D02*
G37*
G36*
X269685Y180342D02*
X242126D01*
X241304Y180234D01*
X240538Y179917D01*
X239880Y179412D01*
X239375Y178754D01*
X239057Y177988D01*
X238949Y177165D01*
X239057Y176343D01*
X239375Y175577D01*
X239880Y174919D01*
X240538Y174414D01*
X241304Y174097D01*
X242126Y173988D01*
X269685D01*
X270507Y174097D01*
X271273Y174414D01*
X271931Y174919D01*
X272436Y175577D01*
X272754Y176343D01*
X272862Y177165D01*
X272754Y177988D01*
X272436Y178754D01*
X271931Y179412D01*
X271273Y179917D01*
X270507Y180234D01*
X269685Y180342D01*
D02*
G37*
G36*
X281071Y171242D02*
Y165854D01*
X284359D01*
Y167520D01*
X284230Y168500D01*
X283852Y169414D01*
X283250Y170198D01*
X282465Y170800D01*
X281551Y171179D01*
X281071Y171242D01*
D02*
G37*
G36*
X301606D02*
X301126Y171179D01*
X300212Y170800D01*
X299428Y170198D01*
X298826Y169414D01*
X298447Y168500D01*
X298318Y167520D01*
Y165854D01*
X301606D01*
Y171242D01*
D02*
G37*
G36*
X181299Y201222D02*
X180066Y201059D01*
X178917Y200583D01*
X177930Y199826D01*
X177172Y198839D01*
X176696Y197690D01*
X176534Y196457D01*
X176696Y195223D01*
X177172Y194074D01*
X177930Y193087D01*
X178917Y192330D01*
X180066Y191854D01*
X180570Y191788D01*
Y191283D01*
X180066Y191217D01*
X178917Y190741D01*
X177930Y189984D01*
X177172Y188997D01*
X176696Y187847D01*
X176534Y186614D01*
X176696Y185381D01*
X177172Y184231D01*
X177930Y183245D01*
X178917Y182487D01*
X180066Y182011D01*
X181299Y181849D01*
X182533Y182011D01*
X183682Y182487D01*
X184669Y183245D01*
X185426Y184231D01*
X185902Y185381D01*
X186064Y186614D01*
X185902Y187847D01*
X185426Y188997D01*
X184669Y189984D01*
X183682Y190741D01*
X182533Y191217D01*
X182029Y191283D01*
Y191788D01*
X182533Y191854D01*
X183682Y192330D01*
X184669Y193087D01*
X185426Y194074D01*
X185902Y195223D01*
X186064Y196457D01*
X185902Y197690D01*
X185426Y198839D01*
X184669Y199826D01*
X183682Y200583D01*
X182533Y201059D01*
X181299Y201222D01*
D02*
G37*
G36*
X361480Y277803D02*
X351118D01*
Y269441D01*
X361480D01*
Y277803D01*
D02*
G37*
G36*
X480315Y299653D02*
X479393Y299469D01*
X478612Y298947D01*
X478090Y298166D01*
X477906Y297244D01*
X478090Y296322D01*
X478609Y295545D01*
Y283195D01*
X478090Y282418D01*
X477906Y281496D01*
X478090Y280574D01*
X478612Y279793D01*
X479393Y279271D01*
X480315Y279087D01*
X481237Y279271D01*
X482018Y279793D01*
X482540Y280574D01*
X482723Y281496D01*
X482540Y282418D01*
X482021Y283195D01*
Y295545D01*
X482540Y296322D01*
X482723Y297244D01*
X482540Y298166D01*
X482018Y298947D01*
X481237Y299469D01*
X480315Y299653D01*
D02*
G37*
G36*
X204527Y201222D02*
X203294Y201059D01*
X202145Y200583D01*
X201158Y199826D01*
X200401Y198839D01*
X199925Y197690D01*
X199762Y196457D01*
X199925Y195223D01*
X200401Y194074D01*
X201158Y193087D01*
X202145Y192330D01*
X203294Y191854D01*
X203798Y191788D01*
Y191283D01*
X203294Y191217D01*
X202145Y190741D01*
X201158Y189984D01*
X200401Y188997D01*
X199925Y187847D01*
X199762Y186614D01*
X199925Y185381D01*
X200401Y184231D01*
X201158Y183245D01*
X202145Y182487D01*
X203294Y182011D01*
X204527Y181849D01*
X205761Y182011D01*
X206910Y182487D01*
X207897Y183245D01*
X208654Y184231D01*
X209130Y185381D01*
X209293Y186614D01*
X209130Y187847D01*
X208654Y188997D01*
X207897Y189984D01*
X206910Y190741D01*
X205761Y191217D01*
X205257Y191283D01*
Y191788D01*
X205761Y191854D01*
X206910Y192330D01*
X207897Y193087D01*
X208654Y194074D01*
X209130Y195223D01*
X209293Y196457D01*
X209130Y197690D01*
X208654Y198839D01*
X207897Y199826D01*
X206910Y200583D01*
X205761Y201059D01*
X204527Y201222D01*
D02*
G37*
G36*
X470472Y257114D02*
X375984D01*
X375162Y257006D01*
X374396Y256688D01*
X373738Y256183D01*
X373233Y255525D01*
X372916Y254759D01*
X372807Y253937D01*
X372916Y253115D01*
X373233Y252349D01*
X373738Y251691D01*
X374396Y251186D01*
X375162Y250868D01*
X375984Y250760D01*
X470472D01*
X471295Y250868D01*
X472061Y251186D01*
X472719Y251691D01*
X473224Y252349D01*
X473541Y253115D01*
X473649Y253937D01*
X473541Y254759D01*
X473224Y255525D01*
X472719Y256183D01*
X472061Y256688D01*
X471295Y257006D01*
X470472Y257114D01*
D02*
G37*
%LPD*%
D24*
X480315Y281496D02*
Y297244D01*
D26*
X452756Y131890D02*
Y134646D01*
D27*
X204527Y196457D02*
X204921Y196850D01*
X244094Y106299D02*
Y118110D01*
X391732Y253937D02*
X407480D01*
X423228D01*
X438976D01*
X454724D01*
X470472D01*
X375984D02*
X391732D01*
X244094Y118110D02*
X251969Y125984D01*
X242126Y177165D02*
X269685D01*
D30*
X488189Y153543D02*
D03*
X122047D02*
D03*
Y350394D02*
D03*
X263779D02*
D03*
X346457D02*
D03*
X488189D02*
D03*
D31*
X356299Y323622D02*
D03*
Y313622D02*
D03*
Y303622D02*
D03*
Y293622D02*
D03*
Y283622D02*
D03*
D32*
Y273622D02*
D03*
D33*
X291338Y164291D02*
D03*
D34*
Y156417D02*
D03*
Y148543D02*
D03*
Y140669D02*
D03*
D35*
X280571Y137795D02*
D03*
X302106D02*
D03*
Y165354D02*
D03*
X280571D02*
D03*
D36*
X436791Y358268D02*
D03*
D37*
X244094Y106299D02*
D03*
X259842Y149606D02*
D03*
D38*
X223622Y137008D02*
D03*
X234252Y131496D02*
D03*
X261811Y119685D02*
D03*
D39*
X378701Y358268D02*
D03*
X388701D02*
D03*
X398701D02*
D03*
D40*
X408701D02*
D03*
D41*
X474409Y119134D02*
D03*
X501968D02*
D03*
X326772D02*
D03*
X354331D02*
D03*
D42*
X478346Y110236D02*
D03*
X498032D02*
D03*
X484744D02*
D03*
X491634D02*
D03*
X330709D02*
D03*
X350394D02*
D03*
X337106D02*
D03*
X343996D02*
D03*
D43*
X179449Y366772D02*
D03*
Y356772D02*
D03*
X169449D02*
D03*
Y366772D02*
D03*
D44*
X452756Y134646D02*
D03*
X442913D02*
D03*
X433071D02*
D03*
X395669D02*
D03*
X385827D02*
D03*
X375984D02*
D03*
X232441Y350394D02*
D03*
X222441Y340394D02*
D03*
X232441D02*
D03*
X222441Y330394D02*
D03*
X232441D02*
D03*
X222441Y320394D02*
D03*
X232441D02*
D03*
X222441Y310394D02*
D03*
X232441D02*
D03*
D45*
X462598Y147638D02*
D03*
X423228D02*
D03*
X405512D02*
D03*
X366142D02*
D03*
D46*
X117972Y104724D02*
D03*
X149744D02*
D03*
X150531Y119291D02*
D03*
X117185D02*
D03*
D47*
X204527Y186614D02*
D03*
X181299D02*
D03*
X204527Y196457D02*
D03*
X181299D02*
D03*
D48*
X222441Y350394D02*
D03*
D49*
X267717Y228346D02*
D03*
X151575Y131890D02*
D03*
X145669D02*
D03*
X141732Y127953D02*
D03*
X376378Y316535D02*
D03*
X259842Y242126D02*
D03*
D50*
X480315Y297244D02*
D03*
X214567Y255906D02*
D03*
X210630D02*
D03*
X470472Y253937D02*
D03*
X454724D02*
D03*
X438976D02*
D03*
X423228D02*
D03*
X407480D02*
D03*
X375984D02*
D03*
X480315Y281496D02*
D03*
X391732Y253937D02*
D03*
D51*
X198819Y246063D02*
D03*
X202756D02*
D03*
X230315D02*
D03*
X226378D02*
D03*
D52*
X283465Y334646D02*
D03*
X251969Y125984D02*
D03*
X269685Y177165D02*
D03*
X242126D02*
D03*
M02*
