M48
;Layer_Color=6321
;FILE_FORMAT=2:5
INCH,TZ
;TYPE=PLATED
T1F00S00C0.01575
T2F00S00C0.01968
T3F00S00C0.02800
T5F00S00C0.03000
T6F00S00C0.03150
T8F00S00C0.03543
T9F00S00C0.03600
T10F00S00C0.03937
T11F00S00C0.04331
T12F00S00C0.05118
T13F00S00C0.05512
T14F00S00C0.09449
T15F00S00C0.12598
;TYPE=NON_PLATED
T16F00S00C0.05906
T17F00S00C0.06693
T18F00S00C0.07480
%
T01
X470472Y253937
X480315Y281496
Y297244
X454724Y253937
X438976
X423228
X407480
X391732
X375984
X214567Y255906
X210630
T02
X251969Y125984
X242126Y177165
X269685
X230315Y246063
X226378
X202756
X198819
X283465Y334646
T03
X141732Y127953
X145669Y131890
X151575
X267717Y228346
X259842Y242126
X376378Y316535
T05
X169449Y356772
X179449
Y366772
X169449
T06
X330709Y110236
X337106
X343996
X350394
X478346
X484744
X491634
X498032
T08
X291338Y140669
Y148543
Y156417
Y164291
X232441Y310394
X222441
Y320394
Y330394
Y340394
Y350394
X232441
Y340394
Y330394
Y320394
T09
X356299Y273622
Y283622
Y293622
Y303622
Y313622
Y323622
X436791Y358268
T10
X375984Y134646
X385827
X395669
X433071
X442913
X452756
X408701Y358268
X398701
X388701
X378701
T11
X181299Y186614
Y196457
X204527
Y186614
T12
X326772Y119134
X354331
X474409
X501968
T13
X244094Y106299
X261811Y119685
X259842Y149606
X234252Y131496
X223622Y137008
T14
X366142Y147638
X405512
X423228
X462598
T15
X122047Y153543
X488189
X122047Y350394
X263779
X346457
X488189
T16
X161417Y105512
T17
X106299Y105512
T18
X184252Y141732
X201575
M30
