G04 Layer_Color=8150272*
%FSLAX25Y25*%
%MOIN*%
G70*
G01*
G75*
G04:AMPARAMS|DCode=71|XSize=68mil|YSize=88mil|CornerRadius=19mil|HoleSize=0mil|Usage=FLASHONLY|Rotation=90.000|XOffset=0mil|YOffset=0mil|HoleType=Round|Shape=RoundedRectangle|*
%AMROUNDEDRECTD71*
21,1,0.06800,0.05000,0,0,90.0*
21,1,0.03000,0.08800,0,0,90.0*
1,1,0.03800,0.02500,0.01500*
1,1,0.03800,0.02500,-0.01500*
1,1,0.03800,-0.02500,-0.01500*
1,1,0.03800,-0.02500,0.01500*
%
%ADD71ROUNDEDRECTD71*%
%ADD72R,0.08800X0.06800*%
G04:AMPARAMS|DCode=73|XSize=67.84mil|YSize=67.84mil|CornerRadius=18.96mil|HoleSize=0mil|Usage=FLASHONLY|Rotation=0.000|XOffset=0mil|YOffset=0mil|HoleType=Round|Shape=RoundedRectangle|*
%AMROUNDEDRECTD73*
21,1,0.06784,0.02992,0,0,0.0*
21,1,0.02992,0.06784,0,0,0.0*
1,1,0.03792,0.01496,-0.01496*
1,1,0.03792,-0.01496,-0.01496*
1,1,0.03792,-0.01496,0.01496*
1,1,0.03792,0.01496,0.01496*
%
%ADD73ROUNDEDRECTD73*%
%ADD74C,0.06784*%
%ADD75O,0.06312X0.10642*%
%ADD76C,0.22453*%
G04:AMPARAMS|DCode=77|XSize=68mil|YSize=88mil|CornerRadius=0mil|HoleSize=0mil|Usage=FLASHONLY|Rotation=90.000|XOffset=0mil|YOffset=0mil|HoleType=Round|Shape=Octagon|*
%AMOCTAGOND77*
4,1,8,-0.04400,-0.01700,-0.04400,0.01700,-0.02700,0.03400,0.02700,0.03400,0.04400,0.01700,0.04400,-0.01700,0.02700,-0.03400,-0.02700,-0.03400,-0.04400,-0.01700,0.0*
%
%ADD77OCTAGOND77*%

%ADD78O,0.11036X0.09855*%
%ADD79O,0.09855X0.11036*%
%ADD80C,0.07690*%
%ADD81R,0.07690X0.07690*%
%ADD82C,0.08674*%
%ADD83O,0.04737X0.07690*%
%ADD84C,0.06800*%
%ADD85C,0.06706*%
%ADD86O,0.12611X0.16548*%
%ADD87O,0.06312X0.10249*%
%ADD88C,0.00800*%
%ADD89C,0.07887*%
%ADD90R,0.06706X0.06706*%
D71*
X356299Y323622D02*
D03*
Y313622D02*
D03*
Y303622D02*
D03*
Y293622D02*
D03*
Y283622D02*
D03*
D72*
Y273622D02*
D03*
D73*
X291338Y164291D02*
D03*
D74*
Y156417D02*
D03*
Y148543D02*
D03*
Y140669D02*
D03*
D75*
X280571Y137795D02*
D03*
X302106D02*
D03*
Y165354D02*
D03*
X280571D02*
D03*
D76*
X122047Y153543D02*
D03*
Y350394D02*
D03*
X263779D02*
D03*
X346457D02*
D03*
X488189D02*
D03*
D77*
X436791Y358268D02*
D03*
D78*
X244094Y106299D02*
D03*
X259842Y149606D02*
D03*
D79*
X223622Y137008D02*
D03*
X234252Y131496D02*
D03*
X261811Y119685D02*
D03*
D80*
X378701Y358268D02*
D03*
X388701D02*
D03*
X398701D02*
D03*
D81*
X408701D02*
D03*
D82*
X474409Y119134D02*
D03*
X501968D02*
D03*
X326772D02*
D03*
X354331D02*
D03*
D83*
X478346Y110236D02*
D03*
X498032D02*
D03*
X484744D02*
D03*
X491634D02*
D03*
X330709D02*
D03*
X350394D02*
D03*
X337106D02*
D03*
X343996D02*
D03*
D84*
X179449Y366772D02*
D03*
Y356772D02*
D03*
X169449D02*
D03*
Y366772D02*
D03*
D85*
X452756Y134646D02*
D03*
X442913D02*
D03*
X433071D02*
D03*
X395669D02*
D03*
X385827D02*
D03*
X375984D02*
D03*
X232441Y350394D02*
D03*
X222441Y340394D02*
D03*
X232441D02*
D03*
X222441Y330394D02*
D03*
X232441D02*
D03*
X222441Y320394D02*
D03*
X232441D02*
D03*
X222441Y310394D02*
D03*
X232441D02*
D03*
D86*
X462598Y147638D02*
D03*
X423228D02*
D03*
X405512D02*
D03*
X366142D02*
D03*
D87*
X117972Y104724D02*
D03*
X149744D02*
D03*
X150531Y119291D02*
D03*
X117185D02*
D03*
D88*
X106299Y105512D02*
D03*
X161417D02*
D03*
X201575Y141732D02*
D03*
X184252D02*
D03*
D89*
X204527Y186614D02*
D03*
X181299D02*
D03*
X204527Y196457D02*
D03*
X181299D02*
D03*
D90*
X222441Y350394D02*
D03*
M02*
