G04 Layer_Color=20142*
%FSLAX25Y25*%
%MOIN*%
G70*
G01*
G75*
%ADD11C,0.79540*%
G36*
X343921Y570729D02*
X353183Y570183D01*
X362416Y569274D01*
X371606Y568003D01*
X380739Y566372D01*
X389801Y564384D01*
X398778Y562041D01*
X407656Y559348D01*
X416421Y556308D01*
X425061Y552927D01*
X433561Y549209D01*
X441908Y545160D01*
X450090Y540787D01*
X458094Y536096D01*
X465908Y531094D01*
X473519Y525789D01*
X480917Y520189D01*
X488088Y514304D01*
X495023Y508141D01*
X501711Y501711D01*
X508141Y495023D01*
X514304Y488088D01*
X520189Y480917D01*
X525789Y473519D01*
X531094Y465908D01*
X536096Y458094D01*
X540787Y450090D01*
X545160Y441908D01*
X549209Y433561D01*
X552927Y425061D01*
X556308Y416421D01*
X559348Y407656D01*
X562041Y398778D01*
X564384Y389801D01*
X566372Y380739D01*
X568003Y371606D01*
X569274Y362416D01*
X570183Y353183D01*
X570729Y343921D01*
X570912Y334646D01*
X570729Y325370D01*
X570183Y316108D01*
X569274Y306876D01*
X568003Y297686D01*
X566372Y288552D01*
X564384Y279490D01*
X562041Y270514D01*
X559348Y261635D01*
X556308Y252870D01*
X552927Y244231D01*
X549209Y235731D01*
X545160Y227383D01*
X540787Y219201D01*
X536096Y211197D01*
X531094Y203383D01*
X525789Y195772D01*
X520189Y188375D01*
X514304Y181203D01*
X508141Y174268D01*
X501711Y167580D01*
X495023Y161150D01*
X488088Y154988D01*
X480917Y149102D01*
X473519Y143502D01*
X465908Y138198D01*
X458094Y133196D01*
X450090Y128505D01*
X441908Y124131D01*
X433561Y120082D01*
X425061Y116364D01*
X416421Y112983D01*
X407656Y109943D01*
X398778Y107250D01*
X389801Y104908D01*
X380739Y102919D01*
X371606Y101288D01*
X362416Y100017D01*
X353183Y99108D01*
X343921Y98562D01*
X334646Y98380D01*
X325370Y98562D01*
X316108Y99108D01*
X306876Y100017D01*
X297686Y101288D01*
X288552Y102919D01*
X279490Y104908D01*
X270514Y107250D01*
X261635Y109943D01*
X252870Y112983D01*
X244231Y116364D01*
X235731Y120082D01*
X227383Y124131D01*
X219201Y128505D01*
X211197Y133196D01*
X203383Y138198D01*
X195772Y143502D01*
X188375Y149102D01*
X181203Y154988D01*
X174268Y161150D01*
X167580Y167580D01*
X161150Y174268D01*
X154988Y181203D01*
X149102Y188375D01*
X143502Y195772D01*
X138198Y203383D01*
X133196Y211197D01*
X128505Y219201D01*
X124131Y227383D01*
X120082Y235731D01*
X116364Y244231D01*
X112983Y252870D01*
X109943Y261635D01*
X107250Y270514D01*
X104908Y279490D01*
X102919Y288552D01*
X101288Y297686D01*
X100017Y306876D01*
X99108Y316108D01*
X98562Y325370D01*
X98380Y334646D01*
X98562Y343921D01*
X99108Y353183D01*
X100017Y362416D01*
X101288Y371606D01*
X102919Y380739D01*
X104908Y389801D01*
X107250Y398778D01*
X109943Y407656D01*
X112983Y416421D01*
X116364Y425061D01*
X120082Y433561D01*
X124131Y441908D01*
X128505Y450090D01*
X133196Y458094D01*
X138198Y465908D01*
X143502Y473519D01*
X149102Y480917D01*
X154988Y488088D01*
X161150Y495023D01*
X167580Y501711D01*
X174268Y508141D01*
X181203Y514304D01*
X188375Y520189D01*
X195772Y525789D01*
X203383Y531094D01*
X211197Y536096D01*
X219201Y540787D01*
X227383Y545160D01*
X235731Y549209D01*
X244231Y552927D01*
X252870Y556308D01*
X261635Y559348D01*
X270514Y562041D01*
X279490Y564384D01*
X288552Y566372D01*
X297686Y568003D01*
X306876Y569274D01*
X316108Y570183D01*
X325370Y570729D01*
X334184Y570903D01*
X334646Y570912D01*
X334646Y570912D01*
Y570912D01*
X334646Y570912D01*
X343921Y570729D01*
D02*
G37*
D11*
X334646Y334646D02*
D03*
M02*
