G04 Layer_Color=16764230*
%FSLAX25Y25*%
%MOIN*%
G70*
G01*
G75*
%ADD12C,0.00000*%
D12*
X334646Y98425D02*
X335646Y98427D01*
X336646Y98434D01*
X337646Y98444D01*
X338646Y98459D01*
X339646Y98478D01*
X340646Y98501D01*
X341646Y98529D01*
X342645Y98561D01*
X343645Y98597D01*
X344644Y98637D01*
X345643Y98681D01*
X346642Y98730D01*
X347641Y98783D01*
X348639Y98840D01*
X349638Y98901D01*
X350636Y98967D01*
X351633Y99037D01*
X352631Y99111D01*
X353628Y99189D01*
X354624Y99272D01*
X355621Y99358D01*
X356617Y99449D01*
X357612Y99544D01*
X358608Y99644D01*
X359602Y99747D01*
X360597Y99855D01*
X361591Y99967D01*
X362584Y100083D01*
X363577Y100204D01*
X364569Y100328D01*
X365561Y100457D01*
X366552Y100590D01*
X367543Y100727D01*
X368533Y100868D01*
X369522Y101014D01*
X370511Y101164D01*
X371499Y101318D01*
X372487Y101476D01*
X373474Y101638D01*
X374460Y101805D01*
X375446Y101975D01*
X376430Y102150D01*
X377414Y102329D01*
X378397Y102512D01*
X379380Y102700D01*
X380362Y102891D01*
X381342Y103087D01*
X382322Y103287D01*
X383301Y103490D01*
X384280Y103699D01*
X385257Y103911D01*
X386233Y104127D01*
X387209Y104348D01*
X388183Y104572D01*
X389157Y104801D01*
X390130Y105034D01*
X391102Y105271D01*
X392072Y105512D01*
X393042Y105757D01*
X394010Y106006D01*
X394978Y106260D01*
X395944Y106517D01*
X396909Y106779D01*
X397874Y107044D01*
X398837Y107314D01*
X399799Y107588D01*
X400760Y107866D01*
X401719Y108148D01*
X402677Y108434D01*
X403635Y108724D01*
X404590Y109018D01*
X405545Y109316D01*
X406498Y109618D01*
X407451Y109925D01*
X408401Y110235D01*
X409351Y110549D01*
X410299Y110868D01*
X411246Y111190D01*
X412191Y111516D01*
X413135Y111846D01*
X414078Y112181D01*
X415019Y112519D01*
X415959Y112861D01*
X416897Y113207D01*
X417834Y113558D01*
X418769Y113912D01*
X419703Y114270D01*
X420635Y114632D01*
X421566Y114998D01*
X422495Y115368D01*
X423423Y115742D01*
X424349Y116120D01*
X425273Y116502D01*
X426196Y116887D01*
X427117Y117277D01*
X428036Y117670D01*
X428954Y118068D01*
X429870Y118469D01*
X430785Y118874D01*
X431698Y119283D01*
X432609Y119696D01*
X433518Y120113D01*
X434425Y120533D01*
X435331Y120958D01*
X436235Y121386D01*
X437137Y121818D01*
X438037Y122254D01*
X438935Y122693D01*
X439831Y123137D01*
X440726Y123584D01*
X441619Y124035D01*
X442510Y124490D01*
X443398Y124948D01*
X444285Y125411D01*
X445170Y125877D01*
X446053Y126347D01*
X446934Y126820D01*
X447813Y127297D01*
X448690Y127778D01*
X449565Y128263D01*
X450437Y128752D01*
X451308Y129244D01*
X452177Y129739D01*
X453043Y130239D01*
X453907Y130742D01*
X454770Y131249D01*
X455630Y131759D01*
X456488Y132273D01*
X457343Y132791D01*
X458197Y133312D01*
X459048Y133837D01*
X459897Y134365D01*
X460744Y134898D01*
X461589Y135433D01*
X462431Y135972D01*
X463271Y136515D01*
X464109Y137062D01*
X464944Y137612D01*
X465777Y138165D01*
X466608Y138722D01*
X467436Y139282D01*
X468262Y139846D01*
X469086Y140414D01*
X469907Y140985D01*
X470726Y141559D01*
X471542Y142137D01*
X472356Y142719D01*
X473167Y143303D01*
X473976Y143891D01*
X474782Y144483D01*
X475586Y145078D01*
X476388Y145677D01*
X477186Y146278D01*
X477983Y146883D01*
X478776Y147492D01*
X479567Y148104D01*
X480356Y148719D01*
X481142Y149338D01*
X481925Y149960D01*
X482706Y150585D01*
X483484Y151213D01*
X484259Y151845D01*
X485032Y152480D01*
X485801Y153119D01*
X486569Y153760D01*
X487333Y154405D01*
X488095Y155053D01*
X488854Y155704D01*
X489610Y156359D01*
X490364Y157017D01*
X491114Y157678D01*
X491862Y158342D01*
X492607Y159009D01*
X493349Y159679D01*
X494089Y160353D01*
X494825Y161029D01*
X495559Y161709D01*
X496290Y162392D01*
X497017Y163078D01*
X497742Y163767D01*
X498464Y164459D01*
X499184Y165154D01*
X499900Y165852D01*
X500613Y166553D01*
X501323Y167257D01*
X502030Y167965D01*
X502734Y168675D01*
X503436Y169388D01*
X504134Y170104D01*
X504829Y170823D01*
X505521Y171545D01*
X506210Y172270D01*
X506896Y172998D01*
X507579Y173729D01*
X508258Y174462D01*
X508935Y175199D01*
X509609Y175938D01*
X510279Y176680D01*
X510946Y177425D01*
X511610Y178173D01*
X512271Y178924D01*
X512929Y179677D01*
X513584Y180434D01*
X514235Y181193D01*
X514883Y181954D01*
X515528Y182719D01*
X516169Y183486D01*
X516808Y184256D01*
X517443Y185029D01*
X518075Y185804D01*
X518703Y186582D01*
X519328Y187362D01*
X519950Y188146D01*
X520569Y188931D01*
X521184Y189720D01*
X521796Y190511D01*
X522405Y191305D01*
X523010Y192101D01*
X523612Y192900D01*
X524210Y193701D01*
X524805Y194505D01*
X525397Y195311D01*
X525985Y196120D01*
X526570Y196931D01*
X527151Y197745D01*
X527729Y198562D01*
X528304Y199380D01*
X528874Y200201D01*
X529442Y201025D01*
X530006Y201851D01*
X530567Y202679D01*
X531123Y203510D01*
X531677Y204343D01*
X532227Y205178D01*
X532773Y206016D01*
X533316Y206856D01*
X533855Y207698D01*
X534391Y208543D01*
X534923Y209390D01*
X535452Y210239D01*
X535977Y211090D01*
X536498Y211944D01*
X537016Y212799D01*
X537530Y213657D01*
X538040Y214517D01*
X538547Y215380D01*
X539050Y216244D01*
X539549Y217110D01*
X540045Y217979D01*
X540537Y218850D01*
X541026Y219722D01*
X541510Y220597D01*
X541992Y221474D01*
X542469Y222353D01*
X542942Y223234D01*
X543412Y224117D01*
X543878Y225002D01*
X544341Y225888D01*
X544799Y226777D01*
X545254Y227668D01*
X545705Y228561D01*
X546152Y229455D01*
X546596Y230352D01*
X547036Y231250D01*
X547471Y232150D01*
X547903Y233052D01*
X548332Y233956D01*
X548756Y234862D01*
X549177Y235769D01*
X549593Y236678D01*
X550006Y237589D01*
X550415Y238502D01*
X550820Y239416D01*
X551222Y240332D01*
X551619Y241250D01*
X552012Y242170D01*
X552402Y243091D01*
X552788Y244014D01*
X553169Y244938D01*
X553547Y245864D01*
X553921Y246792D01*
X554291Y247721D01*
X554657Y248651D01*
X555019Y249584D01*
X555377Y250518D01*
X555732Y251453D01*
X556082Y252390D01*
X556428Y253328D01*
X556771Y254268D01*
X557109Y255209D01*
X557443Y256151D01*
X557774Y257095D01*
X558100Y258041D01*
X558422Y258987D01*
X558741Y259936D01*
X559055Y260885D01*
X559365Y261836D01*
X559671Y262788D01*
X559974Y263741D01*
X560272Y264696D01*
X560566Y265652D01*
X560856Y266609D01*
X561142Y267567D01*
X561424Y268527D01*
X561702Y269488D01*
X561976Y270450D01*
X562246Y271413D01*
X562511Y272377D01*
X562773Y273342D01*
X563030Y274309D01*
X563284Y275276D01*
X563533Y276245D01*
X563778Y277214D01*
X564019Y278185D01*
X564256Y279156D01*
X564489Y280129D01*
X564718Y281103D01*
X564943Y282077D01*
X565163Y283053D01*
X565379Y284029D01*
X565592Y285007D01*
X565800Y285985D01*
X566004Y286964D01*
X566204Y287944D01*
X566399Y288925D01*
X566591Y289906D01*
X566778Y290889D01*
X566961Y291872D01*
X567140Y292856D01*
X567315Y293841D01*
X567486Y294826D01*
X567652Y295812D01*
X567815Y296799D01*
X567973Y297787D01*
X568127Y298775D01*
X568277Y299764D01*
X568422Y300753D01*
X568564Y301744D01*
X568701Y302734D01*
X568834Y303725D01*
X568962Y304717D01*
X569087Y305710D01*
X569208Y306702D01*
X569324Y307696D01*
X569436Y308690D01*
X569544Y309684D01*
X569647Y310679D01*
X569746Y311674D01*
X569842Y312669D01*
X569933Y313665D01*
X570019Y314662D01*
X570102Y315658D01*
X570180Y316656D01*
X570254Y317653D01*
X570324Y318651D01*
X570390Y319649D01*
X570451Y320647D01*
X570508Y321645D01*
X570561Y322644D01*
X570610Y323643D01*
X570654Y324642D01*
X570694Y325641D01*
X570730Y326641D01*
X570762Y327641D01*
X570790Y328640D01*
X570813Y329640D01*
X570832Y330640D01*
X570847Y331640D01*
X570858Y332640D01*
X570864Y333640D01*
X570866Y334641D01*
Y334646D01*
X570864Y335646D01*
X570858Y336646D01*
X570847Y337646D01*
X570832Y338646D01*
X570813Y339646D01*
X570790Y340646D01*
X570762Y341646D01*
X570731Y342645D01*
X570695Y343645D01*
X570654Y344644D01*
X570610Y345643D01*
X570561Y346642D01*
X570508Y347641D01*
X570451Y348639D01*
X570390Y349638D01*
X570324Y350636D01*
X570255Y351634D01*
X570181Y352631D01*
X570102Y353628D01*
X570020Y354625D01*
X569933Y355621D01*
X569842Y356617D01*
X569747Y357613D01*
X569648Y358608D01*
X569544Y359603D01*
X569436Y360597D01*
X569324Y361591D01*
X569208Y362584D01*
X569088Y363577D01*
X568963Y364569D01*
X568834Y365561D01*
X568701Y366552D01*
X568564Y367543D01*
X568423Y368533D01*
X568277Y369523D01*
X568127Y370512D01*
X567974Y371500D01*
X567815Y372487D01*
X567653Y373474D01*
X567487Y374461D01*
X567316Y375446D01*
X567141Y376431D01*
X566962Y377415D01*
X566779Y378398D01*
X566592Y379380D01*
X566400Y380362D01*
X566205Y381343D01*
X566005Y382323D01*
X565801Y383302D01*
X565593Y384280D01*
X565380Y385258D01*
X565164Y386234D01*
X564944Y387210D01*
X564719Y388184D01*
X564490Y389158D01*
X564257Y390131D01*
X564020Y391102D01*
X563779Y392073D01*
X563534Y393042D01*
X563285Y394011D01*
X563031Y394979D01*
X562774Y395945D01*
X562512Y396910D01*
X562247Y397875D01*
X561977Y398838D01*
X561703Y399800D01*
X561425Y400760D01*
X561143Y401720D01*
X560857Y402678D01*
X560567Y403636D01*
X560273Y404591D01*
X559975Y405546D01*
X559673Y406499D01*
X559366Y407452D01*
X559056Y408402D01*
X558742Y409352D01*
X558424Y410300D01*
X558101Y411247D01*
X557775Y412192D01*
X557444Y413136D01*
X557110Y414079D01*
X556772Y415020D01*
X556430Y415960D01*
X556083Y416898D01*
X555733Y417835D01*
X555379Y418770D01*
X555021Y419704D01*
X554659Y420636D01*
X554293Y421567D01*
X553923Y422496D01*
X553549Y423424D01*
X553171Y424350D01*
X552789Y425274D01*
X552403Y426197D01*
X552014Y427118D01*
X551620Y428038D01*
X551223Y428956D01*
X550822Y429872D01*
X550417Y430786D01*
X550008Y431699D01*
X549595Y432610D01*
X549178Y433519D01*
X548758Y434426D01*
X548333Y435332D01*
X547905Y436236D01*
X547473Y437138D01*
X547037Y438038D01*
X546597Y438937D01*
X546154Y439833D01*
X545707Y440728D01*
X545256Y441620D01*
X544801Y442511D01*
X544342Y443400D01*
X543880Y444287D01*
X543414Y445172D01*
X542944Y446055D01*
X542470Y446935D01*
X541993Y447814D01*
X541512Y448691D01*
X541027Y449566D01*
X540539Y450439D01*
X540047Y451309D01*
X539551Y452178D01*
X539052Y453045D01*
X538549Y453909D01*
X538042Y454771D01*
X537531Y455631D01*
X537017Y456489D01*
X536500Y457345D01*
X535978Y458199D01*
X535453Y459050D01*
X534925Y459899D01*
X534393Y460746D01*
X533857Y461590D01*
X533318Y462433D01*
X532775Y463273D01*
X532229Y464111D01*
X531679Y464946D01*
X531125Y465779D01*
X530568Y466610D01*
X530008Y467438D01*
X529444Y468264D01*
X528876Y469088D01*
X528305Y469909D01*
X527731Y470727D01*
X527153Y471544D01*
X526572Y472358D01*
X525987Y473169D01*
X525399Y473978D01*
X524807Y474784D01*
X524212Y475588D01*
X523614Y476389D01*
X523012Y477188D01*
X522406Y477985D01*
X521798Y478778D01*
X521186Y479569D01*
X520571Y480358D01*
X519952Y481144D01*
X519330Y481927D01*
X518705Y482708D01*
X518076Y483486D01*
X517445Y484261D01*
X516809Y485033D01*
X516171Y485803D01*
X515529Y486571D01*
X514885Y487335D01*
X514236Y488097D01*
X513585Y488856D01*
X512931Y489612D01*
X512273Y490366D01*
X511612Y491116D01*
X510948Y491864D01*
X510281Y492609D01*
X509610Y493351D01*
X508937Y494091D01*
X508260Y494827D01*
X507580Y495561D01*
X506898Y496292D01*
X506212Y497019D01*
X505523Y497744D01*
X504831Y498466D01*
X504135Y499186D01*
X503437Y499902D01*
X502736Y500615D01*
X502032Y501325D01*
X501325Y502032D01*
X500614Y502736D01*
X499901Y503438D01*
X499185Y504136D01*
X498466Y504831D01*
X497744Y505523D01*
X497019Y506212D01*
X496291Y506898D01*
X495560Y507581D01*
X494827Y508260D01*
X494090Y508937D01*
X493351Y509611D01*
X492609Y510281D01*
X491864Y510948D01*
X491116Y511612D01*
X490365Y512273D01*
X489612Y512931D01*
X488855Y513586D01*
X488096Y514237D01*
X487335Y514885D01*
X486570Y515530D01*
X485803Y516171D01*
X485033Y516810D01*
X484260Y517445D01*
X483485Y518077D01*
X482707Y518705D01*
X481926Y519331D01*
X481143Y519952D01*
X480357Y520571D01*
X479569Y521186D01*
X478778Y521798D01*
X477984Y522407D01*
X477188Y523012D01*
X476389Y523614D01*
X475588Y524212D01*
X474784Y524807D01*
X473977Y525399D01*
X473169Y525987D01*
X472357Y526572D01*
X471543Y527153D01*
X470727Y527731D01*
X469908Y528306D01*
X469087Y528876D01*
X468263Y529444D01*
X467438Y530008D01*
X466609Y530569D01*
X465778Y531125D01*
X464945Y531679D01*
X464110Y532229D01*
X463272Y532775D01*
X462432Y533318D01*
X461590Y533857D01*
X460745Y534393D01*
X459899Y534925D01*
X459049Y535454D01*
X458198Y535979D01*
X457345Y536500D01*
X456489Y537017D01*
X455631Y537532D01*
X454771Y538042D01*
X453909Y538549D01*
X453044Y539052D01*
X452178Y539551D01*
X451309Y540047D01*
X450438Y540539D01*
X449566Y541028D01*
X448691Y541512D01*
X447814Y541993D01*
X446935Y542471D01*
X446054Y542944D01*
X445171Y543414D01*
X444286Y543880D01*
X443399Y544343D01*
X442511Y544801D01*
X441620Y545256D01*
X440727Y545707D01*
X439832Y546154D01*
X438936Y546598D01*
X438038Y547037D01*
X437138Y547473D01*
X436236Y547905D01*
X435332Y548333D01*
X434426Y548758D01*
X433519Y549178D01*
X432610Y549595D01*
X431699Y550008D01*
X430786Y550417D01*
X429871Y550822D01*
X428955Y551223D01*
X428038Y551620D01*
X427118Y552014D01*
X426197Y552403D01*
X425274Y552789D01*
X424350Y553171D01*
X423424Y553549D01*
X422496Y553923D01*
X421567Y554293D01*
X420636Y554659D01*
X419704Y555021D01*
X418770Y555379D01*
X417835Y555733D01*
X416898Y556083D01*
X415960Y556430D01*
X415020Y556772D01*
X414079Y557110D01*
X413136Y557445D01*
X412192Y557775D01*
X411247Y558101D01*
X410300Y558424D01*
X409352Y558742D01*
X408402Y559056D01*
X407452Y559366D01*
X406499Y559673D01*
X405546Y559975D01*
X404592Y560273D01*
X403636Y560567D01*
X402678Y560857D01*
X401720Y561143D01*
X400761Y561425D01*
X399800Y561703D01*
X398838Y561977D01*
X397875Y562247D01*
X396911Y562512D01*
X395945Y562774D01*
X394979Y563031D01*
X394011Y563285D01*
X393043Y563534D01*
X392073Y563779D01*
X391103Y564020D01*
X390131Y564257D01*
X389158Y564490D01*
X388185Y564719D01*
X387210Y564944D01*
X386234Y565164D01*
X385258Y565380D01*
X384281Y565593D01*
X383302Y565801D01*
X382323Y566005D01*
X381343Y566204D01*
X380363Y566400D01*
X379381Y566592D01*
X378398Y566779D01*
X377415Y566962D01*
X376431Y567141D01*
X375447Y567316D01*
X374461Y567486D01*
X373475Y567653D01*
X372488Y567815D01*
X371500Y567973D01*
X370512Y568127D01*
X369523Y568277D01*
X368534Y568423D01*
X367544Y568564D01*
X366553Y568701D01*
X365562Y568834D01*
X364570Y568963D01*
X363578Y569088D01*
X362585Y569208D01*
X361592Y569324D01*
X360598Y569436D01*
X359603Y569544D01*
X358609Y569648D01*
X357613Y569747D01*
X356618Y569842D01*
X355622Y569933D01*
X354626Y570020D01*
X353629Y570102D01*
X352632Y570180D01*
X351634Y570254D01*
X350637Y570324D01*
X349639Y570390D01*
X348640Y570451D01*
X347642Y570508D01*
X346643Y570561D01*
X345644Y570610D01*
X344645Y570654D01*
X343646Y570695D01*
X342646Y570731D01*
X341647Y570762D01*
X340647Y570790D01*
X339647Y570813D01*
X338647Y570832D01*
X337647Y570847D01*
X336647Y570858D01*
X335647Y570864D01*
X334647Y570866D01*
X334646D02*
X333646Y570864D01*
X332645Y570858D01*
X331645Y570847D01*
X330645Y570832D01*
X329645Y570813D01*
X328645Y570790D01*
X327646Y570762D01*
X326646Y570731D01*
X325647Y570695D01*
X324647Y570654D01*
X323648Y570610D01*
X322649Y570561D01*
X321651Y570508D01*
X320652Y570451D01*
X319654Y570390D01*
X318656Y570324D01*
X317658Y570255D01*
X316661Y570181D01*
X315664Y570102D01*
X314667Y570020D01*
X313671Y569933D01*
X312675Y569842D01*
X311679Y569747D01*
X310684Y569648D01*
X309689Y569544D01*
X308695Y569436D01*
X307701Y569324D01*
X306708Y569208D01*
X305715Y569088D01*
X304722Y568963D01*
X303731Y568834D01*
X302739Y568701D01*
X301749Y568564D01*
X300759Y568423D01*
X299769Y568277D01*
X298780Y568127D01*
X297792Y567974D01*
X296804Y567815D01*
X295817Y567653D01*
X294831Y567487D01*
X293846Y567316D01*
X292861Y567141D01*
X291877Y566962D01*
X290894Y566779D01*
X289912Y566592D01*
X288930Y566400D01*
X287949Y566205D01*
X286969Y566005D01*
X285990Y565801D01*
X285012Y565593D01*
X284034Y565381D01*
X283058Y565164D01*
X282082Y564944D01*
X281108Y564719D01*
X280134Y564490D01*
X279162Y564258D01*
X278190Y564021D01*
X277219Y563779D01*
X276250Y563534D01*
X275281Y563285D01*
X274314Y563032D01*
X273347Y562774D01*
X272382Y562513D01*
X271418Y562247D01*
X270455Y561977D01*
X269493Y561703D01*
X268532Y561425D01*
X267572Y561143D01*
X266614Y560857D01*
X265657Y560567D01*
X264701Y560273D01*
X263746Y559975D01*
X262793Y559673D01*
X261841Y559367D01*
X260890Y559057D01*
X259941Y558742D01*
X258992Y558424D01*
X258046Y558102D01*
X257100Y557775D01*
X256156Y557445D01*
X255214Y557111D01*
X254272Y556772D01*
X253333Y556430D01*
X252394Y556084D01*
X251458Y555734D01*
X250522Y555379D01*
X249588Y555021D01*
X248656Y554659D01*
X247726Y554293D01*
X246796Y553923D01*
X245869Y553549D01*
X244943Y553171D01*
X244018Y552790D01*
X243095Y552404D01*
X242174Y552014D01*
X241255Y551621D01*
X240337Y551224D01*
X239421Y550822D01*
X238507Y550417D01*
X237594Y550008D01*
X236683Y549595D01*
X235774Y549179D01*
X234866Y548758D01*
X233961Y548334D01*
X233057Y547906D01*
X232155Y547474D01*
X231255Y547038D01*
X230356Y546598D01*
X229460Y546155D01*
X228565Y545707D01*
X227673Y545256D01*
X226782Y544802D01*
X225893Y544343D01*
X225006Y543881D01*
X224121Y543415D01*
X223238Y542945D01*
X222358Y542471D01*
X221479Y541994D01*
X220602Y541513D01*
X219727Y541028D01*
X218854Y540540D01*
X217983Y540048D01*
X217115Y539552D01*
X216248Y539053D01*
X215384Y538550D01*
X214522Y538043D01*
X213662Y537532D01*
X212804Y537018D01*
X211948Y536501D01*
X211094Y535979D01*
X210243Y535454D01*
X209394Y534926D01*
X208547Y534394D01*
X207703Y533858D01*
X206860Y533319D01*
X206020Y532776D01*
X205183Y532230D01*
X204347Y531680D01*
X203514Y531126D01*
X202683Y530569D01*
X201855Y530009D01*
X201029Y529445D01*
X200206Y528877D01*
X199384Y528306D01*
X198566Y527732D01*
X197749Y527154D01*
X196936Y526573D01*
X196124Y525988D01*
X195315Y525400D01*
X194509Y524808D01*
X193705Y524213D01*
X192904Y523615D01*
X192105Y523013D01*
X191309Y522408D01*
X190515Y521799D01*
X189724Y521187D01*
X188935Y520572D01*
X188150Y519954D01*
X187366Y519332D01*
X186586Y518706D01*
X185808Y518078D01*
X185032Y517446D01*
X184260Y516811D01*
X183490Y516173D01*
X182723Y515531D01*
X181958Y514886D01*
X181196Y514238D01*
X180438Y513587D01*
X179681Y512932D01*
X178928Y512275D01*
X178177Y511614D01*
X177429Y510950D01*
X176684Y510283D01*
X175942Y509612D01*
X175203Y508939D01*
X174466Y508262D01*
X173732Y507582D01*
X173002Y506899D01*
X172274Y506214D01*
X171549Y505524D01*
X170827Y504832D01*
X170108Y504137D01*
X169392Y503439D01*
X168679Y502738D01*
X167968Y502034D01*
X167261Y501327D01*
X166557Y500616D01*
X165856Y499903D01*
X165158Y499187D01*
X164462Y498468D01*
X163770Y497746D01*
X163081Y497021D01*
X162395Y496293D01*
X161713Y495563D01*
X161033Y494829D01*
X160356Y494093D01*
X159683Y493353D01*
X159012Y492611D01*
X158345Y491866D01*
X157681Y491118D01*
X157020Y490367D01*
X156362Y489614D01*
X155708Y488858D01*
X155057Y488099D01*
X154408Y487337D01*
X153764Y486573D01*
X153122Y485805D01*
X152484Y485036D01*
X151848Y484263D01*
X151217Y483488D01*
X150588Y482710D01*
X149963Y481929D01*
X149341Y481146D01*
X148722Y480360D01*
X148107Y479571D01*
X147495Y478780D01*
X146887Y477987D01*
X146281Y477190D01*
X145680Y476392D01*
X145081Y475590D01*
X144486Y474787D01*
X143895Y473980D01*
X143306Y473171D01*
X142721Y472360D01*
X142140Y471546D01*
X141562Y470730D01*
X140988Y469911D01*
X140417Y469090D01*
X139849Y468266D01*
X139285Y467441D01*
X138725Y466612D01*
X138168Y465781D01*
X137614Y464948D01*
X137065Y464113D01*
X136518Y463275D01*
X135975Y462435D01*
X135436Y461593D01*
X134900Y460748D01*
X134368Y459902D01*
X133840Y459053D01*
X133315Y458201D01*
X132793Y457348D01*
X132276Y456492D01*
X131762Y455634D01*
X131251Y454774D01*
X130745Y453912D01*
X130241Y453048D01*
X129742Y452181D01*
X129246Y451312D01*
X128754Y450442D01*
X128266Y449569D01*
X127781Y448694D01*
X127300Y447817D01*
X126822Y446938D01*
X126349Y446058D01*
X125879Y445175D01*
X125413Y444290D01*
X124951Y443403D01*
X124492Y442514D01*
X124037Y441623D01*
X123586Y440731D01*
X123139Y439836D01*
X122696Y438940D01*
X122256Y438041D01*
X121820Y437141D01*
X121388Y436239D01*
X120960Y435335D01*
X120535Y434430D01*
X120115Y433522D01*
X119698Y432613D01*
X119285Y431702D01*
X118876Y430790D01*
X118471Y429875D01*
X118070Y428959D01*
X117673Y428041D01*
X117279Y427122D01*
X116889Y426201D01*
X116504Y425278D01*
X116122Y424353D01*
X115744Y423427D01*
X115370Y422500D01*
X115000Y421571D01*
X114634Y420640D01*
X114272Y419708D01*
X113914Y418774D01*
X113560Y417839D01*
X113209Y416902D01*
X112863Y415964D01*
X112521Y415024D01*
X112182Y414083D01*
X111848Y413140D01*
X111518Y412196D01*
X111191Y411251D01*
X110869Y410304D01*
X110551Y409356D01*
X110237Y408406D01*
X109926Y407455D01*
X109620Y406503D01*
X109318Y405550D01*
X109019Y404595D01*
X108725Y403640D01*
X108435Y402682D01*
X108149Y401724D01*
X107867Y400764D01*
X107589Y399804D01*
X107316Y398842D01*
X107046Y397879D01*
X106780Y396915D01*
X106518Y395949D01*
X106261Y394983D01*
X106008Y394015D01*
X105758Y393047D01*
X105513Y392077D01*
X105272Y391107D01*
X105035Y390135D01*
X104802Y389162D01*
X104573Y388189D01*
X104349Y387214D01*
X104128Y386239D01*
X103912Y385262D01*
X103700Y384285D01*
X103491Y383306D01*
X103288Y382327D01*
X103088Y381347D01*
X102892Y380366D01*
X102701Y379385D01*
X102513Y378402D01*
X102330Y377419D01*
X102151Y376435D01*
X101976Y375451D01*
X101805Y374465D01*
X101639Y373479D01*
X101477Y372492D01*
X101319Y371504D01*
X101165Y370516D01*
X101015Y369527D01*
X100869Y368538D01*
X100728Y367548D01*
X100591Y366557D01*
X100458Y365566D01*
X100329Y364574D01*
X100204Y363582D01*
X100084Y362589D01*
X99968Y361596D01*
X99856Y360602D01*
X99748Y359608D01*
X99644Y358613D01*
X99545Y357617D01*
X99450Y356622D01*
X99359Y355626D01*
X99272Y354630D01*
X99190Y353633D01*
X99111Y352636D01*
X99037Y351638D01*
X98967Y350641D01*
X98902Y349643D01*
X98840Y348644D01*
X98783Y347646D01*
X98730Y346647D01*
X98682Y345648D01*
X98637Y344649D01*
X98597Y343650D01*
X98561Y342650D01*
X98529Y341651D01*
X98501Y340651D01*
X98478Y339651D01*
X98459Y338651D01*
X98444Y337651D01*
X98434Y336651D01*
X98427Y335651D01*
X98425Y334651D01*
Y334646D01*
X98427Y333646D01*
X98434Y332645D01*
X98444Y331645D01*
X98459Y330645D01*
X98478Y329645D01*
X98501Y328645D01*
X98529Y327646D01*
X98561Y326646D01*
X98597Y325647D01*
X98637Y324647D01*
X98681Y323648D01*
X98730Y322649D01*
X98783Y321651D01*
X98840Y320652D01*
X98901Y319654D01*
X98967Y318656D01*
X99037Y317658D01*
X99111Y316661D01*
X99189Y315664D01*
X99272Y314667D01*
X99358Y313671D01*
X99449Y312675D01*
X99544Y311679D01*
X99644Y310684D01*
X99747Y309689D01*
X99855Y308695D01*
X99967Y307701D01*
X100083Y306708D01*
X100204Y305715D01*
X100328Y304722D01*
X100457Y303731D01*
X100590Y302739D01*
X100727Y301749D01*
X100868Y300759D01*
X101014Y299769D01*
X101164Y298780D01*
X101318Y297792D01*
X101476Y296804D01*
X101638Y295817D01*
X101805Y294831D01*
X101975Y293846D01*
X102150Y292861D01*
X102329Y291877D01*
X102512Y290894D01*
X102700Y289912D01*
X102891Y288930D01*
X103087Y287949D01*
X103287Y286969D01*
X103490Y285990D01*
X103699Y285012D01*
X103911Y284034D01*
X104127Y283058D01*
X104348Y282082D01*
X104572Y281108D01*
X104801Y280134D01*
X105034Y279162D01*
X105271Y278190D01*
X105512Y277219D01*
X105757Y276250D01*
X106006Y275281D01*
X106260Y274314D01*
X106517Y273347D01*
X106779Y272382D01*
X107044Y271418D01*
X107314Y270455D01*
X107588Y269493D01*
X107866Y268532D01*
X108148Y267572D01*
X108434Y266614D01*
X108724Y265657D01*
X109018Y264701D01*
X109316Y263746D01*
X109618Y262793D01*
X109925Y261841D01*
X110235Y260890D01*
X110549Y259941D01*
X110868Y258992D01*
X111190Y258046D01*
X111516Y257100D01*
X111846Y256156D01*
X112181Y255214D01*
X112519Y254272D01*
X112861Y253333D01*
X113207Y252394D01*
X113558Y251458D01*
X113912Y250522D01*
X114270Y249588D01*
X114632Y248656D01*
X114998Y247726D01*
X115368Y246796D01*
X115742Y245869D01*
X116120Y244943D01*
X116502Y244018D01*
X116887Y243095D01*
X117277Y242174D01*
X117670Y241255D01*
X118068Y240337D01*
X118469Y239421D01*
X118874Y238507D01*
X119283Y237594D01*
X119696Y236683D01*
X120113Y235774D01*
X120533Y234866D01*
X120958Y233961D01*
X121386Y233057D01*
X121818Y232155D01*
X122254Y231255D01*
X122693Y230356D01*
X123137Y229460D01*
X123584Y228565D01*
X124035Y227673D01*
X124490Y226782D01*
X124948Y225893D01*
X125411Y225006D01*
X125877Y224121D01*
X126347Y223238D01*
X126820Y222358D01*
X127297Y221479D01*
X127778Y220602D01*
X128263Y219727D01*
X128752Y218854D01*
X129244Y217983D01*
X129739Y217115D01*
X130239Y216248D01*
X130742Y215384D01*
X131249Y214522D01*
X131759Y213662D01*
X132273Y212804D01*
X132791Y211948D01*
X133312Y211094D01*
X133837Y210243D01*
X134365Y209394D01*
X134898Y208547D01*
X135433Y207703D01*
X135972Y206860D01*
X136515Y206020D01*
X137062Y205183D01*
X137612Y204347D01*
X138165Y203514D01*
X138722Y202683D01*
X139282Y201855D01*
X139846Y201029D01*
X140414Y200206D01*
X140985Y199384D01*
X141559Y198566D01*
X142137Y197749D01*
X142719Y196936D01*
X143303Y196124D01*
X143891Y195315D01*
X144483Y194509D01*
X145078Y193705D01*
X145677Y192904D01*
X146278Y192105D01*
X146883Y191309D01*
X147492Y190515D01*
X148104Y189724D01*
X148719Y188935D01*
X149338Y188150D01*
X149960Y187366D01*
X150585Y186586D01*
X151213Y185808D01*
X151845Y185032D01*
X152480Y184260D01*
X153119Y183490D01*
X153760Y182723D01*
X154405Y181958D01*
X155053Y181196D01*
X155704Y180438D01*
X156359Y179681D01*
X157017Y178928D01*
X157678Y178177D01*
X158342Y177429D01*
X159009Y176684D01*
X159679Y175942D01*
X160353Y175203D01*
X161029Y174466D01*
X161709Y173732D01*
X162392Y173002D01*
X163078Y172274D01*
X163767Y171549D01*
X164459Y170827D01*
X165154Y170108D01*
X165852Y169392D01*
X166553Y168679D01*
X167257Y167968D01*
X167965Y167261D01*
X168675Y166557D01*
X169388Y165856D01*
X170104Y165158D01*
X170823Y164462D01*
X171545Y163770D01*
X172270Y163081D01*
X172998Y162395D01*
X173729Y161713D01*
X174462Y161033D01*
X175199Y160356D01*
X175938Y159683D01*
X176680Y159012D01*
X177425Y158345D01*
X178173Y157681D01*
X178924Y157020D01*
X179677Y156362D01*
X180434Y155708D01*
X181193Y155057D01*
X181954Y154408D01*
X182719Y153764D01*
X183486Y153122D01*
X184256Y152484D01*
X185029Y151848D01*
X185804Y151217D01*
X186582Y150588D01*
X187362Y149963D01*
X188146Y149341D01*
X188931Y148722D01*
X189720Y148107D01*
X190511Y147495D01*
X191305Y146887D01*
X192101Y146281D01*
X192900Y145680D01*
X193701Y145081D01*
X194505Y144486D01*
X195311Y143895D01*
X196120Y143306D01*
X196931Y142721D01*
X197745Y142140D01*
X198562Y141562D01*
X199380Y140988D01*
X200201Y140417D01*
X201025Y139849D01*
X201851Y139285D01*
X202679Y138725D01*
X203510Y138168D01*
X204343Y137614D01*
X205178Y137065D01*
X206016Y136518D01*
X206856Y135975D01*
X207698Y135436D01*
X208543Y134900D01*
X209390Y134368D01*
X210239Y133840D01*
X211090Y133315D01*
X211944Y132793D01*
X212799Y132276D01*
X213657Y131762D01*
X214517Y131251D01*
X215380Y130745D01*
X216244Y130241D01*
X217110Y129742D01*
X217979Y129246D01*
X218850Y128754D01*
X219722Y128266D01*
X220597Y127781D01*
X221474Y127300D01*
X222353Y126822D01*
X223234Y126349D01*
X224117Y125879D01*
X225002Y125413D01*
X225888Y124951D01*
X226777Y124492D01*
X227668Y124037D01*
X228561Y123586D01*
X229455Y123139D01*
X230352Y122696D01*
X231250Y122256D01*
X232150Y121820D01*
X233052Y121388D01*
X233956Y120960D01*
X234862Y120535D01*
X235769Y120115D01*
X236678Y119698D01*
X237589Y119285D01*
X238502Y118876D01*
X239416Y118471D01*
X240332Y118070D01*
X241250Y117673D01*
X242170Y117279D01*
X243091Y116889D01*
X244014Y116504D01*
X244938Y116122D01*
X245864Y115744D01*
X246792Y115370D01*
X247721Y115000D01*
X248651Y114634D01*
X249584Y114272D01*
X250518Y113914D01*
X251453Y113560D01*
X252390Y113209D01*
X253328Y112863D01*
X254268Y112521D01*
X255209Y112182D01*
X256151Y111848D01*
X257095Y111518D01*
X258041Y111191D01*
X258987Y110869D01*
X259936Y110551D01*
X260885Y110237D01*
X261836Y109926D01*
X262788Y109620D01*
X263741Y109318D01*
X264696Y109019D01*
X265652Y108725D01*
X266609Y108435D01*
X267567Y108149D01*
X268527Y107867D01*
X269488Y107589D01*
X270450Y107316D01*
X271413Y107046D01*
X272377Y106780D01*
X273342Y106518D01*
X274309Y106261D01*
X275276Y106008D01*
X276245Y105758D01*
X277214Y105513D01*
X278185Y105272D01*
X279156Y105035D01*
X280129Y104802D01*
X281103Y104573D01*
X282077Y104349D01*
X283053Y104128D01*
X284029Y103912D01*
X285007Y103700D01*
X285985Y103491D01*
X286964Y103288D01*
X287944Y103088D01*
X288925Y102892D01*
X289906Y102701D01*
X290889Y102513D01*
X291872Y102330D01*
X292856Y102151D01*
X293841Y101976D01*
X294826Y101805D01*
X295812Y101639D01*
X296799Y101477D01*
X297787Y101319D01*
X298775Y101165D01*
X299764Y101015D01*
X300753Y100869D01*
X301744Y100728D01*
X302734Y100591D01*
X303725Y100458D01*
X304717Y100329D01*
X305710Y100204D01*
X306702Y100084D01*
X307696Y99968D01*
X308690Y99856D01*
X309684Y99748D01*
X310679Y99644D01*
X311674Y99545D01*
X312669Y99450D01*
X313665Y99359D01*
X314662Y99272D01*
X315658Y99190D01*
X316656Y99111D01*
X317653Y99037D01*
X318651Y98967D01*
X319649Y98902D01*
X320647Y98840D01*
X321645Y98783D01*
X322644Y98730D01*
X323643Y98682D01*
X324642Y98637D01*
X325641Y98597D01*
X326641Y98561D01*
X327641Y98529D01*
X328640Y98501D01*
X329640Y98478D01*
X330640Y98459D01*
X331640Y98444D01*
X332640Y98434D01*
X333640Y98427D01*
X334641Y98425D01*
X334646D01*
M02*
