G04 Layer_Color=16764230*
%FSLAX25Y25*%
%MOIN*%
G70*
G01*
G75*
%ADD16C,0.00394*%
D16*
X165354Y142717D02*
X165489Y141698D01*
X165882Y140748D01*
X166507Y139933D01*
X167323Y139307D01*
X168272Y138914D01*
X169291Y138780D01*
Y154528D02*
X168272Y154393D01*
X167323Y154000D01*
X166507Y153375D01*
X165882Y152559D01*
X165489Y151610D01*
X165354Y150591D01*
X381890D02*
X381756Y151610D01*
X381362Y152559D01*
X380737Y153375D01*
X379921Y154000D01*
X378972Y154393D01*
X377953Y154528D01*
Y138780D02*
X378972Y138914D01*
X379921Y139307D01*
X380737Y139933D01*
X381362Y140748D01*
X381756Y141698D01*
X381890Y142717D01*
X98425Y129921D02*
X98441Y128912D01*
X98490Y127903D01*
X98571Y126897D01*
X98684Y125894D01*
X98829Y124894D01*
X99006Y123900D01*
X99215Y122913D01*
X99455Y121932D01*
X99727Y120960D01*
X100030Y119997D01*
X100363Y119044D01*
X100727Y118102D01*
X101121Y117172D01*
X101544Y116256D01*
X101997Y115353D01*
X102478Y114466D01*
X102988Y113594D01*
X103525Y112739D01*
X104089Y111902D01*
X104680Y111083D01*
X105297Y110284D01*
X105939Y109505D01*
X106605Y108746D01*
X107296Y108010D01*
X108010Y107296D01*
X108746Y106605D01*
X109505Y105939D01*
X110284Y105297D01*
X111083Y104680D01*
X111902Y104089D01*
X112739Y103525D01*
X113594Y102988D01*
X114465Y102478D01*
X115353Y101997D01*
X116256Y101544D01*
X117172Y101121D01*
X118102Y100727D01*
X119044Y100363D01*
X119997Y100030D01*
X120960Y99727D01*
X121932Y99455D01*
X122913Y99215D01*
X123900Y99006D01*
X124894Y98829D01*
X125894Y98684D01*
X126897Y98571D01*
X127903Y98490D01*
X128912Y98441D01*
X129921Y98425D01*
X417323Y98425D02*
X418332Y98441D01*
X419341Y98490D01*
X420347Y98571D01*
X421350Y98684D01*
X422350Y98829D01*
X423344Y99006D01*
X424331Y99215D01*
X425312Y99455D01*
X426284Y99727D01*
X427247Y100030D01*
X428200Y100363D01*
X429142Y100727D01*
X430072Y101121D01*
X430988Y101544D01*
X431891Y101997D01*
X432778Y102478D01*
X433650Y102988D01*
X434505Y103525D01*
X435342Y104089D01*
X436161Y104680D01*
X436960Y105297D01*
X437739Y105939D01*
X438498Y106605D01*
X439234Y107296D01*
X439948Y108010D01*
X440639Y108746D01*
X441305Y109505D01*
X441947Y110284D01*
X442564Y111083D01*
X443155Y111902D01*
X443719Y112739D01*
X444256Y113594D01*
X444766Y114465D01*
X445247Y115353D01*
X445700Y116256D01*
X446123Y117172D01*
X446517Y118102D01*
X446881Y119044D01*
X447214Y119997D01*
X447517Y120960D01*
X447789Y121932D01*
X448029Y122913D01*
X448238Y123900D01*
X448415Y124894D01*
X448560Y125893D01*
X448673Y126897D01*
X448754Y127903D01*
X448803Y128912D01*
X448819Y129921D01*
X165354Y142717D02*
Y150591D01*
X169291Y154528D02*
X377953D01*
X381890Y142717D02*
Y150591D01*
X169291Y138780D02*
X377953D01*
X98425Y129921D02*
X98425Y600787D01*
X448819Y600787D01*
X448819Y129921D01*
X129921Y98425D02*
X417323D01*
M02*
