G04 Layer_Color=15132400*
%FSLAX25Y25*%
%MOIN*%
G70*
G01*
G75*
%ADD12C,0.01969*%
%ADD13R,0.02362X0.10236*%
G36*
X241165Y119499D02*
X241395D01*
X241650Y119473D01*
X241931Y119448D01*
X242237Y119396D01*
X242900Y119269D01*
X243589Y119090D01*
X244226Y118835D01*
X244532Y118682D01*
X244813Y118504D01*
X244839D01*
X244864Y118453D01*
X245043Y118325D01*
X245272Y118070D01*
X245553Y117738D01*
X245706Y117534D01*
X245833Y117305D01*
X245987Y117024D01*
X246114Y116743D01*
X246242Y116437D01*
X246344Y116106D01*
X246420Y115723D01*
X246497Y115340D01*
X242415Y115111D01*
Y115162D01*
X242390Y115264D01*
X242339Y115442D01*
X242262Y115647D01*
X242160Y115851D01*
X242058Y116080D01*
X241905Y116310D01*
X241726Y116488D01*
X241701Y116514D01*
X241624Y116565D01*
X241522Y116616D01*
X241369Y116718D01*
X241165Y116795D01*
X240910Y116846D01*
X240630Y116896D01*
X240298Y116922D01*
X240170D01*
X240043Y116896D01*
X239864Y116871D01*
X239481Y116795D01*
X239303Y116692D01*
X239150Y116590D01*
X239124Y116565D01*
X239099Y116539D01*
X238971Y116386D01*
X238844Y116131D01*
X238818Y115978D01*
X238793Y115825D01*
Y115800D01*
Y115774D01*
X238844Y115621D01*
X238920Y115417D01*
X238997Y115315D01*
X239099Y115213D01*
X239124D01*
X239175Y115162D01*
X239252Y115111D01*
X239405Y115034D01*
X239584Y114958D01*
X239839Y114881D01*
X240145Y114779D01*
X240527Y114703D01*
X240553D01*
X240655Y114677D01*
X240808Y114652D01*
X240987Y114601D01*
X241216Y114550D01*
X241497Y114473D01*
X241803Y114397D01*
X242109Y114320D01*
X242772Y114141D01*
X243461Y113912D01*
X244073Y113682D01*
X244354Y113580D01*
X244609Y113453D01*
X244635D01*
X244660Y113427D01*
X244813Y113351D01*
X245017Y113223D01*
X245298Y113045D01*
X245578Y112815D01*
X245884Y112560D01*
X246165Y112254D01*
X246395Y111922D01*
X246420Y111871D01*
X246471Y111769D01*
X246573Y111565D01*
X246675Y111310D01*
X246777Y111004D01*
X246879Y110672D01*
X246930Y110264D01*
X246956Y109856D01*
Y109830D01*
Y109805D01*
Y109728D01*
Y109626D01*
X246905Y109371D01*
X246854Y109039D01*
X246777Y108657D01*
X246624Y108223D01*
X246446Y107789D01*
X246191Y107356D01*
X246165Y107305D01*
X246063Y107177D01*
X245884Y106973D01*
X245655Y106718D01*
X245349Y106437D01*
X244992Y106157D01*
X244584Y105902D01*
X244099Y105647D01*
X244073D01*
X244048Y105621D01*
X243971Y105596D01*
X243869Y105570D01*
X243742Y105519D01*
X243563Y105468D01*
X243385Y105417D01*
X243180Y105366D01*
X242696Y105264D01*
X242109Y105162D01*
X241471Y105111D01*
X240732Y105085D01*
X240400D01*
X240145Y105111D01*
X239864Y105136D01*
X239532Y105162D01*
X239175Y105187D01*
X238767Y105264D01*
X237951Y105417D01*
X237135Y105647D01*
X236752Y105800D01*
X236395Y106004D01*
X236063Y106208D01*
X235783Y106437D01*
X235757Y106463D01*
X235732Y106514D01*
X235655Y106590D01*
X235578Y106693D01*
X235476Y106820D01*
X235349Y106973D01*
X235221Y107177D01*
X235094Y107381D01*
X234813Y107891D01*
X234558Y108504D01*
X234380Y109167D01*
X234303Y109550D01*
X234252Y109932D01*
X238359Y110213D01*
Y110162D01*
X238385Y110034D01*
X238410Y109856D01*
X238487Y109652D01*
X238640Y109142D01*
X238767Y108886D01*
X238895Y108682D01*
X238920Y108657D01*
X239022Y108555D01*
X239175Y108427D01*
X239380Y108274D01*
X239660Y108096D01*
X239992Y107968D01*
X240374Y107866D01*
X240808Y107841D01*
X240961D01*
X241114Y107866D01*
X241344Y107891D01*
X241573Y107942D01*
X241803Y108019D01*
X242033Y108121D01*
X242237Y108249D01*
X242262Y108274D01*
X242313Y108325D01*
X242390Y108427D01*
X242492Y108529D01*
X242594Y108682D01*
X242670Y108861D01*
X242721Y109065D01*
X242747Y109269D01*
Y109294D01*
Y109371D01*
X242721Y109473D01*
X242696Y109601D01*
X242619Y109754D01*
X242543Y109907D01*
X242415Y110085D01*
X242262Y110238D01*
X242237Y110264D01*
X242160Y110315D01*
X242007Y110391D01*
X241803Y110494D01*
X241497Y110621D01*
X241114Y110774D01*
X240885Y110851D01*
X240630Y110902D01*
X240349Y110978D01*
X240043Y111055D01*
X240017D01*
X239915Y111080D01*
X239762Y111131D01*
X239584Y111157D01*
X239354Y111233D01*
X239073Y111310D01*
X238793Y111386D01*
X238487Y111488D01*
X237798Y111743D01*
X237135Y112024D01*
X236522Y112356D01*
X236242Y112534D01*
X235987Y112738D01*
Y112764D01*
X235936Y112789D01*
X235808Y112917D01*
X235604Y113146D01*
X235400Y113478D01*
X235170Y113861D01*
X234966Y114320D01*
X234839Y114830D01*
X234813Y115111D01*
X234788Y115417D01*
Y115442D01*
Y115468D01*
Y115595D01*
X234813Y115825D01*
X234864Y116080D01*
X234941Y116386D01*
X235043Y116743D01*
X235196Y117101D01*
X235400Y117458D01*
X235425Y117509D01*
X235527Y117611D01*
X235681Y117789D01*
X235885Y118019D01*
X236140Y118248D01*
X236471Y118504D01*
X236854Y118733D01*
X237288Y118963D01*
X237313D01*
X237339Y118988D01*
X237415Y119014D01*
X237517Y119039D01*
X237645Y119090D01*
X237798Y119141D01*
X237976Y119192D01*
X238180Y119243D01*
X238410Y119294D01*
X238691Y119345D01*
X239277Y119448D01*
X239966Y119499D01*
X240732Y119524D01*
X240987D01*
X241165Y119499D01*
D02*
G37*
G36*
X256114D02*
X256344D01*
X256599Y119473D01*
X256879Y119448D01*
X257185Y119396D01*
X257874Y119269D01*
X258563Y119065D01*
X259226Y118810D01*
X259532Y118631D01*
X259839Y118453D01*
X259864D01*
X259915Y118402D01*
X259992Y118351D01*
X260094Y118248D01*
X260221Y118147D01*
X260374Y117993D01*
X260527Y117840D01*
X260706Y117636D01*
X260884Y117432D01*
X261063Y117177D01*
X261267Y116922D01*
X261446Y116616D01*
X261624Y116284D01*
X261803Y115953D01*
X261956Y115570D01*
X262109Y115162D01*
X258282Y114320D01*
Y114346D01*
X258257Y114422D01*
X258206Y114550D01*
X258155Y114677D01*
X258002Y114983D01*
X257925Y115111D01*
X257849Y115238D01*
X257823Y115264D01*
X257798Y115315D01*
X257696Y115417D01*
X257594Y115519D01*
X257313Y115774D01*
X256956Y116004D01*
X256930Y116029D01*
X256879Y116055D01*
X256752Y116106D01*
X256624Y116157D01*
X256446Y116208D01*
X256242Y116233D01*
X256012Y116284D01*
X255629D01*
X255553Y116259D01*
X255272Y116233D01*
X254941Y116131D01*
X254583Y116004D01*
X254201Y115774D01*
X253844Y115494D01*
X253691Y115289D01*
X253538Y115085D01*
X253512Y115034D01*
X253435Y114932D01*
X253359Y114703D01*
X253257Y114422D01*
X253129Y114039D01*
X253053Y113580D01*
X252976Y113019D01*
X252951Y112356D01*
Y112330D01*
Y112254D01*
Y112126D01*
Y111973D01*
X252976Y111794D01*
Y111565D01*
X253027Y111080D01*
X253129Y110570D01*
X253231Y110034D01*
X253410Y109550D01*
X253512Y109345D01*
X253640Y109167D01*
X253665Y109142D01*
X253767Y109039D01*
X253946Y108912D01*
X254150Y108759D01*
X254430Y108580D01*
X254787Y108453D01*
X255170Y108351D01*
X255629Y108325D01*
X255833D01*
X256063Y108351D01*
X256344Y108402D01*
X256650Y108504D01*
X256956Y108606D01*
X257262Y108784D01*
X257517Y109014D01*
X257543Y109039D01*
X257619Y109142D01*
X257747Y109294D01*
X257874Y109524D01*
X258027Y109805D01*
X258180Y110162D01*
X258333Y110570D01*
X258461Y111055D01*
X262236Y109881D01*
Y109856D01*
X262211Y109805D01*
X262185Y109728D01*
X262160Y109626D01*
X262083Y109320D01*
X261930Y108963D01*
X261777Y108529D01*
X261548Y108096D01*
X261318Y107662D01*
X261012Y107228D01*
X260986Y107177D01*
X260859Y107050D01*
X260680Y106871D01*
X260451Y106616D01*
X260145Y106361D01*
X259813Y106106D01*
X259405Y105851D01*
X258971Y105621D01*
X258946D01*
X258920Y105596D01*
X258844Y105570D01*
X258767Y105545D01*
X258487Y105443D01*
X258129Y105366D01*
X257696Y105264D01*
X257160Y105162D01*
X256548Y105111D01*
X255884Y105085D01*
X255502D01*
X255298Y105111D01*
X255094D01*
X254838Y105136D01*
X254558Y105162D01*
X253971Y105238D01*
X253333Y105366D01*
X252721Y105519D01*
X252134Y105723D01*
X252109D01*
X252083Y105749D01*
X252007Y105800D01*
X251905Y105851D01*
X251624Y106029D01*
X251293Y106259D01*
X250910Y106590D01*
X250476Y106973D01*
X250068Y107458D01*
X249660Y108045D01*
Y108070D01*
X249609Y108121D01*
X249558Y108223D01*
X249507Y108351D01*
X249430Y108504D01*
X249328Y108708D01*
X249226Y108937D01*
X249150Y109218D01*
X249048Y109499D01*
X248946Y109830D01*
X248869Y110187D01*
X248767Y110570D01*
X248716Y110978D01*
X248665Y111412D01*
X248614Y112330D01*
Y112381D01*
Y112483D01*
X248640Y112662D01*
Y112891D01*
X248665Y113198D01*
X248716Y113529D01*
X248767Y113886D01*
X248844Y114295D01*
X248946Y114728D01*
X249073Y115162D01*
X249201Y115595D01*
X249379Y116055D01*
X249609Y116488D01*
X249839Y116896D01*
X250119Y117305D01*
X250451Y117662D01*
X250476Y117687D01*
X250527Y117738D01*
X250655Y117840D01*
X250782Y117942D01*
X250987Y118096D01*
X251216Y118248D01*
X251471Y118427D01*
X251803Y118606D01*
X252134Y118759D01*
X252543Y118937D01*
X252976Y119090D01*
X253435Y119243D01*
X253946Y119345D01*
X254481Y119448D01*
X255068Y119499D01*
X255680Y119524D01*
X255936D01*
X256114Y119499D01*
D02*
G37*
G36*
X221009Y248133D02*
X221125D01*
X221256Y248118D01*
X221548Y248074D01*
X221869Y247987D01*
X222204Y247870D01*
X222525Y247725D01*
X222671Y247622D01*
X222802Y247506D01*
X222816D01*
X222831Y247477D01*
X222860Y247433D01*
X222904Y247389D01*
X223021Y247243D01*
X223137Y247039D01*
X223254Y246777D01*
X223371Y246471D01*
X223443Y246106D01*
X223473Y245917D01*
Y245698D01*
Y245683D01*
Y245640D01*
Y245581D01*
X223458Y245494D01*
Y245392D01*
X223429Y245275D01*
X223385Y245013D01*
X223298Y244706D01*
X223166Y244386D01*
X223079Y244225D01*
X222991Y244079D01*
X222875Y243934D01*
X222744Y243802D01*
X222729D01*
X222714Y243773D01*
X222671Y243744D01*
X222612Y243700D01*
X222525Y243642D01*
X222437Y243584D01*
X222321Y243526D01*
X222190Y243467D01*
X222044Y243409D01*
X221883Y243351D01*
X221694Y243292D01*
X221490Y243234D01*
X221271Y243190D01*
X221038Y243161D01*
X220790Y243146D01*
X220513Y243132D01*
X219172D01*
Y240158D01*
X216693D01*
Y248147D01*
X220921D01*
X221009Y248133D01*
D02*
G37*
G36*
X205379Y240158D02*
X202784D01*
X202390Y241470D01*
X199591D01*
X199197Y240158D01*
X196675D01*
X199663Y248147D01*
X202375D01*
X205379Y240158D01*
D02*
G37*
G36*
X141307Y222515D02*
X141563Y222486D01*
X141847Y222458D01*
X142160Y222401D01*
X142501Y222344D01*
X143240Y222145D01*
X143979Y221861D01*
X144377Y221690D01*
X144719Y221491D01*
X145088Y221235D01*
X145401Y220951D01*
X145429Y220923D01*
X145486Y220894D01*
X145543Y220780D01*
X145657Y220667D01*
X145799Y220525D01*
X145941Y220326D01*
X146083Y220127D01*
X146254Y219871D01*
X146538Y219302D01*
X146822Y218648D01*
X146936Y218279D01*
X146993Y217881D01*
X147050Y217454D01*
X147078Y217028D01*
Y216971D01*
Y216800D01*
X147050Y216545D01*
X147021Y216232D01*
X146964Y215834D01*
X146879Y215407D01*
X146765Y214952D01*
X146595Y214497D01*
X146566Y214441D01*
X146510Y214299D01*
X146396Y214043D01*
X146225Y213730D01*
X146026Y213360D01*
X145770Y212934D01*
X145458Y212479D01*
X145088Y211996D01*
X145060Y211967D01*
X144946Y211825D01*
X144775Y211626D01*
X144519Y211342D01*
X144178Y211001D01*
X143752Y210546D01*
X143240Y210062D01*
X142615Y209465D01*
X142586Y209437D01*
X142529Y209408D01*
X142444Y209323D01*
X142330Y209209D01*
X142018Y208925D01*
X141648Y208584D01*
X141278Y208214D01*
X140909Y207845D01*
X140568Y207532D01*
X140454Y207390D01*
X140340Y207276D01*
X140312Y207248D01*
X140255Y207191D01*
X140170Y207077D01*
X140056Y206935D01*
X139800Y206622D01*
X139573Y206253D01*
X147078D01*
Y202756D01*
X133858D01*
Y202784D01*
Y202841D01*
X133887Y202955D01*
X133915Y203097D01*
X133943Y203268D01*
X133972Y203467D01*
X134086Y203978D01*
X134256Y204547D01*
X134484Y205172D01*
X134768Y205855D01*
X135138Y206509D01*
Y206537D01*
X135194Y206594D01*
X135251Y206708D01*
X135365Y206821D01*
X135479Y207020D01*
X135649Y207219D01*
X135848Y207475D01*
X136076Y207760D01*
X136332Y208101D01*
X136644Y208442D01*
X136986Y208840D01*
X137383Y209266D01*
X137810Y209693D01*
X138293Y210176D01*
X138805Y210688D01*
X139374Y211228D01*
X139402Y211257D01*
X139487Y211342D01*
X139601Y211455D01*
X139772Y211626D01*
X139999Y211797D01*
X140226Y212024D01*
X140738Y212536D01*
X141250Y213076D01*
X141762Y213616D01*
X141989Y213844D01*
X142217Y214100D01*
X142387Y214299D01*
X142501Y214469D01*
X142529Y214526D01*
X142615Y214668D01*
X142757Y214896D01*
X142899Y215208D01*
X143041Y215549D01*
X143183Y215947D01*
X143269Y216345D01*
X143297Y216772D01*
Y216800D01*
Y216829D01*
Y216971D01*
X143269Y217227D01*
X143212Y217511D01*
X143126Y217824D01*
X143013Y218137D01*
X142842Y218449D01*
X142615Y218734D01*
X142586Y218762D01*
X142501Y218847D01*
X142330Y218961D01*
X142131Y219075D01*
X141847Y219188D01*
X141534Y219302D01*
X141165Y219387D01*
X140738Y219416D01*
X140539D01*
X140312Y219387D01*
X140056Y219331D01*
X139743Y219245D01*
X139430Y219103D01*
X139118Y218933D01*
X138833Y218705D01*
X138805Y218677D01*
X138720Y218563D01*
X138606Y218392D01*
X138492Y218137D01*
X138350Y217824D01*
X138236Y217397D01*
X138123Y216914D01*
X138066Y216345D01*
X134313Y216715D01*
Y216743D01*
X134342Y216857D01*
Y216999D01*
X134398Y217227D01*
X134427Y217483D01*
X134512Y217767D01*
X134597Y218080D01*
X134683Y218449D01*
X134967Y219160D01*
X135308Y219899D01*
X135536Y220269D01*
X135791Y220610D01*
X136076Y220894D01*
X136389Y221179D01*
X136417Y221207D01*
X136474Y221235D01*
X136559Y221292D01*
X136701Y221406D01*
X136872Y221491D01*
X137099Y221605D01*
X137327Y221747D01*
X137611Y221861D01*
X137924Y222003D01*
X138265Y222117D01*
X139004Y222344D01*
X139885Y222486D01*
X140340Y222515D01*
X140824Y222543D01*
X141108D01*
X141307Y222515D01*
D02*
G37*
G36*
X407385Y257948D02*
X407641Y257919D01*
X407897Y257891D01*
X408210Y257834D01*
X408523Y257749D01*
X409233Y257550D01*
X409603Y257408D01*
X410001Y257209D01*
X410370Y257010D01*
X410712Y256782D01*
X411081Y256498D01*
X411394Y256185D01*
X411422Y256157D01*
X411451Y256128D01*
X411536Y256043D01*
X411621Y255929D01*
X411849Y255645D01*
X412105Y255247D01*
X412360Y254764D01*
X412560Y254195D01*
X412730Y253570D01*
X412758Y253257D01*
X412787Y252916D01*
Y252887D01*
Y252802D01*
X412758Y252660D01*
X412730Y252489D01*
X412702Y252262D01*
X412645Y252006D01*
X412560Y251722D01*
X412446Y251409D01*
X412275Y251096D01*
X412105Y250755D01*
X411877Y250414D01*
X411593Y250073D01*
X411252Y249732D01*
X410882Y249390D01*
X410456Y249078D01*
X409944Y248765D01*
X409972D01*
X410029Y248737D01*
X410114D01*
X410228Y248680D01*
X410541Y248594D01*
X410911Y248424D01*
X411337Y248196D01*
X411792Y247912D01*
X412247Y247543D01*
X412645Y247116D01*
X412702Y247059D01*
X412815Y246889D01*
X412957Y246633D01*
X413157Y246263D01*
X413356Y245837D01*
X413498Y245297D01*
X413611Y244728D01*
X413668Y244074D01*
Y244046D01*
Y243960D01*
Y243818D01*
X413640Y243648D01*
X413611Y243420D01*
X413555Y243164D01*
X413498Y242851D01*
X413441Y242539D01*
X413213Y241857D01*
X413043Y241487D01*
X412872Y241089D01*
X412645Y240719D01*
X412389Y240350D01*
X412105Y239980D01*
X411763Y239639D01*
X411735Y239611D01*
X411678Y239554D01*
X411564Y239468D01*
X411422Y239355D01*
X411223Y239212D01*
X411024Y239070D01*
X410740Y238900D01*
X410456Y238729D01*
X410143Y238559D01*
X409773Y238388D01*
X409375Y238246D01*
X408977Y238104D01*
X408523Y237990D01*
X408068Y237905D01*
X407556Y237848D01*
X407044Y237819D01*
X406788D01*
X406589Y237848D01*
X406362Y237876D01*
X406106Y237905D01*
X405822Y237962D01*
X405480Y238018D01*
X404798Y238189D01*
X404059Y238473D01*
X403661Y238644D01*
X403320Y238843D01*
X402950Y239099D01*
X402609Y239355D01*
X402581Y239383D01*
X402524Y239440D01*
X402438Y239525D01*
X402325Y239639D01*
X402183Y239781D01*
X402040Y239980D01*
X401870Y240179D01*
X401699Y240435D01*
X401529Y240719D01*
X401330Y241004D01*
X401017Y241686D01*
X400761Y242482D01*
X400647Y242908D01*
X400591Y243363D01*
X404229Y243818D01*
Y243790D01*
Y243761D01*
X404258Y243591D01*
X404315Y243335D01*
X404400Y243022D01*
X404542Y242681D01*
X404684Y242311D01*
X404912Y241970D01*
X405168Y241657D01*
X405196Y241629D01*
X405310Y241544D01*
X405480Y241430D01*
X405680Y241316D01*
X405964Y241174D01*
X406277Y241060D01*
X406618Y240975D01*
X407016Y240947D01*
X407072D01*
X407215Y240975D01*
X407414Y241004D01*
X407698Y241060D01*
X408011Y241174D01*
X408323Y241316D01*
X408665Y241544D01*
X408977Y241828D01*
X409006Y241857D01*
X409120Y241999D01*
X409233Y242198D01*
X409404Y242454D01*
X409546Y242795D01*
X409688Y243221D01*
X409773Y243704D01*
X409802Y244245D01*
Y244273D01*
Y244301D01*
Y244472D01*
X409773Y244728D01*
X409717Y245069D01*
X409603Y245439D01*
X409461Y245808D01*
X409262Y246178D01*
X409006Y246519D01*
X408977Y246547D01*
X408864Y246661D01*
X408693Y246803D01*
X408494Y246945D01*
X408210Y247116D01*
X407897Y247230D01*
X407556Y247343D01*
X407158Y247372D01*
X406874D01*
X406674Y247343D01*
X406419Y247315D01*
X406106Y247258D01*
X405793Y247173D01*
X405424Y247088D01*
X405822Y250130D01*
X406077D01*
X406362Y250158D01*
X406703Y250186D01*
X407072Y250272D01*
X407471Y250385D01*
X407840Y250556D01*
X408181Y250783D01*
X408210Y250812D01*
X408323Y250926D01*
X408437Y251068D01*
X408608Y251295D01*
X408750Y251551D01*
X408892Y251864D01*
X408977Y252233D01*
X409006Y252660D01*
Y252717D01*
Y252830D01*
X408977Y253001D01*
X408920Y253228D01*
X408864Y253484D01*
X408750Y253740D01*
X408608Y254025D01*
X408409Y254252D01*
X408380Y254280D01*
X408295Y254337D01*
X408181Y254451D01*
X407982Y254565D01*
X407755Y254650D01*
X407499Y254764D01*
X407158Y254820D01*
X406817Y254849D01*
X406646D01*
X406475Y254820D01*
X406248Y254764D01*
X405992Y254678D01*
X405708Y254565D01*
X405424Y254394D01*
X405168Y254167D01*
X405139Y254138D01*
X405054Y254053D01*
X404940Y253882D01*
X404798Y253655D01*
X404656Y253399D01*
X404542Y253058D01*
X404428Y252660D01*
X404343Y252205D01*
X400875Y252774D01*
Y252802D01*
X400903Y252859D01*
Y252944D01*
X400932Y253086D01*
X401017Y253399D01*
X401131Y253825D01*
X401301Y254280D01*
X401472Y254764D01*
X401699Y255219D01*
X401955Y255645D01*
X401984Y255702D01*
X402097Y255816D01*
X402268Y256015D01*
X402495Y256271D01*
X402780Y256526D01*
X403121Y256811D01*
X403547Y257095D01*
X404002Y257351D01*
X404031D01*
X404059Y257379D01*
X404229Y257436D01*
X404514Y257550D01*
X404855Y257663D01*
X405281Y257777D01*
X405793Y257891D01*
X406333Y257948D01*
X406930Y257976D01*
X407186D01*
X407385Y257948D01*
D02*
G37*
G36*
X305426Y103085D02*
X263748D01*
Y121524D01*
X305426D01*
Y103085D01*
D02*
G37*
G36*
X143485Y238189D02*
X139704D01*
Y252432D01*
X139676Y252404D01*
X139619Y252347D01*
X139505Y252262D01*
X139334Y252120D01*
X139135Y251949D01*
X138908Y251779D01*
X138624Y251579D01*
X138311Y251352D01*
X137970Y251125D01*
X137600Y250897D01*
X137202Y250641D01*
X136776Y250414D01*
X135866Y249987D01*
X134843Y249589D01*
Y253001D01*
X134871D01*
X134899Y253029D01*
X134985Y253058D01*
X135098Y253086D01*
X135383Y253228D01*
X135781Y253399D01*
X136264Y253626D01*
X136804Y253939D01*
X137401Y254337D01*
X138027Y254792D01*
X138055Y254820D01*
X138112Y254849D01*
X138197Y254934D01*
X138311Y255048D01*
X138624Y255332D01*
X138965Y255702D01*
X139363Y256157D01*
X139761Y256725D01*
X140130Y257322D01*
X140415Y257976D01*
X143485D01*
Y238189D01*
D02*
G37*
G36*
X227234Y242126D02*
X231098D01*
Y240158D01*
X224770D01*
Y248147D01*
X227234D01*
Y242126D01*
D02*
G37*
G36*
X341584Y240158D02*
X338989D01*
X338595Y241470D01*
X335796D01*
X335402Y240158D01*
X332880D01*
X335869Y248147D01*
X338580D01*
X341584Y240158D01*
D02*
G37*
G36*
X332238Y246442D02*
X328097D01*
Y245173D01*
X331932D01*
Y243540D01*
X328097D01*
Y241965D01*
X332355D01*
Y240158D01*
X325619D01*
Y248147D01*
X332238D01*
Y246442D01*
D02*
G37*
G36*
X285105Y210630D02*
X277559D01*
Y200017D01*
X417042D01*
Y189831D01*
X129890D01*
Y200017D01*
X269685D01*
Y210630D01*
X262139D01*
X273622Y222441D01*
X285105Y210630D01*
D02*
G37*
G36*
X349311Y246179D02*
X346789D01*
Y240158D01*
X344325D01*
Y246179D01*
X341803D01*
Y248147D01*
X349311D01*
Y246179D01*
D02*
G37*
G36*
X215133Y240158D02*
X213106D01*
Y246252D01*
X211546Y240158D01*
X209709D01*
X208164Y246252D01*
Y240158D01*
X206137D01*
Y248147D01*
X209388D01*
X210628Y243278D01*
X211881Y248147D01*
X215133D01*
Y240158D01*
D02*
G37*
G36*
X238840Y246442D02*
X234699D01*
Y245173D01*
X238534D01*
Y243540D01*
X234699D01*
Y241965D01*
X238957D01*
Y240158D01*
X232221D01*
Y248147D01*
X238840D01*
Y246442D01*
D02*
G37*
G36*
X321741Y248133D02*
X321843D01*
X321945Y248118D01*
X322207Y248074D01*
X322499Y248002D01*
X322790Y247900D01*
X323067Y247754D01*
X323330Y247564D01*
X323344D01*
X323359Y247535D01*
X323432Y247462D01*
X323534Y247345D01*
X323651Y247170D01*
X323752Y246966D01*
X323855Y246733D01*
X323927Y246456D01*
X323957Y246310D01*
Y246150D01*
Y246135D01*
Y246121D01*
Y246033D01*
X323927Y245902D01*
X323898Y245742D01*
X323840Y245552D01*
X323767Y245348D01*
X323651Y245144D01*
X323505Y244940D01*
X323490Y244925D01*
X323446Y244881D01*
X323388Y244823D01*
X323286Y244750D01*
X323169Y244663D01*
X323024Y244575D01*
X322849Y244488D01*
X322644Y244400D01*
X322659D01*
X322688Y244386D01*
X322732D01*
X322790Y244356D01*
X322936Y244313D01*
X323126Y244240D01*
X323330Y244138D01*
X323548Y244007D01*
X323738Y243861D01*
X323913Y243686D01*
X323927Y243657D01*
X323971Y243598D01*
X324044Y243482D01*
X324117Y243336D01*
X324190Y243161D01*
X324263Y242942D01*
X324307Y242694D01*
X324321Y242417D01*
Y242388D01*
Y242315D01*
X324307Y242199D01*
X324292Y242053D01*
X324248Y241878D01*
X324204Y241688D01*
X324132Y241499D01*
X324029Y241309D01*
X324015Y241295D01*
X323971Y241222D01*
X323913Y241134D01*
X323825Y241032D01*
X323709Y240901D01*
X323563Y240770D01*
X323403Y240639D01*
X323228Y240522D01*
X323213D01*
X323169Y240493D01*
X323096Y240464D01*
X322994Y240420D01*
X322863Y240376D01*
X322703Y240333D01*
X322513Y240303D01*
X322294Y240260D01*
X322265D01*
X322222Y240245D01*
X322163D01*
X322018Y240230D01*
X321843Y240216D01*
X321653Y240187D01*
X321478Y240172D01*
X321318Y240158D01*
X316929D01*
Y248147D01*
X321668D01*
X321741Y248133D01*
D02*
G37*
G36*
X192928Y248264D02*
X193059D01*
X193204Y248249D01*
X193365Y248235D01*
X193540Y248206D01*
X193919Y248133D01*
X194313Y248031D01*
X194677Y247885D01*
X194852Y247797D01*
X195012Y247695D01*
X195027D01*
X195042Y247666D01*
X195144Y247593D01*
X195275Y247447D01*
X195435Y247258D01*
X195523Y247141D01*
X195596Y247010D01*
X195683Y246850D01*
X195756Y246689D01*
X195829Y246514D01*
X195887Y246325D01*
X195931Y246106D01*
X195975Y245887D01*
X193642Y245756D01*
Y245785D01*
X193627Y245844D01*
X193598Y245946D01*
X193554Y246062D01*
X193496Y246179D01*
X193438Y246310D01*
X193350Y246442D01*
X193248Y246544D01*
X193234Y246558D01*
X193190Y246587D01*
X193132Y246616D01*
X193044Y246675D01*
X192928Y246719D01*
X192782Y246748D01*
X192621Y246777D01*
X192432Y246791D01*
X192359D01*
X192286Y246777D01*
X192184Y246762D01*
X191965Y246719D01*
X191863Y246660D01*
X191776Y246602D01*
X191761Y246587D01*
X191746Y246573D01*
X191674Y246485D01*
X191601Y246339D01*
X191586Y246252D01*
X191572Y246164D01*
Y246150D01*
Y246135D01*
X191601Y246048D01*
X191645Y245931D01*
X191688Y245873D01*
X191746Y245814D01*
X191761D01*
X191790Y245785D01*
X191834Y245756D01*
X191921Y245712D01*
X192024Y245669D01*
X192169Y245625D01*
X192344Y245567D01*
X192563Y245523D01*
X192578D01*
X192636Y245508D01*
X192723Y245494D01*
X192825Y245465D01*
X192957Y245435D01*
X193117Y245392D01*
X193292Y245348D01*
X193467Y245304D01*
X193846Y245202D01*
X194240Y245071D01*
X194590Y244940D01*
X194750Y244881D01*
X194896Y244809D01*
X194910D01*
X194925Y244794D01*
X195012Y244750D01*
X195129Y244677D01*
X195290Y244575D01*
X195450Y244444D01*
X195625Y244298D01*
X195785Y244123D01*
X195916Y243934D01*
X195931Y243905D01*
X195960Y243846D01*
X196019Y243730D01*
X196077Y243584D01*
X196135Y243409D01*
X196193Y243219D01*
X196223Y242986D01*
X196237Y242753D01*
Y242738D01*
Y242724D01*
Y242680D01*
Y242621D01*
X196208Y242476D01*
X196179Y242286D01*
X196135Y242068D01*
X196048Y241820D01*
X195946Y241572D01*
X195800Y241324D01*
X195785Y241295D01*
X195727Y241222D01*
X195625Y241105D01*
X195494Y240959D01*
X195319Y240799D01*
X195115Y240639D01*
X194881Y240493D01*
X194604Y240347D01*
X194590D01*
X194575Y240333D01*
X194531Y240318D01*
X194473Y240303D01*
X194400Y240274D01*
X194298Y240245D01*
X194196Y240216D01*
X194079Y240187D01*
X193802Y240128D01*
X193467Y240070D01*
X193103Y240041D01*
X192680Y240026D01*
X192490D01*
X192344Y240041D01*
X192184Y240055D01*
X191994Y240070D01*
X191790Y240085D01*
X191557Y240128D01*
X191090Y240216D01*
X190624Y240347D01*
X190405Y240435D01*
X190201Y240551D01*
X190012Y240668D01*
X189851Y240799D01*
X189837Y240814D01*
X189822Y240843D01*
X189778Y240886D01*
X189734Y240945D01*
X189676Y241018D01*
X189603Y241105D01*
X189530Y241222D01*
X189457Y241338D01*
X189297Y241630D01*
X189151Y241980D01*
X189049Y242359D01*
X189005Y242578D01*
X188976Y242796D01*
X191324Y242957D01*
Y242928D01*
X191338Y242855D01*
X191353Y242753D01*
X191397Y242636D01*
X191484Y242344D01*
X191557Y242199D01*
X191630Y242082D01*
X191645Y242068D01*
X191703Y242009D01*
X191790Y241936D01*
X191907Y241849D01*
X192067Y241747D01*
X192257Y241674D01*
X192475Y241616D01*
X192723Y241601D01*
X192811D01*
X192898Y241616D01*
X193030Y241630D01*
X193161Y241659D01*
X193292Y241703D01*
X193423Y241761D01*
X193540Y241834D01*
X193554Y241849D01*
X193584Y241878D01*
X193627Y241936D01*
X193686Y241995D01*
X193744Y242082D01*
X193788Y242184D01*
X193817Y242301D01*
X193832Y242417D01*
Y242432D01*
Y242476D01*
X193817Y242534D01*
X193802Y242607D01*
X193759Y242694D01*
X193715Y242782D01*
X193642Y242884D01*
X193554Y242971D01*
X193540Y242986D01*
X193496Y243015D01*
X193409Y243059D01*
X193292Y243117D01*
X193117Y243190D01*
X192898Y243278D01*
X192767Y243321D01*
X192621Y243351D01*
X192461Y243394D01*
X192286Y243438D01*
X192271D01*
X192213Y243453D01*
X192126Y243482D01*
X192024Y243496D01*
X191892Y243540D01*
X191732Y243584D01*
X191572Y243628D01*
X191397Y243686D01*
X191003Y243832D01*
X190624Y243992D01*
X190274Y244182D01*
X190114Y244284D01*
X189968Y244400D01*
Y244415D01*
X189939Y244429D01*
X189866Y244502D01*
X189749Y244634D01*
X189632Y244823D01*
X189501Y245042D01*
X189385Y245304D01*
X189312Y245596D01*
X189297Y245756D01*
X189283Y245931D01*
Y245946D01*
Y245960D01*
Y246033D01*
X189297Y246164D01*
X189326Y246310D01*
X189370Y246485D01*
X189428Y246689D01*
X189516Y246893D01*
X189632Y247098D01*
X189647Y247127D01*
X189705Y247185D01*
X189793Y247287D01*
X189909Y247418D01*
X190055Y247550D01*
X190245Y247695D01*
X190463Y247827D01*
X190711Y247958D01*
X190726D01*
X190741Y247972D01*
X190784Y247987D01*
X190843Y248002D01*
X190916Y248031D01*
X191003Y248060D01*
X191105Y248089D01*
X191222Y248118D01*
X191353Y248147D01*
X191513Y248177D01*
X191849Y248235D01*
X192242Y248264D01*
X192680Y248278D01*
X192825D01*
X192928Y248264D01*
D02*
G37*
G36*
X395507Y579366D02*
X395682Y579352D01*
X395872Y579323D01*
X396091Y579293D01*
X396309Y579250D01*
X396557Y579191D01*
X396805Y579118D01*
X397067Y579031D01*
X397315Y578929D01*
X397563Y578798D01*
X397811Y578652D01*
X398030Y578491D01*
X398249Y578302D01*
X398263Y578287D01*
X398292Y578258D01*
X398351Y578185D01*
X398423Y578112D01*
X398496Y577996D01*
X398598Y577865D01*
X398700Y577704D01*
X398802Y577529D01*
X398905Y577325D01*
X398992Y577106D01*
X399094Y576859D01*
X399167Y576596D01*
X399240Y576304D01*
X399298Y575998D01*
X399327Y575663D01*
X399342Y575313D01*
Y575299D01*
Y575255D01*
Y575182D01*
Y575080D01*
X399327Y574963D01*
X399313Y574817D01*
X399298Y574672D01*
X399284Y574497D01*
X399225Y574132D01*
X399138Y573753D01*
X399021Y573374D01*
X398861Y573009D01*
Y572995D01*
X398846Y572966D01*
X398817Y572922D01*
X398773Y572864D01*
X398671Y572703D01*
X398511Y572499D01*
X398321Y572280D01*
X398088Y572047D01*
X397826Y571829D01*
X397505Y571624D01*
X397490D01*
X397461Y571610D01*
X397417Y571581D01*
X397344Y571551D01*
X397257Y571508D01*
X397155Y571464D01*
X397038Y571420D01*
X396892Y571377D01*
X396732Y571333D01*
X396572Y571289D01*
X396193Y571202D01*
X395755Y571143D01*
X395274Y571129D01*
X395055D01*
X394939Y571143D01*
X394808Y571158D01*
X394662D01*
X394487Y571187D01*
X394137Y571231D01*
X393772Y571304D01*
X393393Y571406D01*
X393043Y571551D01*
X393029D01*
X393000Y571566D01*
X392956Y571595D01*
X392898Y571639D01*
X392737Y571741D01*
X392533Y571887D01*
X392300Y572062D01*
X392067Y572310D01*
X391819Y572587D01*
X391600Y572907D01*
Y572922D01*
X391571Y572951D01*
X391556Y573009D01*
X391512Y573082D01*
X391469Y573170D01*
X391425Y573272D01*
X391381Y573403D01*
X391337Y573549D01*
X391279Y573709D01*
X391235Y573884D01*
X391192Y574074D01*
X391148Y574293D01*
X391090Y574745D01*
X391060Y575240D01*
Y575269D01*
Y575328D01*
X391075Y575430D01*
Y575561D01*
X391090Y575721D01*
X391119Y575911D01*
X391148Y576130D01*
X391192Y576348D01*
X391250Y576596D01*
X391323Y576844D01*
X391410Y577092D01*
X391512Y577354D01*
X391644Y577602D01*
X391790Y577850D01*
X391950Y578069D01*
X392139Y578287D01*
X392154Y578302D01*
X392198Y578331D01*
X392256Y578390D01*
X392344Y578462D01*
X392460Y578535D01*
X392591Y578637D01*
X392752Y578739D01*
X392927Y578841D01*
X393131Y578943D01*
X393364Y579031D01*
X393612Y579133D01*
X393889Y579206D01*
X394181Y579279D01*
X394501Y579337D01*
X394837Y579366D01*
X395187Y579381D01*
X395376D01*
X395507Y579366D01*
D02*
G37*
G36*
X410335Y587124D02*
X407812D01*
Y581102D01*
X405348D01*
Y587124D01*
X402826D01*
Y589092D01*
X410335D01*
Y587124D01*
D02*
G37*
G36*
X387576Y571260D02*
X384908D01*
X381890Y579250D01*
X384470D01*
X386264Y573491D01*
X388042Y579250D01*
X390550D01*
X387576Y571260D01*
D02*
G37*
G36*
X403133Y573228D02*
X406996D01*
Y571260D01*
X400669D01*
Y579250D01*
X403133D01*
Y573228D01*
D02*
G37*
G36*
X382764Y589078D02*
X382866D01*
X382968Y589063D01*
X383231Y589019D01*
X383522Y588946D01*
X383814Y588844D01*
X384091Y588698D01*
X384353Y588509D01*
X384368D01*
X384383Y588480D01*
X384455Y588407D01*
X384557Y588290D01*
X384674Y588115D01*
X384776Y587911D01*
X384878Y587678D01*
X384951Y587401D01*
X384980Y587255D01*
Y587095D01*
Y587080D01*
Y587066D01*
Y586978D01*
X384951Y586847D01*
X384922Y586687D01*
X384864Y586497D01*
X384791Y586293D01*
X384674Y586089D01*
X384528Y585885D01*
X384514Y585870D01*
X384470Y585826D01*
X384412Y585768D01*
X384310Y585695D01*
X384193Y585608D01*
X384047Y585520D01*
X383872Y585433D01*
X383668Y585345D01*
X383683D01*
X383712Y585331D01*
X383755D01*
X383814Y585301D01*
X383960Y585258D01*
X384149Y585185D01*
X384353Y585083D01*
X384572Y584951D01*
X384762Y584806D01*
X384936Y584631D01*
X384951Y584602D01*
X384995Y584543D01*
X385068Y584427D01*
X385141Y584281D01*
X385213Y584106D01*
X385286Y583887D01*
X385330Y583639D01*
X385345Y583362D01*
Y583333D01*
Y583260D01*
X385330Y583144D01*
X385316Y582998D01*
X385272Y582823D01*
X385228Y582633D01*
X385155Y582444D01*
X385053Y582254D01*
X385039Y582240D01*
X384995Y582167D01*
X384936Y582079D01*
X384849Y581977D01*
X384732Y581846D01*
X384587Y581715D01*
X384426Y581583D01*
X384251Y581467D01*
X384237D01*
X384193Y581438D01*
X384120Y581409D01*
X384018Y581365D01*
X383887Y581321D01*
X383726Y581277D01*
X383537Y581248D01*
X383318Y581204D01*
X383289D01*
X383245Y581190D01*
X383187D01*
X383041Y581175D01*
X382866Y581161D01*
X382677Y581132D01*
X382502Y581117D01*
X382341Y581102D01*
X377953D01*
Y589092D01*
X382691D01*
X382764Y589078D01*
D02*
G37*
G36*
X410335Y210006D02*
X412780D01*
Y206708D01*
X410335D01*
Y202756D01*
X406696D01*
Y206708D01*
X398622D01*
Y209977D01*
X407151Y222515D01*
X410335D01*
Y210006D01*
D02*
G37*
G36*
X402607Y581102D02*
X400012D01*
X399619Y582415D01*
X396819D01*
X396426Y581102D01*
X393903D01*
X396892Y589092D01*
X399604D01*
X402607Y581102D01*
D02*
G37*
G36*
X393262Y587386D02*
X389121D01*
Y586118D01*
X392955D01*
Y584485D01*
X389121D01*
Y582910D01*
X393378D01*
Y581102D01*
X386642D01*
Y589092D01*
X393262D01*
Y587386D01*
D02*
G37*
G36*
X145507Y579366D02*
X145682Y579352D01*
X145872Y579323D01*
X146091Y579293D01*
X146309Y579250D01*
X146557Y579191D01*
X146805Y579118D01*
X147067Y579031D01*
X147315Y578929D01*
X147563Y578798D01*
X147811Y578652D01*
X148030Y578491D01*
X148249Y578302D01*
X148263Y578287D01*
X148292Y578258D01*
X148351Y578185D01*
X148423Y578112D01*
X148496Y577996D01*
X148598Y577865D01*
X148700Y577704D01*
X148802Y577529D01*
X148905Y577325D01*
X148992Y577106D01*
X149094Y576859D01*
X149167Y576596D01*
X149240Y576304D01*
X149298Y575998D01*
X149327Y575663D01*
X149342Y575313D01*
Y575299D01*
Y575255D01*
Y575182D01*
Y575080D01*
X149327Y574963D01*
X149313Y574817D01*
X149298Y574672D01*
X149284Y574497D01*
X149225Y574132D01*
X149138Y573753D01*
X149021Y573374D01*
X148861Y573009D01*
Y572995D01*
X148846Y572966D01*
X148817Y572922D01*
X148773Y572864D01*
X148671Y572703D01*
X148511Y572499D01*
X148321Y572280D01*
X148088Y572047D01*
X147826Y571828D01*
X147505Y571624D01*
X147490D01*
X147461Y571610D01*
X147417Y571581D01*
X147345Y571551D01*
X147257Y571508D01*
X147155Y571464D01*
X147038Y571420D01*
X146892Y571377D01*
X146732Y571333D01*
X146572Y571289D01*
X146193Y571202D01*
X145755Y571143D01*
X145274Y571129D01*
X145055D01*
X144939Y571143D01*
X144808Y571158D01*
X144662D01*
X144487Y571187D01*
X144137Y571231D01*
X143772Y571304D01*
X143393Y571406D01*
X143043Y571551D01*
X143029D01*
X143000Y571566D01*
X142956Y571595D01*
X142898Y571639D01*
X142737Y571741D01*
X142533Y571887D01*
X142300Y572062D01*
X142067Y572310D01*
X141819Y572587D01*
X141600Y572907D01*
Y572922D01*
X141571Y572951D01*
X141556Y573009D01*
X141513Y573082D01*
X141469Y573170D01*
X141425Y573272D01*
X141381Y573403D01*
X141338Y573549D01*
X141279Y573709D01*
X141235Y573884D01*
X141192Y574074D01*
X141148Y574293D01*
X141090Y574744D01*
X141060Y575240D01*
Y575269D01*
Y575328D01*
X141075Y575430D01*
Y575561D01*
X141090Y575721D01*
X141119Y575911D01*
X141148Y576130D01*
X141192Y576348D01*
X141250Y576596D01*
X141323Y576844D01*
X141410Y577092D01*
X141513Y577354D01*
X141644Y577602D01*
X141789Y577850D01*
X141950Y578069D01*
X142139Y578287D01*
X142154Y578302D01*
X142198Y578331D01*
X142256Y578390D01*
X142344Y578462D01*
X142460Y578535D01*
X142591Y578637D01*
X142752Y578739D01*
X142927Y578841D01*
X143131Y578943D01*
X143364Y579031D01*
X143612Y579133D01*
X143889Y579206D01*
X144181Y579279D01*
X144501Y579337D01*
X144837Y579366D01*
X145187Y579381D01*
X145376D01*
X145507Y579366D01*
D02*
G37*
G36*
X168958Y587386D02*
X164817D01*
Y586118D01*
X168652D01*
Y584485D01*
X164817D01*
Y582910D01*
X169075D01*
Y581102D01*
X162339D01*
Y589092D01*
X168958D01*
Y587386D01*
D02*
G37*
G36*
X157352Y583071D02*
X161216D01*
Y581102D01*
X154888D01*
Y589092D01*
X157352D01*
Y583071D01*
D02*
G37*
G36*
X123046Y589209D02*
X123177D01*
X123323Y589194D01*
X123483Y589180D01*
X123658Y589150D01*
X124037Y589078D01*
X124431Y588976D01*
X124795Y588830D01*
X124970Y588742D01*
X125130Y588640D01*
X125145D01*
X125160Y588611D01*
X125262Y588538D01*
X125393Y588392D01*
X125553Y588203D01*
X125641Y588086D01*
X125714Y587955D01*
X125801Y587795D01*
X125874Y587634D01*
X125947Y587459D01*
X126005Y587270D01*
X126049Y587051D01*
X126093Y586832D01*
X123760Y586701D01*
Y586730D01*
X123745Y586789D01*
X123716Y586891D01*
X123672Y587007D01*
X123614Y587124D01*
X123556Y587255D01*
X123468Y587386D01*
X123366Y587488D01*
X123352Y587503D01*
X123308Y587532D01*
X123250Y587561D01*
X123162Y587620D01*
X123046Y587663D01*
X122900Y587692D01*
X122739Y587722D01*
X122550Y587736D01*
X122477D01*
X122404Y587722D01*
X122302Y587707D01*
X122083Y587663D01*
X121981Y587605D01*
X121894Y587547D01*
X121879Y587532D01*
X121865Y587518D01*
X121792Y587430D01*
X121719Y587284D01*
X121704Y587197D01*
X121690Y587109D01*
Y587095D01*
Y587080D01*
X121719Y586993D01*
X121763Y586876D01*
X121806Y586818D01*
X121865Y586759D01*
X121879D01*
X121908Y586730D01*
X121952Y586701D01*
X122040Y586657D01*
X122142Y586614D01*
X122287Y586570D01*
X122462Y586512D01*
X122681Y586468D01*
X122696D01*
X122754Y586453D01*
X122842Y586439D01*
X122943Y586410D01*
X123075Y586380D01*
X123235Y586337D01*
X123410Y586293D01*
X123585Y586249D01*
X123964Y586147D01*
X124358Y586016D01*
X124708Y585885D01*
X124868Y585826D01*
X125014Y585753D01*
X125029D01*
X125043Y585739D01*
X125130Y585695D01*
X125247Y585622D01*
X125408Y585520D01*
X125568Y585389D01*
X125743Y585243D01*
X125903Y585068D01*
X126034Y584879D01*
X126049Y584849D01*
X126078Y584791D01*
X126137Y584674D01*
X126195Y584529D01*
X126253Y584354D01*
X126312Y584164D01*
X126341Y583931D01*
X126355Y583698D01*
Y583683D01*
Y583668D01*
Y583625D01*
Y583566D01*
X126326Y583421D01*
X126297Y583231D01*
X126253Y583012D01*
X126166Y582764D01*
X126064Y582517D01*
X125918Y582269D01*
X125903Y582240D01*
X125845Y582167D01*
X125743Y582050D01*
X125612Y581904D01*
X125437Y581744D01*
X125233Y581583D01*
X124999Y581438D01*
X124722Y581292D01*
X124708D01*
X124693Y581277D01*
X124649Y581263D01*
X124591Y581248D01*
X124518Y581219D01*
X124416Y581190D01*
X124314Y581161D01*
X124197Y581132D01*
X123920Y581073D01*
X123585Y581015D01*
X123221Y580986D01*
X122798Y580971D01*
X122608D01*
X122462Y580986D01*
X122302Y581000D01*
X122113Y581015D01*
X121908Y581029D01*
X121675Y581073D01*
X121209Y581161D01*
X120742Y581292D01*
X120523Y581379D01*
X120319Y581496D01*
X120130Y581613D01*
X119969Y581744D01*
X119955Y581758D01*
X119940Y581788D01*
X119896Y581831D01*
X119853Y581890D01*
X119794Y581963D01*
X119721Y582050D01*
X119649Y582167D01*
X119576Y582283D01*
X119415Y582575D01*
X119269Y582925D01*
X119167Y583304D01*
X119124Y583523D01*
X119094Y583741D01*
X121442Y583902D01*
Y583873D01*
X121456Y583800D01*
X121471Y583698D01*
X121515Y583581D01*
X121602Y583289D01*
X121675Y583144D01*
X121748Y583027D01*
X121763Y583012D01*
X121821Y582954D01*
X121908Y582881D01*
X122025Y582794D01*
X122185Y582692D01*
X122375Y582619D01*
X122594Y582560D01*
X122842Y582546D01*
X122929D01*
X123016Y582560D01*
X123148Y582575D01*
X123279Y582604D01*
X123410Y582648D01*
X123541Y582706D01*
X123658Y582779D01*
X123672Y582794D01*
X123702Y582823D01*
X123745Y582881D01*
X123804Y582939D01*
X123862Y583027D01*
X123906Y583129D01*
X123935Y583246D01*
X123950Y583362D01*
Y583377D01*
Y583421D01*
X123935Y583479D01*
X123920Y583552D01*
X123877Y583639D01*
X123833Y583727D01*
X123760Y583829D01*
X123672Y583916D01*
X123658Y583931D01*
X123614Y583960D01*
X123527Y584004D01*
X123410Y584062D01*
X123235Y584135D01*
X123016Y584223D01*
X122885Y584266D01*
X122739Y584295D01*
X122579Y584339D01*
X122404Y584383D01*
X122389D01*
X122331Y584397D01*
X122244Y584427D01*
X122142Y584441D01*
X122010Y584485D01*
X121850Y584529D01*
X121690Y584572D01*
X121515Y584631D01*
X121121Y584776D01*
X120742Y584937D01*
X120392Y585126D01*
X120232Y585228D01*
X120086Y585345D01*
Y585360D01*
X120057Y585374D01*
X119984Y585447D01*
X119867Y585578D01*
X119750Y585768D01*
X119619Y585987D01*
X119503Y586249D01*
X119430Y586541D01*
X119415Y586701D01*
X119401Y586876D01*
Y586891D01*
Y586905D01*
Y586978D01*
X119415Y587109D01*
X119444Y587255D01*
X119488Y587430D01*
X119546Y587634D01*
X119634Y587838D01*
X119750Y588042D01*
X119765Y588072D01*
X119823Y588130D01*
X119911Y588232D01*
X120027Y588363D01*
X120173Y588494D01*
X120363Y588640D01*
X120582Y588771D01*
X120829Y588903D01*
X120844D01*
X120859Y588917D01*
X120902Y588932D01*
X120961Y588946D01*
X121034Y588976D01*
X121121Y589005D01*
X121223Y589034D01*
X121340Y589063D01*
X121471Y589092D01*
X121631Y589121D01*
X121967Y589180D01*
X122360Y589209D01*
X122798Y589223D01*
X122943D01*
X123046Y589209D01*
D02*
G37*
G36*
X145251Y581102D02*
X143224D01*
Y587197D01*
X141664Y581102D01*
X139827D01*
X138282Y587197D01*
Y581102D01*
X136255D01*
Y589092D01*
X139506D01*
X140746Y584223D01*
X142000Y589092D01*
X145251D01*
Y581102D01*
D02*
G37*
G36*
X137576Y571260D02*
X134908D01*
X131890Y579250D01*
X134470D01*
X136264Y573491D01*
X138042Y579250D01*
X140550D01*
X137576Y571260D01*
D02*
G37*
G36*
X153133Y573228D02*
X156997D01*
Y571260D01*
X150669D01*
Y579250D01*
X153133D01*
Y573228D01*
D02*
G37*
G36*
X151127Y589078D02*
X151243D01*
X151374Y589063D01*
X151666Y589019D01*
X151987Y588932D01*
X152322Y588815D01*
X152643Y588669D01*
X152789Y588567D01*
X152920Y588451D01*
X152935D01*
X152949Y588421D01*
X152978Y588378D01*
X153022Y588334D01*
X153139Y588188D01*
X153255Y587984D01*
X153372Y587722D01*
X153489Y587416D01*
X153561Y587051D01*
X153591Y586861D01*
Y586643D01*
Y586628D01*
Y586584D01*
Y586526D01*
X153576Y586439D01*
Y586337D01*
X153547Y586220D01*
X153503Y585957D01*
X153416Y585651D01*
X153285Y585331D01*
X153197Y585170D01*
X153110Y585024D01*
X152993Y584879D01*
X152862Y584747D01*
X152847D01*
X152832Y584718D01*
X152789Y584689D01*
X152731Y584645D01*
X152643Y584587D01*
X152556Y584529D01*
X152439Y584470D01*
X152308Y584412D01*
X152162Y584354D01*
X152002Y584295D01*
X151812Y584237D01*
X151608Y584179D01*
X151389Y584135D01*
X151156Y584106D01*
X150908Y584091D01*
X150631Y584077D01*
X149290D01*
Y581102D01*
X146811D01*
Y589092D01*
X151039D01*
X151127Y589078D01*
D02*
G37*
G36*
X135497Y581102D02*
X132902D01*
X132508Y582414D01*
X129709D01*
X129315Y581102D01*
X126793D01*
X129782Y589092D01*
X132493D01*
X135497Y581102D01*
D02*
G37*
G36*
X333169Y212598D02*
X323327Y202756D01*
Y222441D01*
X333169Y212598D01*
D02*
G37*
G36*
X337106Y202756D02*
X333169D01*
Y222441D01*
X337106D01*
Y202756D01*
D02*
G37*
G36*
X224902D02*
X220965D01*
Y222441D01*
X224902D01*
Y202756D01*
D02*
G37*
G36*
X215059Y212598D02*
X205217Y202756D01*
Y222441D01*
X215059Y212598D01*
D02*
G37*
G36*
X218996Y202756D02*
X215059D01*
Y222441D01*
X218996D01*
Y202756D01*
D02*
G37*
G36*
X343012D02*
X339075D01*
Y222441D01*
X343012D01*
Y202756D01*
D02*
G37*
G36*
X371063Y212598D02*
X361220Y202756D01*
Y210630D01*
X353346Y202756D01*
Y222441D01*
X361220Y214567D01*
Y222441D01*
X371063Y212598D01*
D02*
G37*
G36*
X193898Y202756D02*
X186024Y210630D01*
Y202756D01*
X176181Y212598D01*
X186024Y222441D01*
Y214567D01*
X193898Y222441D01*
Y202756D01*
D02*
G37*
G36*
X312008D02*
X304134Y210630D01*
Y202756D01*
X294291Y212598D01*
X304134Y222441D01*
Y214567D01*
X312008Y222441D01*
Y202756D01*
D02*
G37*
G36*
X252953Y212598D02*
X243110Y202756D01*
Y210630D01*
X235236Y202756D01*
Y222441D01*
X243110Y214567D01*
Y222441D01*
X252953Y212598D01*
D02*
G37*
%LPC*%
G36*
X131108Y587007D02*
X130234Y584150D01*
X131983D01*
X131108Y587007D01*
D02*
G37*
G36*
X149989Y587474D02*
X149290D01*
Y585695D01*
X150004D01*
X150135Y585710D01*
X150281Y585724D01*
X150441Y585753D01*
X150616Y585797D01*
X150762Y585855D01*
X150893Y585928D01*
X150908Y585943D01*
X150937Y585972D01*
X150981Y586030D01*
X151039Y586103D01*
X151098Y586191D01*
X151141Y586307D01*
X151170Y586424D01*
X151185Y586570D01*
Y586584D01*
Y586628D01*
X151170Y586701D01*
X151156Y586789D01*
X151127Y586891D01*
X151068Y587007D01*
X151010Y587109D01*
X150923Y587211D01*
X150908Y587226D01*
X150879Y587255D01*
X150806Y587299D01*
X150718Y587343D01*
X150587Y587386D01*
X150427Y587430D01*
X150223Y587459D01*
X149989Y587474D01*
D02*
G37*
G36*
X222193Y198017D02*
X222084D01*
X221822Y198006D01*
X221570Y197984D01*
X221341Y197941D01*
X221122Y197897D01*
X220925Y197831D01*
X220740Y197766D01*
X220565Y197689D01*
X220423Y197624D01*
X220281Y197547D01*
X220171Y197471D01*
X220073Y197405D01*
X219986Y197339D01*
X219931Y197296D01*
X219876Y197252D01*
X219854Y197230D01*
X219843Y197219D01*
X219701Y197066D01*
X219581Y196891D01*
X219483Y196716D01*
X219384Y196531D01*
X219308Y196334D01*
X219253Y196148D01*
X219198Y195962D01*
X219155Y195776D01*
X219122Y195602D01*
X219100Y195449D01*
X219078Y195307D01*
X219067Y195175D01*
Y195077D01*
X219056Y195001D01*
Y194957D01*
Y194935D01*
X219078Y194541D01*
X219100Y194356D01*
X219122Y194181D01*
X219166Y194017D01*
X219198Y193864D01*
X219242Y193722D01*
X219286Y193601D01*
X219319Y193481D01*
X219362Y193383D01*
X219406Y193295D01*
X219439Y193230D01*
X219461Y193175D01*
X219483Y193131D01*
X219505Y193110D01*
Y193099D01*
X219679Y192847D01*
X219854Y192640D01*
X220040Y192476D01*
X220204Y192333D01*
X220346Y192235D01*
X220466Y192159D01*
X220510Y192137D01*
X220543Y192115D01*
X220554Y192104D01*
X220565D01*
X220816Y192017D01*
X221078Y191951D01*
X221352Y191896D01*
X221603Y191864D01*
X221723Y191853D01*
X221833Y191842D01*
X221920D01*
X222007Y191831D01*
X222171D01*
X222456Y191842D01*
X222718Y191864D01*
X222948Y191907D01*
X223133Y191951D01*
X223286Y191984D01*
X223407Y192027D01*
X223439Y192038D01*
X223472Y192049D01*
X223483Y192060D01*
X223494D01*
X223680Y192159D01*
X223855Y192268D01*
X223997Y192377D01*
X224128Y192487D01*
X224226Y192596D01*
X224303Y192672D01*
X224358Y192727D01*
X224368Y192749D01*
X224500Y192935D01*
X224598Y193121D01*
X224696Y193306D01*
X224762Y193492D01*
X224828Y193645D01*
X224860Y193776D01*
X224871Y193820D01*
X224882Y193853D01*
X224893Y193875D01*
Y193886D01*
X223275Y194388D01*
X223221Y194181D01*
X223155Y194006D01*
X223090Y193853D01*
X223024Y193733D01*
X222969Y193634D01*
X222915Y193569D01*
X222882Y193525D01*
X222871Y193514D01*
X222762Y193416D01*
X222631Y193339D01*
X222499Y193295D01*
X222368Y193252D01*
X222248Y193230D01*
X222150Y193219D01*
X222062D01*
X221866Y193230D01*
X221702Y193273D01*
X221549Y193328D01*
X221428Y193405D01*
X221341Y193470D01*
X221264Y193525D01*
X221221Y193569D01*
X221210Y193579D01*
X221155Y193656D01*
X221111Y193744D01*
X221035Y193951D01*
X220991Y194181D01*
X220947Y194399D01*
X220925Y194607D01*
Y194705D01*
X220915Y194782D01*
Y194847D01*
Y194902D01*
Y194935D01*
Y194946D01*
X220925Y195230D01*
X220958Y195470D01*
X220991Y195667D01*
X221046Y195831D01*
X221089Y195951D01*
X221122Y196050D01*
X221155Y196093D01*
X221166Y196115D01*
X221232Y196203D01*
X221297Y196290D01*
X221450Y196410D01*
X221614Y196509D01*
X221767Y196563D01*
X221909Y196607D01*
X222029Y196618D01*
X222062Y196629D01*
X222226D01*
X222324Y196607D01*
X222412Y196596D01*
X222488Y196574D01*
X222543Y196553D01*
X222598Y196531D01*
X222620Y196520D01*
X222631Y196509D01*
X222784Y196410D01*
X222904Y196301D01*
X222948Y196257D01*
X222991Y196214D01*
X223002Y196192D01*
X223013Y196181D01*
X223046Y196126D01*
X223079Y196072D01*
X223144Y195940D01*
X223166Y195886D01*
X223188Y195831D01*
X223199Y195798D01*
Y195787D01*
X224838Y196148D01*
X224773Y196323D01*
X224707Y196487D01*
X224631Y196629D01*
X224554Y196771D01*
X224478Y196902D01*
X224390Y197012D01*
X224314Y197121D01*
X224237Y197208D01*
X224161Y197296D01*
X224095Y197361D01*
X224030Y197427D01*
X223975Y197471D01*
X223931Y197514D01*
X223898Y197536D01*
X223877Y197558D01*
X223866D01*
X223734Y197635D01*
X223603Y197711D01*
X223319Y197820D01*
X223024Y197908D01*
X222729Y197962D01*
X222598Y197984D01*
X222478Y197995D01*
X222368Y198006D01*
X222270D01*
X222193Y198017D01*
D02*
G37*
G36*
X190573D02*
X190464D01*
X190201Y198006D01*
X189950Y197984D01*
X189720Y197941D01*
X189502Y197897D01*
X189305Y197831D01*
X189119Y197766D01*
X188944Y197689D01*
X188802Y197624D01*
X188660Y197547D01*
X188551Y197471D01*
X188452Y197405D01*
X188365Y197339D01*
X188310Y197296D01*
X188256Y197252D01*
X188234Y197230D01*
X188223Y197219D01*
X188081Y197066D01*
X187961Y196891D01*
X187862Y196716D01*
X187764Y196531D01*
X187687Y196334D01*
X187633Y196148D01*
X187578Y195962D01*
X187534Y195776D01*
X187502Y195602D01*
X187480Y195449D01*
X187458Y195307D01*
X187447Y195175D01*
Y195077D01*
X187436Y195001D01*
Y194957D01*
Y194935D01*
X187458Y194541D01*
X187480Y194356D01*
X187502Y194181D01*
X187545Y194017D01*
X187578Y193864D01*
X187622Y193722D01*
X187665Y193601D01*
X187698Y193481D01*
X187742Y193383D01*
X187786Y193295D01*
X187819Y193230D01*
X187840Y193175D01*
X187862Y193131D01*
X187884Y193110D01*
Y193099D01*
X188059Y192847D01*
X188234Y192640D01*
X188420Y192476D01*
X188584Y192333D01*
X188726Y192235D01*
X188846Y192159D01*
X188890Y192137D01*
X188922Y192115D01*
X188933Y192104D01*
X188944D01*
X189196Y192017D01*
X189458Y191951D01*
X189731Y191896D01*
X189983Y191864D01*
X190103Y191853D01*
X190212Y191842D01*
X190300D01*
X190387Y191831D01*
X190551D01*
X190835Y191842D01*
X191097Y191864D01*
X191327Y191907D01*
X191513Y191951D01*
X191666Y191984D01*
X191786Y192027D01*
X191819Y192038D01*
X191852Y192049D01*
X191863Y192060D01*
X191874D01*
X192059Y192159D01*
X192234Y192268D01*
X192376Y192377D01*
X192508Y192487D01*
X192606Y192596D01*
X192682Y192672D01*
X192737Y192727D01*
X192748Y192749D01*
X192879Y192935D01*
X192977Y193121D01*
X193076Y193306D01*
X193141Y193492D01*
X193207Y193645D01*
X193240Y193776D01*
X193251Y193820D01*
X193262Y193853D01*
X193273Y193875D01*
Y193886D01*
X191655Y194388D01*
X191600Y194181D01*
X191535Y194006D01*
X191469Y193853D01*
X191403Y193733D01*
X191349Y193634D01*
X191294Y193569D01*
X191261Y193525D01*
X191251Y193514D01*
X191141Y193416D01*
X191010Y193339D01*
X190879Y193295D01*
X190748Y193252D01*
X190628Y193230D01*
X190529Y193219D01*
X190442D01*
X190245Y193230D01*
X190081Y193273D01*
X189928Y193328D01*
X189808Y193405D01*
X189720Y193470D01*
X189644Y193525D01*
X189600Y193569D01*
X189589Y193579D01*
X189534Y193656D01*
X189491Y193744D01*
X189414Y193951D01*
X189371Y194181D01*
X189327Y194399D01*
X189305Y194607D01*
Y194705D01*
X189294Y194782D01*
Y194847D01*
Y194902D01*
Y194935D01*
Y194946D01*
X189305Y195230D01*
X189338Y195470D01*
X189371Y195667D01*
X189425Y195831D01*
X189469Y195951D01*
X189502Y196050D01*
X189534Y196093D01*
X189546Y196115D01*
X189611Y196203D01*
X189677Y196290D01*
X189830Y196410D01*
X189994Y196509D01*
X190147Y196563D01*
X190289Y196607D01*
X190409Y196618D01*
X190442Y196629D01*
X190606D01*
X190704Y196607D01*
X190791Y196596D01*
X190868Y196574D01*
X190923Y196553D01*
X190977Y196531D01*
X190999Y196520D01*
X191010Y196509D01*
X191163Y196410D01*
X191283Y196301D01*
X191327Y196257D01*
X191371Y196214D01*
X191382Y196192D01*
X191393Y196181D01*
X191425Y196126D01*
X191458Y196072D01*
X191524Y195940D01*
X191546Y195886D01*
X191568Y195831D01*
X191578Y195798D01*
Y195787D01*
X193218Y196148D01*
X193152Y196323D01*
X193087Y196487D01*
X193010Y196629D01*
X192934Y196771D01*
X192857Y196902D01*
X192770Y197012D01*
X192693Y197121D01*
X192617Y197208D01*
X192540Y197296D01*
X192475Y197361D01*
X192409Y197427D01*
X192355Y197471D01*
X192311Y197514D01*
X192278Y197536D01*
X192256Y197558D01*
X192245D01*
X192114Y197635D01*
X191983Y197711D01*
X191699Y197820D01*
X191403Y197908D01*
X191108Y197962D01*
X190977Y197984D01*
X190857Y197995D01*
X190748Y198006D01*
X190649D01*
X190573Y198017D01*
D02*
G37*
G36*
X250141Y197919D02*
X248393D01*
Y194596D01*
X246119Y197919D01*
X244403D01*
Y191929D01*
X246141D01*
Y195230D01*
X248393Y191929D01*
X250141D01*
Y197919D01*
D02*
G37*
G36*
X284983Y119524D02*
X284753D01*
X284217Y119499D01*
X283707Y119448D01*
X283248Y119371D01*
X282814Y119269D01*
X282432Y119141D01*
X282074Y119014D01*
X281743Y118861D01*
X281462Y118733D01*
X281207Y118580D01*
X280978Y118427D01*
X280799Y118299D01*
X280646Y118172D01*
X280518Y118070D01*
X280442Y117993D01*
X280391Y117942D01*
X280365Y117917D01*
X280110Y117585D01*
X279906Y117228D01*
X279702Y116820D01*
X279549Y116386D01*
X279294Y115468D01*
X279115Y114550D01*
X279064Y114116D01*
X279013Y113708D01*
X278988Y113325D01*
X278962Y112994D01*
X278937Y112738D01*
Y112534D01*
Y112407D01*
Y112356D01*
X278962Y111769D01*
X278988Y111208D01*
X279039Y110698D01*
X279090Y110264D01*
X279141Y109881D01*
X279166Y109601D01*
X279192Y109499D01*
X279217Y109422D01*
Y109397D01*
Y109371D01*
X279319Y108912D01*
X279447Y108478D01*
X279574Y108121D01*
X279702Y107841D01*
X279804Y107585D01*
X279906Y107432D01*
X279957Y107305D01*
X279983Y107279D01*
X280263Y106897D01*
X280569Y106565D01*
X280850Y106284D01*
X281156Y106055D01*
X281386Y105876D01*
X281590Y105749D01*
X281717Y105672D01*
X281768Y105647D01*
X282202Y105468D01*
X282687Y105315D01*
X283171Y105213D01*
X283630Y105162D01*
X284039Y105111D01*
X284192D01*
X284345Y105085D01*
X284651D01*
X285212Y105111D01*
X285748Y105162D01*
X286232Y105238D01*
X286666Y105366D01*
X287074Y105493D01*
X287432Y105647D01*
X287763Y105800D01*
X288044Y105978D01*
X288299Y106131D01*
X288503Y106284D01*
X288682Y106437D01*
X288835Y106565D01*
X288962Y106693D01*
X289039Y106769D01*
X289064Y106820D01*
X289090Y106846D01*
X289319Y107203D01*
X289523Y107585D01*
X289702Y108019D01*
X289855Y108453D01*
X290085Y109371D01*
X290238Y110289D01*
X290289Y110723D01*
X290314Y111106D01*
X290340Y111463D01*
X290365Y111794D01*
X290391Y112050D01*
Y112228D01*
Y112356D01*
Y112407D01*
X290365Y113019D01*
X290340Y113631D01*
X290263Y114167D01*
X290187Y114652D01*
X290110Y115060D01*
X290085Y115238D01*
X290059Y115366D01*
X290034Y115494D01*
X290008Y115570D01*
X289983Y115621D01*
Y115647D01*
X289906Y115953D01*
X289804Y116208D01*
X289727Y116463D01*
X289651Y116667D01*
X289574Y116846D01*
X289498Y116973D01*
X289472Y117050D01*
X289447Y117075D01*
X289166Y117534D01*
X289013Y117738D01*
X288860Y117891D01*
X288733Y118044D01*
X288631Y118147D01*
X288554Y118223D01*
X288528Y118248D01*
X288299Y118453D01*
X288069Y118631D01*
X287814Y118784D01*
X287585Y118912D01*
X287381Y119014D01*
X287202Y119116D01*
X287100Y119141D01*
X287049Y119167D01*
X286692Y119294D01*
X286309Y119371D01*
X285926Y119448D01*
X285569Y119473D01*
X285238Y119499D01*
X284983Y119524D01*
D02*
G37*
G36*
X298018D02*
X297789D01*
X297253Y119499D01*
X296743Y119448D01*
X296284Y119371D01*
X295850Y119269D01*
X295467Y119141D01*
X295110Y119014D01*
X294778Y118861D01*
X294498Y118733D01*
X294243Y118580D01*
X294013Y118427D01*
X293834Y118299D01*
X293682Y118172D01*
X293554Y118070D01*
X293477Y117993D01*
X293426Y117942D01*
X293401Y117917D01*
X293146Y117585D01*
X292942Y117228D01*
X292738Y116820D01*
X292584Y116386D01*
X292329Y115468D01*
X292151Y114550D01*
X292100Y114116D01*
X292049Y113708D01*
X292023Y113325D01*
X291998Y112994D01*
X291972Y112738D01*
Y112534D01*
Y112407D01*
Y112356D01*
X291998Y111769D01*
X292023Y111208D01*
X292074Y110698D01*
X292125Y110264D01*
X292176Y109881D01*
X292202Y109601D01*
X292227Y109499D01*
X292253Y109422D01*
Y109397D01*
Y109371D01*
X292355Y108912D01*
X292482Y108478D01*
X292610Y108121D01*
X292738Y107841D01*
X292840Y107585D01*
X292942Y107432D01*
X292993Y107305D01*
X293018Y107279D01*
X293299Y106897D01*
X293605Y106565D01*
X293886Y106284D01*
X294192Y106055D01*
X294421Y105876D01*
X294625Y105749D01*
X294753Y105672D01*
X294804Y105647D01*
X295238Y105468D01*
X295722Y105315D01*
X296207Y105213D01*
X296666Y105162D01*
X297074Y105111D01*
X297227D01*
X297380Y105085D01*
X297687D01*
X298248Y105111D01*
X298783Y105162D01*
X299268Y105238D01*
X299702Y105366D01*
X300110Y105493D01*
X300467Y105647D01*
X300799Y105800D01*
X301079Y105978D01*
X301335Y106131D01*
X301538Y106284D01*
X301717Y106437D01*
X301870Y106565D01*
X301998Y106693D01*
X302074Y106769D01*
X302100Y106820D01*
X302125Y106846D01*
X302355Y107203D01*
X302559Y107585D01*
X302737Y108019D01*
X302891Y108453D01*
X303120Y109371D01*
X303273Y110289D01*
X303324Y110723D01*
X303350Y111106D01*
X303375Y111463D01*
X303401Y111794D01*
X303426Y112050D01*
Y112228D01*
Y112356D01*
Y112407D01*
X303401Y113019D01*
X303375Y113631D01*
X303299Y114167D01*
X303222Y114652D01*
X303146Y115060D01*
X303120Y115238D01*
X303095Y115366D01*
X303069Y115494D01*
X303044Y115570D01*
X303018Y115621D01*
Y115647D01*
X302942Y115953D01*
X302840Y116208D01*
X302763Y116463D01*
X302687Y116667D01*
X302610Y116846D01*
X302533Y116973D01*
X302508Y117050D01*
X302482Y117075D01*
X302202Y117534D01*
X302049Y117738D01*
X301896Y117891D01*
X301768Y118044D01*
X301666Y118147D01*
X301590Y118223D01*
X301564Y118248D01*
X301335Y118453D01*
X301105Y118631D01*
X300850Y118784D01*
X300620Y118912D01*
X300416Y119014D01*
X300237Y119116D01*
X300135Y119141D01*
X300084Y119167D01*
X299727Y119294D01*
X299345Y119371D01*
X298962Y119448D01*
X298605Y119473D01*
X298273Y119499D01*
X298018Y119524D01*
D02*
G37*
G36*
X309578Y197919D02*
X307830D01*
Y194596D01*
X305556Y197919D01*
X303840D01*
Y191929D01*
X305578D01*
Y195230D01*
X307830Y191929D01*
X309578D01*
Y197919D01*
D02*
G37*
G36*
X276717Y119294D02*
X267483D01*
X266258Y111769D01*
X269549Y111284D01*
X269728Y111463D01*
X269881Y111616D01*
X270034Y111743D01*
X270161Y111846D01*
X270263Y111922D01*
X270340Y111973D01*
X270391Y112024D01*
X270416D01*
X270620Y112126D01*
X270825Y112177D01*
X271156Y112279D01*
X271309D01*
X271411Y112305D01*
X271513D01*
X271819Y112279D01*
X272126Y112203D01*
X272355Y112126D01*
X272559Y112024D01*
X272738Y111897D01*
X272840Y111820D01*
X272916Y111743D01*
X272942Y111718D01*
X273120Y111463D01*
X273248Y111182D01*
X273350Y110876D01*
X273401Y110570D01*
X273452Y110315D01*
X273478Y110085D01*
Y109932D01*
Y109907D01*
Y109881D01*
X273452Y109448D01*
X273401Y109090D01*
X273299Y108784D01*
X273222Y108529D01*
X273120Y108325D01*
X273018Y108198D01*
X272967Y108096D01*
X272942Y108070D01*
X272738Y107866D01*
X272508Y107713D01*
X272279Y107611D01*
X272075Y107534D01*
X271870Y107483D01*
X271717Y107458D01*
X271590D01*
X271335Y107483D01*
X271080Y107534D01*
X270850Y107611D01*
X270672Y107713D01*
X270518Y107789D01*
X270416Y107866D01*
X270340Y107917D01*
X270314Y107942D01*
X270136Y108147D01*
X270008Y108376D01*
X269881Y108606D01*
X269804Y108835D01*
X269753Y109039D01*
X269702Y109218D01*
X269677Y109320D01*
Y109371D01*
X265748Y108937D01*
X265850Y108580D01*
X265978Y108249D01*
X266080Y107968D01*
X266207Y107738D01*
X266284Y107534D01*
X266360Y107407D01*
X266411Y107305D01*
X266437Y107279D01*
X266794Y106820D01*
X266972Y106616D01*
X267151Y106463D01*
X267330Y106310D01*
X267457Y106208D01*
X267534Y106131D01*
X267559Y106106D01*
X268120Y105774D01*
X268401Y105647D01*
X268682Y105545D01*
X268911Y105443D01*
X269090Y105392D01*
X269192Y105366D01*
X269243Y105341D01*
X269625Y105264D01*
X270034Y105187D01*
X270442Y105136D01*
X270799Y105111D01*
X271131D01*
X271386Y105085D01*
X271615D01*
X272304Y105111D01*
X272916Y105187D01*
X273478Y105289D01*
X273937Y105417D01*
X274294Y105519D01*
X274447Y105570D01*
X274549Y105621D01*
X274651Y105672D01*
X274728Y105698D01*
X274753Y105723D01*
X274779D01*
X275212Y106004D01*
X275595Y106310D01*
X275926Y106616D01*
X276207Y106922D01*
X276411Y107203D01*
X276564Y107432D01*
X276666Y107585D01*
X276692Y107611D01*
Y107636D01*
X276921Y108096D01*
X277100Y108580D01*
X277202Y109014D01*
X277304Y109397D01*
X277355Y109754D01*
X277381Y110009D01*
Y110111D01*
Y110187D01*
Y110213D01*
Y110238D01*
X277355Y110596D01*
X277330Y110927D01*
X277176Y111539D01*
X276972Y112101D01*
X276717Y112560D01*
X276462Y112917D01*
X276360Y113070D01*
X276258Y113198D01*
X276182Y113300D01*
X276105Y113376D01*
X276080Y113402D01*
X276054Y113427D01*
X275799Y113657D01*
X275544Y113861D01*
X275263Y114014D01*
X274983Y114167D01*
X274421Y114397D01*
X273860Y114550D01*
X273401Y114626D01*
X273197Y114677D01*
X273018D01*
X272865Y114703D01*
X272661D01*
X272202Y114677D01*
X271998Y114652D01*
X271819Y114626D01*
X271641Y114601D01*
X271513Y114575D01*
X271437Y114550D01*
X271411D01*
X270952Y114422D01*
X270723Y114346D01*
X270518Y114269D01*
X270365Y114192D01*
X270212Y114141D01*
X270136Y114116D01*
X270110Y114090D01*
X270442Y116182D01*
X276717D01*
Y119294D01*
D02*
G37*
G36*
X381539Y587474D02*
X380446D01*
Y585957D01*
X381612D01*
X381714Y585972D01*
X381846Y585987D01*
X382108Y586045D01*
X382225Y586089D01*
X382327Y586147D01*
X382341Y586162D01*
X382370Y586191D01*
X382400Y586235D01*
X382443Y586293D01*
X382487Y586380D01*
X382531Y586482D01*
X382545Y586599D01*
X382560Y586730D01*
Y586745D01*
Y586789D01*
X382545Y586847D01*
X382531Y586934D01*
X382502Y587022D01*
X382458Y587109D01*
X382400Y587197D01*
X382327Y587270D01*
X382312Y587284D01*
X382283Y587299D01*
X382225Y587328D01*
X382137Y587372D01*
X382035Y587416D01*
X381904Y587445D01*
X381729Y587459D01*
X381539Y587474D01*
D02*
G37*
G36*
X395172Y577515D02*
X395143D01*
X395055Y577500D01*
X394910Y577486D01*
X394749Y577442D01*
X394560Y577383D01*
X394356Y577281D01*
X394151Y577150D01*
X393976Y576975D01*
X393962Y576946D01*
X393904Y576873D01*
X393831Y576742D01*
X393758Y576567D01*
X393714Y576450D01*
X393670Y576319D01*
X393627Y576173D01*
X393597Y576027D01*
X393568Y575852D01*
X393539Y575663D01*
X393525Y575459D01*
Y575240D01*
Y575226D01*
Y575182D01*
Y575124D01*
X393539Y575051D01*
Y574949D01*
X393554Y574832D01*
X393583Y574570D01*
X393627Y574293D01*
X393714Y574001D01*
X393816Y573724D01*
X393889Y573607D01*
X393962Y573505D01*
X393976Y573476D01*
X394049Y573418D01*
X394151Y573345D01*
X394283Y573243D01*
X394458Y573141D01*
X394676Y573068D01*
X394924Y573009D01*
X395201Y572980D01*
X395274D01*
X395333Y572995D01*
X395478Y573009D01*
X395653Y573039D01*
X395843Y573111D01*
X396047Y573199D01*
X396251Y573316D01*
X396426Y573491D01*
X396441Y573520D01*
X396499Y573593D01*
X396528Y573651D01*
X396572Y573724D01*
X396616Y573811D01*
X396659Y573913D01*
X396688Y574030D01*
X396732Y574161D01*
X396776Y574322D01*
X396805Y574482D01*
X396834Y574672D01*
X396863Y574876D01*
X396878Y575094D01*
Y575342D01*
Y575357D01*
Y575386D01*
Y575444D01*
Y575532D01*
X396863Y575619D01*
X396849Y575721D01*
X396820Y575969D01*
X396761Y576232D01*
X396688Y576509D01*
X396572Y576771D01*
X396411Y576990D01*
X396397Y577019D01*
X396324Y577077D01*
X396222Y577150D01*
X396091Y577252D01*
X395916Y577354D01*
X395697Y577427D01*
X395449Y577486D01*
X395172Y577515D01*
D02*
G37*
G36*
X381685Y584441D02*
X380446D01*
Y582823D01*
X381802D01*
X381918Y582837D01*
X382050Y582852D01*
X382210Y582881D01*
X382356Y582910D01*
X382487Y582969D01*
X382604Y583041D01*
X382618Y583056D01*
X382647Y583085D01*
X382691Y583129D01*
X382735Y583202D01*
X382779Y583289D01*
X382822Y583406D01*
X382852Y583523D01*
X382866Y583654D01*
Y583668D01*
Y583712D01*
X382852Y583771D01*
X382837Y583858D01*
X382808Y583946D01*
X382750Y584048D01*
X382691Y584135D01*
X382604Y584223D01*
X382589Y584237D01*
X382560Y584252D01*
X382487Y584295D01*
X382385Y584339D01*
X382268Y584368D01*
X382108Y584412D01*
X381918Y584427D01*
X381685Y584441D01*
D02*
G37*
G36*
X398219Y587007D02*
X397344Y584150D01*
X399094D01*
X398219Y587007D01*
D02*
G37*
G36*
X406696Y216772D02*
X402119Y210006D01*
X406696D01*
Y216772D01*
D02*
G37*
G36*
X199918Y197919D02*
X198060D01*
Y195831D01*
X196027D01*
Y197919D01*
X194180D01*
Y191929D01*
X196027D01*
Y194356D01*
X198060D01*
Y191929D01*
X199918D01*
Y197919D01*
D02*
G37*
G36*
X367660Y198017D02*
X367551D01*
X367289Y198006D01*
X367038Y197984D01*
X366808Y197941D01*
X366589Y197897D01*
X366393Y197831D01*
X366207Y197766D01*
X366032Y197689D01*
X365890Y197624D01*
X365748Y197547D01*
X365638Y197471D01*
X365540Y197405D01*
X365453Y197339D01*
X365398Y197296D01*
X365343Y197252D01*
X365321Y197230D01*
X365311Y197219D01*
X365168Y197066D01*
X365048Y196891D01*
X364950Y196716D01*
X364851Y196531D01*
X364775Y196334D01*
X364720Y196148D01*
X364666Y195962D01*
X364622Y195776D01*
X364589Y195602D01*
X364567Y195449D01*
X364545Y195307D01*
X364534Y195175D01*
Y195077D01*
X364524Y195001D01*
Y194957D01*
Y194935D01*
X364545Y194541D01*
X364567Y194356D01*
X364589Y194181D01*
X364633Y194017D01*
X364666Y193864D01*
X364709Y193722D01*
X364753Y193601D01*
X364786Y193481D01*
X364830Y193383D01*
X364873Y193295D01*
X364906Y193230D01*
X364928Y193175D01*
X364950Y193131D01*
X364972Y193110D01*
Y193099D01*
X365147Y192847D01*
X365321Y192640D01*
X365507Y192476D01*
X365671Y192333D01*
X365813Y192235D01*
X365934Y192159D01*
X365977Y192137D01*
X366010Y192115D01*
X366021Y192104D01*
X366032D01*
X366283Y192017D01*
X366546Y191951D01*
X366819Y191896D01*
X367070Y191864D01*
X367191Y191853D01*
X367300Y191842D01*
X367387D01*
X367475Y191831D01*
X367639D01*
X367923Y191842D01*
X368185Y191864D01*
X368415Y191907D01*
X368601Y191951D01*
X368754Y191984D01*
X368874Y192027D01*
X368906Y192038D01*
X368939Y192049D01*
X368950Y192060D01*
X368961D01*
X369147Y192159D01*
X369322Y192268D01*
X369464Y192377D01*
X369595Y192487D01*
X369693Y192596D01*
X369770Y192672D01*
X369825Y192727D01*
X369836Y192749D01*
X369967Y192935D01*
X370065Y193121D01*
X370163Y193306D01*
X370229Y193492D01*
X370295Y193645D01*
X370327Y193776D01*
X370338Y193820D01*
X370349Y193853D01*
X370360Y193875D01*
Y193886D01*
X368743Y194388D01*
X368688Y194181D01*
X368622Y194006D01*
X368557Y193853D01*
X368491Y193733D01*
X368437Y193634D01*
X368382Y193569D01*
X368349Y193525D01*
X368338Y193514D01*
X368229Y193416D01*
X368098Y193339D01*
X367967Y193295D01*
X367835Y193252D01*
X367715Y193230D01*
X367617Y193219D01*
X367529D01*
X367333Y193230D01*
X367169Y193273D01*
X367016Y193328D01*
X366895Y193405D01*
X366808Y193470D01*
X366731Y193525D01*
X366688Y193569D01*
X366677Y193579D01*
X366622Y193656D01*
X366578Y193744D01*
X366502Y193951D01*
X366458Y194181D01*
X366414Y194399D01*
X366393Y194607D01*
Y194705D01*
X366382Y194782D01*
Y194847D01*
Y194902D01*
Y194935D01*
Y194946D01*
X366393Y195230D01*
X366425Y195470D01*
X366458Y195667D01*
X366513Y195831D01*
X366557Y195951D01*
X366589Y196050D01*
X366622Y196093D01*
X366633Y196115D01*
X366699Y196203D01*
X366764Y196290D01*
X366917Y196410D01*
X367081Y196509D01*
X367234Y196563D01*
X367376Y196607D01*
X367496Y196618D01*
X367529Y196629D01*
X367693D01*
X367792Y196607D01*
X367879Y196596D01*
X367956Y196574D01*
X368010Y196553D01*
X368065Y196531D01*
X368087Y196520D01*
X368098Y196509D01*
X368251Y196410D01*
X368371Y196301D01*
X368415Y196257D01*
X368458Y196214D01*
X368469Y196192D01*
X368480Y196181D01*
X368513Y196126D01*
X368546Y196072D01*
X368611Y195940D01*
X368633Y195886D01*
X368655Y195831D01*
X368666Y195798D01*
Y195787D01*
X370306Y196148D01*
X370240Y196323D01*
X370174Y196487D01*
X370098Y196629D01*
X370021Y196771D01*
X369945Y196902D01*
X369857Y197012D01*
X369781Y197121D01*
X369704Y197208D01*
X369628Y197296D01*
X369562Y197361D01*
X369497Y197427D01*
X369442Y197471D01*
X369398Y197514D01*
X369366Y197536D01*
X369344Y197558D01*
X369333D01*
X369202Y197635D01*
X369071Y197711D01*
X368786Y197820D01*
X368491Y197908D01*
X368196Y197962D01*
X368065Y197984D01*
X367945Y197995D01*
X367835Y198006D01*
X367737D01*
X367660Y198017D01*
D02*
G37*
G36*
X145172Y577515D02*
X145143D01*
X145055Y577500D01*
X144910Y577486D01*
X144749Y577442D01*
X144560Y577383D01*
X144356Y577281D01*
X144151Y577150D01*
X143976Y576975D01*
X143962Y576946D01*
X143904Y576873D01*
X143831Y576742D01*
X143758Y576567D01*
X143714Y576450D01*
X143670Y576319D01*
X143627Y576173D01*
X143597Y576027D01*
X143568Y575852D01*
X143539Y575663D01*
X143525Y575459D01*
Y575240D01*
Y575226D01*
Y575182D01*
Y575124D01*
X143539Y575051D01*
Y574949D01*
X143554Y574832D01*
X143583Y574570D01*
X143627Y574293D01*
X143714Y574001D01*
X143816Y573724D01*
X143889Y573607D01*
X143962Y573505D01*
X143976Y573476D01*
X144049Y573418D01*
X144151Y573345D01*
X144283Y573243D01*
X144458Y573141D01*
X144676Y573068D01*
X144924Y573009D01*
X145201Y572980D01*
X145274D01*
X145333Y572995D01*
X145478Y573009D01*
X145653Y573039D01*
X145843Y573111D01*
X146047Y573199D01*
X146251Y573316D01*
X146426Y573491D01*
X146440Y573520D01*
X146499Y573593D01*
X146528Y573651D01*
X146572Y573724D01*
X146616Y573811D01*
X146659Y573913D01*
X146688Y574030D01*
X146732Y574161D01*
X146776Y574322D01*
X146805Y574482D01*
X146834Y574672D01*
X146863Y574876D01*
X146878Y575094D01*
Y575342D01*
Y575357D01*
Y575386D01*
Y575444D01*
Y575532D01*
X146863Y575619D01*
X146849Y575721D01*
X146820Y575969D01*
X146761Y576232D01*
X146688Y576509D01*
X146572Y576771D01*
X146411Y576990D01*
X146397Y577019D01*
X146324Y577077D01*
X146222Y577150D01*
X146091Y577252D01*
X145916Y577354D01*
X145697Y577427D01*
X145449Y577486D01*
X145172Y577515D01*
D02*
G37*
G36*
X377006Y197919D02*
X375148D01*
Y195831D01*
X373115D01*
Y197919D01*
X371267D01*
Y191929D01*
X373115D01*
Y194356D01*
X375148D01*
Y191929D01*
X377006D01*
Y197919D01*
D02*
G37*
G36*
X146274D02*
X144426D01*
Y191929D01*
X149170D01*
Y193405D01*
X146274D01*
Y197919D01*
D02*
G37*
G36*
X143344D02*
X138382D01*
Y191929D01*
X143432D01*
Y193284D01*
X140240D01*
Y194465D01*
X143115D01*
Y195689D01*
X140240D01*
Y196640D01*
X143344D01*
Y197919D01*
D02*
G37*
G36*
X175468D02*
X172298D01*
Y191929D01*
X174156D01*
Y194159D01*
X175162D01*
X175369Y194170D01*
X175555Y194181D01*
X175730Y194203D01*
X175894Y194235D01*
X176047Y194279D01*
X176189Y194323D01*
X176309Y194367D01*
X176418Y194410D01*
X176517Y194454D01*
X176604Y194498D01*
X176670Y194541D01*
X176735Y194585D01*
X176779Y194618D01*
X176812Y194640D01*
X176823Y194662D01*
X176834D01*
X176932Y194760D01*
X177020Y194869D01*
X177085Y194979D01*
X177151Y195099D01*
X177249Y195339D01*
X177315Y195569D01*
X177348Y195766D01*
X177369Y195853D01*
Y195930D01*
X177380Y195995D01*
Y196039D01*
Y196072D01*
Y196082D01*
Y196247D01*
X177358Y196389D01*
X177304Y196662D01*
X177216Y196891D01*
X177129Y197088D01*
X177041Y197241D01*
X176954Y197350D01*
X176921Y197383D01*
X176899Y197416D01*
X176889Y197438D01*
X176878D01*
X176779Y197525D01*
X176670Y197602D01*
X176429Y197711D01*
X176178Y197799D01*
X175938Y197864D01*
X175719Y197897D01*
X175621Y197908D01*
X175533D01*
X175468Y197919D01*
D02*
G37*
G36*
X186813D02*
X181184D01*
Y196443D01*
X183075D01*
Y191929D01*
X184922D01*
Y196443D01*
X186813D01*
Y197919D01*
D02*
G37*
G36*
X180288D02*
X178430D01*
Y191929D01*
X180288D01*
Y197919D01*
D02*
G37*
G36*
X337195Y246062D02*
X336320Y243205D01*
X338070D01*
X337195Y246062D01*
D02*
G37*
G36*
X320662Y243496D02*
X319422D01*
Y241878D01*
X320778D01*
X320895Y241893D01*
X321026Y241907D01*
X321186Y241936D01*
X321332Y241965D01*
X321463Y242024D01*
X321580Y242097D01*
X321595Y242111D01*
X321624Y242140D01*
X321668Y242184D01*
X321711Y242257D01*
X321755Y242344D01*
X321799Y242461D01*
X321828Y242578D01*
X321843Y242709D01*
Y242724D01*
Y242767D01*
X321828Y242826D01*
X321813Y242913D01*
X321784Y243001D01*
X321726Y243103D01*
X321668Y243190D01*
X321580Y243278D01*
X321566Y243292D01*
X321536Y243307D01*
X321463Y243351D01*
X321361Y243394D01*
X321245Y243423D01*
X321084Y243467D01*
X320895Y243482D01*
X320662Y243496D01*
D02*
G37*
G36*
X320516Y246529D02*
X319422D01*
Y245013D01*
X320589D01*
X320691Y245027D01*
X320822Y245042D01*
X321084Y245100D01*
X321201Y245144D01*
X321303Y245202D01*
X321318Y245217D01*
X321347Y245246D01*
X321376Y245290D01*
X321420Y245348D01*
X321463Y245435D01*
X321507Y245537D01*
X321522Y245654D01*
X321536Y245785D01*
Y245800D01*
Y245844D01*
X321522Y245902D01*
X321507Y245989D01*
X321478Y246077D01*
X321434Y246164D01*
X321376Y246252D01*
X321303Y246325D01*
X321288Y246339D01*
X321259Y246354D01*
X321201Y246383D01*
X321113Y246427D01*
X321011Y246471D01*
X320880Y246500D01*
X320705Y246514D01*
X320516Y246529D01*
D02*
G37*
G36*
X134764Y197919D02*
X131890D01*
Y191929D01*
X134633D01*
X134830Y191940D01*
X135016Y191951D01*
X135212Y191973D01*
X135376Y192006D01*
X135529Y192038D01*
X135650Y192060D01*
X135693Y192071D01*
X135726D01*
X135737Y192082D01*
X135748D01*
X135912Y192137D01*
X136065Y192213D01*
X136196Y192290D01*
X136327Y192366D01*
X136426Y192443D01*
X136502Y192508D01*
X136546Y192552D01*
X136568Y192563D01*
X136710Y192705D01*
X136830Y192858D01*
X136939Y193000D01*
X137027Y193142D01*
X137092Y193263D01*
X137136Y193361D01*
X137169Y193427D01*
X137180Y193438D01*
Y193448D01*
X137256Y193667D01*
X137311Y193907D01*
X137355Y194159D01*
X137377Y194388D01*
X137398Y194607D01*
Y194694D01*
X137409Y194782D01*
Y194847D01*
Y194891D01*
Y194924D01*
Y194935D01*
X137398Y195164D01*
X137388Y195372D01*
X137366Y195569D01*
X137333Y195744D01*
X137300Y195886D01*
X137278Y195995D01*
X137267Y196039D01*
Y196072D01*
X137256Y196082D01*
Y196093D01*
X137191Y196290D01*
X137125Y196476D01*
X137049Y196640D01*
X136972Y196782D01*
X136896Y196902D01*
X136841Y196979D01*
X136797Y197033D01*
X136786Y197055D01*
X136655Y197197D01*
X136524Y197328D01*
X136382Y197438D01*
X136251Y197525D01*
X136130Y197602D01*
X136043Y197645D01*
X135977Y197678D01*
X135967Y197689D01*
X135956D01*
X135759Y197766D01*
X135540Y197820D01*
X135322Y197864D01*
X135103Y197886D01*
X134917Y197908D01*
X134841D01*
X134764Y197919D01*
D02*
G37*
G36*
X400636D02*
X397762D01*
Y191929D01*
X400505D01*
X400702Y191940D01*
X400888Y191951D01*
X401084Y191973D01*
X401248Y192006D01*
X401401Y192038D01*
X401522Y192060D01*
X401565Y192071D01*
X401598D01*
X401609Y192082D01*
X401620D01*
X401784Y192137D01*
X401937Y192213D01*
X402068Y192290D01*
X402199Y192366D01*
X402298Y192443D01*
X402374Y192508D01*
X402418Y192552D01*
X402440Y192563D01*
X402582Y192705D01*
X402702Y192858D01*
X402811Y193000D01*
X402899Y193142D01*
X402964Y193263D01*
X403008Y193361D01*
X403041Y193427D01*
X403052Y193438D01*
Y193448D01*
X403128Y193667D01*
X403183Y193907D01*
X403227Y194159D01*
X403249Y194388D01*
X403270Y194607D01*
Y194694D01*
X403281Y194782D01*
Y194847D01*
Y194891D01*
Y194924D01*
Y194935D01*
X403270Y195164D01*
X403260Y195372D01*
X403238Y195569D01*
X403205Y195744D01*
X403172Y195886D01*
X403150Y195995D01*
X403139Y196039D01*
Y196072D01*
X403128Y196082D01*
Y196093D01*
X403063Y196290D01*
X402997Y196476D01*
X402921Y196640D01*
X402844Y196782D01*
X402768Y196902D01*
X402713Y196979D01*
X402669Y197033D01*
X402658Y197055D01*
X402527Y197197D01*
X402396Y197328D01*
X402254Y197438D01*
X402123Y197525D01*
X402003Y197602D01*
X401915Y197645D01*
X401850Y197678D01*
X401839Y197689D01*
X401828D01*
X401631Y197766D01*
X401412Y197820D01*
X401194Y197864D01*
X400975Y197886D01*
X400789Y197908D01*
X400713D01*
X400636Y197919D01*
D02*
G37*
G36*
X342981D02*
X337352D01*
Y196443D01*
X339243D01*
Y191929D01*
X341090D01*
Y196443D01*
X342981D01*
Y197919D01*
D02*
G37*
G36*
X334040D02*
X332193D01*
Y191929D01*
X336936D01*
Y193405D01*
X334040D01*
Y197919D01*
D02*
G37*
G36*
X352555D02*
X349385D01*
Y191929D01*
X351244D01*
Y194159D01*
X352249D01*
X352457Y194170D01*
X352643Y194181D01*
X352818Y194203D01*
X352981Y194235D01*
X353134Y194279D01*
X353277Y194323D01*
X353397Y194367D01*
X353506Y194410D01*
X353605Y194454D01*
X353692Y194498D01*
X353758Y194541D01*
X353823Y194585D01*
X353867Y194618D01*
X353900Y194640D01*
X353911Y194662D01*
X353922D01*
X354020Y194760D01*
X354107Y194869D01*
X354173Y194979D01*
X354239Y195099D01*
X354337Y195339D01*
X354402Y195569D01*
X354435Y195766D01*
X354457Y195853D01*
Y195930D01*
X354468Y195995D01*
Y196039D01*
Y196072D01*
Y196082D01*
Y196247D01*
X354446Y196389D01*
X354392Y196662D01*
X354304Y196891D01*
X354217Y197088D01*
X354129Y197241D01*
X354042Y197350D01*
X354009Y197383D01*
X353987Y197416D01*
X353976Y197438D01*
X353965D01*
X353867Y197525D01*
X353758Y197602D01*
X353517Y197711D01*
X353266Y197799D01*
X353025Y197864D01*
X352807Y197897D01*
X352708Y197908D01*
X352621D01*
X352555Y197919D01*
D02*
G37*
G36*
X363901D02*
X358272D01*
Y196443D01*
X360162D01*
Y191929D01*
X362010D01*
Y196443D01*
X363901D01*
Y197919D01*
D02*
G37*
G36*
X357375D02*
X355517D01*
Y191929D01*
X357375D01*
Y197919D01*
D02*
G37*
G36*
X218193D02*
X213231D01*
Y191929D01*
X218280D01*
Y193284D01*
X215089D01*
Y194465D01*
X217964D01*
Y195689D01*
X215089D01*
Y196640D01*
X218193D01*
Y197919D01*
D02*
G37*
G36*
X210039D02*
X206738D01*
Y191929D01*
X208596D01*
Y194356D01*
X208750D01*
X208848Y194345D01*
X208935Y194334D01*
X209012Y194312D01*
X209077Y194290D01*
X209132Y194257D01*
X209176Y194235D01*
X209198Y194224D01*
X209208Y194213D01*
X209263Y194159D01*
X209329Y194093D01*
X209438Y193940D01*
X209482Y193875D01*
X209515Y193809D01*
X209536Y193765D01*
X209547Y193754D01*
X210542Y191929D01*
X212641D01*
X211733Y193656D01*
X211701Y193711D01*
X211668Y193765D01*
X211580Y193896D01*
X211537Y193940D01*
X211504Y193984D01*
X211482Y194017D01*
X211471Y194028D01*
X211405Y194115D01*
X211340Y194181D01*
X211296Y194235D01*
X211252Y194279D01*
X211220Y194312D01*
X211198Y194334D01*
X211176Y194345D01*
X211110Y194388D01*
X211034Y194421D01*
X210881Y194498D01*
X210804Y194519D01*
X210750Y194541D01*
X210706Y194563D01*
X210695D01*
X210837Y194607D01*
X210968Y194640D01*
X211078Y194684D01*
X211176Y194716D01*
X211242Y194749D01*
X211296Y194782D01*
X211329Y194793D01*
X211340Y194804D01*
X211471Y194891D01*
X211591Y194990D01*
X211690Y195088D01*
X211777Y195175D01*
X211843Y195263D01*
X211897Y195328D01*
X211919Y195372D01*
X211930Y195383D01*
X212007Y195525D01*
X212061Y195678D01*
X212094Y195820D01*
X212127Y195951D01*
X212138Y196072D01*
X212149Y196159D01*
Y196225D01*
Y196247D01*
X212138Y196454D01*
X212105Y196640D01*
X212061Y196804D01*
X212007Y196946D01*
X211952Y197066D01*
X211908Y197154D01*
X211875Y197197D01*
X211864Y197219D01*
X211755Y197361D01*
X211635Y197471D01*
X211515Y197569D01*
X211395Y197645D01*
X211296Y197700D01*
X211209Y197733D01*
X211154Y197755D01*
X211132Y197766D01*
X210946Y197820D01*
X210739Y197853D01*
X210520Y197886D01*
X210312Y197897D01*
X210116Y197908D01*
X210039Y197919D01*
D02*
G37*
G36*
X254262D02*
X251387D01*
Y191929D01*
X254131D01*
X254328Y191940D01*
X254513Y191951D01*
X254710Y191973D01*
X254874Y192006D01*
X255027Y192038D01*
X255147Y192060D01*
X255191Y192071D01*
X255224D01*
X255235Y192082D01*
X255246D01*
X255410Y192137D01*
X255563Y192213D01*
X255694Y192290D01*
X255825Y192366D01*
X255923Y192443D01*
X256000Y192508D01*
X256044Y192552D01*
X256065Y192563D01*
X256207Y192705D01*
X256328Y192858D01*
X256437Y193000D01*
X256524Y193142D01*
X256590Y193263D01*
X256634Y193361D01*
X256667Y193427D01*
X256678Y193438D01*
Y193448D01*
X256754Y193667D01*
X256809Y193907D01*
X256852Y194159D01*
X256874Y194388D01*
X256896Y194607D01*
Y194694D01*
X256907Y194782D01*
Y194847D01*
Y194891D01*
Y194924D01*
Y194935D01*
X256896Y195164D01*
X256885Y195372D01*
X256863Y195569D01*
X256831Y195744D01*
X256798Y195886D01*
X256776Y195995D01*
X256765Y196039D01*
Y196072D01*
X256754Y196082D01*
Y196093D01*
X256688Y196290D01*
X256623Y196476D01*
X256546Y196640D01*
X256470Y196782D01*
X256393Y196902D01*
X256339Y196979D01*
X256295Y197033D01*
X256284Y197055D01*
X256153Y197197D01*
X256022Y197328D01*
X255880Y197438D01*
X255749Y197525D01*
X255628Y197602D01*
X255541Y197645D01*
X255475Y197678D01*
X255464Y197689D01*
X255453D01*
X255257Y197766D01*
X255038Y197820D01*
X254819Y197864D01*
X254601Y197886D01*
X254415Y197908D01*
X254339D01*
X254262Y197919D01*
D02*
G37*
G36*
X329351D02*
X327318D01*
X325077Y191929D01*
X326968D01*
X327263Y192913D01*
X329362D01*
X329657Y191929D01*
X331602D01*
X329351Y197919D01*
D02*
G37*
G36*
X313699D02*
X310824D01*
Y191929D01*
X313568D01*
X313765Y191940D01*
X313950Y191951D01*
X314147Y191973D01*
X314311Y192006D01*
X314464Y192038D01*
X314584Y192060D01*
X314628Y192071D01*
X314661D01*
X314672Y192082D01*
X314683D01*
X314847Y192137D01*
X315000Y192213D01*
X315131Y192290D01*
X315262Y192366D01*
X315360Y192443D01*
X315437Y192508D01*
X315481Y192552D01*
X315503Y192563D01*
X315645Y192705D01*
X315765Y192858D01*
X315874Y193000D01*
X315962Y193142D01*
X316027Y193263D01*
X316071Y193361D01*
X316104Y193427D01*
X316115Y193438D01*
Y193448D01*
X316191Y193667D01*
X316246Y193907D01*
X316289Y194159D01*
X316311Y194388D01*
X316333Y194607D01*
Y194694D01*
X316344Y194782D01*
Y194847D01*
Y194891D01*
Y194924D01*
Y194935D01*
X316333Y195164D01*
X316322Y195372D01*
X316300Y195569D01*
X316268Y195744D01*
X316235Y195886D01*
X316213Y195995D01*
X316202Y196039D01*
Y196072D01*
X316191Y196082D01*
Y196093D01*
X316126Y196290D01*
X316060Y196476D01*
X315984Y196640D01*
X315907Y196782D01*
X315830Y196902D01*
X315776Y196979D01*
X315732Y197033D01*
X315721Y197055D01*
X315590Y197197D01*
X315459Y197328D01*
X315317Y197438D01*
X315186Y197525D01*
X315065Y197602D01*
X314978Y197645D01*
X314912Y197678D01*
X314901Y197689D01*
X314891D01*
X314694Y197766D01*
X314475Y197820D01*
X314257Y197864D01*
X314038Y197886D01*
X313852Y197908D01*
X313776D01*
X313699Y197919D01*
D02*
G37*
G36*
X219871Y246529D02*
X219172D01*
Y244750D01*
X219886D01*
X220017Y244765D01*
X220163Y244779D01*
X220323Y244809D01*
X220498Y244852D01*
X220644Y244911D01*
X220775Y244984D01*
X220790Y244998D01*
X220819Y245027D01*
X220863Y245086D01*
X220921Y245158D01*
X220979Y245246D01*
X221023Y245363D01*
X221052Y245479D01*
X221067Y245625D01*
Y245640D01*
Y245683D01*
X221052Y245756D01*
X221038Y245844D01*
X221009Y245946D01*
X220950Y246062D01*
X220892Y246164D01*
X220805Y246267D01*
X220790Y246281D01*
X220761Y246310D01*
X220688Y246354D01*
X220600Y246398D01*
X220469Y246442D01*
X220309Y246485D01*
X220105Y246514D01*
X219871Y246529D01*
D02*
G37*
G36*
X200990Y246062D02*
X200115Y243205D01*
X201865D01*
X200990Y246062D01*
D02*
G37*
G36*
X300988Y197919D02*
X298955D01*
X296718Y191941D01*
X295818Y193656D01*
X295785Y193711D01*
X295752Y193765D01*
X295665Y193896D01*
X295621Y193940D01*
X295588Y193984D01*
X295566Y194017D01*
X295555Y194028D01*
X295490Y194115D01*
X295424Y194181D01*
X295380Y194235D01*
X295337Y194279D01*
X295304Y194312D01*
X295282Y194334D01*
X295260Y194345D01*
X295195Y194388D01*
X295118Y194421D01*
X294965Y194498D01*
X294889Y194519D01*
X294834Y194541D01*
X294790Y194563D01*
X294779D01*
X294921Y194607D01*
X295053Y194640D01*
X295162Y194684D01*
X295260Y194716D01*
X295326Y194749D01*
X295380Y194782D01*
X295413Y194793D01*
X295424Y194804D01*
X295555Y194891D01*
X295675Y194990D01*
X295774Y195088D01*
X295861Y195175D01*
X295927Y195263D01*
X295982Y195328D01*
X296003Y195372D01*
X296014Y195383D01*
X296091Y195525D01*
X296146Y195678D01*
X296178Y195820D01*
X296211Y195951D01*
X296222Y196072D01*
X296233Y196159D01*
Y196225D01*
Y196247D01*
X296222Y196454D01*
X296189Y196640D01*
X296146Y196804D01*
X296091Y196946D01*
X296036Y197066D01*
X295992Y197154D01*
X295960Y197197D01*
X295949Y197219D01*
X295840Y197361D01*
X295719Y197471D01*
X295599Y197569D01*
X295479Y197645D01*
X295380Y197700D01*
X295293Y197733D01*
X295238Y197755D01*
X295216Y197766D01*
X295031Y197820D01*
X294823Y197853D01*
X294604Y197886D01*
X294397Y197897D01*
X294200Y197908D01*
X294124Y197919D01*
X290823D01*
Y191929D01*
X292681D01*
Y194356D01*
X292834D01*
X292932Y194345D01*
X293020Y194334D01*
X293096Y194312D01*
X293162Y194290D01*
X293216Y194257D01*
X293260Y194235D01*
X293282Y194224D01*
X293293Y194213D01*
X293347Y194159D01*
X293413Y194093D01*
X293522Y193940D01*
X293566Y193875D01*
X293599Y193809D01*
X293621Y193765D01*
X293632Y193754D01*
X294626Y191929D01*
X298605D01*
X298900Y192913D01*
X300998D01*
X301293Y191929D01*
X303239D01*
X300988Y197919D01*
D02*
G37*
G36*
X241550D02*
X239517D01*
X237281Y191941D01*
X236381Y193656D01*
X236348Y193711D01*
X236315Y193765D01*
X236227Y193896D01*
X236184Y193940D01*
X236151Y193984D01*
X236129Y194017D01*
X236118Y194028D01*
X236053Y194115D01*
X235987Y194181D01*
X235943Y194235D01*
X235900Y194279D01*
X235867Y194312D01*
X235845Y194334D01*
X235823Y194345D01*
X235757Y194388D01*
X235681Y194421D01*
X235528Y194498D01*
X235452Y194519D01*
X235397Y194541D01*
X235353Y194563D01*
X235342D01*
X235484Y194607D01*
X235615Y194640D01*
X235725Y194684D01*
X235823Y194716D01*
X235889Y194749D01*
X235943Y194782D01*
X235976Y194793D01*
X235987Y194804D01*
X236118Y194891D01*
X236238Y194990D01*
X236337Y195088D01*
X236424Y195175D01*
X236490Y195263D01*
X236544Y195328D01*
X236566Y195372D01*
X236577Y195383D01*
X236654Y195525D01*
X236708Y195678D01*
X236741Y195820D01*
X236774Y195951D01*
X236785Y196072D01*
X236796Y196159D01*
Y196225D01*
Y196247D01*
X236785Y196454D01*
X236752Y196640D01*
X236708Y196804D01*
X236654Y196946D01*
X236599Y197066D01*
X236555Y197154D01*
X236523Y197197D01*
X236512Y197219D01*
X236402Y197361D01*
X236282Y197471D01*
X236162Y197569D01*
X236042Y197645D01*
X235943Y197700D01*
X235856Y197733D01*
X235801Y197755D01*
X235779Y197766D01*
X235594Y197820D01*
X235386Y197853D01*
X235167Y197886D01*
X234960Y197897D01*
X234763Y197908D01*
X234686Y197919D01*
X231385D01*
Y191929D01*
X233244D01*
Y194356D01*
X233397D01*
X233495Y194345D01*
X233582Y194334D01*
X233659Y194312D01*
X233724Y194290D01*
X233779Y194257D01*
X233823Y194235D01*
X233845Y194224D01*
X233856Y194213D01*
X233910Y194159D01*
X233976Y194093D01*
X234085Y193940D01*
X234129Y193875D01*
X234162Y193809D01*
X234184Y193765D01*
X234194Y193754D01*
X235189Y191929D01*
X239168D01*
X239463Y192913D01*
X241561D01*
X241856Y191929D01*
X243802D01*
X241550Y197919D01*
D02*
G37*
G36*
X409216D02*
X404254D01*
Y191929D01*
X409304D01*
Y193284D01*
X406112D01*
Y194465D01*
X408987D01*
Y195689D01*
X406112D01*
Y196640D01*
X409216D01*
Y197919D01*
D02*
G37*
G36*
X412146D02*
X410298D01*
Y191929D01*
X415042D01*
Y193405D01*
X412146D01*
Y197919D01*
D02*
G37*
%LPD*%
G36*
X297993Y116896D02*
X298273Y116795D01*
X298528Y116641D01*
X298732Y116463D01*
X298885Y116284D01*
X298988Y116131D01*
X299064Y116029D01*
X299090Y115978D01*
X299166Y115774D01*
X299243Y115544D01*
X299319Y115264D01*
X299370Y114983D01*
X299447Y114371D01*
X299523Y113733D01*
X299549Y113172D01*
Y112891D01*
X299574Y112687D01*
Y112483D01*
Y112356D01*
Y112254D01*
Y112228D01*
Y111565D01*
X299549Y111004D01*
X299498Y110519D01*
X299472Y110136D01*
X299421Y109830D01*
X299370Y109626D01*
X299345Y109499D01*
Y109448D01*
X299268Y109142D01*
X299166Y108861D01*
X299064Y108657D01*
X298962Y108453D01*
X298860Y108325D01*
X298783Y108223D01*
X298732Y108172D01*
X298707Y108147D01*
X298528Y108019D01*
X298350Y107917D01*
X298197Y107841D01*
X298018Y107789D01*
X297891Y107764D01*
X297763Y107738D01*
X297661D01*
X297355Y107789D01*
X297074Y107891D01*
X296845Y108045D01*
X296641Y108223D01*
X296488Y108402D01*
X296386Y108555D01*
X296309Y108657D01*
X296284Y108708D01*
X296207Y108912D01*
X296130Y109142D01*
X296079Y109397D01*
X296028Y109677D01*
X295926Y110289D01*
X295875Y110902D01*
X295850Y111463D01*
Y111718D01*
X295824Y111922D01*
Y112101D01*
Y112228D01*
Y112330D01*
Y112356D01*
Y112840D01*
X295850Y113274D01*
X295875Y113657D01*
X295901Y114039D01*
X295926Y114346D01*
X295952Y114652D01*
X296003Y114907D01*
X296054Y115136D01*
X296079Y115340D01*
X296130Y115519D01*
X296156Y115647D01*
X296181Y115749D01*
X296207Y115851D01*
X296233Y115902D01*
X296258Y115953D01*
X296437Y116284D01*
X296666Y116539D01*
X296896Y116718D01*
X297125Y116820D01*
X297329Y116896D01*
X297508Y116922D01*
X297610Y116947D01*
X297661D01*
X297993Y116896D01*
D02*
G37*
G36*
X328968Y194213D02*
X327657D01*
X328312Y196356D01*
X328968Y194213D01*
D02*
G37*
G36*
X400319Y196553D02*
X400538Y196509D01*
X400713Y196454D01*
X400855Y196389D01*
X400964Y196312D01*
X401041Y196257D01*
X401095Y196214D01*
X401106Y196203D01*
X401161Y196126D01*
X401216Y196050D01*
X401292Y195853D01*
X401347Y195634D01*
X401380Y195427D01*
X401412Y195219D01*
Y195132D01*
X401423Y195055D01*
Y194990D01*
Y194946D01*
Y194913D01*
Y194902D01*
X401412Y194651D01*
X401401Y194443D01*
X401380Y194257D01*
X401358Y194115D01*
X401325Y194006D01*
X401303Y193929D01*
X401292Y193875D01*
X401281Y193864D01*
X401227Y193754D01*
X401161Y193656D01*
X401095Y193579D01*
X401030Y193525D01*
X400975Y193470D01*
X400931Y193438D01*
X400899Y193427D01*
X400888Y193416D01*
X400778Y193372D01*
X400658Y193350D01*
X400516Y193328D01*
X400385Y193306D01*
X400254D01*
X400155Y193295D01*
X399609D01*
Y196563D01*
X400068D01*
X400319Y196553D01*
D02*
G37*
G36*
X313382D02*
X313601Y196509D01*
X313776Y196454D01*
X313918Y196389D01*
X314027Y196312D01*
X314104Y196257D01*
X314158Y196214D01*
X314169Y196203D01*
X314224Y196126D01*
X314278Y196050D01*
X314355Y195853D01*
X314409Y195634D01*
X314442Y195427D01*
X314475Y195219D01*
Y195132D01*
X314486Y195055D01*
Y194990D01*
Y194946D01*
Y194913D01*
Y194902D01*
X314475Y194651D01*
X314464Y194443D01*
X314442Y194257D01*
X314421Y194115D01*
X314388Y194006D01*
X314366Y193929D01*
X314355Y193875D01*
X314344Y193864D01*
X314289Y193754D01*
X314224Y193656D01*
X314158Y193579D01*
X314093Y193525D01*
X314038Y193470D01*
X313994Y193438D01*
X313961Y193427D01*
X313950Y193416D01*
X313841Y193372D01*
X313721Y193350D01*
X313579Y193328D01*
X313448Y193306D01*
X313316D01*
X313218Y193295D01*
X312672D01*
Y196563D01*
X313131D01*
X313382Y196553D01*
D02*
G37*
G36*
X300605Y194213D02*
X299293D01*
X299949Y196356D01*
X300605Y194213D01*
D02*
G37*
G36*
X241168D02*
X239856D01*
X240512Y196356D01*
X241168Y194213D01*
D02*
G37*
G36*
X284957Y116896D02*
X285238Y116795D01*
X285493Y116641D01*
X285697Y116463D01*
X285850Y116284D01*
X285952Y116131D01*
X286029Y116029D01*
X286054Y115978D01*
X286130Y115774D01*
X286207Y115544D01*
X286284Y115264D01*
X286335Y114983D01*
X286411Y114371D01*
X286488Y113733D01*
X286513Y113172D01*
Y112891D01*
X286539Y112687D01*
Y112483D01*
Y112356D01*
Y112254D01*
Y112228D01*
Y111565D01*
X286513Y111004D01*
X286462Y110519D01*
X286437Y110136D01*
X286386Y109830D01*
X286335Y109626D01*
X286309Y109499D01*
Y109448D01*
X286232Y109142D01*
X286130Y108861D01*
X286029Y108657D01*
X285926Y108453D01*
X285824Y108325D01*
X285748Y108223D01*
X285697Y108172D01*
X285671Y108147D01*
X285493Y108019D01*
X285314Y107917D01*
X285161Y107841D01*
X284983Y107789D01*
X284855Y107764D01*
X284728Y107738D01*
X284625D01*
X284319Y107789D01*
X284039Y107891D01*
X283809Y108045D01*
X283605Y108223D01*
X283452Y108402D01*
X283350Y108555D01*
X283273Y108657D01*
X283248Y108708D01*
X283171Y108912D01*
X283095Y109142D01*
X283044Y109397D01*
X282993Y109677D01*
X282891Y110289D01*
X282840Y110902D01*
X282814Y111463D01*
Y111718D01*
X282789Y111922D01*
Y112101D01*
Y112228D01*
Y112330D01*
Y112356D01*
Y112840D01*
X282814Y113274D01*
X282840Y113657D01*
X282865Y114039D01*
X282891Y114346D01*
X282916Y114652D01*
X282967Y114907D01*
X283018Y115136D01*
X283044Y115340D01*
X283095Y115519D01*
X283120Y115647D01*
X283146Y115749D01*
X283171Y115851D01*
X283197Y115902D01*
X283222Y115953D01*
X283401Y116284D01*
X283630Y116539D01*
X283860Y116718D01*
X284090Y116820D01*
X284294Y116896D01*
X284472Y116922D01*
X284574Y116947D01*
X284625D01*
X284957Y116896D01*
D02*
G37*
G36*
X209580Y196695D02*
X209733Y196684D01*
X209853Y196651D01*
X209952Y196629D01*
X210017Y196596D01*
X210072Y196563D01*
X210094Y196553D01*
X210105Y196542D01*
X210170Y196476D01*
X210214Y196410D01*
X210247Y196334D01*
X210269Y196268D01*
X210280Y196203D01*
X210291Y196148D01*
Y196115D01*
Y196104D01*
Y196028D01*
X210269Y195962D01*
X210236Y195853D01*
X210214Y195809D01*
X210192Y195787D01*
X210181Y195766D01*
X210170Y195755D01*
X210127Y195700D01*
X210072Y195656D01*
X209974Y195602D01*
X209930Y195591D01*
X209897Y195580D01*
X209875Y195569D01*
X209864D01*
X209744Y195547D01*
X209635Y195525D01*
X209547Y195514D01*
X209482Y195503D01*
X209438Y195492D01*
X208596D01*
Y196705D01*
X209405D01*
X209580Y196695D01*
D02*
G37*
G36*
X234227D02*
X234380Y196684D01*
X234501Y196651D01*
X234599Y196629D01*
X234665Y196596D01*
X234719Y196563D01*
X234741Y196553D01*
X234752Y196542D01*
X234818Y196476D01*
X234861Y196410D01*
X234894Y196334D01*
X234916Y196268D01*
X234927Y196203D01*
X234938Y196148D01*
Y196115D01*
Y196104D01*
Y196028D01*
X234916Y195962D01*
X234883Y195853D01*
X234861Y195809D01*
X234839Y195787D01*
X234828Y195766D01*
X234818Y195755D01*
X234774Y195700D01*
X234719Y195656D01*
X234621Y195602D01*
X234577Y195591D01*
X234544Y195580D01*
X234522Y195569D01*
X234511D01*
X234391Y195547D01*
X234282Y195525D01*
X234194Y195514D01*
X234129Y195503D01*
X234085Y195492D01*
X233244D01*
Y196705D01*
X234052D01*
X234227Y196695D01*
D02*
G37*
G36*
X293664D02*
X293817Y196684D01*
X293938Y196651D01*
X294036Y196629D01*
X294102Y196596D01*
X294156Y196563D01*
X294178Y196553D01*
X294189Y196542D01*
X294255Y196476D01*
X294298Y196410D01*
X294331Y196334D01*
X294353Y196268D01*
X294364Y196203D01*
X294375Y196148D01*
Y196115D01*
Y196104D01*
Y196028D01*
X294353Y195962D01*
X294320Y195853D01*
X294298Y195809D01*
X294276Y195787D01*
X294266Y195766D01*
X294255Y195755D01*
X294211Y195700D01*
X294156Y195656D01*
X294058Y195602D01*
X294014Y195591D01*
X293981Y195580D01*
X293959Y195569D01*
X293949D01*
X293828Y195547D01*
X293719Y195525D01*
X293632Y195514D01*
X293566Y195503D01*
X293522Y195492D01*
X292681D01*
Y196705D01*
X293490D01*
X293664Y196695D01*
D02*
G37*
G36*
X351943D02*
X352096Y196673D01*
X352216Y196640D01*
X352315Y196607D01*
X352380Y196574D01*
X352435Y196542D01*
X352457Y196520D01*
X352468Y196509D01*
X352533Y196432D01*
X352577Y196356D01*
X352621Y196268D01*
X352643Y196192D01*
X352654Y196126D01*
X352664Y196072D01*
Y196039D01*
Y196028D01*
X352654Y195919D01*
X352632Y195831D01*
X352599Y195744D01*
X352555Y195678D01*
X352512Y195624D01*
X352479Y195580D01*
X352457Y195558D01*
X352446Y195547D01*
X352348Y195492D01*
X352238Y195449D01*
X352107Y195416D01*
X351987Y195394D01*
X351878Y195383D01*
X351779Y195372D01*
X351244D01*
Y196705D01*
X351768D01*
X351943Y196695D01*
D02*
G37*
G36*
X253945Y196553D02*
X254164Y196509D01*
X254339Y196454D01*
X254481Y196389D01*
X254590Y196312D01*
X254666Y196257D01*
X254721Y196214D01*
X254732Y196203D01*
X254787Y196126D01*
X254841Y196050D01*
X254918Y195853D01*
X254972Y195634D01*
X255005Y195427D01*
X255038Y195219D01*
Y195132D01*
X255049Y195055D01*
Y194990D01*
Y194946D01*
Y194913D01*
Y194902D01*
X255038Y194651D01*
X255027Y194443D01*
X255005Y194257D01*
X254983Y194115D01*
X254951Y194006D01*
X254929Y193929D01*
X254918Y193875D01*
X254907Y193864D01*
X254852Y193754D01*
X254787Y193656D01*
X254721Y193579D01*
X254656Y193525D01*
X254601Y193470D01*
X254557Y193438D01*
X254524Y193427D01*
X254513Y193416D01*
X254404Y193372D01*
X254284Y193350D01*
X254142Y193328D01*
X254011Y193306D01*
X253879D01*
X253781Y193295D01*
X253235D01*
Y196563D01*
X253694D01*
X253945Y196553D01*
D02*
G37*
G36*
X134447D02*
X134666Y196509D01*
X134841Y196454D01*
X134983Y196389D01*
X135092Y196312D01*
X135169Y196257D01*
X135223Y196214D01*
X135234Y196203D01*
X135289Y196126D01*
X135344Y196050D01*
X135420Y195853D01*
X135475Y195634D01*
X135508Y195427D01*
X135540Y195219D01*
Y195132D01*
X135551Y195055D01*
Y194990D01*
Y194946D01*
Y194913D01*
Y194902D01*
X135540Y194651D01*
X135529Y194443D01*
X135508Y194257D01*
X135486Y194115D01*
X135453Y194006D01*
X135431Y193929D01*
X135420Y193875D01*
X135409Y193864D01*
X135354Y193754D01*
X135289Y193656D01*
X135223Y193579D01*
X135158Y193525D01*
X135103Y193470D01*
X135059Y193438D01*
X135027Y193427D01*
X135016Y193416D01*
X134906Y193372D01*
X134786Y193350D01*
X134644Y193328D01*
X134513Y193306D01*
X134382D01*
X134283Y193295D01*
X133737D01*
Y196563D01*
X134196D01*
X134447Y196553D01*
D02*
G37*
G36*
X174855Y196695D02*
X175008Y196673D01*
X175129Y196640D01*
X175227Y196607D01*
X175293Y196574D01*
X175347Y196542D01*
X175369Y196520D01*
X175380Y196509D01*
X175446Y196432D01*
X175489Y196356D01*
X175533Y196268D01*
X175555Y196192D01*
X175566Y196126D01*
X175577Y196072D01*
Y196039D01*
Y196028D01*
X175566Y195919D01*
X175544Y195831D01*
X175511Y195744D01*
X175468Y195678D01*
X175424Y195624D01*
X175391Y195580D01*
X175369Y195558D01*
X175358Y195547D01*
X175260Y195492D01*
X175151Y195449D01*
X175020Y195416D01*
X174899Y195394D01*
X174790Y195383D01*
X174692Y195372D01*
X174156D01*
Y196705D01*
X174681D01*
X174855Y196695D01*
D02*
G37*
D12*
X244094Y244094D02*
X255905D01*
Y236221D02*
Y244094D01*
Y234252D02*
Y236221D01*
X173228Y244094D02*
X185039D01*
X173228Y234252D02*
Y244094D01*
X291338Y234252D02*
Y244094D01*
X312008D01*
X353346D02*
X374016D01*
Y234252D02*
Y236221D01*
Y244094D01*
D13*
X145669Y595669D02*
D03*
X393701Y595669D02*
D03*
M02*
