M48
;Layer_Color=6321
;FILE_FORMAT=2:5
INCH,TZ
;TYPE=NON_PLATED
T1F00S00C0.12598
T2F00S00C0.14961
T3F00S00C0.51968
%
T01
X116142Y129921
X431102
Y267717
X116142
Y413386
X431102Y413386
Y551181
X116142
T02
X332677Y230315
X362205
X406496
Y265748
X303150Y230315
X273622
X244094
X214567
X185039
X140748
Y265748
T03
X273622Y427165
M30
