G04 Layer_Physical_Order=2*
G04 Layer_Color=11436288*
%FSLAX25Y25*%
%MOIN*%
G70*
G01*
G75*
%ADD11R,0.07087X0.05118*%
G04:AMPARAMS|DCode=12|XSize=66.93mil|YSize=43.31mil|CornerRadius=4.33mil|HoleSize=0mil|Usage=FLASHONLY|Rotation=180.000|XOffset=0mil|YOffset=0mil|HoleType=Round|Shape=RoundedRectangle|*
%AMROUNDEDRECTD12*
21,1,0.06693,0.03465,0,0,180.0*
21,1,0.05827,0.04331,0,0,180.0*
1,1,0.00866,-0.02913,0.01732*
1,1,0.00866,0.02913,0.01732*
1,1,0.00866,0.02913,-0.01732*
1,1,0.00866,-0.02913,-0.01732*
%
%ADD12ROUNDEDRECTD12*%
%ADD13C,0.01969*%
%ADD14C,0.13780*%
D11*
X263779Y187402D02*
D03*
Y198425D02*
D03*
X244094Y187402D02*
D03*
Y198425D02*
D03*
X224409Y187402D02*
D03*
Y198425D02*
D03*
D12*
X263779Y175000D02*
D03*
Y163583D02*
D03*
X244094Y175000D02*
D03*
Y163583D02*
D03*
X224410Y175000D02*
D03*
Y163583D02*
D03*
D13*
X263779Y198425D02*
X271654Y190551D01*
Y147638D02*
Y190551D01*
Y147638D02*
X280571Y138721D01*
Y137795D02*
Y138721D01*
X244094Y198425D02*
X263779D01*
X224803D02*
X244094D01*
X224410Y198819D02*
X224803Y198425D01*
X263779Y175000D02*
Y187402D01*
Y175000D02*
X263779Y175000D01*
X244094Y175000D02*
Y187402D01*
Y175000D02*
X244094Y175000D01*
X224409Y175000D02*
Y187402D01*
Y175000D02*
X224410Y175000D01*
X263779Y153543D02*
Y163583D01*
X259842Y149606D02*
X263779Y153543D01*
X244094Y106299D02*
Y163583D01*
X224410Y137795D02*
Y163583D01*
X223622Y137008D02*
X224410Y137795D01*
D14*
X223622Y137008D02*
D03*
X234252Y131496D02*
D03*
X259842Y149606D02*
D03*
X261811Y119685D02*
D03*
X280571Y137795D02*
D03*
X244094Y106299D02*
D03*
M02*
