G04 Layer_Color=20142*
%FSLAX25Y25*%
%MOIN*%
G70*
G01*
G75*
%ADD12C,0.32296*%
G36*
X277596Y440808D02*
X285491Y440260D01*
X293352Y439348D01*
X301162Y438074D01*
X308906Y436440D01*
X316565Y434451D01*
X324125Y432110D01*
X331568Y429423D01*
X338879Y426394D01*
X346042Y423032D01*
X353043Y419341D01*
X359866Y415332D01*
X366496Y411012D01*
X372920Y406390D01*
X379123Y401476D01*
X385093Y396281D01*
X390816Y390816D01*
X396281Y385093D01*
X401476Y379123D01*
X406390Y372920D01*
X411012Y366496D01*
X415332Y359866D01*
X419341Y353043D01*
X423032Y346042D01*
X426394Y338879D01*
X429423Y331568D01*
X432110Y324125D01*
X434451Y316565D01*
X436440Y308906D01*
X438074Y301162D01*
X439348Y293352D01*
X440260Y285491D01*
X440808Y277596D01*
X440991Y269685D01*
X440808Y261774D01*
X440260Y253879D01*
X439348Y246018D01*
X438074Y238208D01*
X436440Y230465D01*
X434451Y222805D01*
X432110Y215246D01*
X429423Y207802D01*
X426394Y200491D01*
X423032Y193328D01*
X419341Y186327D01*
X415332Y179504D01*
X411012Y172874D01*
X406390Y166450D01*
X401476Y160247D01*
X396281Y154277D01*
X390816Y148554D01*
X385093Y143089D01*
X379123Y137894D01*
X372920Y132980D01*
X366496Y128358D01*
X359866Y124038D01*
X353043Y120029D01*
X346042Y116339D01*
X338879Y112976D01*
X331568Y109947D01*
X324125Y107260D01*
X316565Y104919D01*
X308906Y102930D01*
X301162Y101296D01*
X293352Y100022D01*
X285491Y99110D01*
X277596Y98562D01*
X269685Y98379D01*
X269685Y98379D01*
Y98379D01*
X261774Y98562D01*
X253879Y99110D01*
X246018Y100022D01*
X238208Y101296D01*
X230465Y102930D01*
X222805Y104919D01*
X215246Y107260D01*
X207802Y109947D01*
X200491Y112976D01*
X193328Y116339D01*
X186327Y120029D01*
X179504Y124038D01*
X172874Y128358D01*
X166450Y132980D01*
X160247Y137894D01*
X154277Y143089D01*
X148554Y148554D01*
X143089Y154277D01*
X137894Y160247D01*
X132980Y166450D01*
X128358Y172874D01*
X124038Y179504D01*
X120029Y186327D01*
X116339Y193328D01*
X112976Y200491D01*
X109947Y207802D01*
X107260Y215246D01*
X104919Y222805D01*
X102930Y230465D01*
X101296Y238208D01*
X100022Y246018D01*
X99110Y253879D01*
X98562Y261774D01*
X98379Y269685D01*
Y269685D01*
X98562Y277596D01*
X99110Y285491D01*
X100022Y293352D01*
X101296Y301162D01*
X102930Y308906D01*
X104919Y316565D01*
X107260Y324125D01*
X109947Y331568D01*
X112976Y338879D01*
X116339Y346042D01*
X120029Y353043D01*
X124038Y359866D01*
X128358Y366496D01*
X132980Y372920D01*
X137894Y379123D01*
X143089Y385093D01*
X148554Y390816D01*
X154277Y396281D01*
X160247Y401476D01*
X166450Y406390D01*
X172874Y411012D01*
X179504Y415332D01*
X186327Y419341D01*
X193328Y423032D01*
X200491Y426394D01*
X207802Y429423D01*
X215246Y432110D01*
X222805Y434451D01*
X230465Y436440D01*
X238208Y438074D01*
X246018Y439348D01*
X253879Y440260D01*
X261774Y440808D01*
X269223Y440980D01*
X269685Y440991D01*
X269685Y440991D01*
Y440991D01*
X269685Y440991D01*
X277596Y440808D01*
D02*
G37*
D12*
X269685Y269685D02*
D03*
M02*
