G04 Layer_Color=15132400*
%FSLAX25Y25*%
%MOIN*%
G70*
G01*
G75*
G36*
X526776Y104799D02*
X309524D01*
Y170697D01*
X526776D01*
Y104799D01*
D02*
G37*
G36*
X211239Y168588D02*
X212223D01*
X213317Y168478D01*
X214520Y168369D01*
X215832Y168150D01*
X218675Y167603D01*
X221628Y166838D01*
X224362Y165744D01*
X225674Y165088D01*
X226877Y164323D01*
X226987D01*
X227096Y164104D01*
X227862Y163557D01*
X228846Y162463D01*
X230049Y161042D01*
X230705Y160167D01*
X231252Y159183D01*
X231908Y157980D01*
X232455Y156777D01*
X233002Y155464D01*
X233439Y154043D01*
X233767Y152402D01*
X234095Y150762D01*
X216598Y149778D01*
Y149996D01*
X216488Y150434D01*
X216269Y151199D01*
X215941Y152074D01*
X215504Y152949D01*
X215067Y153933D01*
X214410Y154918D01*
X213645Y155683D01*
X213535Y155792D01*
X213207Y156011D01*
X212770Y156230D01*
X212114Y156667D01*
X211239Y156995D01*
X210145Y157214D01*
X208942Y157433D01*
X207521Y157542D01*
X206974D01*
X206427Y157433D01*
X205662Y157324D01*
X204021Y156995D01*
X203256Y156558D01*
X202600Y156121D01*
X202490Y156011D01*
X202381Y155902D01*
X201834Y155246D01*
X201287Y154152D01*
X201178Y153496D01*
X201068Y152840D01*
Y152730D01*
Y152621D01*
X201287Y151965D01*
X201615Y151090D01*
X201943Y150653D01*
X202381Y150215D01*
X202490D01*
X202709Y149996D01*
X203037Y149778D01*
X203693Y149450D01*
X204459Y149121D01*
X205552Y148793D01*
X206865Y148356D01*
X208505Y148028D01*
X208614D01*
X209052Y147919D01*
X209708Y147809D01*
X210473Y147590D01*
X211458Y147372D01*
X212661Y147044D01*
X213973Y146716D01*
X215285Y146388D01*
X218129Y145622D01*
X221081Y144638D01*
X223706Y143654D01*
X224909Y143216D01*
X226003Y142669D01*
X226112D01*
X226221Y142560D01*
X226877Y142232D01*
X227752Y141685D01*
X228955Y140919D01*
X230158Y139935D01*
X231470Y138842D01*
X232674Y137529D01*
X233658Y136108D01*
X233767Y135889D01*
X233986Y135451D01*
X234423Y134577D01*
X234861Y133483D01*
X235298Y132171D01*
X235736Y130749D01*
X235954Y128999D01*
X236064Y127250D01*
Y127140D01*
Y127031D01*
Y126703D01*
Y126265D01*
X235845Y125172D01*
X235626Y123750D01*
X235298Y122110D01*
X234642Y120250D01*
X233876Y118391D01*
X232783Y116532D01*
X232674Y116314D01*
X232236Y115767D01*
X231470Y114892D01*
X230486Y113798D01*
X229174Y112595D01*
X227643Y111392D01*
X225893Y110299D01*
X223815Y109205D01*
X223706D01*
X223597Y109096D01*
X223269Y108986D01*
X222831Y108877D01*
X222284Y108658D01*
X221519Y108440D01*
X220753Y108221D01*
X219878Y108002D01*
X217800Y107565D01*
X215285Y107127D01*
X212551Y106909D01*
X209380Y106799D01*
X207958D01*
X206865Y106909D01*
X205662Y107018D01*
X204240Y107127D01*
X202709Y107237D01*
X200959Y107565D01*
X197460Y108221D01*
X193960Y109205D01*
X192320Y109861D01*
X190789Y110736D01*
X189367Y111611D01*
X188164Y112595D01*
X188055Y112705D01*
X187945Y112923D01*
X187617Y113251D01*
X187289Y113689D01*
X186852Y114236D01*
X186305Y114892D01*
X185758Y115767D01*
X185211Y116642D01*
X184008Y118829D01*
X182915Y121453D01*
X182149Y124297D01*
X181821Y125937D01*
X181602Y127578D01*
X199209Y128781D01*
Y128562D01*
X199319Y128015D01*
X199428Y127250D01*
X199756Y126375D01*
X200412Y124188D01*
X200959Y123094D01*
X201506Y122219D01*
X201615Y122110D01*
X202053Y121672D01*
X202709Y121125D01*
X203584Y120469D01*
X204787Y119704D01*
X206208Y119157D01*
X207849Y118719D01*
X209708Y118610D01*
X210364D01*
X211020Y118719D01*
X212004Y118829D01*
X212989Y119047D01*
X213973Y119376D01*
X214957Y119813D01*
X215832Y120360D01*
X215941Y120469D01*
X216160Y120688D01*
X216488Y121125D01*
X216926Y121563D01*
X217363Y122219D01*
X217691Y122985D01*
X217910Y123859D01*
X218019Y124734D01*
Y124844D01*
Y125172D01*
X217910Y125609D01*
X217800Y126156D01*
X217472Y126812D01*
X217144Y127468D01*
X216598Y128234D01*
X215941Y128890D01*
X215832Y128999D01*
X215504Y129218D01*
X214848Y129546D01*
X213973Y129983D01*
X212661Y130530D01*
X211020Y131186D01*
X210036Y131515D01*
X208942Y131733D01*
X207739Y132061D01*
X206427Y132389D01*
X206318D01*
X205880Y132499D01*
X205224Y132718D01*
X204459Y132827D01*
X203474Y133155D01*
X202271Y133483D01*
X201068Y133811D01*
X199756Y134249D01*
X196803Y135342D01*
X193960Y136545D01*
X191335Y137967D01*
X190132Y138732D01*
X189039Y139607D01*
Y139717D01*
X188820Y139826D01*
X188273Y140373D01*
X187398Y141357D01*
X186524Y142779D01*
X185539Y144419D01*
X184664Y146388D01*
X184118Y148575D01*
X184008Y149778D01*
X183899Y151090D01*
Y151199D01*
Y151309D01*
Y151856D01*
X184008Y152840D01*
X184227Y153933D01*
X184555Y155246D01*
X184993Y156777D01*
X185649Y158308D01*
X186524Y159839D01*
X186633Y160057D01*
X187070Y160495D01*
X187726Y161260D01*
X188601Y162245D01*
X189695Y163229D01*
X191117Y164323D01*
X192757Y165307D01*
X194616Y166291D01*
X194726D01*
X194835Y166400D01*
X195163Y166510D01*
X195600Y166619D01*
X196147Y166838D01*
X196803Y167057D01*
X197569Y167275D01*
X198444Y167494D01*
X199428Y167713D01*
X200631Y167931D01*
X203146Y168369D01*
X206099Y168588D01*
X209380Y168697D01*
X210473D01*
X211239Y168588D01*
D02*
G37*
G36*
X275324D02*
X276308D01*
X277402Y168478D01*
X278605Y168369D01*
X279917Y168150D01*
X282870Y167603D01*
X285822Y166728D01*
X288666Y165635D01*
X289978Y164869D01*
X291290Y164104D01*
X291400D01*
X291618Y163885D01*
X291947Y163666D01*
X292384Y163229D01*
X292931Y162792D01*
X293587Y162135D01*
X294243Y161479D01*
X295009Y160604D01*
X295774Y159730D01*
X296540Y158636D01*
X297415Y157542D01*
X298180Y156230D01*
X298946Y154808D01*
X299711Y153387D01*
X300367Y151746D01*
X301024Y149996D01*
X284619Y146388D01*
Y146497D01*
X284510Y146825D01*
X284291Y147372D01*
X284073Y147919D01*
X283417Y149231D01*
X283088Y149778D01*
X282760Y150324D01*
X282651Y150434D01*
X282542Y150653D01*
X282104Y151090D01*
X281667Y151528D01*
X280464Y152621D01*
X278933Y153605D01*
X278823Y153715D01*
X278605Y153824D01*
X278058Y154043D01*
X277511Y154262D01*
X276746Y154480D01*
X275871Y154589D01*
X274886Y154808D01*
X273246D01*
X272918Y154699D01*
X271715Y154589D01*
X270293Y154152D01*
X268762Y153605D01*
X267122Y152621D01*
X265591Y151418D01*
X264935Y150543D01*
X264279Y149668D01*
X264169Y149450D01*
X263841Y149012D01*
X263513Y148028D01*
X263076Y146825D01*
X262529Y145185D01*
X262201Y143216D01*
X261873Y140810D01*
X261763Y137967D01*
Y137857D01*
Y137529D01*
Y136983D01*
Y136326D01*
X261873Y135561D01*
Y134577D01*
X262091Y132499D01*
X262529Y130312D01*
X262966Y128015D01*
X263732Y125937D01*
X264169Y125062D01*
X264716Y124297D01*
X264825Y124188D01*
X265263Y123750D01*
X266028Y123203D01*
X266903Y122547D01*
X268106Y121782D01*
X269637Y121235D01*
X271278Y120797D01*
X273246Y120688D01*
X274121D01*
X275105Y120797D01*
X276308Y121016D01*
X277620Y121453D01*
X278933Y121891D01*
X280245Y122656D01*
X281339Y123641D01*
X281448Y123750D01*
X281776Y124188D01*
X282323Y124844D01*
X282870Y125828D01*
X283526Y127031D01*
X284182Y128562D01*
X284838Y130312D01*
X285385Y132389D01*
X301570Y127359D01*
Y127250D01*
X301461Y127031D01*
X301352Y126703D01*
X301242Y126265D01*
X300914Y124953D01*
X300258Y123422D01*
X299602Y121563D01*
X298618Y119704D01*
X297633Y117845D01*
X296321Y115986D01*
X296212Y115767D01*
X295665Y115220D01*
X294899Y114454D01*
X293915Y113361D01*
X292603Y112267D01*
X291181Y111174D01*
X289431Y110080D01*
X287572Y109096D01*
X287463D01*
X287353Y108986D01*
X287025Y108877D01*
X286697Y108768D01*
X285494Y108330D01*
X283963Y108002D01*
X282104Y107565D01*
X279808Y107127D01*
X277183Y106909D01*
X274340Y106799D01*
X272699D01*
X271824Y106909D01*
X270950D01*
X269856Y107018D01*
X268653Y107127D01*
X266138Y107455D01*
X263404Y108002D01*
X260779Y108658D01*
X258264Y109533D01*
X258154D01*
X258045Y109643D01*
X257717Y109861D01*
X257279Y110080D01*
X256077Y110845D01*
X254655Y111830D01*
X253014Y113251D01*
X251155Y114892D01*
X249406Y116970D01*
X247656Y119485D01*
Y119594D01*
X247437Y119813D01*
X247218Y120250D01*
X247000Y120797D01*
X246672Y121453D01*
X246234Y122328D01*
X245797Y123313D01*
X245469Y124515D01*
X245031Y125718D01*
X244594Y127140D01*
X244266Y128671D01*
X243828Y130312D01*
X243609Y132061D01*
X243391Y133921D01*
X243172Y137857D01*
Y138076D01*
Y138514D01*
X243281Y139279D01*
Y140263D01*
X243391Y141576D01*
X243609Y142997D01*
X243828Y144528D01*
X244156Y146278D01*
X244594Y148137D01*
X245141Y149996D01*
X245687Y151856D01*
X246453Y153824D01*
X247437Y155683D01*
X248421Y157433D01*
X249624Y159183D01*
X251046Y160714D01*
X251155Y160823D01*
X251374Y161042D01*
X251921Y161479D01*
X252468Y161917D01*
X253343Y162573D01*
X254327Y163229D01*
X255420Y163995D01*
X256842Y164760D01*
X258264Y165416D01*
X260014Y166182D01*
X261873Y166838D01*
X263841Y167494D01*
X266028Y167931D01*
X268325Y168369D01*
X270840Y168588D01*
X273465Y168697D01*
X274558D01*
X275324Y168588D01*
D02*
G37*
%LPC*%
G36*
X445708Y168697D02*
X444724D01*
X442427Y168588D01*
X440240Y168369D01*
X438272Y168041D01*
X436413Y167603D01*
X434772Y167057D01*
X433241Y166510D01*
X431820Y165854D01*
X430617Y165307D01*
X429523Y164651D01*
X428539Y163995D01*
X427773Y163448D01*
X427117Y162901D01*
X426570Y162463D01*
X426242Y162135D01*
X426023Y161917D01*
X425914Y161807D01*
X424821Y160386D01*
X423946Y158855D01*
X423071Y157105D01*
X422415Y155246D01*
X421321Y151309D01*
X420556Y147372D01*
X420337Y145513D01*
X420118Y143763D01*
X420009Y142122D01*
X419899Y140701D01*
X419790Y139607D01*
Y138732D01*
Y138186D01*
Y137967D01*
X419899Y135451D01*
X420009Y133046D01*
X420227Y130858D01*
X420446Y128999D01*
X420665Y127359D01*
X420774Y126156D01*
X420884Y125718D01*
X420993Y125390D01*
Y125281D01*
Y125172D01*
X421430Y123203D01*
X421977Y121344D01*
X422524Y119813D01*
X423071Y118610D01*
X423508Y117517D01*
X423946Y116860D01*
X424164Y116314D01*
X424274Y116204D01*
X425477Y114564D01*
X426789Y113142D01*
X427992Y111939D01*
X429304Y110955D01*
X430289Y110189D01*
X431164Y109643D01*
X431710Y109315D01*
X431929Y109205D01*
X433788Y108440D01*
X435866Y107783D01*
X437944Y107346D01*
X439912Y107127D01*
X441662Y106909D01*
X442318D01*
X442974Y106799D01*
X444287D01*
X446693Y106909D01*
X448989Y107127D01*
X451067Y107455D01*
X452926Y108002D01*
X454676Y108549D01*
X456207Y109205D01*
X457629Y109861D01*
X458832Y110627D01*
X459925Y111283D01*
X460800Y111939D01*
X461565Y112595D01*
X462222Y113142D01*
X462769Y113689D01*
X463097Y114017D01*
X463206Y114236D01*
X463315Y114345D01*
X464299Y115876D01*
X465174Y117517D01*
X465940Y119376D01*
X466596Y121235D01*
X467580Y125172D01*
X468236Y129109D01*
X468455Y130968D01*
X468565Y132608D01*
X468674Y134139D01*
X468783Y135561D01*
X468893Y136654D01*
Y137420D01*
Y137967D01*
Y138186D01*
X468783Y140810D01*
X468674Y143435D01*
X468346Y145731D01*
X468018Y147809D01*
X467690Y149559D01*
X467580Y150324D01*
X467471Y150871D01*
X467362Y151418D01*
X467252Y151746D01*
X467143Y151965D01*
Y152074D01*
X466815Y153387D01*
X466377Y154480D01*
X466049Y155574D01*
X465721Y156449D01*
X465393Y157214D01*
X465065Y157761D01*
X464956Y158089D01*
X464846Y158198D01*
X463643Y160167D01*
X462987Y161042D01*
X462331Y161698D01*
X461784Y162354D01*
X461347Y162792D01*
X461019Y163120D01*
X460909Y163229D01*
X459925Y164104D01*
X458941Y164869D01*
X457847Y165525D01*
X456863Y166072D01*
X455988Y166510D01*
X455223Y166947D01*
X454785Y167057D01*
X454566Y167166D01*
X453035Y167713D01*
X451395Y168041D01*
X449755Y168369D01*
X448224Y168478D01*
X446802Y168588D01*
X445708Y168697D01*
D02*
G37*
G36*
X389825D02*
X388841D01*
X386545Y168588D01*
X384357Y168369D01*
X382389Y168041D01*
X380530Y167603D01*
X378889Y167057D01*
X377358Y166510D01*
X375937Y165854D01*
X374734Y165307D01*
X373640Y164651D01*
X372656Y163995D01*
X371890Y163448D01*
X371234Y162901D01*
X370687Y162463D01*
X370359Y162135D01*
X370141Y161917D01*
X370031Y161807D01*
X368938Y160386D01*
X368063Y158855D01*
X367188Y157105D01*
X366532Y155246D01*
X365438Y151309D01*
X364673Y147372D01*
X364454Y145513D01*
X364235Y143763D01*
X364126Y142122D01*
X364016Y140701D01*
X363907Y139607D01*
Y138732D01*
Y138186D01*
Y137967D01*
X364016Y135451D01*
X364126Y133046D01*
X364345Y130858D01*
X364563Y128999D01*
X364782Y127359D01*
X364891Y126156D01*
X365001Y125718D01*
X365110Y125390D01*
Y125281D01*
Y125172D01*
X365547Y123203D01*
X366094Y121344D01*
X366641Y119813D01*
X367188Y118610D01*
X367625Y117517D01*
X368063Y116860D01*
X368282Y116314D01*
X368391Y116204D01*
X369594Y114564D01*
X370906Y113142D01*
X372109Y111939D01*
X373421Y110955D01*
X374406Y110189D01*
X375280Y109643D01*
X375827Y109315D01*
X376046Y109205D01*
X377905Y108440D01*
X379983Y107783D01*
X382061Y107346D01*
X384029Y107127D01*
X385779Y106909D01*
X386435D01*
X387091Y106799D01*
X388404D01*
X390810Y106909D01*
X393106Y107127D01*
X395184Y107455D01*
X397043Y108002D01*
X398793Y108549D01*
X400324Y109205D01*
X401746Y109861D01*
X402949Y110627D01*
X404042Y111283D01*
X404917Y111939D01*
X405683Y112595D01*
X406339Y113142D01*
X406886Y113689D01*
X407214Y114017D01*
X407323Y114236D01*
X407432Y114345D01*
X408417Y115876D01*
X409292Y117517D01*
X410057Y119376D01*
X410713Y121235D01*
X411697Y125172D01*
X412354Y129109D01*
X412572Y130968D01*
X412682Y132608D01*
X412791Y134139D01*
X412900Y135561D01*
X413010Y136654D01*
Y137420D01*
Y137967D01*
Y138186D01*
X412900Y140810D01*
X412791Y143435D01*
X412463Y145731D01*
X412135Y147809D01*
X411807Y149559D01*
X411697Y150324D01*
X411588Y150871D01*
X411479Y151418D01*
X411369Y151746D01*
X411260Y151965D01*
Y152074D01*
X410932Y153387D01*
X410494Y154480D01*
X410166Y155574D01*
X409838Y156449D01*
X409510Y157214D01*
X409182Y157761D01*
X409073Y158089D01*
X408963Y158198D01*
X407760Y160167D01*
X407104Y161042D01*
X406448Y161698D01*
X405901Y162354D01*
X405464Y162792D01*
X405136Y163120D01*
X405026Y163229D01*
X404042Y164104D01*
X403058Y164869D01*
X401964Y165525D01*
X400980Y166072D01*
X400105Y166510D01*
X399340Y166947D01*
X398902Y167057D01*
X398684Y167166D01*
X397152Y167713D01*
X395512Y168041D01*
X393872Y168369D01*
X392341Y168478D01*
X390919Y168588D01*
X389825Y168697D01*
D02*
G37*
G36*
X345863D02*
X332083D01*
X330990Y166619D01*
X329787Y164760D01*
X328584Y163120D01*
X327381Y161807D01*
X326287Y160604D01*
X325412Y159729D01*
X324866Y159292D01*
X324756Y159073D01*
X324647D01*
X322788Y157652D01*
X320601Y156449D01*
X318413Y155355D01*
X316336Y154371D01*
X314476Y153605D01*
X313601Y153277D01*
X312945Y152949D01*
X312289Y152840D01*
X311852Y152621D01*
X311633Y152512D01*
X311524D01*
Y138951D01*
X313601Y139607D01*
X315461Y140154D01*
X316992Y140810D01*
X318413Y141357D01*
X319507Y141794D01*
X320382Y142122D01*
X320819Y142341D01*
X321038Y142451D01*
X322460Y143216D01*
X323881Y144091D01*
X325303Y144966D01*
X326506Y145731D01*
X327490Y146497D01*
X328365Y147044D01*
X328802Y147481D01*
X329021Y147590D01*
Y107783D01*
X345863D01*
Y168697D01*
D02*
G37*
G36*
X501591D02*
X500607D01*
X498311Y168588D01*
X496123Y168369D01*
X494155Y168041D01*
X492296Y167603D01*
X490655Y167057D01*
X489124Y166510D01*
X487703Y165854D01*
X486500Y165307D01*
X485406Y164651D01*
X484422Y163995D01*
X483656Y163448D01*
X483000Y162901D01*
X482453Y162463D01*
X482125Y162135D01*
X481907Y161917D01*
X481797Y161807D01*
X480703Y160386D01*
X479829Y158855D01*
X478954Y157105D01*
X478298Y155246D01*
X477204Y151309D01*
X476439Y147372D01*
X476220Y145513D01*
X476001Y143763D01*
X475892Y142122D01*
X475782Y140701D01*
X475673Y139607D01*
Y138732D01*
Y138186D01*
Y137967D01*
X475782Y135451D01*
X475892Y133046D01*
X476110Y130858D01*
X476329Y128999D01*
X476548Y127359D01*
X476657Y126156D01*
X476767Y125718D01*
X476876Y125390D01*
Y125281D01*
Y125172D01*
X477313Y123203D01*
X477860Y121344D01*
X478407Y119813D01*
X478954Y118610D01*
X479391Y117517D01*
X479829Y116860D01*
X480047Y116314D01*
X480157Y116204D01*
X481360Y114564D01*
X482672Y113142D01*
X483875Y111939D01*
X485187Y110955D01*
X486172Y110189D01*
X487046Y109643D01*
X487593Y109315D01*
X487812Y109205D01*
X489671Y108440D01*
X491749Y107783D01*
X493827Y107346D01*
X495795Y107127D01*
X497545Y106909D01*
X498201D01*
X498857Y106799D01*
X500170D01*
X502576Y106909D01*
X504872Y107127D01*
X506950Y107455D01*
X508809Y108002D01*
X510559Y108549D01*
X512090Y109205D01*
X513512Y109861D01*
X514714Y110627D01*
X515808Y111283D01*
X516683Y111939D01*
X517449Y112595D01*
X518105Y113142D01*
X518651Y113689D01*
X518980Y114017D01*
X519089Y114236D01*
X519198Y114345D01*
X520183Y115876D01*
X521057Y117517D01*
X521823Y119376D01*
X522479Y121235D01*
X523463Y125172D01*
X524120Y129109D01*
X524338Y130968D01*
X524447Y132608D01*
X524557Y134139D01*
X524666Y135561D01*
X524776Y136654D01*
Y137420D01*
Y137967D01*
Y138186D01*
X524666Y140810D01*
X524557Y143435D01*
X524229Y145731D01*
X523901Y147809D01*
X523573Y149559D01*
X523463Y150324D01*
X523354Y150871D01*
X523245Y151418D01*
X523135Y151746D01*
X523026Y151965D01*
Y152074D01*
X522698Y153387D01*
X522260Y154480D01*
X521932Y155574D01*
X521604Y156449D01*
X521276Y157214D01*
X520948Y157761D01*
X520839Y158089D01*
X520729Y158198D01*
X519526Y160167D01*
X518870Y161042D01*
X518214Y161698D01*
X517667Y162354D01*
X517230Y162792D01*
X516902Y163120D01*
X516792Y163229D01*
X515808Y164104D01*
X514824Y164869D01*
X513730Y165525D01*
X512746Y166072D01*
X511871Y166510D01*
X511106Y166947D01*
X510668Y167057D01*
X510450Y167166D01*
X508918Y167713D01*
X507278Y168041D01*
X505638Y168369D01*
X504107Y168478D01*
X502685Y168588D01*
X501591Y168697D01*
D02*
G37*
%LPD*%
G36*
X501482Y157433D02*
X502685Y156995D01*
X503779Y156339D01*
X504653Y155574D01*
X505310Y154808D01*
X505747Y154152D01*
X506075Y153715D01*
X506184Y153496D01*
X506512Y152621D01*
X506841Y151637D01*
X507169Y150434D01*
X507387Y149231D01*
X507716Y146606D01*
X508043Y143872D01*
X508153Y141466D01*
Y140263D01*
X508262Y139389D01*
Y138514D01*
Y137967D01*
Y137529D01*
Y137420D01*
Y134577D01*
X508153Y132171D01*
X507934Y130093D01*
X507825Y128453D01*
X507606Y127140D01*
X507387Y126265D01*
X507278Y125718D01*
Y125500D01*
X506950Y124187D01*
X506512Y122985D01*
X506075Y122110D01*
X505638Y121235D01*
X505200Y120688D01*
X504872Y120250D01*
X504653Y120032D01*
X504544Y119922D01*
X503779Y119376D01*
X503013Y118938D01*
X502357Y118610D01*
X501591Y118391D01*
X501045Y118282D01*
X500498Y118173D01*
X500060D01*
X498748Y118391D01*
X497545Y118829D01*
X496561Y119485D01*
X495686Y120250D01*
X495030Y121016D01*
X494592Y121672D01*
X494264Y122110D01*
X494155Y122328D01*
X493827Y123203D01*
X493499Y124187D01*
X493280Y125281D01*
X493061Y126484D01*
X492624Y129109D01*
X492405Y131733D01*
X492296Y134139D01*
Y135233D01*
X492186Y136108D01*
Y136873D01*
Y137420D01*
Y137857D01*
Y137967D01*
Y140045D01*
X492296Y141904D01*
X492405Y143544D01*
X492514Y145185D01*
X492624Y146497D01*
X492733Y147809D01*
X492952Y148903D01*
X493171Y149887D01*
X493280Y150762D01*
X493499Y151527D01*
X493608Y152074D01*
X493717Y152512D01*
X493827Y152949D01*
X493936Y153168D01*
X494045Y153387D01*
X494811Y154808D01*
X495795Y155902D01*
X496779Y156667D01*
X497764Y157105D01*
X498639Y157433D01*
X499404Y157542D01*
X499842Y157652D01*
X500060D01*
X501482Y157433D01*
D02*
G37*
G36*
X445599D02*
X446802Y156995D01*
X447896Y156339D01*
X448770Y155574D01*
X449427Y154808D01*
X449864Y154152D01*
X450192Y153715D01*
X450302Y153496D01*
X450630Y152621D01*
X450958Y151637D01*
X451286Y150434D01*
X451504Y149231D01*
X451832Y146606D01*
X452161Y143872D01*
X452270Y141466D01*
Y140263D01*
X452379Y139389D01*
Y138514D01*
Y137967D01*
Y137529D01*
Y137420D01*
Y134577D01*
X452270Y132171D01*
X452051Y130093D01*
X451942Y128453D01*
X451723Y127140D01*
X451504Y126265D01*
X451395Y125718D01*
Y125500D01*
X451067Y124187D01*
X450630Y122985D01*
X450192Y122110D01*
X449755Y121235D01*
X449317Y120688D01*
X448989Y120250D01*
X448770Y120032D01*
X448661Y119922D01*
X447896Y119376D01*
X447130Y118938D01*
X446474Y118610D01*
X445708Y118391D01*
X445161Y118282D01*
X444615Y118173D01*
X444177D01*
X442865Y118391D01*
X441662Y118829D01*
X440678Y119485D01*
X439803Y120250D01*
X439147Y121016D01*
X438709Y121672D01*
X438381Y122110D01*
X438272Y122328D01*
X437944Y123203D01*
X437616Y124187D01*
X437397Y125281D01*
X437178Y126484D01*
X436741Y129109D01*
X436522Y131733D01*
X436413Y134139D01*
Y135233D01*
X436303Y136108D01*
Y136873D01*
Y137420D01*
Y137857D01*
Y137967D01*
Y140045D01*
X436413Y141904D01*
X436522Y143544D01*
X436631Y145185D01*
X436741Y146497D01*
X436850Y147809D01*
X437069Y148903D01*
X437288Y149887D01*
X437397Y150762D01*
X437616Y151527D01*
X437725Y152074D01*
X437834Y152512D01*
X437944Y152949D01*
X438053Y153168D01*
X438163Y153387D01*
X438928Y154808D01*
X439912Y155902D01*
X440897Y156667D01*
X441881Y157105D01*
X442756Y157433D01*
X443521Y157542D01*
X443959Y157652D01*
X444177D01*
X445599Y157433D01*
D02*
G37*
G36*
X389716D02*
X390919Y156995D01*
X392013Y156339D01*
X392887Y155574D01*
X393544Y154808D01*
X393981Y154152D01*
X394309Y153715D01*
X394419Y153496D01*
X394747Y152621D01*
X395075Y151637D01*
X395403Y150434D01*
X395621Y149231D01*
X395950Y146606D01*
X396278Y143872D01*
X396387Y141466D01*
Y140263D01*
X396496Y139389D01*
Y138514D01*
Y137967D01*
Y137529D01*
Y137420D01*
Y134577D01*
X396387Y132171D01*
X396168Y130093D01*
X396059Y128453D01*
X395840Y127140D01*
X395621Y126265D01*
X395512Y125718D01*
Y125500D01*
X395184Y124187D01*
X394747Y122985D01*
X394309Y122110D01*
X393872Y121235D01*
X393434Y120688D01*
X393106Y120250D01*
X392887Y120032D01*
X392778Y119922D01*
X392013Y119376D01*
X391247Y118938D01*
X390591Y118610D01*
X389825Y118391D01*
X389279Y118282D01*
X388732Y118173D01*
X388294D01*
X386982Y118391D01*
X385779Y118829D01*
X384795Y119485D01*
X383920Y120250D01*
X383264Y121016D01*
X382826Y121672D01*
X382498Y122110D01*
X382389Y122328D01*
X382061Y123203D01*
X381733Y124187D01*
X381514Y125281D01*
X381295Y126484D01*
X380858Y129109D01*
X380639Y131733D01*
X380530Y134139D01*
Y135233D01*
X380420Y136108D01*
Y136873D01*
Y137420D01*
Y137857D01*
Y137967D01*
Y140045D01*
X380530Y141904D01*
X380639Y143544D01*
X380749Y145185D01*
X380858Y146497D01*
X380967Y147809D01*
X381186Y148903D01*
X381405Y149887D01*
X381514Y150762D01*
X381733Y151527D01*
X381842Y152074D01*
X381951Y152512D01*
X382061Y152949D01*
X382170Y153168D01*
X382280Y153387D01*
X383045Y154808D01*
X384029Y155902D01*
X385014Y156667D01*
X385998Y157105D01*
X386873Y157433D01*
X387638Y157542D01*
X388076Y157652D01*
X388294D01*
X389716Y157433D01*
D02*
G37*
M02*
