G04 Layer_Color=15132400*
%FSLAX25Y25*%
%MOIN*%
G70*
G01*
G75*
%ADD10C,0.01000*%
G36*
X530270Y185211D02*
X530368D01*
X530478Y185200D01*
X530598Y185189D01*
X530729Y185167D01*
X531013Y185113D01*
X531308Y185036D01*
X531582Y184927D01*
X531713Y184861D01*
X531833Y184785D01*
X531844D01*
X531855Y184763D01*
X531931Y184708D01*
X532030Y184599D01*
X532150Y184457D01*
X532216Y184369D01*
X532270Y184271D01*
X532336Y184151D01*
X532390Y184030D01*
X532445Y183899D01*
X532489Y183757D01*
X532522Y183593D01*
X532554Y183429D01*
X530806Y183331D01*
Y183353D01*
X530795Y183397D01*
X530773Y183473D01*
X530740Y183561D01*
X530696Y183648D01*
X530653Y183746D01*
X530587Y183845D01*
X530511Y183921D01*
X530500Y183932D01*
X530467Y183954D01*
X530423Y183976D01*
X530358Y184020D01*
X530270Y184052D01*
X530161Y184074D01*
X530041Y184096D01*
X529898Y184107D01*
X529844D01*
X529789Y184096D01*
X529713Y184085D01*
X529549Y184052D01*
X529472Y184009D01*
X529407Y183965D01*
X529396Y183954D01*
X529385Y183943D01*
X529330Y183878D01*
X529275Y183768D01*
X529264Y183703D01*
X529253Y183637D01*
Y183626D01*
Y183615D01*
X529275Y183550D01*
X529308Y183462D01*
X529341Y183418D01*
X529385Y183375D01*
X529396D01*
X529418Y183353D01*
X529450Y183331D01*
X529516Y183298D01*
X529592Y183265D01*
X529702Y183233D01*
X529833Y183189D01*
X529997Y183156D01*
X530008D01*
X530051Y183145D01*
X530117Y183134D01*
X530194Y183112D01*
X530292Y183090D01*
X530412Y183058D01*
X530543Y183025D01*
X530674Y182992D01*
X530959Y182916D01*
X531254Y182817D01*
X531516Y182719D01*
X531636Y182675D01*
X531746Y182621D01*
X531756D01*
X531767Y182610D01*
X531833Y182577D01*
X531920Y182522D01*
X532041Y182446D01*
X532161Y182347D01*
X532292Y182238D01*
X532412Y182107D01*
X532511Y181965D01*
X532522Y181943D01*
X532544Y181899D01*
X532587Y181812D01*
X532631Y181702D01*
X532675Y181571D01*
X532718Y181429D01*
X532740Y181254D01*
X532751Y181079D01*
Y181069D01*
Y181058D01*
Y181025D01*
Y180981D01*
X532729Y180872D01*
X532707Y180730D01*
X532675Y180566D01*
X532609Y180380D01*
X532533Y180194D01*
X532423Y180008D01*
X532412Y179986D01*
X532369Y179932D01*
X532292Y179844D01*
X532194Y179735D01*
X532063Y179615D01*
X531910Y179495D01*
X531735Y179385D01*
X531527Y179276D01*
X531516D01*
X531505Y179265D01*
X531472Y179254D01*
X531429Y179243D01*
X531374Y179221D01*
X531297Y179199D01*
X531221Y179178D01*
X531134Y179156D01*
X530926Y179112D01*
X530674Y179068D01*
X530401Y179046D01*
X530084Y179035D01*
X529942D01*
X529833Y179046D01*
X529713Y179057D01*
X529570Y179068D01*
X529418Y179079D01*
X529243Y179112D01*
X528893Y179178D01*
X528543Y179276D01*
X528379Y179341D01*
X528226Y179429D01*
X528084Y179516D01*
X527964Y179615D01*
X527953Y179626D01*
X527942Y179648D01*
X527909Y179680D01*
X527876Y179724D01*
X527833Y179779D01*
X527778Y179844D01*
X527723Y179932D01*
X527669Y180019D01*
X527549Y180238D01*
X527439Y180500D01*
X527363Y180784D01*
X527330Y180948D01*
X527308Y181112D01*
X529068Y181232D01*
Y181211D01*
X529079Y181156D01*
X529090Y181079D01*
X529122Y180992D01*
X529188Y180773D01*
X529243Y180664D01*
X529297Y180577D01*
X529308Y180566D01*
X529352Y180522D01*
X529418Y180467D01*
X529505Y180402D01*
X529625Y180325D01*
X529767Y180271D01*
X529931Y180227D01*
X530117Y180216D01*
X530183D01*
X530248Y180227D01*
X530346Y180238D01*
X530445Y180260D01*
X530543Y180292D01*
X530642Y180336D01*
X530729Y180391D01*
X530740Y180402D01*
X530762Y180424D01*
X530795Y180467D01*
X530838Y180511D01*
X530882Y180577D01*
X530915Y180653D01*
X530937Y180741D01*
X530948Y180828D01*
Y180839D01*
Y180872D01*
X530937Y180915D01*
X530926Y180970D01*
X530893Y181036D01*
X530860Y181101D01*
X530806Y181178D01*
X530740Y181243D01*
X530729Y181254D01*
X530696Y181276D01*
X530631Y181309D01*
X530543Y181353D01*
X530412Y181407D01*
X530248Y181473D01*
X530150Y181506D01*
X530041Y181527D01*
X529920Y181560D01*
X529789Y181593D01*
X529778D01*
X529735Y181604D01*
X529669Y181626D01*
X529592Y181637D01*
X529494Y181670D01*
X529374Y181702D01*
X529253Y181735D01*
X529122Y181779D01*
X528827Y181888D01*
X528543Y182008D01*
X528281Y182150D01*
X528160Y182227D01*
X528051Y182315D01*
Y182325D01*
X528029Y182336D01*
X527975Y182391D01*
X527887Y182489D01*
X527800Y182632D01*
X527702Y182795D01*
X527614Y182992D01*
X527559Y183211D01*
X527549Y183331D01*
X527537Y183462D01*
Y183473D01*
Y183484D01*
Y183539D01*
X527549Y183637D01*
X527570Y183746D01*
X527603Y183878D01*
X527647Y184030D01*
X527712Y184184D01*
X527800Y184336D01*
X527811Y184358D01*
X527854Y184402D01*
X527920Y184479D01*
X528008Y184577D01*
X528117Y184675D01*
X528259Y184785D01*
X528423Y184883D01*
X528609Y184981D01*
X528620D01*
X528630Y184992D01*
X528663Y185003D01*
X528707Y185014D01*
X528762Y185036D01*
X528827Y185058D01*
X528904Y185080D01*
X528991Y185102D01*
X529090Y185124D01*
X529210Y185145D01*
X529461Y185189D01*
X529756Y185211D01*
X530084Y185222D01*
X530194D01*
X530270Y185211D01*
D02*
G37*
G36*
X492135D02*
X492234D01*
X492343Y185200D01*
X492463Y185189D01*
X492594Y185167D01*
X492878Y185113D01*
X493174Y185036D01*
X493447Y184927D01*
X493578Y184861D01*
X493698Y184785D01*
X493709D01*
X493720Y184763D01*
X493797Y184708D01*
X493895Y184599D01*
X494015Y184457D01*
X494081Y184369D01*
X494136Y184271D01*
X494201Y184151D01*
X494256Y184030D01*
X494310Y183899D01*
X494354Y183757D01*
X494387Y183593D01*
X494420Y183429D01*
X492671Y183331D01*
Y183353D01*
X492660Y183397D01*
X492638Y183473D01*
X492605Y183561D01*
X492561Y183648D01*
X492518Y183746D01*
X492452Y183845D01*
X492376Y183921D01*
X492365Y183932D01*
X492332Y183954D01*
X492288Y183976D01*
X492223Y184020D01*
X492135Y184052D01*
X492026Y184074D01*
X491906Y184096D01*
X491764Y184107D01*
X491709D01*
X491654Y184096D01*
X491578Y184085D01*
X491414Y184052D01*
X491337Y184009D01*
X491272Y183965D01*
X491261Y183954D01*
X491250Y183943D01*
X491195Y183878D01*
X491141Y183768D01*
X491130Y183703D01*
X491119Y183637D01*
Y183626D01*
Y183615D01*
X491141Y183550D01*
X491173Y183462D01*
X491206Y183418D01*
X491250Y183375D01*
X491261D01*
X491283Y183353D01*
X491316Y183331D01*
X491381Y183298D01*
X491458Y183265D01*
X491567Y183233D01*
X491698Y183189D01*
X491862Y183156D01*
X491873D01*
X491917Y183145D01*
X491982Y183134D01*
X492059Y183112D01*
X492157Y183090D01*
X492277Y183058D01*
X492409Y183025D01*
X492540Y182992D01*
X492824Y182916D01*
X493119Y182817D01*
X493381Y182719D01*
X493502Y182675D01*
X493611Y182621D01*
X493622D01*
X493633Y182610D01*
X493698Y182577D01*
X493786Y182522D01*
X493906Y182446D01*
X494026Y182347D01*
X494157Y182238D01*
X494277Y182107D01*
X494376Y181965D01*
X494387Y181943D01*
X494409Y181899D01*
X494452Y181812D01*
X494496Y181702D01*
X494540Y181571D01*
X494584Y181429D01*
X494605Y181254D01*
X494616Y181079D01*
Y181069D01*
Y181058D01*
Y181025D01*
Y180981D01*
X494594Y180872D01*
X494573Y180730D01*
X494540Y180566D01*
X494474Y180380D01*
X494398Y180194D01*
X494288Y180008D01*
X494277Y179986D01*
X494234Y179932D01*
X494157Y179844D01*
X494059Y179735D01*
X493928Y179615D01*
X493775Y179495D01*
X493600Y179385D01*
X493392Y179276D01*
X493381D01*
X493370Y179265D01*
X493338Y179254D01*
X493294Y179243D01*
X493239Y179221D01*
X493163Y179199D01*
X493086Y179178D01*
X492999Y179156D01*
X492791Y179112D01*
X492540Y179068D01*
X492266Y179046D01*
X491949Y179035D01*
X491807D01*
X491698Y179046D01*
X491578Y179057D01*
X491436Y179068D01*
X491283Y179079D01*
X491108Y179112D01*
X490758Y179178D01*
X490408Y179276D01*
X490244Y179341D01*
X490091Y179429D01*
X489949Y179516D01*
X489829Y179615D01*
X489818Y179626D01*
X489807Y179648D01*
X489774Y179680D01*
X489742Y179724D01*
X489698Y179779D01*
X489643Y179844D01*
X489589Y179932D01*
X489534Y180019D01*
X489414Y180238D01*
X489304Y180500D01*
X489228Y180784D01*
X489195Y180948D01*
X489173Y181112D01*
X490933Y181232D01*
Y181211D01*
X490944Y181156D01*
X490955Y181079D01*
X490988Y180992D01*
X491053Y180773D01*
X491108Y180664D01*
X491162Y180577D01*
X491173Y180566D01*
X491217Y180522D01*
X491283Y180467D01*
X491370Y180402D01*
X491490Y180325D01*
X491633Y180271D01*
X491796Y180227D01*
X491982Y180216D01*
X492048D01*
X492113Y180227D01*
X492212Y180238D01*
X492310Y180260D01*
X492409Y180292D01*
X492507Y180336D01*
X492594Y180391D01*
X492605Y180402D01*
X492627Y180424D01*
X492660Y180467D01*
X492704Y180511D01*
X492747Y180577D01*
X492780Y180653D01*
X492802Y180741D01*
X492813Y180828D01*
Y180839D01*
Y180872D01*
X492802Y180915D01*
X492791Y180970D01*
X492758Y181036D01*
X492726Y181101D01*
X492671Y181178D01*
X492605Y181243D01*
X492594Y181254D01*
X492561Y181276D01*
X492496Y181309D01*
X492409Y181353D01*
X492277Y181407D01*
X492113Y181473D01*
X492015Y181506D01*
X491906Y181527D01*
X491785Y181560D01*
X491654Y181593D01*
X491643D01*
X491600Y181604D01*
X491534Y181626D01*
X491458Y181637D01*
X491359Y181670D01*
X491239Y181702D01*
X491119Y181735D01*
X490988Y181779D01*
X490693Y181888D01*
X490408Y182008D01*
X490146Y182150D01*
X490026Y182227D01*
X489917Y182315D01*
Y182325D01*
X489895Y182336D01*
X489840Y182391D01*
X489752Y182489D01*
X489665Y182632D01*
X489567Y182795D01*
X489479Y182992D01*
X489425Y183211D01*
X489414Y183331D01*
X489403Y183462D01*
Y183473D01*
Y183484D01*
Y183539D01*
X489414Y183637D01*
X489435Y183746D01*
X489468Y183878D01*
X489512Y184030D01*
X489578Y184184D01*
X489665Y184336D01*
X489676Y184358D01*
X489720Y184402D01*
X489785Y184479D01*
X489873Y184577D01*
X489982Y184675D01*
X490124Y184785D01*
X490288Y184883D01*
X490474Y184981D01*
X490485D01*
X490496Y184992D01*
X490528Y185003D01*
X490572Y185014D01*
X490627Y185036D01*
X490693Y185058D01*
X490769Y185080D01*
X490857Y185102D01*
X490955Y185124D01*
X491075Y185145D01*
X491326Y185189D01*
X491622Y185211D01*
X491949Y185222D01*
X492059D01*
X492135Y185211D01*
D02*
G37*
G36*
X508782Y179134D02*
X507262D01*
Y183703D01*
X506093Y179134D01*
X504716D01*
X503557Y183703D01*
Y179134D01*
X502038D01*
Y185124D01*
X504475D01*
X505404Y181473D01*
X506344Y185124D01*
X508782D01*
Y179134D01*
D02*
G37*
G36*
X420057D02*
X418112D01*
X417817Y180118D01*
X415718D01*
X415423Y179134D01*
X413532D01*
X415773Y185124D01*
X417806D01*
X420057Y179134D01*
D02*
G37*
G36*
X413051Y183845D02*
X409947D01*
Y182894D01*
X412822D01*
Y181670D01*
X409947D01*
Y180489D01*
X413139D01*
Y179134D01*
X408089D01*
Y185124D01*
X413051D01*
Y183845D01*
D02*
G37*
G36*
X405182Y185113D02*
X405258D01*
X405335Y185102D01*
X405532Y185069D01*
X405750Y185014D01*
X405969Y184938D01*
X406176Y184828D01*
X406373Y184686D01*
X406384D01*
X406395Y184664D01*
X406450Y184610D01*
X406526Y184522D01*
X406613Y184391D01*
X406690Y184238D01*
X406767Y184063D01*
X406821Y183856D01*
X406843Y183746D01*
Y183626D01*
Y183615D01*
Y183604D01*
Y183539D01*
X406821Y183440D01*
X406799Y183320D01*
X406756Y183178D01*
X406701Y183025D01*
X406613Y182872D01*
X406504Y182719D01*
X406493Y182708D01*
X406461Y182675D01*
X406417Y182632D01*
X406340Y182577D01*
X406253Y182511D01*
X406144Y182446D01*
X406012Y182380D01*
X405859Y182315D01*
X405870D01*
X405892Y182304D01*
X405925D01*
X405969Y182282D01*
X406078Y182249D01*
X406220Y182194D01*
X406373Y182118D01*
X406537Y182019D01*
X406679Y181910D01*
X406810Y181779D01*
X406821Y181757D01*
X406854Y181713D01*
X406909Y181626D01*
X406963Y181517D01*
X407018Y181385D01*
X407073Y181221D01*
X407105Y181036D01*
X407116Y180828D01*
Y180806D01*
Y180752D01*
X407105Y180664D01*
X407094Y180555D01*
X407062Y180424D01*
X407029Y180281D01*
X406974Y180139D01*
X406898Y179997D01*
X406887Y179986D01*
X406854Y179932D01*
X406810Y179866D01*
X406745Y179790D01*
X406657Y179691D01*
X406548Y179593D01*
X406428Y179495D01*
X406297Y179407D01*
X406286D01*
X406253Y179385D01*
X406198Y179363D01*
X406122Y179331D01*
X406023Y179298D01*
X405903Y179265D01*
X405761Y179243D01*
X405597Y179210D01*
X405575D01*
X405542Y179199D01*
X405499D01*
X405389Y179189D01*
X405258Y179178D01*
X405116Y179156D01*
X404985Y179145D01*
X404865Y179134D01*
X401575D01*
Y185124D01*
X405127D01*
X405182Y185113D01*
D02*
G37*
G36*
X501470Y179134D02*
X499524D01*
X499229Y180118D01*
X497130D01*
X496835Y179134D01*
X494944D01*
X497185Y185124D01*
X499218D01*
X501470Y179134D01*
D02*
G37*
G36*
X152934Y170633D02*
X153055Y170600D01*
X153109Y170578D01*
X153153Y170545D01*
X153175Y170524D01*
X153186Y170502D01*
X153208Y170458D01*
X153229Y170414D01*
X153240Y170349D01*
X153262Y170272D01*
Y170174D01*
Y170163D01*
Y170130D01*
Y170086D01*
X153251Y170021D01*
X153219Y169901D01*
X153186Y169846D01*
X153153Y169802D01*
X153131Y169791D01*
X153109Y169770D01*
X153066Y169758D01*
X153022Y169737D01*
X152945Y169715D01*
X152869Y169704D01*
X152683D01*
X152617Y169715D01*
X152497Y169737D01*
X152443Y169758D01*
X152399Y169791D01*
X152388Y169813D01*
X152366Y169835D01*
X152355Y169879D01*
X152333Y169922D01*
X152311Y169988D01*
X152300Y170065D01*
Y170163D01*
Y170174D01*
Y170207D01*
X152311Y170250D01*
Y170316D01*
X152344Y170436D01*
X152366Y170491D01*
X152399Y170535D01*
X152421Y170556D01*
X152443Y170567D01*
X152486Y170589D01*
X152541Y170611D01*
X152606Y170622D01*
X152683Y170644D01*
X152869D01*
X152934Y170633D01*
D02*
G37*
G36*
X146158D02*
X146278Y170600D01*
X146333Y170578D01*
X146376Y170545D01*
X146398Y170524D01*
X146409Y170502D01*
X146431Y170458D01*
X146453Y170414D01*
X146464Y170349D01*
X146486Y170272D01*
Y170174D01*
Y170163D01*
Y170130D01*
Y170086D01*
X146475Y170021D01*
X146442Y169901D01*
X146409Y169846D01*
X146376Y169802D01*
X146354Y169791D01*
X146333Y169770D01*
X146289Y169758D01*
X146245Y169737D01*
X146169Y169715D01*
X146092Y169704D01*
X145906D01*
X145841Y169715D01*
X145721Y169737D01*
X145666Y169758D01*
X145622Y169791D01*
X145611Y169813D01*
X145589Y169835D01*
X145579Y169879D01*
X145557Y169922D01*
X145535Y169988D01*
X145524Y170065D01*
Y170163D01*
Y170174D01*
Y170207D01*
X145535Y170250D01*
Y170316D01*
X145568Y170436D01*
X145589Y170491D01*
X145622Y170535D01*
X145644Y170556D01*
X145666Y170567D01*
X145710Y170589D01*
X145764Y170611D01*
X145830Y170622D01*
X145906Y170644D01*
X146092D01*
X146158Y170633D01*
D02*
G37*
G36*
X526554Y183845D02*
X523450D01*
Y182894D01*
X526324D01*
Y181670D01*
X523450D01*
Y180489D01*
X526641D01*
Y179134D01*
X521592D01*
Y185124D01*
X526554D01*
Y183845D01*
D02*
G37*
G36*
X517853Y180609D02*
X520750D01*
Y179134D01*
X516006D01*
Y185124D01*
X517853D01*
Y180609D01*
D02*
G37*
G36*
X513186Y185113D02*
X513274D01*
X513372Y185102D01*
X513591Y185069D01*
X513831Y185003D01*
X514083Y184916D01*
X514323Y184807D01*
X514432Y184730D01*
X514531Y184643D01*
X514542D01*
X514553Y184621D01*
X514574Y184588D01*
X514607Y184555D01*
X514695Y184446D01*
X514782Y184293D01*
X514870Y184096D01*
X514957Y183867D01*
X515012Y183593D01*
X515034Y183451D01*
Y183287D01*
Y183276D01*
Y183244D01*
Y183200D01*
X515023Y183134D01*
Y183058D01*
X515001Y182970D01*
X514968Y182774D01*
X514902Y182544D01*
X514804Y182304D01*
X514739Y182183D01*
X514673Y182074D01*
X514585Y181965D01*
X514487Y181866D01*
X514476D01*
X514465Y181844D01*
X514432Y181823D01*
X514389Y181790D01*
X514323Y181746D01*
X514258Y181702D01*
X514170Y181659D01*
X514072Y181615D01*
X513963Y181571D01*
X513842Y181527D01*
X513700Y181484D01*
X513547Y181440D01*
X513383Y181407D01*
X513208Y181385D01*
X513023Y181375D01*
X512815Y181364D01*
X511809D01*
Y179134D01*
X509951D01*
Y185124D01*
X513121D01*
X513186Y185113D01*
D02*
G37*
G36*
X425850Y183648D02*
X423959D01*
Y179134D01*
X422112D01*
Y183648D01*
X420221D01*
Y185124D01*
X425850D01*
Y183648D01*
D02*
G37*
G36*
X488366Y107775D02*
X491262D01*
Y106299D01*
X486519D01*
Y112289D01*
X488366D01*
Y107775D01*
D02*
G37*
G36*
X482650Y112376D02*
X482781Y112365D01*
X482923Y112344D01*
X483087Y112322D01*
X483251Y112289D01*
X483436Y112245D01*
X483622Y112190D01*
X483819Y112125D01*
X484005Y112048D01*
X484191Y111950D01*
X484376Y111841D01*
X484541Y111721D01*
X484704Y111578D01*
X484715Y111567D01*
X484737Y111546D01*
X484781Y111491D01*
X484836Y111436D01*
X484890Y111349D01*
X484967Y111250D01*
X485043Y111130D01*
X485120Y110999D01*
X485196Y110846D01*
X485262Y110682D01*
X485338Y110496D01*
X485393Y110300D01*
X485448Y110081D01*
X485491Y109852D01*
X485513Y109600D01*
X485524Y109338D01*
Y109327D01*
Y109294D01*
Y109239D01*
Y109163D01*
X485513Y109075D01*
X485502Y108966D01*
X485491Y108857D01*
X485480Y108726D01*
X485437Y108452D01*
X485371Y108168D01*
X485284Y107884D01*
X485163Y107611D01*
Y107600D01*
X485152Y107578D01*
X485131Y107545D01*
X485098Y107501D01*
X485021Y107381D01*
X484901Y107228D01*
X484759Y107064D01*
X484584Y106889D01*
X484387Y106726D01*
X484147Y106572D01*
X484136D01*
X484114Y106562D01*
X484081Y106540D01*
X484027Y106518D01*
X483961Y106485D01*
X483885Y106452D01*
X483797Y106420D01*
X483688Y106387D01*
X483568Y106354D01*
X483448Y106321D01*
X483163Y106255D01*
X482835Y106212D01*
X482475Y106201D01*
X482311D01*
X482223Y106212D01*
X482125Y106223D01*
X482016D01*
X481884Y106245D01*
X481622Y106277D01*
X481349Y106332D01*
X481065Y106409D01*
X480802Y106518D01*
X480792D01*
X480770Y106529D01*
X480737Y106551D01*
X480693Y106583D01*
X480573Y106660D01*
X480420Y106769D01*
X480245Y106900D01*
X480070Y107086D01*
X479884Y107294D01*
X479720Y107534D01*
Y107545D01*
X479699Y107567D01*
X479688Y107611D01*
X479655Y107666D01*
X479622Y107731D01*
X479589Y107808D01*
X479556Y107906D01*
X479524Y108015D01*
X479480Y108135D01*
X479447Y108267D01*
X479414Y108409D01*
X479382Y108573D01*
X479338Y108912D01*
X479316Y109283D01*
Y109305D01*
Y109349D01*
X479327Y109425D01*
Y109524D01*
X479338Y109644D01*
X479360Y109786D01*
X479382Y109950D01*
X479414Y110114D01*
X479458Y110300D01*
X479513Y110485D01*
X479578Y110671D01*
X479655Y110868D01*
X479753Y111054D01*
X479862Y111240D01*
X479983Y111404D01*
X480125Y111567D01*
X480136Y111578D01*
X480168Y111600D01*
X480212Y111644D01*
X480278Y111699D01*
X480365Y111753D01*
X480464Y111830D01*
X480584Y111906D01*
X480715Y111983D01*
X480868Y112059D01*
X481043Y112125D01*
X481229Y112201D01*
X481436Y112256D01*
X481655Y112311D01*
X481895Y112354D01*
X482147Y112376D01*
X482409Y112387D01*
X482551D01*
X482650Y112376D01*
D02*
G37*
G36*
X522647D02*
X522745D01*
X522855Y112365D01*
X522975Y112354D01*
X523106Y112333D01*
X523390Y112278D01*
X523685Y112201D01*
X523959Y112092D01*
X524090Y112027D01*
X524210Y111950D01*
X524221D01*
X524232Y111928D01*
X524308Y111873D01*
X524407Y111764D01*
X524527Y111622D01*
X524593Y111535D01*
X524647Y111436D01*
X524713Y111316D01*
X524767Y111196D01*
X524822Y111065D01*
X524866Y110923D01*
X524899Y110759D01*
X524931Y110595D01*
X523183Y110496D01*
Y110518D01*
X523172Y110562D01*
X523150Y110638D01*
X523117Y110726D01*
X523073Y110813D01*
X523030Y110912D01*
X522964Y111010D01*
X522888Y111087D01*
X522877Y111098D01*
X522844Y111119D01*
X522800Y111141D01*
X522734Y111185D01*
X522647Y111218D01*
X522538Y111240D01*
X522417Y111261D01*
X522275Y111272D01*
X522221D01*
X522166Y111261D01*
X522090Y111250D01*
X521926Y111218D01*
X521849Y111174D01*
X521784Y111130D01*
X521773Y111119D01*
X521762Y111108D01*
X521707Y111043D01*
X521652Y110933D01*
X521641Y110868D01*
X521631Y110802D01*
Y110792D01*
Y110781D01*
X521652Y110715D01*
X521685Y110627D01*
X521718Y110584D01*
X521762Y110540D01*
X521773D01*
X521795Y110518D01*
X521827Y110496D01*
X521893Y110464D01*
X521969Y110431D01*
X522079Y110398D01*
X522210Y110354D01*
X522374Y110321D01*
X522385D01*
X522429Y110310D01*
X522494Y110300D01*
X522571Y110278D01*
X522669Y110256D01*
X522789Y110223D01*
X522920Y110190D01*
X523052Y110158D01*
X523336Y110081D01*
X523631Y109983D01*
X523893Y109884D01*
X524013Y109841D01*
X524123Y109786D01*
X524134D01*
X524145Y109775D01*
X524210Y109742D01*
X524298Y109687D01*
X524418Y109611D01*
X524538Y109513D01*
X524669Y109403D01*
X524789Y109272D01*
X524888Y109130D01*
X524899Y109108D01*
X524921Y109064D01*
X524964Y108977D01*
X525008Y108868D01*
X525052Y108737D01*
X525095Y108595D01*
X525117Y108420D01*
X525128Y108245D01*
Y108234D01*
Y108223D01*
Y108190D01*
Y108146D01*
X525106Y108037D01*
X525084Y107895D01*
X525052Y107731D01*
X524986Y107545D01*
X524910Y107359D01*
X524800Y107174D01*
X524789Y107152D01*
X524746Y107097D01*
X524669Y107010D01*
X524571Y106900D01*
X524440Y106780D01*
X524287Y106660D01*
X524112Y106551D01*
X523904Y106441D01*
X523893D01*
X523882Y106430D01*
X523849Y106420D01*
X523806Y106409D01*
X523751Y106387D01*
X523674Y106365D01*
X523598Y106343D01*
X523511Y106321D01*
X523303Y106277D01*
X523052Y106234D01*
X522778Y106212D01*
X522461Y106201D01*
X522319D01*
X522210Y106212D01*
X522090Y106223D01*
X521947Y106234D01*
X521795Y106245D01*
X521620Y106277D01*
X521270Y106343D01*
X520920Y106441D01*
X520756Y106507D01*
X520603Y106594D01*
X520461Y106682D01*
X520341Y106780D01*
X520330Y106791D01*
X520319Y106813D01*
X520286Y106846D01*
X520253Y106889D01*
X520210Y106944D01*
X520155Y107010D01*
X520100Y107097D01*
X520046Y107185D01*
X519925Y107403D01*
X519816Y107666D01*
X519740Y107950D01*
X519707Y108114D01*
X519685Y108277D01*
X521445Y108398D01*
Y108376D01*
X521456Y108321D01*
X521467Y108245D01*
X521499Y108157D01*
X521565Y107939D01*
X521620Y107829D01*
X521674Y107742D01*
X521685Y107731D01*
X521729Y107687D01*
X521795Y107633D01*
X521882Y107567D01*
X522002Y107491D01*
X522144Y107436D01*
X522308Y107392D01*
X522494Y107381D01*
X522560D01*
X522625Y107392D01*
X522724Y107403D01*
X522822Y107425D01*
X522920Y107458D01*
X523019Y107501D01*
X523106Y107556D01*
X523117Y107567D01*
X523139Y107589D01*
X523172Y107633D01*
X523215Y107676D01*
X523259Y107742D01*
X523292Y107818D01*
X523314Y107906D01*
X523325Y107993D01*
Y108004D01*
Y108037D01*
X523314Y108081D01*
X523303Y108135D01*
X523270Y108201D01*
X523237Y108267D01*
X523183Y108343D01*
X523117Y108409D01*
X523106Y108420D01*
X523073Y108441D01*
X523008Y108474D01*
X522920Y108518D01*
X522789Y108573D01*
X522625Y108638D01*
X522527Y108671D01*
X522417Y108693D01*
X522297Y108726D01*
X522166Y108758D01*
X522155D01*
X522112Y108769D01*
X522046Y108791D01*
X521969Y108802D01*
X521871Y108835D01*
X521751Y108868D01*
X521631Y108901D01*
X521499Y108944D01*
X521204Y109054D01*
X520920Y109174D01*
X520658Y109316D01*
X520538Y109392D01*
X520428Y109480D01*
Y109491D01*
X520406Y109502D01*
X520352Y109556D01*
X520264Y109655D01*
X520177Y109797D01*
X520079Y109961D01*
X519991Y110158D01*
X519936Y110376D01*
X519925Y110496D01*
X519915Y110627D01*
Y110638D01*
Y110649D01*
Y110704D01*
X519925Y110802D01*
X519947Y110912D01*
X519980Y111043D01*
X520024Y111196D01*
X520089Y111349D01*
X520177Y111502D01*
X520188Y111524D01*
X520231Y111567D01*
X520297Y111644D01*
X520385Y111742D01*
X520494Y111841D01*
X520636Y111950D01*
X520800Y112048D01*
X520986Y112147D01*
X520997D01*
X521008Y112158D01*
X521040Y112169D01*
X521084Y112180D01*
X521139Y112201D01*
X521204Y112223D01*
X521281Y112245D01*
X521368Y112267D01*
X521467Y112289D01*
X521587Y112311D01*
X521838Y112354D01*
X522133Y112376D01*
X522461Y112387D01*
X522571D01*
X522647Y112376D01*
D02*
G37*
G36*
X476704Y106299D02*
X474704D01*
X472441Y112289D01*
X474376D01*
X475720Y107972D01*
X477053Y112289D01*
X478933D01*
X476704Y106299D01*
D02*
G37*
G36*
X497853Y108715D02*
Y108704D01*
Y108693D01*
Y108627D01*
X497842Y108529D01*
X497831Y108398D01*
X497810Y108234D01*
X497777Y108070D01*
X497733Y107895D01*
X497678Y107709D01*
X497667Y107687D01*
X497646Y107633D01*
X497613Y107545D01*
X497547Y107436D01*
X497482Y107305D01*
X497383Y107163D01*
X497285Y107021D01*
X497154Y106889D01*
X497143Y106878D01*
X497088Y106835D01*
X497022Y106769D01*
X496935Y106693D01*
X496826Y106616D01*
X496695Y106540D01*
X496563Y106463D01*
X496421Y106398D01*
X496410D01*
X496399Y106387D01*
X496367Y106376D01*
X496323Y106365D01*
X496214Y106332D01*
X496050Y106299D01*
X495864Y106266D01*
X495645Y106234D01*
X495394Y106212D01*
X495121Y106201D01*
X494957D01*
X494837Y106212D01*
X494694D01*
X494530Y106234D01*
X494356Y106245D01*
X494159Y106266D01*
X494137D01*
X494071Y106277D01*
X493973Y106288D01*
X493864Y106321D01*
X493722Y106343D01*
X493580Y106387D01*
X493437Y106441D01*
X493295Y106496D01*
X493285Y106507D01*
X493241Y106529D01*
X493175Y106572D01*
X493088Y106627D01*
X492989Y106704D01*
X492880Y106791D01*
X492771Y106889D01*
X492661Y107010D01*
X492651Y107021D01*
X492618Y107064D01*
X492563Y107141D01*
X492508Y107228D01*
X492443Y107327D01*
X492377Y107447D01*
X492312Y107578D01*
X492268Y107709D01*
Y107720D01*
X492257Y107731D01*
Y107764D01*
X492246Y107808D01*
X492213Y107917D01*
X492192Y108048D01*
X492159Y108201D01*
X492126Y108376D01*
X492115Y108551D01*
X492104Y108715D01*
Y112289D01*
X493951D01*
Y108638D01*
Y108616D01*
Y108562D01*
X493962Y108463D01*
X493984Y108354D01*
X494017Y108234D01*
X494061Y108114D01*
X494126Y107982D01*
X494213Y107873D01*
X494224Y107862D01*
X494268Y107829D01*
X494323Y107786D01*
X494410Y107742D01*
X494520Y107687D01*
X494651Y107644D01*
X494804Y107611D01*
X494979Y107600D01*
X495055D01*
X495143Y107611D01*
X495252Y107633D01*
X495372Y107666D01*
X495503Y107709D01*
X495623Y107775D01*
X495733Y107862D01*
X495744Y107873D01*
X495777Y107917D01*
X495820Y107972D01*
X495875Y108059D01*
X495919Y108168D01*
X495962Y108310D01*
X495995Y108463D01*
X496006Y108638D01*
Y112289D01*
X497853D01*
Y108715D01*
D02*
G37*
G36*
X511942Y111010D02*
X508838D01*
Y110059D01*
X511712D01*
Y108835D01*
X508838D01*
Y107655D01*
X512029D01*
Y106299D01*
X506980D01*
Y112289D01*
X511942D01*
Y111010D01*
D02*
G37*
G36*
X533949Y107775D02*
X536845D01*
Y106299D01*
X532101D01*
Y112289D01*
X533949D01*
Y107775D01*
D02*
G37*
G36*
X531019Y111010D02*
X527915D01*
Y110059D01*
X530790D01*
Y108835D01*
X527915D01*
Y107655D01*
X531107D01*
Y106299D01*
X526057D01*
Y112289D01*
X531019D01*
Y111010D01*
D02*
G37*
G36*
X429326Y185211D02*
X429424D01*
X429534Y185200D01*
X429654Y185189D01*
X429785Y185167D01*
X430069Y185113D01*
X430364Y185036D01*
X430638Y184927D01*
X430769Y184861D01*
X430889Y184785D01*
X430900D01*
X430911Y184763D01*
X430987Y184708D01*
X431086Y184599D01*
X431206Y184457D01*
X431272Y184369D01*
X431326Y184271D01*
X431392Y184151D01*
X431447Y184030D01*
X431501Y183899D01*
X431545Y183757D01*
X431578Y183593D01*
X431610Y183429D01*
X429862Y183331D01*
Y183353D01*
X429851Y183397D01*
X429829Y183473D01*
X429796Y183561D01*
X429752Y183648D01*
X429709Y183746D01*
X429643Y183845D01*
X429566Y183921D01*
X429556Y183932D01*
X429523Y183954D01*
X429479Y183976D01*
X429414Y184020D01*
X429326Y184052D01*
X429217Y184074D01*
X429097Y184096D01*
X428955Y184107D01*
X428900D01*
X428845Y184096D01*
X428769Y184085D01*
X428605Y184052D01*
X428528Y184009D01*
X428463Y183965D01*
X428452Y183954D01*
X428441Y183943D01*
X428386Y183878D01*
X428332Y183768D01*
X428321Y183703D01*
X428310Y183637D01*
Y183626D01*
Y183615D01*
X428332Y183550D01*
X428364Y183462D01*
X428397Y183418D01*
X428441Y183375D01*
X428452D01*
X428474Y183353D01*
X428506Y183331D01*
X428572Y183298D01*
X428648Y183265D01*
X428758Y183233D01*
X428889Y183189D01*
X429053Y183156D01*
X429064D01*
X429108Y183145D01*
X429173Y183134D01*
X429250Y183112D01*
X429348Y183090D01*
X429468Y183058D01*
X429599Y183025D01*
X429731Y182992D01*
X430015Y182916D01*
X430310Y182817D01*
X430572Y182719D01*
X430692Y182675D01*
X430802Y182621D01*
X430813D01*
X430824Y182610D01*
X430889Y182577D01*
X430976Y182522D01*
X431097Y182446D01*
X431217Y182347D01*
X431348Y182238D01*
X431468Y182107D01*
X431567Y181965D01*
X431578Y181943D01*
X431600Y181899D01*
X431643Y181812D01*
X431687Y181702D01*
X431731Y181571D01*
X431774Y181429D01*
X431796Y181254D01*
X431807Y181079D01*
Y181069D01*
Y181058D01*
Y181025D01*
Y180981D01*
X431785Y180872D01*
X431764Y180730D01*
X431731Y180566D01*
X431665Y180380D01*
X431589Y180194D01*
X431479Y180008D01*
X431468Y179986D01*
X431425Y179932D01*
X431348Y179844D01*
X431250Y179735D01*
X431119Y179615D01*
X430966Y179495D01*
X430791Y179385D01*
X430583Y179276D01*
X430572D01*
X430561Y179265D01*
X430528Y179254D01*
X430485Y179243D01*
X430430Y179221D01*
X430353Y179199D01*
X430277Y179178D01*
X430190Y179156D01*
X429982Y179112D01*
X429731Y179068D01*
X429457Y179046D01*
X429140Y179035D01*
X428998D01*
X428889Y179046D01*
X428769Y179057D01*
X428627Y179068D01*
X428474Y179079D01*
X428299Y179112D01*
X427949Y179178D01*
X427599Y179276D01*
X427435Y179341D01*
X427282Y179429D01*
X427140Y179516D01*
X427020Y179615D01*
X427009Y179626D01*
X426998Y179648D01*
X426965Y179680D01*
X426932Y179724D01*
X426889Y179779D01*
X426834Y179844D01*
X426779Y179932D01*
X426725Y180019D01*
X426605Y180238D01*
X426495Y180500D01*
X426419Y180784D01*
X426386Y180948D01*
X426364Y181112D01*
X428124Y181232D01*
Y181211D01*
X428135Y181156D01*
X428146Y181079D01*
X428178Y180992D01*
X428244Y180773D01*
X428299Y180664D01*
X428353Y180577D01*
X428364Y180566D01*
X428408Y180522D01*
X428474Y180467D01*
X428561Y180402D01*
X428681Y180325D01*
X428823Y180271D01*
X428987Y180227D01*
X429173Y180216D01*
X429239D01*
X429304Y180227D01*
X429403Y180238D01*
X429501Y180260D01*
X429599Y180292D01*
X429698Y180336D01*
X429785Y180391D01*
X429796Y180402D01*
X429818Y180424D01*
X429851Y180467D01*
X429894Y180511D01*
X429938Y180577D01*
X429971Y180653D01*
X429993Y180741D01*
X430004Y180828D01*
Y180839D01*
Y180872D01*
X429993Y180915D01*
X429982Y180970D01*
X429949Y181036D01*
X429916Y181101D01*
X429862Y181178D01*
X429796Y181243D01*
X429785Y181254D01*
X429752Y181276D01*
X429687Y181309D01*
X429599Y181353D01*
X429468Y181407D01*
X429304Y181473D01*
X429206Y181506D01*
X429097Y181527D01*
X428976Y181560D01*
X428845Y181593D01*
X428834D01*
X428791Y181604D01*
X428725Y181626D01*
X428648Y181637D01*
X428550Y181670D01*
X428430Y181702D01*
X428310Y181735D01*
X428178Y181779D01*
X427883Y181888D01*
X427599Y182008D01*
X427337Y182150D01*
X427217Y182227D01*
X427107Y182315D01*
Y182325D01*
X427085Y182336D01*
X427031Y182391D01*
X426943Y182489D01*
X426856Y182632D01*
X426757Y182795D01*
X426670Y182992D01*
X426615Y183211D01*
X426605Y183331D01*
X426594Y183462D01*
Y183473D01*
Y183484D01*
Y183539D01*
X426605Y183637D01*
X426626Y183746D01*
X426659Y183878D01*
X426703Y184030D01*
X426768Y184184D01*
X426856Y184336D01*
X426867Y184358D01*
X426910Y184402D01*
X426976Y184479D01*
X427064Y184577D01*
X427173Y184675D01*
X427315Y184785D01*
X427479Y184883D01*
X427665Y184981D01*
X427676D01*
X427687Y184992D01*
X427719Y185003D01*
X427763Y185014D01*
X427818Y185036D01*
X427883Y185058D01*
X427960Y185080D01*
X428047Y185102D01*
X428146Y185124D01*
X428266Y185145D01*
X428517Y185189D01*
X428812Y185211D01*
X429140Y185222D01*
X429250D01*
X429326Y185211D01*
D02*
G37*
G36*
X546726Y112376D02*
X546824D01*
X546934Y112365D01*
X547054Y112354D01*
X547185Y112333D01*
X547480Y112278D01*
X547775Y112190D01*
X548059Y112081D01*
X548190Y112005D01*
X548322Y111928D01*
X548333D01*
X548354Y111906D01*
X548387Y111884D01*
X548431Y111841D01*
X548486Y111797D01*
X548551Y111731D01*
X548617Y111666D01*
X548693Y111578D01*
X548770Y111491D01*
X548846Y111382D01*
X548934Y111272D01*
X549010Y111141D01*
X549087Y110999D01*
X549163Y110857D01*
X549229Y110693D01*
X549294Y110518D01*
X547655Y110158D01*
Y110168D01*
X547644Y110201D01*
X547622Y110256D01*
X547600Y110310D01*
X547535Y110442D01*
X547502Y110496D01*
X547469Y110551D01*
X547458Y110562D01*
X547447Y110584D01*
X547403Y110627D01*
X547360Y110671D01*
X547240Y110781D01*
X547086Y110879D01*
X547076Y110890D01*
X547054Y110901D01*
X546999Y110923D01*
X546945Y110944D01*
X546868Y110966D01*
X546780Y110977D01*
X546682Y110999D01*
X546518D01*
X546485Y110988D01*
X546365Y110977D01*
X546223Y110933D01*
X546070Y110879D01*
X545906Y110781D01*
X545753Y110660D01*
X545687Y110573D01*
X545622Y110485D01*
X545611Y110464D01*
X545578Y110420D01*
X545545Y110321D01*
X545502Y110201D01*
X545447Y110037D01*
X545414Y109841D01*
X545381Y109600D01*
X545370Y109316D01*
Y109305D01*
Y109272D01*
Y109218D01*
Y109152D01*
X545381Y109075D01*
Y108977D01*
X545403Y108769D01*
X545447Y108551D01*
X545491Y108321D01*
X545567Y108114D01*
X545611Y108026D01*
X545666Y107950D01*
X545677Y107939D01*
X545720Y107895D01*
X545797Y107840D01*
X545884Y107775D01*
X546004Y107698D01*
X546158Y107644D01*
X546321Y107600D01*
X546518Y107589D01*
X546606D01*
X546704Y107600D01*
X546824Y107622D01*
X546955Y107666D01*
X547086Y107709D01*
X547218Y107786D01*
X547327Y107884D01*
X547338Y107895D01*
X547371Y107939D01*
X547425Y108004D01*
X547480Y108103D01*
X547546Y108223D01*
X547611Y108376D01*
X547677Y108551D01*
X547731Y108758D01*
X549349Y108256D01*
Y108245D01*
X549338Y108223D01*
X549327Y108190D01*
X549316Y108146D01*
X549284Y108015D01*
X549218Y107862D01*
X549152Y107676D01*
X549054Y107491D01*
X548956Y107305D01*
X548824Y107119D01*
X548813Y107097D01*
X548759Y107043D01*
X548682Y106966D01*
X548584Y106857D01*
X548453Y106747D01*
X548311Y106638D01*
X548136Y106529D01*
X547950Y106430D01*
X547939D01*
X547928Y106420D01*
X547895Y106409D01*
X547863Y106398D01*
X547742Y106354D01*
X547589Y106321D01*
X547403Y106277D01*
X547174Y106234D01*
X546912Y106212D01*
X546628Y106201D01*
X546463D01*
X546376Y106212D01*
X546289D01*
X546179Y106223D01*
X546059Y106234D01*
X545808Y106266D01*
X545535Y106321D01*
X545272Y106387D01*
X545021Y106474D01*
X545010D01*
X544999Y106485D01*
X544966Y106507D01*
X544922Y106529D01*
X544802Y106605D01*
X544660Y106704D01*
X544496Y106846D01*
X544310Y107010D01*
X544136Y107217D01*
X543961Y107469D01*
Y107480D01*
X543939Y107501D01*
X543917Y107545D01*
X543895Y107600D01*
X543862Y107666D01*
X543819Y107753D01*
X543775Y107851D01*
X543742Y107972D01*
X543698Y108092D01*
X543654Y108234D01*
X543622Y108387D01*
X543578Y108551D01*
X543556Y108726D01*
X543534Y108912D01*
X543512Y109305D01*
Y109327D01*
Y109371D01*
X543523Y109447D01*
Y109545D01*
X543534Y109677D01*
X543556Y109819D01*
X543578Y109972D01*
X543611Y110147D01*
X543654Y110332D01*
X543709Y110518D01*
X543764Y110704D01*
X543840Y110901D01*
X543939Y111087D01*
X544037Y111261D01*
X544157Y111436D01*
X544299Y111589D01*
X544310Y111600D01*
X544332Y111622D01*
X544387Y111666D01*
X544442Y111710D01*
X544529Y111775D01*
X544627Y111841D01*
X544737Y111917D01*
X544879Y111994D01*
X545021Y112059D01*
X545196Y112136D01*
X545381Y112201D01*
X545578Y112267D01*
X545797Y112311D01*
X546026Y112354D01*
X546278Y112376D01*
X546540Y112387D01*
X546649D01*
X546726Y112376D01*
D02*
G37*
G36*
X555448Y110813D02*
X553557D01*
Y106299D01*
X551710D01*
Y110813D01*
X549819D01*
Y112289D01*
X555448D01*
Y110813D01*
D02*
G37*
G36*
X542649Y111010D02*
X539545D01*
Y110059D01*
X542419D01*
Y108835D01*
X539545D01*
Y107655D01*
X542736D01*
Y106299D01*
X537687D01*
Y112289D01*
X542649D01*
Y111010D01*
D02*
G37*
G36*
X168772Y170545D02*
X168914Y170524D01*
X168925D01*
X168947Y170513D01*
X168991D01*
X169045Y170502D01*
X169165Y170469D01*
X169297Y170425D01*
X169307D01*
X169329Y170414D01*
X169362Y170403D01*
X169406Y170393D01*
X169515Y170349D01*
X169624Y170294D01*
X169635D01*
X169646Y170283D01*
X169701Y170261D01*
X169767Y170218D01*
X169810Y170185D01*
X169821Y170174D01*
X169832Y170163D01*
X169854Y170130D01*
X169865Y170108D01*
X169876Y170097D01*
X169898Y170043D01*
Y170032D01*
X169909Y170010D01*
Y169944D01*
Y169933D01*
X169920Y169912D01*
Y169857D01*
Y169802D01*
Y169791D01*
Y169748D01*
Y169704D01*
X169909Y169649D01*
Y169638D01*
X169898Y169606D01*
X169887Y169529D01*
Y169518D01*
X169876Y169507D01*
X169843Y169463D01*
X169832D01*
X169788Y169453D01*
X169778D01*
X169745Y169463D01*
X169701Y169485D01*
X169624Y169518D01*
X169603Y169529D01*
X169548Y169562D01*
X169460Y169606D01*
X169351Y169660D01*
X169340D01*
X169329Y169671D01*
X169297Y169693D01*
X169253Y169715D01*
X169133Y169758D01*
X168980Y169813D01*
X168969D01*
X168947Y169824D01*
X168892Y169835D01*
X168837Y169857D01*
X168761Y169868D01*
X168684Y169879D01*
X168488Y169890D01*
X168400D01*
X168335Y169879D01*
X168193Y169857D01*
X168040Y169813D01*
X168029D01*
X168007Y169802D01*
X167974Y169791D01*
X167930Y169770D01*
X167832Y169704D01*
X167734Y169627D01*
X167712Y169606D01*
X167668Y169551D01*
X167602Y169474D01*
X167548Y169365D01*
Y169354D01*
X167537Y169343D01*
X167526Y169310D01*
Y169267D01*
X167504Y169157D01*
X167493Y169037D01*
Y169026D01*
Y168993D01*
X167504Y168950D01*
Y168884D01*
X167537Y168742D01*
X167602Y168600D01*
X167613Y168589D01*
X167624Y168567D01*
X167646Y168534D01*
X167690Y168491D01*
X167788Y168381D01*
X167919Y168272D01*
X167930Y168261D01*
X167952Y168250D01*
X167996Y168217D01*
X168051Y168185D01*
X168116Y168141D01*
X168193Y168097D01*
X168368Y168010D01*
X168378D01*
X168411Y167988D01*
X168466Y167966D01*
X168521Y167944D01*
X168597Y167911D01*
X168684Y167868D01*
X168870Y167780D01*
X168881D01*
X168914Y167758D01*
X168969Y167736D01*
X169034Y167704D01*
X169111Y167660D01*
X169198Y167616D01*
X169384Y167507D01*
X169395Y167496D01*
X169428Y167485D01*
X169472Y167452D01*
X169537Y167409D01*
X169679Y167299D01*
X169832Y167168D01*
X169843Y167157D01*
X169865Y167135D01*
X169898Y167092D01*
X169941Y167037D01*
X169996Y166971D01*
X170051Y166895D01*
X170149Y166709D01*
X170160Y166698D01*
X170171Y166665D01*
X170193Y166611D01*
X170215Y166534D01*
X170237Y166436D01*
X170247Y166326D01*
X170269Y166206D01*
Y166075D01*
Y166053D01*
Y165999D01*
X170258Y165922D01*
X170247Y165824D01*
X170226Y165703D01*
X170204Y165572D01*
X170160Y165441D01*
X170105Y165310D01*
X170095Y165299D01*
X170073Y165255D01*
X170040Y165190D01*
X169996Y165113D01*
X169931Y165026D01*
X169854Y164927D01*
X169767Y164840D01*
X169668Y164742D01*
X169657Y164731D01*
X169614Y164709D01*
X169559Y164665D01*
X169482Y164611D01*
X169384Y164556D01*
X169264Y164501D01*
X169144Y164446D01*
X169001Y164392D01*
X168980D01*
X168936Y164370D01*
X168859Y164359D01*
X168761Y164337D01*
X168641Y164315D01*
X168499Y164304D01*
X168346Y164283D01*
X168072D01*
X167996Y164294D01*
X167909D01*
X167810Y164304D01*
X167613Y164337D01*
X167602D01*
X167570Y164348D01*
X167515Y164359D01*
X167460Y164370D01*
X167307Y164403D01*
X167143Y164457D01*
X167132D01*
X167111Y164468D01*
X167078Y164490D01*
X167023Y164501D01*
X166914Y164556D01*
X166805Y164611D01*
X166794D01*
X166783Y164621D01*
X166728Y164665D01*
X166663Y164709D01*
X166608Y164753D01*
X166597Y164763D01*
X166575Y164796D01*
X166553Y164840D01*
X166531Y164895D01*
Y164917D01*
X166520Y164960D01*
X166509Y165037D01*
Y165135D01*
Y165157D01*
Y165190D01*
Y165244D01*
Y165299D01*
Y165310D01*
X166520Y165343D01*
X166531Y165376D01*
X166542Y165408D01*
Y165419D01*
X166553Y165430D01*
X166586Y165474D01*
X166597D01*
X166608Y165485D01*
X166651Y165496D01*
X166663D01*
X166695Y165485D01*
X166761Y165463D01*
X166837Y165408D01*
X166848D01*
X166859Y165398D01*
X166925Y165354D01*
X167012Y165299D01*
X167143Y165234D01*
X167154D01*
X167176Y165223D01*
X167220Y165201D01*
X167274Y165179D01*
X167340Y165157D01*
X167417Y165124D01*
X167602Y165059D01*
X167613D01*
X167646Y165048D01*
X167712Y165037D01*
X167788Y165026D01*
X167876Y165004D01*
X167985Y164993D01*
X168094Y164982D01*
X168324D01*
X168389Y164993D01*
X168542Y165015D01*
X168706Y165048D01*
X168717D01*
X168739Y165059D01*
X168783Y165080D01*
X168837Y165102D01*
X168958Y165157D01*
X169078Y165244D01*
X169089Y165255D01*
X169111Y165266D01*
X169176Y165332D01*
X169253Y165430D01*
X169329Y165561D01*
Y165572D01*
X169340Y165594D01*
X169362Y165638D01*
X169373Y165682D01*
X169395Y165747D01*
X169406Y165824D01*
X169417Y165988D01*
Y165999D01*
Y166031D01*
X169406Y166086D01*
Y166141D01*
X169362Y166283D01*
X169340Y166359D01*
X169297Y166436D01*
Y166447D01*
X169275Y166469D01*
X169253Y166501D01*
X169209Y166545D01*
X169111Y166644D01*
X168980Y166753D01*
X168969Y166764D01*
X168947Y166775D01*
X168903Y166807D01*
X168859Y166840D01*
X168794Y166873D01*
X168717Y166917D01*
X168542Y167004D01*
X168532Y167015D01*
X168499Y167026D01*
X168444Y167048D01*
X168389Y167081D01*
X168302Y167113D01*
X168226Y167157D01*
X168029Y167245D01*
X168018Y167255D01*
X167985Y167266D01*
X167941Y167288D01*
X167876Y167321D01*
X167799Y167365D01*
X167712Y167409D01*
X167526Y167507D01*
X167515Y167518D01*
X167482Y167540D01*
X167438Y167562D01*
X167384Y167605D01*
X167242Y167715D01*
X167089Y167857D01*
X167078Y167868D01*
X167056Y167889D01*
X167023Y167933D01*
X166979Y167988D01*
X166936Y168053D01*
X166881Y168130D01*
X166783Y168316D01*
Y168327D01*
X166761Y168359D01*
X166750Y168425D01*
X166728Y168502D01*
X166706Y168589D01*
X166684Y168698D01*
X166673Y168830D01*
X166663Y168961D01*
Y168983D01*
Y169026D01*
X166673Y169103D01*
X166684Y169190D01*
X166695Y169299D01*
X166717Y169409D01*
X166750Y169529D01*
X166794Y169638D01*
X166805Y169649D01*
X166815Y169693D01*
X166848Y169748D01*
X166892Y169813D01*
X166947Y169901D01*
X167012Y169977D01*
X167176Y170141D01*
X167187Y170152D01*
X167220Y170174D01*
X167274Y170218D01*
X167340Y170261D01*
X167428Y170305D01*
X167537Y170360D01*
X167646Y170414D01*
X167766Y170458D01*
X167777D01*
X167832Y170480D01*
X167898Y170491D01*
X167996Y170513D01*
X168105Y170535D01*
X168226Y170545D01*
X168368Y170567D01*
X168641D01*
X168772Y170545D01*
D02*
G37*
G36*
X152967Y168873D02*
X152978D01*
X153011Y168862D01*
X153055Y168851D01*
X153087Y168840D01*
X153098D01*
X153109Y168830D01*
X153153Y168786D01*
X153164Y168775D01*
X153175Y168731D01*
Y164479D01*
Y164468D01*
Y164457D01*
X153153Y164414D01*
X153142Y164403D01*
X153087Y164370D01*
X153077D01*
X153055Y164359D01*
X153022D01*
X152967Y164348D01*
X152924D01*
X152858Y164337D01*
X152650D01*
X152585Y164348D01*
X152574D01*
X152552Y164359D01*
X152475Y164370D01*
X152464D01*
X152453Y164381D01*
X152410Y164414D01*
Y164436D01*
X152399Y164479D01*
Y168731D01*
Y168742D01*
Y168753D01*
X152410Y168786D01*
Y168797D01*
X152432Y168808D01*
X152475Y168840D01*
X152486D01*
X152508Y168851D01*
X152541Y168862D01*
X152585Y168873D01*
X152596D01*
X152639Y168884D01*
X152912D01*
X152967Y168873D01*
D02*
G37*
G36*
X146191D02*
X146202D01*
X146234Y168862D01*
X146278Y168851D01*
X146311Y168840D01*
X146322D01*
X146333Y168830D01*
X146376Y168786D01*
X146387Y168775D01*
X146398Y168731D01*
Y164479D01*
Y164468D01*
Y164457D01*
X146376Y164414D01*
X146365Y164403D01*
X146311Y164370D01*
X146300D01*
X146278Y164359D01*
X146245D01*
X146191Y164348D01*
X146147D01*
X146081Y164337D01*
X145874D01*
X145808Y164348D01*
X145797D01*
X145775Y164359D01*
X145699Y164370D01*
X145688D01*
X145677Y164381D01*
X145633Y164414D01*
Y164436D01*
X145622Y164479D01*
Y168731D01*
Y168742D01*
Y168753D01*
X145633Y168786D01*
Y168797D01*
X145655Y168808D01*
X145699Y168840D01*
X145710D01*
X145731Y168851D01*
X145764Y168862D01*
X145808Y168873D01*
X145819D01*
X145863Y168884D01*
X146136D01*
X146191Y168873D01*
D02*
G37*
G36*
X239402Y170010D02*
X239412D01*
X239445Y169999D01*
X239489Y169988D01*
X239522Y169977D01*
X239533D01*
X239544Y169966D01*
X239587Y169922D01*
X239598Y169912D01*
X239609Y169868D01*
Y168862D01*
X240713D01*
X240757Y168840D01*
X240768D01*
X240779Y168830D01*
X240812Y168775D01*
Y168764D01*
X240823Y168753D01*
X240833Y168720D01*
X240844Y168676D01*
Y168666D01*
X240855Y168644D01*
Y168589D01*
Y168534D01*
Y168523D01*
Y168502D01*
Y168436D01*
X240833Y168359D01*
X240812Y168283D01*
X240801Y168272D01*
X240779Y168250D01*
X240746Y168228D01*
X240691Y168217D01*
X239609D01*
Y165846D01*
Y165824D01*
Y165769D01*
X239620Y165693D01*
Y165594D01*
X239664Y165376D01*
X239686Y165277D01*
X239729Y165179D01*
X239740Y165168D01*
X239751Y165146D01*
X239784Y165113D01*
X239839Y165070D01*
X239904Y165026D01*
X239981Y164993D01*
X240079Y164971D01*
X240199Y164960D01*
X240320D01*
X240385Y164971D01*
X240396D01*
X240440Y164982D01*
X240484Y165004D01*
X240538Y165015D01*
X240549Y165026D01*
X240582Y165037D01*
X240648Y165070D01*
X240659D01*
X240680Y165080D01*
X240746Y165091D01*
X240757D01*
X240790Y165070D01*
X240801Y165059D01*
X240823Y165026D01*
Y165015D01*
X240833Y165004D01*
X240844Y164938D01*
Y164927D01*
X240855Y164906D01*
Y164851D01*
Y164796D01*
Y164774D01*
Y164720D01*
X240844Y164654D01*
X240833Y164578D01*
Y164567D01*
X240823Y164534D01*
X240801Y164490D01*
X240768Y164457D01*
X240757D01*
X240746Y164436D01*
X240713Y164414D01*
X240659Y164392D01*
X240648D01*
X240604Y164381D01*
X240549Y164370D01*
X240484Y164348D01*
X240473D01*
X240429Y164337D01*
X240364Y164326D01*
X240287Y164315D01*
X240265D01*
X240221Y164304D01*
X240145Y164294D01*
X239948D01*
X239872Y164304D01*
X239784Y164315D01*
X239686Y164326D01*
X239500Y164370D01*
X239489D01*
X239467Y164392D01*
X239423Y164403D01*
X239369Y164436D01*
X239238Y164523D01*
X239117Y164632D01*
X239106Y164643D01*
X239096Y164665D01*
X239063Y164709D01*
X239030Y164763D01*
X238997Y164829D01*
X238964Y164906D01*
X238899Y165091D01*
Y165102D01*
X238888Y165135D01*
X238877Y165201D01*
X238866Y165277D01*
X238855Y165365D01*
X238844Y165474D01*
X238833Y165594D01*
Y165725D01*
Y168217D01*
X238221D01*
X238188Y168228D01*
X238145Y168250D01*
X238112Y168283D01*
Y168294D01*
X238101Y168349D01*
X238090Y168425D01*
X238079Y168534D01*
Y168545D01*
Y168589D01*
Y168633D01*
X238090Y168676D01*
Y168687D01*
X238101Y168709D01*
Y168742D01*
X238112Y168775D01*
Y168786D01*
X238123Y168797D01*
X238166Y168840D01*
X238177D01*
X238188Y168851D01*
X238232Y168862D01*
X238833D01*
Y169868D01*
Y169879D01*
Y169890D01*
X238844Y169922D01*
Y169933D01*
X238866Y169944D01*
X238910Y169977D01*
X238921D01*
X238943Y169988D01*
X238975Y169999D01*
X239019Y170010D01*
X239030D01*
X239074Y170021D01*
X239347D01*
X239402Y170010D01*
D02*
G37*
G36*
X180598Y168939D02*
X180718Y168928D01*
X180850Y168906D01*
X180981Y168873D01*
X181101Y168840D01*
X181112D01*
X181156Y168818D01*
X181210Y168797D01*
X181287Y168764D01*
X181462Y168666D01*
X181549Y168600D01*
X181626Y168534D01*
X181637Y168523D01*
X181658Y168502D01*
X181691Y168458D01*
X181735Y168403D01*
X181779Y168327D01*
X181833Y168239D01*
X181877Y168141D01*
X181910Y168032D01*
Y168021D01*
X181921Y167977D01*
X181943Y167922D01*
X181965Y167835D01*
X181975Y167736D01*
X181997Y167616D01*
X182008Y167485D01*
Y167343D01*
Y164468D01*
Y164457D01*
Y164436D01*
X181986Y164414D01*
X181965Y164392D01*
X181954D01*
X181943Y164381D01*
X181910Y164370D01*
X181855Y164359D01*
X181844D01*
X181811Y164348D01*
X181746Y164337D01*
X181604D01*
X181538Y164348D01*
X181473Y164359D01*
X181462D01*
X181429Y164370D01*
X181396Y164381D01*
X181363Y164392D01*
X181352Y164414D01*
X181342Y164436D01*
X181331Y164468D01*
Y164895D01*
X181320Y164884D01*
X181287Y164851D01*
X181221Y164796D01*
X181156Y164731D01*
X181057Y164654D01*
X180948Y164578D01*
X180839Y164501D01*
X180708Y164436D01*
X180697Y164425D01*
X180653Y164414D01*
X180576Y164392D01*
X180489Y164359D01*
X180380Y164326D01*
X180259Y164304D01*
X180128Y164294D01*
X179986Y164283D01*
X179866D01*
X179779Y164294D01*
X179691Y164304D01*
X179582Y164315D01*
X179374Y164370D01*
X179363D01*
X179330Y164381D01*
X179276Y164403D01*
X179221Y164425D01*
X179068Y164501D01*
X178915Y164611D01*
X178904Y164621D01*
X178882Y164643D01*
X178849Y164676D01*
X178806Y164731D01*
X178762Y164785D01*
X178707Y164862D01*
X178620Y165026D01*
Y165037D01*
X178609Y165070D01*
X178587Y165113D01*
X178576Y165190D01*
X178554Y165266D01*
X178532Y165354D01*
X178522Y165572D01*
Y165583D01*
Y165627D01*
X178532Y165693D01*
X178543Y165780D01*
X178554Y165878D01*
X178587Y165977D01*
X178620Y166086D01*
X178664Y166184D01*
X178674Y166195D01*
X178685Y166228D01*
X178718Y166283D01*
X178773Y166348D01*
X178828Y166414D01*
X178904Y166490D01*
X178981Y166567D01*
X179079Y166632D01*
X179090Y166644D01*
X179134Y166665D01*
X179188Y166698D01*
X179265Y166731D01*
X179363Y166775D01*
X179472Y166818D01*
X179604Y166862D01*
X179746Y166895D01*
X179768D01*
X179822Y166906D01*
X179899Y166928D01*
X180008Y166939D01*
X180139Y166960D01*
X180292Y166971D01*
X180467Y166982D01*
X181232D01*
Y167310D01*
Y167321D01*
Y167354D01*
Y167398D01*
X181221Y167452D01*
X181210Y167594D01*
X181177Y167736D01*
Y167747D01*
X181167Y167769D01*
X181156Y167802D01*
X181134Y167846D01*
X181079Y167955D01*
X181003Y168053D01*
Y168064D01*
X180981Y168075D01*
X180926Y168130D01*
X180828Y168195D01*
X180708Y168250D01*
X180697D01*
X180675Y168261D01*
X180631Y168272D01*
X180587Y168283D01*
X180522Y168294D01*
X180445Y168305D01*
X180259Y168316D01*
X180150D01*
X180085Y168305D01*
X179910Y168283D01*
X179735Y168239D01*
X179724D01*
X179702Y168228D01*
X179658Y168217D01*
X179604Y168195D01*
X179472Y168152D01*
X179341Y168086D01*
X179330D01*
X179308Y168075D01*
X179276Y168064D01*
X179243Y168043D01*
X179145Y167999D01*
X179046Y167944D01*
X179024Y167933D01*
X178981Y167911D01*
X178926Y167889D01*
X178882Y167879D01*
X178860D01*
X178806Y167889D01*
X178795Y167900D01*
X178762Y167944D01*
Y167955D01*
X178751Y167977D01*
X178729Y168043D01*
Y168053D01*
Y168086D01*
Y168130D01*
Y168174D01*
Y168185D01*
Y168195D01*
Y168239D01*
Y168305D01*
X178740Y168359D01*
Y168370D01*
X178762Y168403D01*
X178784Y168447D01*
X178817Y168491D01*
X178828Y168502D01*
X178871Y168534D01*
X178937Y168578D01*
X179035Y168633D01*
X179046D01*
X179068Y168644D01*
X179101Y168666D01*
X179145Y168687D01*
X179254Y168731D01*
X179396Y168786D01*
X179407D01*
X179429Y168797D01*
X179472Y168808D01*
X179527Y168830D01*
X179593Y168840D01*
X179669Y168862D01*
X179844Y168895D01*
X179855D01*
X179888Y168906D01*
X179931Y168917D01*
X179997Y168928D01*
X180063D01*
X180150Y168939D01*
X180325Y168950D01*
X180489D01*
X180598Y168939D01*
D02*
G37*
G36*
X163056Y170939D02*
X163066D01*
X163099Y170928D01*
X163143Y170917D01*
X163176Y170906D01*
X163187D01*
X163198Y170895D01*
X163241Y170852D01*
X163252Y170841D01*
X163263Y170797D01*
Y164479D01*
Y164468D01*
Y164457D01*
X163241Y164414D01*
X163230Y164403D01*
X163176Y164370D01*
X163165D01*
X163143Y164359D01*
X163110D01*
X163056Y164348D01*
X163012D01*
X162946Y164337D01*
X162739D01*
X162673Y164348D01*
X162662D01*
X162640Y164359D01*
X162564Y164370D01*
X162553D01*
X162542Y164381D01*
X162498Y164414D01*
Y164436D01*
X162487Y164479D01*
Y170797D01*
Y170808D01*
Y170819D01*
X162498Y170852D01*
Y170862D01*
X162520Y170873D01*
X162564Y170906D01*
X162575D01*
X162596Y170917D01*
X162629Y170928D01*
X162673Y170939D01*
X162684D01*
X162728Y170950D01*
X163001D01*
X163056Y170939D01*
D02*
G37*
G36*
X159645Y168939D02*
X159766Y168928D01*
X159897Y168906D01*
X160028Y168873D01*
X160148Y168840D01*
X160159D01*
X160203Y168818D01*
X160257Y168797D01*
X160334Y168764D01*
X160509Y168666D01*
X160596Y168600D01*
X160673Y168534D01*
X160684Y168523D01*
X160706Y168502D01*
X160738Y168458D01*
X160782Y168403D01*
X160826Y168327D01*
X160880Y168239D01*
X160924Y168141D01*
X160957Y168032D01*
Y168021D01*
X160968Y167977D01*
X160990Y167922D01*
X161012Y167835D01*
X161023Y167736D01*
X161044Y167616D01*
X161055Y167485D01*
Y167343D01*
Y164468D01*
Y164457D01*
Y164436D01*
X161033Y164414D01*
X161012Y164392D01*
X161001D01*
X160990Y164381D01*
X160957Y164370D01*
X160902Y164359D01*
X160891D01*
X160859Y164348D01*
X160793Y164337D01*
X160651D01*
X160585Y164348D01*
X160520Y164359D01*
X160509D01*
X160476Y164370D01*
X160443Y164381D01*
X160410Y164392D01*
X160400Y164414D01*
X160389Y164436D01*
X160378Y164468D01*
Y164895D01*
X160367Y164884D01*
X160334Y164851D01*
X160268Y164796D01*
X160203Y164731D01*
X160105Y164654D01*
X159995Y164578D01*
X159886Y164501D01*
X159755Y164436D01*
X159744Y164425D01*
X159700Y164414D01*
X159624Y164392D01*
X159536Y164359D01*
X159427Y164326D01*
X159307Y164304D01*
X159175Y164294D01*
X159033Y164283D01*
X158913D01*
X158826Y164294D01*
X158738Y164304D01*
X158629Y164315D01*
X158421Y164370D01*
X158410D01*
X158378Y164381D01*
X158323Y164403D01*
X158268Y164425D01*
X158115Y164501D01*
X157962Y164611D01*
X157951Y164621D01*
X157929Y164643D01*
X157897Y164676D01*
X157853Y164731D01*
X157809Y164785D01*
X157755Y164862D01*
X157667Y165026D01*
Y165037D01*
X157656Y165070D01*
X157634Y165113D01*
X157623Y165190D01*
X157601Y165266D01*
X157580Y165354D01*
X157569Y165572D01*
Y165583D01*
Y165627D01*
X157580Y165693D01*
X157591Y165780D01*
X157601Y165878D01*
X157634Y165977D01*
X157667Y166086D01*
X157711Y166184D01*
X157722Y166195D01*
X157733Y166228D01*
X157765Y166283D01*
X157820Y166348D01*
X157875Y166414D01*
X157951Y166490D01*
X158028Y166567D01*
X158126Y166632D01*
X158137Y166644D01*
X158181Y166665D01*
X158235Y166698D01*
X158312Y166731D01*
X158410Y166775D01*
X158520Y166818D01*
X158651Y166862D01*
X158793Y166895D01*
X158815D01*
X158869Y166906D01*
X158946Y166928D01*
X159055Y166939D01*
X159186Y166960D01*
X159339Y166971D01*
X159514Y166982D01*
X160279D01*
Y167310D01*
Y167321D01*
Y167354D01*
Y167398D01*
X160268Y167452D01*
X160257Y167594D01*
X160225Y167736D01*
Y167747D01*
X160214Y167769D01*
X160203Y167802D01*
X160181Y167846D01*
X160126Y167955D01*
X160050Y168053D01*
Y168064D01*
X160028Y168075D01*
X159973Y168130D01*
X159875Y168195D01*
X159755Y168250D01*
X159744D01*
X159722Y168261D01*
X159678Y168272D01*
X159634Y168283D01*
X159569Y168294D01*
X159492Y168305D01*
X159307Y168316D01*
X159197D01*
X159132Y168305D01*
X158957Y168283D01*
X158782Y168239D01*
X158771D01*
X158749Y168228D01*
X158705Y168217D01*
X158651Y168195D01*
X158520Y168152D01*
X158388Y168086D01*
X158378D01*
X158356Y168075D01*
X158323Y168064D01*
X158290Y168043D01*
X158192Y167999D01*
X158093Y167944D01*
X158071Y167933D01*
X158028Y167911D01*
X157973Y167889D01*
X157929Y167879D01*
X157907D01*
X157853Y167889D01*
X157842Y167900D01*
X157809Y167944D01*
Y167955D01*
X157798Y167977D01*
X157776Y168043D01*
Y168053D01*
Y168086D01*
Y168130D01*
Y168174D01*
Y168185D01*
Y168195D01*
Y168239D01*
Y168305D01*
X157787Y168359D01*
Y168370D01*
X157809Y168403D01*
X157831Y168447D01*
X157864Y168491D01*
X157875Y168502D01*
X157919Y168534D01*
X157984Y168578D01*
X158082Y168633D01*
X158093D01*
X158115Y168644D01*
X158148Y168666D01*
X158192Y168687D01*
X158301Y168731D01*
X158443Y168786D01*
X158454D01*
X158476Y168797D01*
X158520Y168808D01*
X158574Y168830D01*
X158640Y168840D01*
X158716Y168862D01*
X158891Y168895D01*
X158902D01*
X158935Y168906D01*
X158979Y168917D01*
X159044Y168928D01*
X159110D01*
X159197Y168939D01*
X159372Y168950D01*
X159536D01*
X159645Y168939D01*
D02*
G37*
G36*
X230679D02*
X230800Y168928D01*
X230931Y168906D01*
X231073Y168884D01*
X231215Y168840D01*
X231357Y168786D01*
X231368Y168775D01*
X231423Y168753D01*
X231488Y168720D01*
X231565Y168666D01*
X231652Y168611D01*
X231751Y168534D01*
X231849Y168447D01*
X231936Y168349D01*
X231947Y168338D01*
X231969Y168305D01*
X232013Y168239D01*
X232068Y168163D01*
X232122Y168075D01*
X232177Y167966D01*
X232231Y167846D01*
X232275Y167715D01*
Y167704D01*
X232297Y167649D01*
X232308Y167583D01*
X232330Y167485D01*
X232352Y167365D01*
X232363Y167234D01*
X232384Y167092D01*
Y166939D01*
Y166797D01*
Y166786D01*
Y166764D01*
X232374Y166698D01*
X232341Y166611D01*
X232286Y166534D01*
X232275Y166523D01*
X232231Y166501D01*
X232166Y166469D01*
X232079Y166458D01*
X229280D01*
Y166447D01*
Y166392D01*
Y166326D01*
X229291Y166239D01*
Y166141D01*
X229313Y166031D01*
X229346Y165813D01*
Y165802D01*
X229357Y165769D01*
X229379Y165714D01*
X229401Y165649D01*
X229477Y165485D01*
X229587Y165321D01*
X229597Y165310D01*
X229619Y165288D01*
X229652Y165255D01*
X229707Y165212D01*
X229761Y165157D01*
X229838Y165113D01*
X230013Y165015D01*
X230024D01*
X230057Y165004D01*
X230122Y164982D01*
X230199Y164971D01*
X230297Y164949D01*
X230406Y164927D01*
X230526Y164917D01*
X230778D01*
X230854Y164927D01*
X231029Y164938D01*
X231204Y164960D01*
X231215D01*
X231248Y164971D01*
X231292Y164982D01*
X231346Y164993D01*
X231477Y165026D01*
X231620Y165070D01*
X231630D01*
X231652Y165080D01*
X231718Y165113D01*
X231816Y165146D01*
X231904Y165179D01*
X231915D01*
X231926Y165190D01*
X231969Y165212D01*
X232024Y165223D01*
X232079Y165234D01*
X232100D01*
X232133Y165212D01*
X232144D01*
X232155Y165201D01*
X232177Y165157D01*
Y165146D01*
X232188Y165135D01*
X232199Y165070D01*
Y165059D01*
X232210Y165037D01*
Y164982D01*
Y164927D01*
Y164917D01*
Y164895D01*
X232199Y164818D01*
Y164807D01*
Y164796D01*
X232188Y164731D01*
X232177Y164709D01*
X232155Y164665D01*
X232144Y164654D01*
X232122Y164621D01*
X232100Y164600D01*
X232046Y164578D01*
X231969Y164534D01*
X231958D01*
X231947Y164523D01*
X231915Y164512D01*
X231882Y164501D01*
X231772Y164468D01*
X231630Y164425D01*
X231620D01*
X231598Y164414D01*
X231554Y164403D01*
X231499Y164392D01*
X231434Y164381D01*
X231346Y164359D01*
X231160Y164326D01*
X231150D01*
X231117Y164315D01*
X231062D01*
X230996Y164304D01*
X230909Y164294D01*
X230811D01*
X230592Y164283D01*
X230505D01*
X230406Y164294D01*
X230286Y164304D01*
X230133Y164315D01*
X229980Y164348D01*
X229827Y164381D01*
X229674Y164425D01*
X229652Y164436D01*
X229608Y164446D01*
X229532Y164490D01*
X229444Y164534D01*
X229335Y164589D01*
X229226Y164665D01*
X229117Y164753D01*
X229007Y164851D01*
X228996Y164862D01*
X228963Y164906D01*
X228920Y164971D01*
X228854Y165048D01*
X228789Y165157D01*
X228723Y165277D01*
X228657Y165419D01*
X228603Y165572D01*
Y165594D01*
X228581Y165649D01*
X228559Y165736D01*
X228537Y165867D01*
X228515Y166009D01*
X228493Y166184D01*
X228483Y166381D01*
X228472Y166589D01*
Y166600D01*
Y166611D01*
Y166676D01*
X228483Y166786D01*
X228493Y166917D01*
X228504Y167070D01*
X228526Y167234D01*
X228559Y167409D01*
X228603Y167572D01*
X228614Y167594D01*
X228625Y167649D01*
X228657Y167726D01*
X228712Y167835D01*
X228767Y167944D01*
X228832Y168075D01*
X228920Y168195D01*
X229007Y168316D01*
X229018Y168327D01*
X229051Y168370D01*
X229117Y168425D01*
X229193Y168491D01*
X229280Y168567D01*
X229390Y168644D01*
X229521Y168720D01*
X229652Y168786D01*
X229674Y168797D01*
X229718Y168808D01*
X229794Y168840D01*
X229903Y168873D01*
X230024Y168895D01*
X230177Y168928D01*
X230330Y168939D01*
X230505Y168950D01*
X230592D01*
X230679Y168939D01*
D02*
G37*
G36*
X146677Y186428D02*
X146906D01*
X147162Y186402D01*
X147442Y186377D01*
X147748Y186326D01*
X148412Y186198D01*
X149100Y186020D01*
X149738Y185764D01*
X150044Y185611D01*
X150325Y185433D01*
X150350D01*
X150376Y185382D01*
X150555Y185254D01*
X150784Y184999D01*
X151065Y184667D01*
X151218Y184463D01*
X151345Y184234D01*
X151498Y183953D01*
X151626Y183672D01*
X151753Y183366D01*
X151856Y183035D01*
X151932Y182652D01*
X152008Y182270D01*
X147927Y182040D01*
Y182091D01*
X147901Y182193D01*
X147850Y182371D01*
X147774Y182576D01*
X147672Y182780D01*
X147570Y183009D01*
X147417Y183239D01*
X147238Y183417D01*
X147213Y183443D01*
X147136Y183494D01*
X147034Y183545D01*
X146881Y183647D01*
X146677Y183724D01*
X146422Y183775D01*
X146141Y183826D01*
X145810Y183851D01*
X145682D01*
X145554Y183826D01*
X145376Y183800D01*
X144993Y183724D01*
X144815Y183622D01*
X144662Y183519D01*
X144636Y183494D01*
X144611Y183468D01*
X144483Y183315D01*
X144355Y183060D01*
X144330Y182907D01*
X144305Y182754D01*
Y182729D01*
Y182703D01*
X144355Y182550D01*
X144432Y182346D01*
X144509Y182244D01*
X144611Y182142D01*
X144636D01*
X144687Y182091D01*
X144764Y182040D01*
X144917Y181963D01*
X145095Y181887D01*
X145350Y181810D01*
X145657Y181708D01*
X146039Y181632D01*
X146065D01*
X146167Y181606D01*
X146320Y181581D01*
X146498Y181530D01*
X146728Y181479D01*
X147009Y181402D01*
X147315Y181326D01*
X147621Y181249D01*
X148284Y181070D01*
X148973Y180841D01*
X149585Y180611D01*
X149866Y180509D01*
X150121Y180382D01*
X150146D01*
X150172Y180356D01*
X150325Y180280D01*
X150529Y180152D01*
X150810Y179974D01*
X151090Y179744D01*
X151396Y179489D01*
X151677Y179183D01*
X151907Y178851D01*
X151932Y178800D01*
X151983Y178698D01*
X152085Y178494D01*
X152187Y178239D01*
X152289Y177933D01*
X152391Y177601D01*
X152442Y177193D01*
X152468Y176785D01*
Y176759D01*
Y176734D01*
Y176657D01*
Y176555D01*
X152417Y176300D01*
X152366Y175969D01*
X152289Y175586D01*
X152136Y175152D01*
X151957Y174718D01*
X151702Y174285D01*
X151677Y174234D01*
X151575Y174106D01*
X151396Y173902D01*
X151167Y173647D01*
X150861Y173366D01*
X150503Y173086D01*
X150095Y172831D01*
X149611Y172576D01*
X149585D01*
X149560Y172550D01*
X149483Y172525D01*
X149381Y172499D01*
X149253Y172448D01*
X149075Y172397D01*
X148896Y172346D01*
X148692Y172295D01*
X148207Y172193D01*
X147621Y172091D01*
X146983Y172040D01*
X146243Y172014D01*
X145912D01*
X145657Y172040D01*
X145376Y172065D01*
X145044Y172091D01*
X144687Y172116D01*
X144279Y172193D01*
X143463Y172346D01*
X142646Y172576D01*
X142264Y172729D01*
X141907Y172933D01*
X141575Y173137D01*
X141294Y173366D01*
X141269Y173392D01*
X141243Y173443D01*
X141167Y173520D01*
X141090Y173622D01*
X140988Y173749D01*
X140861Y173902D01*
X140733Y174106D01*
X140606Y174310D01*
X140325Y174821D01*
X140070Y175433D01*
X139891Y176096D01*
X139815Y176479D01*
X139764Y176861D01*
X143871Y177142D01*
Y177091D01*
X143896Y176963D01*
X143922Y176785D01*
X143998Y176581D01*
X144151Y176071D01*
X144279Y175815D01*
X144407Y175611D01*
X144432Y175586D01*
X144534Y175484D01*
X144687Y175356D01*
X144891Y175203D01*
X145172Y175025D01*
X145503Y174897D01*
X145886Y174795D01*
X146320Y174769D01*
X146473D01*
X146626Y174795D01*
X146855Y174821D01*
X147085Y174872D01*
X147315Y174948D01*
X147544Y175050D01*
X147748Y175178D01*
X147774Y175203D01*
X147825Y175254D01*
X147901Y175356D01*
X148003Y175458D01*
X148106Y175611D01*
X148182Y175790D01*
X148233Y175994D01*
X148259Y176198D01*
Y176224D01*
Y176300D01*
X148233Y176402D01*
X148207Y176530D01*
X148131Y176683D01*
X148055Y176836D01*
X147927Y177014D01*
X147774Y177167D01*
X147748Y177193D01*
X147672Y177244D01*
X147519Y177321D01*
X147315Y177423D01*
X147009Y177550D01*
X146626Y177703D01*
X146396Y177780D01*
X146141Y177831D01*
X145861Y177907D01*
X145554Y177984D01*
X145529D01*
X145427Y178009D01*
X145274Y178060D01*
X145095Y178086D01*
X144866Y178162D01*
X144585Y178239D01*
X144305Y178315D01*
X143998Y178418D01*
X143310Y178673D01*
X142646Y178953D01*
X142034Y179285D01*
X141753Y179463D01*
X141498Y179667D01*
Y179693D01*
X141447Y179718D01*
X141320Y179846D01*
X141116Y180076D01*
X140912Y180407D01*
X140682Y180790D01*
X140478Y181249D01*
X140350Y181759D01*
X140325Y182040D01*
X140299Y182346D01*
Y182371D01*
Y182397D01*
Y182525D01*
X140325Y182754D01*
X140376Y183009D01*
X140453Y183315D01*
X140554Y183672D01*
X140708Y184030D01*
X140912Y184387D01*
X140937Y184438D01*
X141039Y184540D01*
X141192Y184718D01*
X141396Y184948D01*
X141651Y185178D01*
X141983Y185433D01*
X142366Y185662D01*
X142799Y185892D01*
X142825D01*
X142850Y185917D01*
X142927Y185943D01*
X143029Y185968D01*
X143157Y186020D01*
X143310Y186071D01*
X143488Y186121D01*
X143692Y186172D01*
X143922Y186223D01*
X144202Y186275D01*
X144789Y186377D01*
X145478Y186428D01*
X146243Y186453D01*
X146498D01*
X146677Y186428D01*
D02*
G37*
G36*
X161626D02*
X161855D01*
X162110Y186402D01*
X162391Y186377D01*
X162697Y186326D01*
X163386Y186198D01*
X164075Y185994D01*
X164738Y185739D01*
X165044Y185560D01*
X165350Y185382D01*
X165376D01*
X165427Y185331D01*
X165503Y185280D01*
X165605Y185178D01*
X165733Y185076D01*
X165886Y184923D01*
X166039Y184769D01*
X166218Y184565D01*
X166396Y184361D01*
X166575Y184106D01*
X166779Y183851D01*
X166957Y183545D01*
X167136Y183213D01*
X167315Y182882D01*
X167468Y182499D01*
X167621Y182091D01*
X163794Y181249D01*
Y181275D01*
X163769Y181351D01*
X163718Y181479D01*
X163667Y181606D01*
X163514Y181912D01*
X163437Y182040D01*
X163361Y182167D01*
X163335Y182193D01*
X163310Y182244D01*
X163207Y182346D01*
X163105Y182448D01*
X162825Y182703D01*
X162468Y182933D01*
X162442Y182958D01*
X162391Y182984D01*
X162264Y183035D01*
X162136Y183086D01*
X161957Y183137D01*
X161753Y183162D01*
X161524Y183213D01*
X161141D01*
X161065Y183188D01*
X160784Y183162D01*
X160452Y183060D01*
X160095Y182933D01*
X159713Y182703D01*
X159355Y182422D01*
X159202Y182219D01*
X159049Y182014D01*
X159024Y181963D01*
X158947Y181861D01*
X158871Y181632D01*
X158769Y181351D01*
X158641Y180968D01*
X158565Y180509D01*
X158488Y179948D01*
X158463Y179285D01*
Y179259D01*
Y179183D01*
Y179055D01*
Y178902D01*
X158488Y178724D01*
Y178494D01*
X158539Y178009D01*
X158641Y177499D01*
X158743Y176963D01*
X158922Y176479D01*
X159024Y176275D01*
X159151Y176096D01*
X159177Y176071D01*
X159279Y175969D01*
X159458Y175841D01*
X159661Y175688D01*
X159942Y175509D01*
X160299Y175382D01*
X160682Y175280D01*
X161141Y175254D01*
X161345D01*
X161575Y175280D01*
X161855Y175331D01*
X162162Y175433D01*
X162468Y175535D01*
X162774Y175713D01*
X163029Y175943D01*
X163054Y175969D01*
X163131Y176071D01*
X163258Y176224D01*
X163386Y176453D01*
X163539Y176734D01*
X163692Y177091D01*
X163845Y177499D01*
X163973Y177984D01*
X167748Y176810D01*
Y176785D01*
X167723Y176734D01*
X167697Y176657D01*
X167672Y176555D01*
X167595Y176249D01*
X167442Y175892D01*
X167289Y175458D01*
X167059Y175025D01*
X166830Y174591D01*
X166524Y174157D01*
X166498Y174106D01*
X166371Y173979D01*
X166192Y173800D01*
X165963Y173545D01*
X165656Y173290D01*
X165325Y173035D01*
X164917Y172780D01*
X164483Y172550D01*
X164457D01*
X164432Y172525D01*
X164355Y172499D01*
X164279Y172474D01*
X163998Y172372D01*
X163641Y172295D01*
X163207Y172193D01*
X162672Y172091D01*
X162059Y172040D01*
X161396Y172014D01*
X161014D01*
X160810Y172040D01*
X160605D01*
X160350Y172065D01*
X160070Y172091D01*
X159483Y172168D01*
X158845Y172295D01*
X158233Y172448D01*
X157646Y172652D01*
X157621D01*
X157595Y172678D01*
X157519Y172729D01*
X157417Y172780D01*
X157136Y172958D01*
X156804Y173188D01*
X156422Y173520D01*
X155988Y173902D01*
X155580Y174387D01*
X155172Y174974D01*
Y174999D01*
X155121Y175050D01*
X155070Y175152D01*
X155019Y175280D01*
X154942Y175433D01*
X154840Y175637D01*
X154738Y175866D01*
X154662Y176147D01*
X154560Y176428D01*
X154457Y176759D01*
X154381Y177117D01*
X154279Y177499D01*
X154228Y177907D01*
X154177Y178341D01*
X154126Y179259D01*
Y179310D01*
Y179412D01*
X154151Y179591D01*
Y179821D01*
X154177Y180127D01*
X154228Y180458D01*
X154279Y180815D01*
X154356Y181224D01*
X154457Y181657D01*
X154585Y182091D01*
X154713Y182525D01*
X154891Y182984D01*
X155121Y183417D01*
X155350Y183826D01*
X155631Y184234D01*
X155963Y184591D01*
X155988Y184616D01*
X156039Y184667D01*
X156167Y184769D01*
X156294Y184871D01*
X156498Y185025D01*
X156728Y185178D01*
X156983Y185356D01*
X157315Y185535D01*
X157646Y185688D01*
X158054Y185866D01*
X158488Y186020D01*
X158947Y186172D01*
X159458Y186275D01*
X159993Y186377D01*
X160580Y186428D01*
X161192Y186453D01*
X161447D01*
X161626Y186428D01*
D02*
G37*
G36*
X210087Y170010D02*
X210098D01*
X210131Y169999D01*
X210175Y169988D01*
X210208Y169977D01*
X210219D01*
X210229Y169966D01*
X210273Y169922D01*
X210284Y169912D01*
X210295Y169868D01*
Y168862D01*
X211399D01*
X211443Y168840D01*
X211454D01*
X211465Y168830D01*
X211497Y168775D01*
Y168764D01*
X211508Y168753D01*
X211519Y168720D01*
X211530Y168676D01*
Y168666D01*
X211541Y168644D01*
Y168589D01*
Y168534D01*
Y168523D01*
Y168502D01*
Y168436D01*
X211519Y168359D01*
X211497Y168283D01*
X211486Y168272D01*
X211465Y168250D01*
X211432Y168228D01*
X211377Y168217D01*
X210295D01*
Y165846D01*
Y165824D01*
Y165769D01*
X210306Y165693D01*
Y165594D01*
X210350Y165376D01*
X210371Y165277D01*
X210415Y165179D01*
X210426Y165168D01*
X210437Y165146D01*
X210470Y165113D01*
X210525Y165070D01*
X210590Y165026D01*
X210667Y164993D01*
X210765Y164971D01*
X210885Y164960D01*
X211005D01*
X211071Y164971D01*
X211082D01*
X211126Y164982D01*
X211169Y165004D01*
X211224Y165015D01*
X211235Y165026D01*
X211268Y165037D01*
X211333Y165070D01*
X211344D01*
X211366Y165080D01*
X211432Y165091D01*
X211443D01*
X211475Y165070D01*
X211486Y165059D01*
X211508Y165026D01*
Y165015D01*
X211519Y165004D01*
X211530Y164938D01*
Y164927D01*
X211541Y164906D01*
Y164851D01*
Y164796D01*
Y164774D01*
Y164720D01*
X211530Y164654D01*
X211519Y164578D01*
Y164567D01*
X211508Y164534D01*
X211486Y164490D01*
X211454Y164457D01*
X211443D01*
X211432Y164436D01*
X211399Y164414D01*
X211344Y164392D01*
X211333D01*
X211290Y164381D01*
X211235Y164370D01*
X211169Y164348D01*
X211158D01*
X211115Y164337D01*
X211049Y164326D01*
X210973Y164315D01*
X210951D01*
X210907Y164304D01*
X210831Y164294D01*
X210634D01*
X210557Y164304D01*
X210470Y164315D01*
X210371Y164326D01*
X210186Y164370D01*
X210175D01*
X210153Y164392D01*
X210109Y164403D01*
X210055Y164436D01*
X209923Y164523D01*
X209803Y164632D01*
X209792Y164643D01*
X209781Y164665D01*
X209749Y164709D01*
X209716Y164763D01*
X209683Y164829D01*
X209650Y164906D01*
X209585Y165091D01*
Y165102D01*
X209574Y165135D01*
X209563Y165201D01*
X209552Y165277D01*
X209541Y165365D01*
X209530Y165474D01*
X209519Y165594D01*
Y165725D01*
Y168217D01*
X208907D01*
X208874Y168228D01*
X208830Y168250D01*
X208798Y168283D01*
Y168294D01*
X208787Y168349D01*
X208776Y168425D01*
X208765Y168534D01*
Y168545D01*
Y168589D01*
Y168633D01*
X208776Y168676D01*
Y168687D01*
X208787Y168709D01*
Y168742D01*
X208798Y168775D01*
Y168786D01*
X208808Y168797D01*
X208852Y168840D01*
X208863D01*
X208874Y168851D01*
X208918Y168862D01*
X209519D01*
Y169868D01*
Y169879D01*
Y169890D01*
X209530Y169922D01*
Y169933D01*
X209552Y169944D01*
X209595Y169977D01*
X209606D01*
X209628Y169988D01*
X209661Y169999D01*
X209705Y170010D01*
X209716D01*
X209759Y170021D01*
X210033D01*
X210087Y170010D01*
D02*
G37*
G36*
X184194D02*
X184205D01*
X184238Y169999D01*
X184282Y169988D01*
X184314Y169977D01*
X184325D01*
X184336Y169966D01*
X184380Y169922D01*
X184391Y169912D01*
X184402Y169868D01*
Y168862D01*
X185506D01*
X185549Y168840D01*
X185560D01*
X185571Y168830D01*
X185604Y168775D01*
Y168764D01*
X185615Y168753D01*
X185626Y168720D01*
X185637Y168676D01*
Y168666D01*
X185648Y168644D01*
Y168589D01*
Y168534D01*
Y168523D01*
Y168502D01*
Y168436D01*
X185626Y168359D01*
X185604Y168283D01*
X185593Y168272D01*
X185571Y168250D01*
X185539Y168228D01*
X185484Y168217D01*
X184402D01*
Y165846D01*
Y165824D01*
Y165769D01*
X184413Y165693D01*
Y165594D01*
X184457Y165376D01*
X184478Y165277D01*
X184522Y165179D01*
X184533Y165168D01*
X184544Y165146D01*
X184577Y165113D01*
X184631Y165070D01*
X184697Y165026D01*
X184774Y164993D01*
X184872Y164971D01*
X184992Y164960D01*
X185112D01*
X185178Y164971D01*
X185189D01*
X185232Y164982D01*
X185276Y165004D01*
X185331Y165015D01*
X185342Y165026D01*
X185375Y165037D01*
X185440Y165070D01*
X185451D01*
X185473Y165080D01*
X185539Y165091D01*
X185549D01*
X185582Y165070D01*
X185593Y165059D01*
X185615Y165026D01*
Y165015D01*
X185626Y165004D01*
X185637Y164938D01*
Y164927D01*
X185648Y164906D01*
Y164851D01*
Y164796D01*
Y164774D01*
Y164720D01*
X185637Y164654D01*
X185626Y164578D01*
Y164567D01*
X185615Y164534D01*
X185593Y164490D01*
X185560Y164457D01*
X185549D01*
X185539Y164436D01*
X185506Y164414D01*
X185451Y164392D01*
X185440D01*
X185397Y164381D01*
X185342Y164370D01*
X185276Y164348D01*
X185265D01*
X185222Y164337D01*
X185156Y164326D01*
X185080Y164315D01*
X185058D01*
X185014Y164304D01*
X184937Y164294D01*
X184741D01*
X184664Y164304D01*
X184577Y164315D01*
X184478Y164326D01*
X184293Y164370D01*
X184282D01*
X184260Y164392D01*
X184216Y164403D01*
X184161Y164436D01*
X184030Y164523D01*
X183910Y164632D01*
X183899Y164643D01*
X183888Y164665D01*
X183855Y164709D01*
X183823Y164763D01*
X183790Y164829D01*
X183757Y164906D01*
X183691Y165091D01*
Y165102D01*
X183680Y165135D01*
X183669Y165201D01*
X183659Y165277D01*
X183648Y165365D01*
X183637Y165474D01*
X183626Y165594D01*
Y165725D01*
Y168217D01*
X183014D01*
X182981Y168228D01*
X182937Y168250D01*
X182904Y168283D01*
Y168294D01*
X182894Y168349D01*
X182883Y168425D01*
X182872Y168534D01*
Y168545D01*
Y168589D01*
Y168633D01*
X182883Y168676D01*
Y168687D01*
X182894Y168709D01*
Y168742D01*
X182904Y168775D01*
Y168786D01*
X182915Y168797D01*
X182959Y168840D01*
X182970D01*
X182981Y168851D01*
X183025Y168862D01*
X183626D01*
Y169868D01*
Y169879D01*
Y169890D01*
X183637Y169922D01*
Y169933D01*
X183659Y169944D01*
X183702Y169977D01*
X183713D01*
X183735Y169988D01*
X183768Y169999D01*
X183812Y170010D01*
X183823D01*
X183866Y170021D01*
X184140D01*
X184194Y170010D01*
D02*
G37*
G36*
X155372D02*
X155383D01*
X155415Y169999D01*
X155459Y169988D01*
X155492Y169977D01*
X155503D01*
X155514Y169966D01*
X155558Y169922D01*
X155569Y169912D01*
X155579Y169868D01*
Y168862D01*
X156683D01*
X156727Y168840D01*
X156738D01*
X156749Y168830D01*
X156782Y168775D01*
Y168764D01*
X156793Y168753D01*
X156804Y168720D01*
X156815Y168676D01*
Y168666D01*
X156825Y168644D01*
Y168589D01*
Y168534D01*
Y168523D01*
Y168502D01*
Y168436D01*
X156804Y168359D01*
X156782Y168283D01*
X156771Y168272D01*
X156749Y168250D01*
X156716Y168228D01*
X156661Y168217D01*
X155579D01*
Y165846D01*
Y165824D01*
Y165769D01*
X155590Y165693D01*
Y165594D01*
X155634Y165376D01*
X155656Y165277D01*
X155700Y165179D01*
X155711Y165168D01*
X155721Y165146D01*
X155754Y165113D01*
X155809Y165070D01*
X155875Y165026D01*
X155951Y164993D01*
X156049Y164971D01*
X156170Y164960D01*
X156290D01*
X156356Y164971D01*
X156366D01*
X156410Y164982D01*
X156454Y165004D01*
X156509Y165015D01*
X156519Y165026D01*
X156552Y165037D01*
X156618Y165070D01*
X156629D01*
X156651Y165080D01*
X156716Y165091D01*
X156727D01*
X156760Y165070D01*
X156771Y165059D01*
X156793Y165026D01*
Y165015D01*
X156804Y165004D01*
X156815Y164938D01*
Y164927D01*
X156825Y164906D01*
Y164851D01*
Y164796D01*
Y164774D01*
Y164720D01*
X156815Y164654D01*
X156804Y164578D01*
Y164567D01*
X156793Y164534D01*
X156771Y164490D01*
X156738Y164457D01*
X156727D01*
X156716Y164436D01*
X156683Y164414D01*
X156629Y164392D01*
X156618D01*
X156574Y164381D01*
X156519Y164370D01*
X156454Y164348D01*
X156443D01*
X156399Y164337D01*
X156334Y164326D01*
X156257Y164315D01*
X156235D01*
X156192Y164304D01*
X156115Y164294D01*
X155918D01*
X155842Y164304D01*
X155754Y164315D01*
X155656Y164326D01*
X155470Y164370D01*
X155459D01*
X155437Y164392D01*
X155394Y164403D01*
X155339Y164436D01*
X155208Y164523D01*
X155088Y164632D01*
X155077Y164643D01*
X155066Y164665D01*
X155033Y164709D01*
X155000Y164763D01*
X154967Y164829D01*
X154935Y164906D01*
X154869Y165091D01*
Y165102D01*
X154858Y165135D01*
X154847Y165201D01*
X154836Y165277D01*
X154825Y165365D01*
X154814Y165474D01*
X154803Y165594D01*
Y165725D01*
Y168217D01*
X154191D01*
X154158Y168228D01*
X154115Y168250D01*
X154082Y168283D01*
Y168294D01*
X154071Y168349D01*
X154060Y168425D01*
X154049Y168534D01*
Y168545D01*
Y168589D01*
Y168633D01*
X154060Y168676D01*
Y168687D01*
X154071Y168709D01*
Y168742D01*
X154082Y168775D01*
Y168786D01*
X154093Y168797D01*
X154137Y168840D01*
X154148D01*
X154158Y168851D01*
X154202Y168862D01*
X154803D01*
Y169868D01*
Y169879D01*
Y169890D01*
X154814Y169922D01*
Y169933D01*
X154836Y169944D01*
X154880Y169977D01*
X154891D01*
X154913Y169988D01*
X154946Y169999D01*
X154989Y170010D01*
X155000D01*
X155044Y170021D01*
X155317D01*
X155372Y170010D01*
D02*
G37*
G36*
X191332Y170939D02*
X191342D01*
X191375Y170928D01*
X191419Y170917D01*
X191452Y170906D01*
X191463D01*
X191474Y170895D01*
X191517Y170852D01*
X191528Y170841D01*
X191539Y170797D01*
Y168250D01*
X191550Y168261D01*
X191594Y168305D01*
X191659Y168370D01*
X191747Y168447D01*
X191845Y168534D01*
X191955Y168622D01*
X192086Y168698D01*
X192206Y168775D01*
X192217Y168786D01*
X192271Y168808D01*
X192337Y168830D01*
X192424Y168862D01*
X192523Y168895D01*
X192643Y168928D01*
X192763Y168939D01*
X192894Y168950D01*
X192971D01*
X193047Y168939D01*
X193146Y168928D01*
X193255Y168917D01*
X193375Y168884D01*
X193496Y168851D01*
X193605Y168797D01*
X193616Y168786D01*
X193660Y168775D01*
X193703Y168742D01*
X193780Y168698D01*
X193845Y168644D01*
X193933Y168578D01*
X194009Y168502D01*
X194075Y168414D01*
X194086Y168403D01*
X194108Y168370D01*
X194141Y168316D01*
X194173Y168250D01*
X194217Y168174D01*
X194261Y168075D01*
X194304Y167966D01*
X194337Y167846D01*
Y167835D01*
X194348Y167791D01*
X194370Y167726D01*
X194381Y167627D01*
X194403Y167518D01*
X194414Y167387D01*
X194425Y167234D01*
Y167070D01*
Y164479D01*
Y164468D01*
Y164457D01*
X194403Y164414D01*
X194392Y164403D01*
X194337Y164370D01*
X194326D01*
X194304Y164359D01*
X194272D01*
X194217Y164348D01*
X194173D01*
X194108Y164337D01*
X193900D01*
X193834Y164348D01*
X193824D01*
X193802Y164359D01*
X193725Y164370D01*
X193714D01*
X193703Y164381D01*
X193660Y164414D01*
Y164436D01*
X193649Y164479D01*
Y166971D01*
Y166982D01*
Y167037D01*
Y167103D01*
X193638Y167179D01*
X193627Y167365D01*
X193605Y167463D01*
X193583Y167551D01*
Y167562D01*
X193572Y167594D01*
X193561Y167627D01*
X193539Y167682D01*
X193496Y167813D01*
X193419Y167933D01*
Y167944D01*
X193397Y167966D01*
X193343Y168032D01*
X193255Y168108D01*
X193135Y168185D01*
X193124D01*
X193102Y168195D01*
X193069Y168217D01*
X193026Y168228D01*
X192894Y168261D01*
X192741Y168272D01*
X192687D01*
X192632Y168261D01*
X192556Y168250D01*
X192468Y168217D01*
X192370Y168185D01*
X192261Y168130D01*
X192151Y168053D01*
X192140Y168043D01*
X192097Y168021D01*
X192042Y167966D01*
X191965Y167900D01*
X191867Y167813D01*
X191769Y167715D01*
X191659Y167594D01*
X191539Y167452D01*
Y164479D01*
Y164468D01*
Y164457D01*
X191517Y164414D01*
X191506Y164403D01*
X191452Y164370D01*
X191441D01*
X191419Y164359D01*
X191386D01*
X191332Y164348D01*
X191288D01*
X191222Y164337D01*
X191015D01*
X190949Y164348D01*
X190938D01*
X190916Y164359D01*
X190840Y164370D01*
X190829D01*
X190818Y164381D01*
X190774Y164414D01*
Y164436D01*
X190763Y164479D01*
Y170797D01*
Y170808D01*
Y170819D01*
X190774Y170852D01*
Y170862D01*
X190796Y170873D01*
X190840Y170906D01*
X190850D01*
X190872Y170917D01*
X190905Y170928D01*
X190949Y170939D01*
X190960D01*
X191004Y170950D01*
X191277D01*
X191332Y170939D01*
D02*
G37*
G36*
X214569Y168939D02*
X214580D01*
X214612Y168928D01*
X214667Y168917D01*
X214722Y168906D01*
X214733D01*
X214776Y168895D01*
X214820Y168884D01*
X214875Y168862D01*
X214886D01*
X214918Y168851D01*
X214951Y168840D01*
X214973Y168818D01*
X214984D01*
X214995Y168808D01*
X215017Y168775D01*
X215028Y168764D01*
Y168720D01*
Y168709D01*
X215039Y168698D01*
Y168666D01*
Y168622D01*
Y168611D01*
X215050Y168578D01*
Y168534D01*
Y168458D01*
Y168436D01*
Y168392D01*
Y168338D01*
X215039Y168283D01*
Y168272D01*
Y168250D01*
X215017Y168174D01*
Y168163D01*
X215006Y168152D01*
X214984Y168108D01*
X214973Y168097D01*
X214929Y168086D01*
X214896D01*
X214831Y168108D01*
X214820D01*
X214798Y168119D01*
X214755Y168141D01*
X214711Y168152D01*
X214700D01*
X214667Y168163D01*
X214623Y168185D01*
X214558Y168195D01*
X214547D01*
X214503Y168207D01*
X214438Y168217D01*
X214350D01*
X214295Y168207D01*
X214230Y168195D01*
X214142Y168163D01*
X214121Y168152D01*
X214077Y168130D01*
X214000Y168075D01*
X213902Y168010D01*
X213880Y167988D01*
X213825Y167933D01*
X213738Y167835D01*
X213640Y167715D01*
X213629Y167704D01*
X213618Y167682D01*
X213585Y167649D01*
X213552Y167594D01*
X213508Y167529D01*
X213465Y167452D01*
X213345Y167277D01*
Y164479D01*
Y164468D01*
Y164457D01*
X213323Y164414D01*
X213312Y164403D01*
X213257Y164370D01*
X213246D01*
X213224Y164359D01*
X213192D01*
X213137Y164348D01*
X213093D01*
X213028Y164337D01*
X212820D01*
X212754Y164348D01*
X212743D01*
X212721Y164359D01*
X212645Y164370D01*
X212634D01*
X212623Y164381D01*
X212579Y164414D01*
Y164436D01*
X212568Y164479D01*
Y168731D01*
Y168742D01*
Y168753D01*
X212579Y168797D01*
X212590Y168808D01*
X212612Y168830D01*
X212634Y168840D01*
X212645D01*
X212667Y168851D01*
X212700Y168862D01*
X212743Y168873D01*
X212754D01*
X212787Y168884D01*
X213028D01*
X213082Y168873D01*
X213093D01*
X213126Y168862D01*
X213159Y168851D01*
X213192Y168840D01*
X213202D01*
X213213Y168830D01*
X213235Y168818D01*
X213246Y168797D01*
X213257Y168786D01*
X213268Y168731D01*
Y168108D01*
X213279Y168119D01*
X213301Y168152D01*
X213334Y168195D01*
X213377Y168261D01*
X213476Y168392D01*
X213596Y168523D01*
X213607Y168534D01*
X213618Y168556D01*
X213694Y168622D01*
X213782Y168698D01*
X213880Y168775D01*
X213891D01*
X213902Y168786D01*
X213967Y168830D01*
X214055Y168873D01*
X214153Y168906D01*
X214164D01*
X214175Y168917D01*
X214241Y168928D01*
X214328Y168939D01*
X214427Y168950D01*
X214514D01*
X214569Y168939D01*
D02*
G37*
G36*
X177428D02*
X177439D01*
X177472Y168928D01*
X177527Y168917D01*
X177582Y168906D01*
X177593D01*
X177636Y168895D01*
X177680Y168884D01*
X177734Y168862D01*
X177745D01*
X177778Y168851D01*
X177811Y168840D01*
X177833Y168818D01*
X177844D01*
X177855Y168808D01*
X177877Y168775D01*
X177888Y168764D01*
Y168720D01*
Y168709D01*
X177899Y168698D01*
Y168666D01*
Y168622D01*
Y168611D01*
X177909Y168578D01*
Y168534D01*
Y168458D01*
Y168436D01*
Y168392D01*
Y168338D01*
X177899Y168283D01*
Y168272D01*
Y168250D01*
X177877Y168174D01*
Y168163D01*
X177866Y168152D01*
X177844Y168108D01*
X177833Y168097D01*
X177789Y168086D01*
X177756D01*
X177691Y168108D01*
X177680D01*
X177658Y168119D01*
X177614Y168141D01*
X177571Y168152D01*
X177560D01*
X177527Y168163D01*
X177483Y168185D01*
X177418Y168195D01*
X177407D01*
X177363Y168207D01*
X177297Y168217D01*
X177210D01*
X177155Y168207D01*
X177090Y168195D01*
X177002Y168163D01*
X176980Y168152D01*
X176937Y168130D01*
X176860Y168075D01*
X176762Y168010D01*
X176740Y167988D01*
X176685Y167933D01*
X176598Y167835D01*
X176499Y167715D01*
X176488Y167704D01*
X176478Y167682D01*
X176445Y167649D01*
X176412Y167594D01*
X176368Y167529D01*
X176325Y167452D01*
X176204Y167277D01*
Y164479D01*
Y164468D01*
Y164457D01*
X176182Y164414D01*
X176172Y164403D01*
X176117Y164370D01*
X176106D01*
X176084Y164359D01*
X176051D01*
X175997Y164348D01*
X175953D01*
X175887Y164337D01*
X175680D01*
X175614Y164348D01*
X175603D01*
X175581Y164359D01*
X175505Y164370D01*
X175494D01*
X175483Y164381D01*
X175439Y164414D01*
Y164436D01*
X175428Y164479D01*
Y168731D01*
Y168742D01*
Y168753D01*
X175439Y168797D01*
X175450Y168808D01*
X175472Y168830D01*
X175494Y168840D01*
X175505D01*
X175527Y168851D01*
X175559Y168862D01*
X175603Y168873D01*
X175614D01*
X175647Y168884D01*
X175887D01*
X175942Y168873D01*
X175953D01*
X175986Y168862D01*
X176019Y168851D01*
X176051Y168840D01*
X176062D01*
X176073Y168830D01*
X176095Y168818D01*
X176106Y168797D01*
X176117Y168786D01*
X176128Y168731D01*
Y168108D01*
X176139Y168119D01*
X176161Y168152D01*
X176193Y168195D01*
X176237Y168261D01*
X176336Y168392D01*
X176456Y168523D01*
X176467Y168534D01*
X176478Y168556D01*
X176554Y168622D01*
X176642Y168698D01*
X176740Y168775D01*
X176751D01*
X176762Y168786D01*
X176827Y168830D01*
X176915Y168873D01*
X177013Y168906D01*
X177024D01*
X177035Y168917D01*
X177101Y168928D01*
X177188Y168939D01*
X177286Y168950D01*
X177374D01*
X177428Y168939D01*
D02*
G37*
G36*
X207071D02*
X207191Y168917D01*
X207224D01*
X207257Y168906D01*
X207300Y168895D01*
X207399Y168873D01*
X207497Y168840D01*
X207508D01*
X207519Y168830D01*
X207584Y168818D01*
X207661Y168786D01*
X207737Y168753D01*
X207759Y168742D01*
X207792Y168720D01*
X207836Y168698D01*
X207879Y168666D01*
X207890D01*
X207912Y168644D01*
X207934Y168622D01*
X207945Y168600D01*
X207956Y168578D01*
X207967Y168534D01*
Y168523D01*
X207978Y168512D01*
X207989Y168447D01*
Y168436D01*
X208000Y168414D01*
Y168370D01*
Y168327D01*
Y168316D01*
Y168272D01*
Y168228D01*
X207989Y168174D01*
Y168163D01*
X207978Y168141D01*
X207956Y168086D01*
X207945Y168064D01*
X207923Y168032D01*
X207912D01*
X207869Y168021D01*
X207858D01*
X207836Y168032D01*
X207803Y168043D01*
X207748Y168064D01*
X207737Y168075D01*
X207694Y168097D01*
X207628Y168130D01*
X207541Y168174D01*
X207519Y168185D01*
X207464Y168217D01*
X207366Y168250D01*
X207246Y168294D01*
X207235D01*
X207213Y168305D01*
X207180Y168316D01*
X207136Y168327D01*
X207005Y168338D01*
X206852Y168349D01*
X206786D01*
X206732Y168338D01*
X206623Y168327D01*
X206502Y168294D01*
X206491D01*
X206481Y168283D01*
X206415Y168261D01*
X206327Y168217D01*
X206251Y168163D01*
X206240Y168152D01*
X206196Y168108D01*
X206153Y168043D01*
X206109Y167966D01*
X206098Y167944D01*
X206087Y167900D01*
X206076Y167824D01*
X206065Y167726D01*
Y167715D01*
Y167693D01*
Y167660D01*
X206076Y167616D01*
X206098Y167518D01*
X206153Y167409D01*
X206174Y167387D01*
X206218Y167332D01*
X206295Y167266D01*
X206393Y167190D01*
X206404D01*
X206426Y167179D01*
X206448Y167157D01*
X206491Y167135D01*
X206601Y167081D01*
X206743Y167026D01*
X206754D01*
X206776Y167015D01*
X206819Y166993D01*
X206863Y166982D01*
X206994Y166928D01*
X207136Y166873D01*
X207147D01*
X207169Y166862D01*
X207213Y166840D01*
X207257Y166818D01*
X207388Y166764D01*
X207530Y166687D01*
X207541D01*
X207562Y166665D01*
X207595Y166644D01*
X207650Y166622D01*
X207759Y166545D01*
X207879Y166447D01*
X207890Y166436D01*
X207901Y166425D01*
X207934Y166392D01*
X207967Y166359D01*
X208043Y166250D01*
X208120Y166108D01*
Y166097D01*
X208131Y166075D01*
X208153Y166031D01*
X208175Y165977D01*
X208186Y165911D01*
X208207Y165824D01*
X208218Y165638D01*
Y165627D01*
Y165583D01*
X208207Y165518D01*
Y165441D01*
X208186Y165354D01*
X208164Y165255D01*
X208131Y165157D01*
X208087Y165059D01*
Y165048D01*
X208065Y165015D01*
X208032Y164971D01*
X208000Y164917D01*
X207890Y164774D01*
X207748Y164632D01*
X207737Y164621D01*
X207705Y164600D01*
X207661Y164578D01*
X207606Y164534D01*
X207530Y164490D01*
X207431Y164446D01*
X207333Y164403D01*
X207224Y164370D01*
X207213D01*
X207169Y164359D01*
X207103Y164348D01*
X207027Y164326D01*
X206929Y164315D01*
X206808Y164294D01*
X206677Y164283D01*
X206459D01*
X206404Y164294D01*
X206262Y164304D01*
X206109Y164326D01*
X206098D01*
X206076Y164337D01*
X206043D01*
X205989Y164348D01*
X205879Y164370D01*
X205748Y164403D01*
X205737D01*
X205726Y164414D01*
X205650Y164436D01*
X205562Y164468D01*
X205464Y164512D01*
X205442Y164523D01*
X205398Y164556D01*
X205344Y164589D01*
X205300Y164621D01*
X205289Y164632D01*
X205278Y164654D01*
X205256Y164698D01*
X205234Y164753D01*
Y164763D01*
X205223Y164818D01*
X205213Y164884D01*
Y164982D01*
Y164993D01*
Y165037D01*
Y165080D01*
Y165135D01*
Y165146D01*
X205223Y165168D01*
Y165201D01*
X205234Y165234D01*
Y165244D01*
X205245Y165255D01*
X205267Y165277D01*
X205278Y165288D01*
X205289D01*
X205300Y165299D01*
X205344Y165310D01*
X205355D01*
X205377Y165299D01*
X205420Y165288D01*
X205486Y165244D01*
X205508Y165234D01*
X205562Y165201D01*
X205639Y165157D01*
X205737Y165102D01*
X205748D01*
X205770Y165091D01*
X205792Y165080D01*
X205836Y165059D01*
X205945Y165015D01*
X206087Y164960D01*
X206098D01*
X206120Y164949D01*
X206164Y164938D01*
X206229D01*
X206295Y164927D01*
X206382Y164917D01*
X206568Y164906D01*
X206688D01*
X206797Y164917D01*
X206918Y164938D01*
X206929D01*
X206950Y164949D01*
X207016Y164971D01*
X207103Y165004D01*
X207202Y165059D01*
X207213D01*
X207224Y165070D01*
X207267Y165124D01*
X207333Y165190D01*
X207388Y165277D01*
Y165288D01*
X207399Y165299D01*
X207420Y165365D01*
X207442Y165463D01*
X207453Y165583D01*
Y165594D01*
Y165616D01*
Y165649D01*
X207442Y165682D01*
X207410Y165780D01*
X207355Y165878D01*
Y165889D01*
X207344Y165900D01*
X207289Y165955D01*
X207213Y166031D01*
X207114Y166097D01*
X207103D01*
X207092Y166119D01*
X207060Y166130D01*
X207016Y166152D01*
X206907Y166206D01*
X206776Y166261D01*
X206765D01*
X206743Y166272D01*
X206710Y166294D01*
X206655Y166305D01*
X206535Y166359D01*
X206382Y166414D01*
X206371D01*
X206349Y166425D01*
X206306Y166447D01*
X206262Y166469D01*
X206131Y166534D01*
X205989Y166600D01*
X205978D01*
X205956Y166622D01*
X205923Y166644D01*
X205879Y166665D01*
X205770Y166742D01*
X205650Y166840D01*
X205639Y166851D01*
X205628Y166873D01*
X205595Y166895D01*
X205562Y166939D01*
X205486Y167048D01*
X205409Y167190D01*
Y167201D01*
X205398Y167223D01*
X205387Y167266D01*
X205366Y167332D01*
X205355Y167398D01*
X205333Y167485D01*
X205322Y167682D01*
Y167693D01*
Y167726D01*
Y167769D01*
X205333Y167835D01*
X205355Y167988D01*
X205409Y168163D01*
Y168174D01*
X205431Y168207D01*
X205453Y168250D01*
X205486Y168305D01*
X205573Y168436D01*
X205694Y168567D01*
X205704Y168578D01*
X205726Y168600D01*
X205770Y168633D01*
X205825Y168666D01*
X205901Y168709D01*
X205978Y168753D01*
X206174Y168840D01*
X206185D01*
X206229Y168862D01*
X206284Y168873D01*
X206371Y168895D01*
X206469Y168917D01*
X206590Y168928D01*
X206721Y168950D01*
X206961D01*
X207071Y168939D01*
D02*
G37*
G36*
X235849D02*
X235948Y168928D01*
X236057Y168917D01*
X236177Y168884D01*
X236297Y168851D01*
X236407Y168797D01*
X236418Y168786D01*
X236461Y168775D01*
X236505Y168742D01*
X236582Y168698D01*
X236647Y168644D01*
X236735Y168578D01*
X236811Y168502D01*
X236877Y168414D01*
X236888Y168403D01*
X236910Y168370D01*
X236942Y168316D01*
X236975Y168250D01*
X237019Y168174D01*
X237063Y168075D01*
X237106Y167966D01*
X237139Y167846D01*
Y167835D01*
X237150Y167791D01*
X237172Y167726D01*
X237183Y167627D01*
X237205Y167518D01*
X237216Y167387D01*
X237227Y167234D01*
Y167070D01*
Y164479D01*
Y164468D01*
Y164457D01*
X237205Y164414D01*
X237194Y164403D01*
X237139Y164370D01*
X237128D01*
X237106Y164359D01*
X237073D01*
X237019Y164348D01*
X236975D01*
X236910Y164337D01*
X236702D01*
X236636Y164348D01*
X236625D01*
X236603Y164359D01*
X236527Y164370D01*
X236516D01*
X236505Y164381D01*
X236461Y164414D01*
Y164436D01*
X236451Y164479D01*
Y166971D01*
Y166982D01*
Y167037D01*
Y167103D01*
X236440Y167179D01*
X236429Y167365D01*
X236407Y167463D01*
X236385Y167551D01*
Y167562D01*
X236374Y167594D01*
X236363Y167627D01*
X236341Y167682D01*
X236297Y167813D01*
X236221Y167933D01*
Y167944D01*
X236199Y167966D01*
X236144Y168032D01*
X236057Y168108D01*
X235937Y168185D01*
X235926D01*
X235904Y168195D01*
X235871Y168217D01*
X235827Y168228D01*
X235696Y168261D01*
X235543Y168272D01*
X235489D01*
X235434Y168261D01*
X235357Y168250D01*
X235270Y168217D01*
X235172Y168185D01*
X235062Y168130D01*
X234953Y168053D01*
X234942Y168043D01*
X234898Y168021D01*
X234844Y167966D01*
X234767Y167900D01*
X234669Y167813D01*
X234571Y167715D01*
X234461Y167594D01*
X234341Y167452D01*
Y164479D01*
Y164468D01*
Y164457D01*
X234319Y164414D01*
X234308Y164403D01*
X234254Y164370D01*
X234243D01*
X234221Y164359D01*
X234188D01*
X234133Y164348D01*
X234090D01*
X234024Y164337D01*
X233816D01*
X233751Y164348D01*
X233740D01*
X233718Y164359D01*
X233642Y164370D01*
X233631D01*
X233620Y164381D01*
X233576Y164414D01*
Y164436D01*
X233565Y164479D01*
Y168731D01*
Y168742D01*
Y168753D01*
X233576Y168797D01*
X233587Y168808D01*
X233609Y168830D01*
X233631Y168840D01*
X233642D01*
X233663Y168851D01*
X233696Y168862D01*
X233740Y168873D01*
X233751D01*
X233784Y168884D01*
X234024D01*
X234079Y168873D01*
X234090D01*
X234122Y168862D01*
X234155Y168851D01*
X234188Y168840D01*
X234199D01*
X234210Y168830D01*
X234232Y168818D01*
X234243Y168797D01*
X234254Y168786D01*
X234264Y168731D01*
Y168174D01*
X234286Y168195D01*
X234330Y168239D01*
X234396Y168305D01*
X234494Y168392D01*
X234592Y168491D01*
X234713Y168589D01*
X234844Y168676D01*
X234975Y168753D01*
X234997Y168764D01*
X235040Y168786D01*
X235106Y168818D01*
X235205Y168851D01*
X235314Y168884D01*
X235434Y168917D01*
X235565Y168939D01*
X235696Y168950D01*
X235773D01*
X235849Y168939D01*
D02*
G37*
G36*
X202753D02*
X202852Y168928D01*
X202961Y168917D01*
X203081Y168884D01*
X203201Y168851D01*
X203311Y168797D01*
X203322Y168786D01*
X203365Y168775D01*
X203409Y168742D01*
X203486Y168698D01*
X203551Y168644D01*
X203639Y168578D01*
X203715Y168502D01*
X203781Y168414D01*
X203792Y168403D01*
X203814Y168370D01*
X203846Y168316D01*
X203879Y168250D01*
X203923Y168174D01*
X203967Y168075D01*
X204010Y167966D01*
X204043Y167846D01*
Y167835D01*
X204054Y167791D01*
X204076Y167726D01*
X204087Y167627D01*
X204109Y167518D01*
X204120Y167387D01*
X204131Y167234D01*
Y167070D01*
Y164479D01*
Y164468D01*
Y164457D01*
X204109Y164414D01*
X204098Y164403D01*
X204043Y164370D01*
X204032D01*
X204010Y164359D01*
X203977D01*
X203923Y164348D01*
X203879D01*
X203814Y164337D01*
X203606D01*
X203540Y164348D01*
X203529D01*
X203507Y164359D01*
X203431Y164370D01*
X203420D01*
X203409Y164381D01*
X203365Y164414D01*
Y164436D01*
X203355Y164479D01*
Y166971D01*
Y166982D01*
Y167037D01*
Y167103D01*
X203344Y167179D01*
X203333Y167365D01*
X203311Y167463D01*
X203289Y167551D01*
Y167562D01*
X203278Y167594D01*
X203267Y167627D01*
X203245Y167682D01*
X203201Y167813D01*
X203125Y167933D01*
Y167944D01*
X203103Y167966D01*
X203048Y168032D01*
X202961Y168108D01*
X202841Y168185D01*
X202830D01*
X202808Y168195D01*
X202775Y168217D01*
X202731Y168228D01*
X202600Y168261D01*
X202447Y168272D01*
X202393D01*
X202338Y168261D01*
X202261Y168250D01*
X202174Y168217D01*
X202076Y168185D01*
X201966Y168130D01*
X201857Y168053D01*
X201846Y168043D01*
X201802Y168021D01*
X201748Y167966D01*
X201671Y167900D01*
X201573Y167813D01*
X201474Y167715D01*
X201365Y167594D01*
X201245Y167452D01*
Y164479D01*
Y164468D01*
Y164457D01*
X201223Y164414D01*
X201212Y164403D01*
X201157Y164370D01*
X201147D01*
X201125Y164359D01*
X201092D01*
X201037Y164348D01*
X200994D01*
X200928Y164337D01*
X200720D01*
X200655Y164348D01*
X200644D01*
X200622Y164359D01*
X200546Y164370D01*
X200535D01*
X200524Y164381D01*
X200480Y164414D01*
Y164436D01*
X200469Y164479D01*
Y168731D01*
Y168742D01*
Y168753D01*
X200480Y168797D01*
X200491Y168808D01*
X200513Y168830D01*
X200535Y168840D01*
X200546D01*
X200567Y168851D01*
X200600Y168862D01*
X200644Y168873D01*
X200655D01*
X200688Y168884D01*
X200928D01*
X200983Y168873D01*
X200994D01*
X201026Y168862D01*
X201059Y168851D01*
X201092Y168840D01*
X201103D01*
X201114Y168830D01*
X201136Y168818D01*
X201147Y168797D01*
X201157Y168786D01*
X201168Y168731D01*
Y168174D01*
X201190Y168195D01*
X201234Y168239D01*
X201300Y168305D01*
X201398Y168392D01*
X201496Y168491D01*
X201617Y168589D01*
X201748Y168676D01*
X201879Y168753D01*
X201901Y168764D01*
X201944Y168786D01*
X202010Y168818D01*
X202108Y168851D01*
X202218Y168884D01*
X202338Y168917D01*
X202469Y168939D01*
X202600Y168950D01*
X202677D01*
X202753Y168939D01*
D02*
G37*
G36*
X226012D02*
X226111Y168928D01*
X226220Y168917D01*
X226340Y168884D01*
X226450Y168851D01*
X226559Y168797D01*
X226570Y168786D01*
X226603Y168775D01*
X226657Y168742D01*
X226723Y168698D01*
X226788Y168644D01*
X226865Y168578D01*
X226941Y168502D01*
X227007Y168414D01*
X227018Y168403D01*
X227040Y168370D01*
X227062Y168316D01*
X227105Y168250D01*
X227149Y168174D01*
X227182Y168075D01*
X227226Y167966D01*
X227258Y167846D01*
Y167835D01*
X227269Y167791D01*
X227280Y167726D01*
X227302Y167638D01*
X227313Y167540D01*
X227324Y167430D01*
X227335Y167168D01*
Y164479D01*
Y164468D01*
Y164457D01*
X227313Y164414D01*
X227302Y164403D01*
X227247Y164370D01*
X227237D01*
X227215Y164359D01*
X227182D01*
X227127Y164348D01*
X227073D01*
X227018Y164337D01*
X226810D01*
X226745Y164348D01*
X226734D01*
X226701Y164359D01*
X226657D01*
X226624Y164370D01*
X226613D01*
X226603Y164381D01*
X226559Y164414D01*
Y164436D01*
X226548Y164479D01*
Y167059D01*
Y167070D01*
Y167103D01*
Y167157D01*
X226537Y167223D01*
X226526Y167387D01*
X226493Y167551D01*
Y167562D01*
X226482Y167594D01*
X226471Y167627D01*
X226461Y167682D01*
X226406Y167813D01*
X226340Y167933D01*
Y167944D01*
X226318Y167966D01*
X226275Y168032D01*
X226187Y168108D01*
X226078Y168185D01*
X226067D01*
X226045Y168195D01*
X226012Y168217D01*
X225969Y168228D01*
X225848Y168261D01*
X225706Y168272D01*
X225663D01*
X225608Y168261D01*
X225531Y168250D01*
X225455Y168217D01*
X225357Y168185D01*
X225258Y168130D01*
X225160Y168053D01*
X225149Y168043D01*
X225116Y168021D01*
X225061Y167966D01*
X224985Y167900D01*
X224898Y167813D01*
X224799Y167715D01*
X224690Y167594D01*
X224570Y167452D01*
Y164479D01*
Y164468D01*
Y164457D01*
X224548Y164414D01*
X224537Y164403D01*
X224482Y164370D01*
X224471D01*
X224449Y164359D01*
X224417D01*
X224362Y164348D01*
X224307D01*
X224253Y164337D01*
X224056D01*
X223990Y164348D01*
X223979D01*
X223947Y164359D01*
X223903D01*
X223870Y164370D01*
X223859D01*
X223848Y164381D01*
X223804Y164414D01*
Y164436D01*
X223794Y164479D01*
Y167059D01*
Y167070D01*
Y167103D01*
Y167157D01*
X223783Y167223D01*
X223772Y167387D01*
X223739Y167551D01*
Y167562D01*
X223728Y167594D01*
X223717Y167627D01*
X223695Y167682D01*
X223652Y167813D01*
X223575Y167933D01*
Y167944D01*
X223553Y167966D01*
X223509Y168032D01*
X223422Y168108D01*
X223313Y168185D01*
X223302D01*
X223291Y168195D01*
X223258Y168217D01*
X223214Y168228D01*
X223094Y168261D01*
X222941Y168272D01*
X222897D01*
X222843Y168261D01*
X222766Y168250D01*
X222690Y168217D01*
X222591Y168185D01*
X222493Y168130D01*
X222394Y168053D01*
X222384Y168043D01*
X222351Y168021D01*
X222296Y167966D01*
X222220Y167900D01*
X222132Y167813D01*
X222034Y167715D01*
X221924Y167594D01*
X221804Y167452D01*
Y164479D01*
Y164468D01*
Y164457D01*
X221782Y164414D01*
X221772Y164403D01*
X221717Y164370D01*
X221706D01*
X221684Y164359D01*
X221651D01*
X221597Y164348D01*
X221553D01*
X221487Y164337D01*
X221280D01*
X221214Y164348D01*
X221203D01*
X221181Y164359D01*
X221105Y164370D01*
X221094D01*
X221083Y164381D01*
X221039Y164414D01*
Y164436D01*
X221028Y164479D01*
Y168731D01*
Y168742D01*
Y168753D01*
X221039Y168797D01*
X221050Y168808D01*
X221072Y168830D01*
X221094Y168840D01*
X221105D01*
X221127Y168851D01*
X221159Y168862D01*
X221203Y168873D01*
X221214D01*
X221247Y168884D01*
X221487D01*
X221542Y168873D01*
X221553D01*
X221586Y168862D01*
X221619Y168851D01*
X221651Y168840D01*
X221662D01*
X221673Y168830D01*
X221695Y168818D01*
X221706Y168797D01*
X221717Y168786D01*
X221728Y168731D01*
Y168174D01*
X221739Y168195D01*
X221793Y168239D01*
X221859Y168305D01*
X221946Y168392D01*
X222045Y168491D01*
X222165Y168589D01*
X222285Y168676D01*
X222416Y168753D01*
X222427Y168764D01*
X222471Y168786D01*
X222548Y168818D01*
X222635Y168851D01*
X222733Y168884D01*
X222854Y168917D01*
X222974Y168939D01*
X223105Y168950D01*
X223203D01*
X223258Y168939D01*
X223411Y168928D01*
X223575Y168884D01*
X223586D01*
X223608Y168873D01*
X223652Y168862D01*
X223706Y168840D01*
X223826Y168786D01*
X223947Y168709D01*
X223957D01*
X223979Y168687D01*
X224045Y168633D01*
X224132Y168556D01*
X224220Y168447D01*
X224231Y168436D01*
X224242Y168425D01*
X224264Y168392D01*
X224285Y168349D01*
X224351Y168239D01*
X224417Y168108D01*
X224428Y168119D01*
X224449Y168152D01*
X224493Y168185D01*
X224548Y168239D01*
X224668Y168370D01*
X224810Y168491D01*
X224821Y168502D01*
X224843Y168523D01*
X224887Y168545D01*
X224930Y168589D01*
X225050Y168666D01*
X225182Y168753D01*
X225193D01*
X225215Y168775D01*
X225247Y168786D01*
X225291Y168808D01*
X225411Y168851D01*
X225531Y168895D01*
X225542D01*
X225564Y168906D01*
X225597Y168917D01*
X225641Y168928D01*
X225739Y168939D01*
X225870Y168950D01*
X225936D01*
X226012Y168939D01*
D02*
G37*
G36*
X219378Y168873D02*
X219389D01*
X219422Y168862D01*
X219465Y168851D01*
X219498Y168840D01*
X219509D01*
X219520Y168830D01*
X219564Y168797D01*
X219575Y168786D01*
X219585Y168731D01*
Y164479D01*
Y164468D01*
Y164457D01*
X219564Y164414D01*
X219553Y164403D01*
X219498Y164370D01*
X219487D01*
X219476Y164359D01*
X219443D01*
X219389Y164348D01*
X219345D01*
X219290Y164337D01*
X219105D01*
X219039Y164348D01*
X219028D01*
X219006Y164359D01*
X218930Y164370D01*
X218908Y164381D01*
X218875Y164414D01*
Y164436D01*
X218864Y164479D01*
Y165037D01*
X218853Y165015D01*
X218799Y164971D01*
X218733Y164906D01*
X218646Y164818D01*
X218536Y164720D01*
X218416Y164621D01*
X218285Y164534D01*
X218154Y164457D01*
X218143Y164446D01*
X218099Y164436D01*
X218022Y164403D01*
X217935Y164370D01*
X217826Y164337D01*
X217706Y164315D01*
X217574Y164294D01*
X217432Y164283D01*
X217367D01*
X217290Y164294D01*
X217192Y164304D01*
X217072Y164315D01*
X216962Y164337D01*
X216842Y164370D01*
X216722Y164414D01*
X216711Y164425D01*
X216678Y164436D01*
X216623Y164468D01*
X216558Y164512D01*
X216481Y164567D01*
X216405Y164632D01*
X216252Y164796D01*
X216241Y164807D01*
X216219Y164840D01*
X216197Y164895D01*
X216154Y164960D01*
X216110Y165048D01*
X216077Y165146D01*
X216001Y165365D01*
Y165376D01*
X215990Y165419D01*
X215979Y165496D01*
X215968Y165583D01*
X215946Y165703D01*
X215935Y165835D01*
X215924Y165988D01*
Y166152D01*
Y168731D01*
Y168742D01*
Y168753D01*
X215935Y168797D01*
X215957Y168808D01*
X216001Y168840D01*
X216011D01*
X216033Y168851D01*
X216066Y168862D01*
X216121Y168873D01*
X216132D01*
X216175Y168884D01*
X216438D01*
X216503Y168873D01*
X216514D01*
X216547Y168862D01*
X216591Y168851D01*
X216623Y168840D01*
X216634D01*
X216645Y168830D01*
X216689Y168797D01*
X216700Y168786D01*
X216711Y168731D01*
Y166261D01*
Y166250D01*
Y166195D01*
Y166130D01*
X216722Y166042D01*
X216733Y165846D01*
X216744Y165747D01*
X216755Y165660D01*
Y165649D01*
X216766Y165627D01*
X216776Y165583D01*
X216798Y165529D01*
X216842Y165398D01*
X216919Y165266D01*
X216930Y165255D01*
X216940Y165244D01*
X216995Y165179D01*
X217093Y165102D01*
X217203Y165026D01*
X217214D01*
X217236Y165015D01*
X217268Y165004D01*
X217323Y164993D01*
X217443Y164960D01*
X217596Y164949D01*
X217651D01*
X217706Y164960D01*
X217782Y164971D01*
X217869Y164993D01*
X217968Y165037D01*
X218066Y165080D01*
X218176Y165146D01*
X218186Y165157D01*
X218230Y165190D01*
X218285Y165234D01*
X218361Y165299D01*
X218460Y165386D01*
X218558Y165496D01*
X218678Y165616D01*
X218799Y165758D01*
Y168731D01*
Y168742D01*
Y168753D01*
X218810Y168797D01*
X218831Y168808D01*
X218875Y168840D01*
X218886D01*
X218908Y168851D01*
X218941Y168862D01*
X218995Y168873D01*
X219006D01*
X219050Y168884D01*
X219312D01*
X219378Y168873D01*
D02*
G37*
G36*
X141644Y170469D02*
X141720D01*
X141906Y170458D01*
X142114Y170425D01*
X142343Y170393D01*
X142562Y170338D01*
X142780Y170272D01*
X142791D01*
X142802Y170261D01*
X142879Y170239D01*
X142977Y170185D01*
X143108Y170119D01*
X143250Y170032D01*
X143403Y169933D01*
X143567Y169813D01*
X143710Y169682D01*
X143731Y169660D01*
X143775Y169616D01*
X143841Y169529D01*
X143917Y169420D01*
X144005Y169289D01*
X144103Y169125D01*
X144190Y168939D01*
X144267Y168742D01*
Y168731D01*
X144278Y168720D01*
X144289Y168687D01*
X144300Y168644D01*
X144333Y168534D01*
X144365Y168381D01*
X144398Y168195D01*
X144431Y167988D01*
X144453Y167758D01*
X144464Y167507D01*
Y167496D01*
Y167474D01*
Y167430D01*
Y167376D01*
X144453Y167310D01*
Y167223D01*
X144442Y167037D01*
X144409Y166818D01*
X144376Y166589D01*
X144322Y166348D01*
X144256Y166119D01*
Y166108D01*
X144245Y166097D01*
X144234Y166064D01*
X144223Y166021D01*
X144168Y165911D01*
X144103Y165780D01*
X144016Y165616D01*
X143917Y165452D01*
X143797Y165288D01*
X143655Y165135D01*
X143633Y165113D01*
X143589Y165070D01*
X143502Y165004D01*
X143393Y164917D01*
X143250Y164829D01*
X143097Y164731D01*
X142912Y164632D01*
X142704Y164556D01*
X142693D01*
X142682Y164545D01*
X142649Y164534D01*
X142605Y164523D01*
X142551Y164512D01*
X142485Y164501D01*
X142321Y164468D01*
X142125Y164425D01*
X141895Y164403D01*
X141644Y164381D01*
X141359Y164370D01*
X140037D01*
X139993Y164381D01*
X139928Y164403D01*
X139851Y164436D01*
X139840Y164446D01*
X139807Y164501D01*
X139775Y164578D01*
X139764Y164698D01*
Y170141D01*
Y170152D01*
Y170174D01*
X139775Y170239D01*
X139796Y170327D01*
X139851Y170403D01*
X139873Y170414D01*
X139917Y170447D01*
X139982Y170469D01*
X140059Y170480D01*
X141578D01*
X141644Y170469D01*
D02*
G37*
G36*
X198644Y170502D02*
X198709Y170491D01*
X198720D01*
X198753Y170480D01*
X198797Y170469D01*
X198829Y170458D01*
X198840D01*
X198862Y170447D01*
X198884Y170436D01*
X198906Y170414D01*
X198917Y170403D01*
X198928Y170360D01*
Y164479D01*
Y164457D01*
X198906Y164414D01*
X198884Y164403D01*
X198862Y164392D01*
X198829Y164381D01*
X198819D01*
X198797Y164370D01*
X198764D01*
X198709Y164359D01*
X198698D01*
X198655Y164348D01*
X198600Y164337D01*
X198458D01*
X198392Y164348D01*
X198327Y164359D01*
X198316D01*
X198283Y164370D01*
X198196Y164381D01*
X198185D01*
X198174Y164392D01*
X198130Y164414D01*
Y164425D01*
Y164436D01*
X198119Y164479D01*
Y170360D01*
Y170371D01*
Y170381D01*
X198130Y170414D01*
Y170425D01*
X198152Y170436D01*
X198196Y170458D01*
X198206D01*
X198228Y170469D01*
X198272Y170480D01*
X198327Y170491D01*
X198338D01*
X198381Y170502D01*
X198447Y170513D01*
X198589D01*
X198644Y170502D01*
D02*
G37*
G36*
X188610Y168928D02*
X188752Y168906D01*
X188763D01*
X188785Y168895D01*
X188818D01*
X188872Y168884D01*
X188981Y168851D01*
X189102Y168808D01*
X189113D01*
X189135Y168797D01*
X189200Y168764D01*
X189288Y168720D01*
X189386Y168666D01*
X189397D01*
X189408Y168655D01*
X189462Y168622D01*
X189517Y168578D01*
X189572Y168534D01*
X189583Y168523D01*
X189604Y168502D01*
X189626Y168480D01*
X189648Y168447D01*
Y168436D01*
X189659Y168425D01*
X189681Y168359D01*
Y168349D01*
X189692Y168327D01*
X189703Y168261D01*
Y168250D01*
X189714Y168228D01*
Y168174D01*
Y168119D01*
Y168108D01*
Y168086D01*
Y168021D01*
X189692Y167933D01*
X189670Y167857D01*
X189659Y167846D01*
X189637Y167824D01*
X189604Y167802D01*
X189561Y167791D01*
X189550D01*
X189517Y167802D01*
X189462Y167824D01*
X189397Y167868D01*
X189386Y167879D01*
X189331Y167922D01*
X189266Y167966D01*
X189167Y168032D01*
X189156D01*
X189146Y168053D01*
X189113Y168064D01*
X189069Y168086D01*
X188960Y168152D01*
X188818Y168207D01*
X188807D01*
X188785Y168217D01*
X188741Y168239D01*
X188686Y168250D01*
X188621Y168272D01*
X188533Y168283D01*
X188348Y168294D01*
X188326D01*
X188260Y168283D01*
X188151Y168272D01*
X188031Y168239D01*
X187889Y168185D01*
X187746Y168108D01*
X187604Y167999D01*
X187484Y167857D01*
X187473Y167835D01*
X187440Y167780D01*
X187386Y167671D01*
X187342Y167540D01*
X187287Y167354D01*
X187233Y167146D01*
X187200Y166895D01*
X187189Y166600D01*
Y166578D01*
Y166534D01*
Y166458D01*
X187200Y166359D01*
X187211Y166250D01*
X187222Y166130D01*
X187266Y165878D01*
Y165867D01*
X187276Y165824D01*
X187298Y165769D01*
X187320Y165703D01*
X187397Y165529D01*
X187495Y165365D01*
X187506Y165354D01*
X187528Y165332D01*
X187561Y165299D01*
X187604Y165244D01*
X187714Y165146D01*
X187867Y165059D01*
X187878D01*
X187910Y165048D01*
X187954Y165026D01*
X188009Y165015D01*
X188085Y164993D01*
X188173Y164971D01*
X188369Y164960D01*
X188468D01*
X188523Y164971D01*
X188675Y164993D01*
X188839Y165037D01*
X188850D01*
X188872Y165048D01*
X188916Y165070D01*
X188960Y165091D01*
X189080Y165157D01*
X189189Y165223D01*
X189200D01*
X189211Y165244D01*
X189277Y165288D01*
X189364Y165343D01*
X189441Y165408D01*
X189462Y165419D01*
X189506Y165452D01*
X189561Y165485D01*
X189604Y165496D01*
X189626D01*
X189659Y165474D01*
X189670Y165463D01*
X189692Y165408D01*
Y165398D01*
X189703Y165376D01*
X189714Y165343D01*
X189725Y165288D01*
Y165277D01*
X189736Y165244D01*
Y165201D01*
Y165135D01*
Y165124D01*
Y165091D01*
Y165048D01*
X189725Y164993D01*
Y164982D01*
Y164960D01*
X189703Y164895D01*
X189692Y164873D01*
X189670Y164829D01*
Y164818D01*
X189659Y164807D01*
X189637Y164774D01*
X189604Y164731D01*
X189594Y164720D01*
X189561Y164698D01*
X189495Y164643D01*
X189408Y164589D01*
X189397D01*
X189386Y164578D01*
X189353Y164556D01*
X189309Y164534D01*
X189211Y164490D01*
X189080Y164436D01*
X189069D01*
X189047Y164425D01*
X189014Y164414D01*
X188971Y164403D01*
X188850Y164359D01*
X188697Y164326D01*
X188686D01*
X188665Y164315D01*
X188621D01*
X188566Y164304D01*
X188435Y164294D01*
X188271Y164283D01*
X188195D01*
X188107Y164294D01*
X187998Y164304D01*
X187867Y164315D01*
X187735Y164348D01*
X187593Y164381D01*
X187451Y164425D01*
X187440Y164436D01*
X187397Y164457D01*
X187331Y164490D01*
X187244Y164534D01*
X187156Y164600D01*
X187058Y164676D01*
X186960Y164763D01*
X186861Y164862D01*
X186850Y164873D01*
X186817Y164917D01*
X186774Y164982D01*
X186730Y165059D01*
X186664Y165168D01*
X186610Y165288D01*
X186555Y165430D01*
X186500Y165583D01*
Y165605D01*
X186478Y165660D01*
X186468Y165747D01*
X186446Y165867D01*
X186424Y166009D01*
X186402Y166174D01*
X186391Y166359D01*
X186380Y166556D01*
Y166567D01*
Y166589D01*
Y166622D01*
Y166665D01*
X186391Y166786D01*
X186402Y166928D01*
X186413Y167103D01*
X186446Y167277D01*
X186478Y167463D01*
X186533Y167638D01*
X186544Y167660D01*
X186566Y167715D01*
X186599Y167791D01*
X186643Y167900D01*
X186697Y168010D01*
X186774Y168141D01*
X186861Y168261D01*
X186949Y168370D01*
X186960Y168381D01*
X186992Y168414D01*
X187047Y168469D01*
X187123Y168534D01*
X187211Y168611D01*
X187320Y168676D01*
X187440Y168753D01*
X187572Y168808D01*
X187593Y168818D01*
X187637Y168830D01*
X187714Y168851D01*
X187812Y168884D01*
X187932Y168906D01*
X188063Y168928D01*
X188206Y168939D01*
X188358Y168950D01*
X188490D01*
X188610Y168928D01*
D02*
G37*
G36*
X173275D02*
X173417Y168906D01*
X173428D01*
X173450Y168895D01*
X173483D01*
X173537Y168884D01*
X173647Y168851D01*
X173767Y168808D01*
X173778D01*
X173800Y168797D01*
X173865Y168764D01*
X173953Y168720D01*
X174051Y168666D01*
X174062D01*
X174073Y168655D01*
X174128Y168622D01*
X174182Y168578D01*
X174237Y168534D01*
X174248Y168523D01*
X174270Y168502D01*
X174292Y168480D01*
X174313Y168447D01*
Y168436D01*
X174324Y168425D01*
X174346Y168359D01*
Y168349D01*
X174357Y168327D01*
X174368Y168261D01*
Y168250D01*
X174379Y168228D01*
Y168174D01*
Y168119D01*
Y168108D01*
Y168086D01*
Y168021D01*
X174357Y167933D01*
X174335Y167857D01*
X174324Y167846D01*
X174302Y167824D01*
X174270Y167802D01*
X174226Y167791D01*
X174215D01*
X174182Y167802D01*
X174128Y167824D01*
X174062Y167868D01*
X174051Y167879D01*
X173996Y167922D01*
X173931Y167966D01*
X173832Y168032D01*
X173822D01*
X173811Y168053D01*
X173778Y168064D01*
X173734Y168086D01*
X173625Y168152D01*
X173483Y168207D01*
X173472D01*
X173450Y168217D01*
X173406Y168239D01*
X173352Y168250D01*
X173286Y168272D01*
X173199Y168283D01*
X173013Y168294D01*
X172991D01*
X172925Y168283D01*
X172816Y168272D01*
X172696Y168239D01*
X172554Y168185D01*
X172412Y168108D01*
X172270Y167999D01*
X172149Y167857D01*
X172138Y167835D01*
X172106Y167780D01*
X172051Y167671D01*
X172007Y167540D01*
X171953Y167354D01*
X171898Y167146D01*
X171865Y166895D01*
X171854Y166600D01*
Y166578D01*
Y166534D01*
Y166458D01*
X171865Y166359D01*
X171876Y166250D01*
X171887Y166130D01*
X171931Y165878D01*
Y165867D01*
X171942Y165824D01*
X171964Y165769D01*
X171985Y165703D01*
X172062Y165529D01*
X172160Y165365D01*
X172171Y165354D01*
X172193Y165332D01*
X172226Y165299D01*
X172270Y165244D01*
X172379Y165146D01*
X172532Y165059D01*
X172543D01*
X172576Y165048D01*
X172619Y165026D01*
X172674Y165015D01*
X172750Y164993D01*
X172838Y164971D01*
X173035Y164960D01*
X173133D01*
X173188Y164971D01*
X173341Y164993D01*
X173505Y165037D01*
X173516D01*
X173537Y165048D01*
X173581Y165070D01*
X173625Y165091D01*
X173745Y165157D01*
X173854Y165223D01*
X173865D01*
X173876Y165244D01*
X173942Y165288D01*
X174029Y165343D01*
X174106Y165408D01*
X174128Y165419D01*
X174171Y165452D01*
X174226Y165485D01*
X174270Y165496D01*
X174292D01*
X174324Y165474D01*
X174335Y165463D01*
X174357Y165408D01*
Y165398D01*
X174368Y165376D01*
X174379Y165343D01*
X174390Y165288D01*
Y165277D01*
X174401Y165244D01*
Y165201D01*
Y165135D01*
Y165124D01*
Y165091D01*
Y165048D01*
X174390Y164993D01*
Y164982D01*
Y164960D01*
X174368Y164895D01*
X174357Y164873D01*
X174335Y164829D01*
Y164818D01*
X174324Y164807D01*
X174302Y164774D01*
X174270Y164731D01*
X174259Y164720D01*
X174226Y164698D01*
X174160Y164643D01*
X174073Y164589D01*
X174062D01*
X174051Y164578D01*
X174018Y164556D01*
X173975Y164534D01*
X173876Y164490D01*
X173745Y164436D01*
X173734D01*
X173712Y164425D01*
X173679Y164414D01*
X173636Y164403D01*
X173516Y164359D01*
X173363Y164326D01*
X173352D01*
X173330Y164315D01*
X173286D01*
X173231Y164304D01*
X173100Y164294D01*
X172936Y164283D01*
X172860D01*
X172772Y164294D01*
X172663Y164304D01*
X172532Y164315D01*
X172401Y164348D01*
X172259Y164381D01*
X172116Y164425D01*
X172106Y164436D01*
X172062Y164457D01*
X171996Y164490D01*
X171909Y164534D01*
X171821Y164600D01*
X171723Y164676D01*
X171625Y164763D01*
X171526Y164862D01*
X171515Y164873D01*
X171483Y164917D01*
X171439Y164982D01*
X171395Y165059D01*
X171330Y165168D01*
X171275Y165288D01*
X171220Y165430D01*
X171166Y165583D01*
Y165605D01*
X171144Y165660D01*
X171133Y165747D01*
X171111Y165867D01*
X171089Y166009D01*
X171067Y166174D01*
X171056Y166359D01*
X171045Y166556D01*
Y166567D01*
Y166589D01*
Y166622D01*
Y166665D01*
X171056Y166786D01*
X171067Y166928D01*
X171078Y167103D01*
X171111Y167277D01*
X171144Y167463D01*
X171198Y167638D01*
X171209Y167660D01*
X171231Y167715D01*
X171264Y167791D01*
X171308Y167900D01*
X171362Y168010D01*
X171439Y168141D01*
X171526Y168261D01*
X171614Y168370D01*
X171625Y168381D01*
X171658Y168414D01*
X171712Y168469D01*
X171789Y168534D01*
X171876Y168611D01*
X171985Y168676D01*
X172106Y168753D01*
X172237Y168808D01*
X172259Y168818D01*
X172302Y168830D01*
X172379Y168851D01*
X172477Y168884D01*
X172598Y168906D01*
X172729Y168928D01*
X172871Y168939D01*
X173024Y168950D01*
X173155D01*
X173275Y168928D01*
D02*
G37*
G36*
X149502D02*
X149623Y168917D01*
X149655D01*
X149688Y168906D01*
X149732D01*
X149830Y168884D01*
X149940Y168862D01*
X151240D01*
X151273Y168851D01*
X151317Y168830D01*
X151349Y168775D01*
X151360Y168764D01*
X151371Y168720D01*
X151382Y168644D01*
X151393Y168545D01*
Y168534D01*
Y168523D01*
X151382Y168458D01*
X151371Y168370D01*
X151339Y168305D01*
X151328Y168294D01*
X151306Y168272D01*
X151273Y168250D01*
X151229Y168239D01*
X150617D01*
X150628Y168228D01*
X150639Y168207D01*
X150672Y168174D01*
X150705Y168130D01*
X150781Y168010D01*
X150847Y167857D01*
Y167846D01*
X150858Y167824D01*
X150869Y167780D01*
X150891Y167726D01*
X150912Y167583D01*
X150923Y167420D01*
Y167409D01*
Y167354D01*
X150912Y167288D01*
Y167201D01*
X150891Y167092D01*
X150869Y166982D01*
X150847Y166873D01*
X150803Y166764D01*
Y166753D01*
X150781Y166720D01*
X150748Y166665D01*
X150716Y166600D01*
X150606Y166447D01*
X150464Y166283D01*
X150453Y166272D01*
X150420Y166250D01*
X150377Y166217D01*
X150322Y166174D01*
X150246Y166130D01*
X150147Y166075D01*
X150049Y166031D01*
X149940Y165988D01*
X149929D01*
X149885Y165977D01*
X149819Y165955D01*
X149743Y165944D01*
X149644Y165922D01*
X149524Y165900D01*
X149404Y165889D01*
X149174D01*
X149109Y165900D01*
X149032D01*
X148956Y165922D01*
X148770Y165955D01*
X148759D01*
X148737Y165966D01*
X148694Y165977D01*
X148639Y165999D01*
X148519Y166053D01*
X148409Y166130D01*
X148398Y166119D01*
X148366Y166075D01*
X148322Y166009D01*
X148278Y165933D01*
X148267Y165911D01*
X148256Y165857D01*
X148245Y165780D01*
X148234Y165682D01*
Y165671D01*
Y165660D01*
X148256Y165583D01*
X148300Y165496D01*
X148333Y165452D01*
X148388Y165408D01*
X148398D01*
X148420Y165386D01*
X148453Y165376D01*
X148497Y165354D01*
X148551Y165332D01*
X148628Y165321D01*
X148792Y165299D01*
X149896Y165244D01*
X149951D01*
X150005Y165234D01*
X150093D01*
X150180Y165223D01*
X150278Y165201D01*
X150475Y165157D01*
X150486D01*
X150519Y165146D01*
X150574Y165124D01*
X150628Y165102D01*
X150781Y165037D01*
X150934Y164938D01*
X150945Y164927D01*
X150967Y164917D01*
X151000Y164884D01*
X151043Y164840D01*
X151142Y164731D01*
X151240Y164578D01*
Y164567D01*
X151262Y164545D01*
X151273Y164501D01*
X151295Y164446D01*
X151317Y164370D01*
X151328Y164294D01*
X151349Y164108D01*
Y164097D01*
Y164053D01*
X151339Y163998D01*
Y163933D01*
X151317Y163845D01*
X151295Y163747D01*
X151262Y163649D01*
X151218Y163550D01*
Y163539D01*
X151197Y163507D01*
X151164Y163452D01*
X151131Y163386D01*
X151076Y163321D01*
X151011Y163233D01*
X150934Y163157D01*
X150847Y163080D01*
X150836Y163069D01*
X150803Y163048D01*
X150748Y163015D01*
X150672Y162971D01*
X150584Y162916D01*
X150464Y162862D01*
X150344Y162807D01*
X150202Y162763D01*
X150180D01*
X150136Y162741D01*
X150049Y162731D01*
X149940Y162709D01*
X149797Y162687D01*
X149644Y162665D01*
X149470Y162654D01*
X149273Y162643D01*
X149087D01*
X148967Y162654D01*
X148836Y162665D01*
X148683Y162676D01*
X148540Y162698D01*
X148398Y162731D01*
X148388D01*
X148344Y162752D01*
X148267Y162763D01*
X148191Y162796D01*
X147994Y162873D01*
X147896Y162916D01*
X147808Y162971D01*
X147797Y162982D01*
X147775Y163004D01*
X147732Y163037D01*
X147677Y163080D01*
X147568Y163190D01*
X147513Y163266D01*
X147469Y163343D01*
Y163354D01*
X147458Y163375D01*
X147437Y163419D01*
X147426Y163474D01*
X147404Y163539D01*
X147382Y163616D01*
X147371Y163791D01*
Y163802D01*
Y163813D01*
Y163889D01*
X147382Y163988D01*
X147404Y164097D01*
Y164108D01*
X147415Y164119D01*
X147426Y164184D01*
X147469Y164272D01*
X147513Y164370D01*
Y164381D01*
X147524Y164392D01*
X147568Y164446D01*
X147633Y164523D01*
X147710Y164611D01*
X147721Y164621D01*
X147732Y164632D01*
X147786Y164687D01*
X147874Y164763D01*
X147983Y164851D01*
X147972Y164862D01*
X147950Y164873D01*
X147907Y164895D01*
X147852Y164938D01*
X147743Y165026D01*
X147688Y165080D01*
X147644Y165146D01*
Y165157D01*
X147622Y165179D01*
X147611Y165212D01*
X147590Y165266D01*
X147557Y165386D01*
X147535Y165540D01*
Y165550D01*
Y165583D01*
X147546Y165638D01*
Y165714D01*
X147579Y165867D01*
X147644Y166042D01*
X147655Y166053D01*
X147666Y166086D01*
X147688Y166130D01*
X147721Y166184D01*
X147819Y166316D01*
X147928Y166458D01*
X147917Y166469D01*
X147907Y166490D01*
X147874Y166523D01*
X147852Y166578D01*
X147775Y166698D01*
X147699Y166851D01*
Y166862D01*
X147688Y166895D01*
X147677Y166939D01*
X147666Y167004D01*
X147644Y167081D01*
X147633Y167168D01*
X147622Y167277D01*
Y167387D01*
Y167409D01*
Y167452D01*
X147633Y167518D01*
Y167605D01*
X147655Y167704D01*
X147677Y167813D01*
X147699Y167922D01*
X147743Y168032D01*
X147754Y168043D01*
X147765Y168086D01*
X147797Y168141D01*
X147830Y168207D01*
X147939Y168359D01*
X148082Y168523D01*
X148092Y168534D01*
X148125Y168556D01*
X148169Y168589D01*
X148234Y168633D01*
X148311Y168687D01*
X148398Y168731D01*
X148497Y168786D01*
X148606Y168830D01*
X148617D01*
X148661Y168851D01*
X148726Y168862D01*
X148803Y168884D01*
X148901Y168906D01*
X149011Y168917D01*
X149262Y168939D01*
X149382D01*
X149502Y168928D01*
D02*
G37*
G36*
X289270Y106299D02*
X287412D01*
Y112289D01*
X289270D01*
Y106299D01*
D02*
G37*
G36*
X283794Y112278D02*
X283871D01*
X284056Y112256D01*
X284275Y112234D01*
X284493Y112190D01*
X284712Y112136D01*
X284909Y112059D01*
X284920D01*
X284931Y112048D01*
X284996Y112016D01*
X285084Y111972D01*
X285204Y111895D01*
X285335Y111808D01*
X285477Y111699D01*
X285608Y111567D01*
X285740Y111425D01*
X285751Y111404D01*
X285794Y111349D01*
X285849Y111272D01*
X285925Y111152D01*
X286002Y111010D01*
X286078Y110846D01*
X286144Y110660D01*
X286210Y110464D01*
Y110453D01*
X286221Y110442D01*
Y110409D01*
X286231Y110365D01*
X286253Y110256D01*
X286286Y110114D01*
X286319Y109939D01*
X286341Y109742D01*
X286352Y109535D01*
X286363Y109305D01*
Y109294D01*
Y109261D01*
Y109218D01*
Y109152D01*
X286352Y109064D01*
Y108977D01*
X286330Y108758D01*
X286308Y108529D01*
X286264Y108277D01*
X286210Y108037D01*
X286133Y107818D01*
Y107808D01*
X286122Y107797D01*
X286089Y107731D01*
X286046Y107633D01*
X285980Y107512D01*
X285893Y107370D01*
X285783Y107228D01*
X285663Y107075D01*
X285521Y106933D01*
X285499Y106922D01*
X285455Y106878D01*
X285379Y106813D01*
X285280Y106736D01*
X285149Y106660D01*
X285018Y106583D01*
X284865Y106507D01*
X284701Y106452D01*
X284690D01*
X284679Y106441D01*
X284647D01*
X284603Y106430D01*
X284483Y106409D01*
X284330Y106376D01*
X284166Y106343D01*
X283969Y106321D01*
X283783Y106310D01*
X283586Y106299D01*
X280843D01*
Y112289D01*
X283717D01*
X283794Y112278D01*
D02*
G37*
G36*
X319502Y110813D02*
X317611D01*
Y106299D01*
X315764D01*
Y110813D01*
X313873D01*
Y112289D01*
X319502D01*
Y110813D01*
D02*
G37*
G36*
X192702Y111010D02*
X189598D01*
Y110059D01*
X192472D01*
Y108835D01*
X189598D01*
Y107655D01*
X192789D01*
Y106299D01*
X187740D01*
Y112289D01*
X192702D01*
Y111010D01*
D02*
G37*
G36*
X197183Y112278D02*
X197380Y112267D01*
X197588Y112256D01*
X197806Y112223D01*
X198014Y112190D01*
X198199Y112136D01*
X198221Y112125D01*
X198276Y112103D01*
X198363Y112070D01*
X198462Y112016D01*
X198582Y111939D01*
X198702Y111841D01*
X198823Y111731D01*
X198932Y111589D01*
X198943Y111567D01*
X198976Y111524D01*
X199019Y111436D01*
X199074Y111316D01*
X199129Y111174D01*
X199172Y111010D01*
X199205Y110824D01*
X199216Y110617D01*
Y110595D01*
Y110529D01*
X199205Y110442D01*
X199194Y110321D01*
X199161Y110190D01*
X199129Y110048D01*
X199074Y109895D01*
X198997Y109753D01*
X198986Y109742D01*
X198965Y109698D01*
X198910Y109633D01*
X198844Y109545D01*
X198757Y109458D01*
X198659Y109360D01*
X198538Y109261D01*
X198407Y109174D01*
X198396Y109163D01*
X198363Y109152D01*
X198309Y109119D01*
X198243Y109086D01*
X198145Y109054D01*
X198036Y109010D01*
X197904Y108977D01*
X197762Y108933D01*
X197773D01*
X197817Y108912D01*
X197872Y108890D01*
X197948Y108868D01*
X198101Y108791D01*
X198178Y108758D01*
X198243Y108715D01*
X198265Y108704D01*
X198287Y108682D01*
X198320Y108649D01*
X198363Y108605D01*
X198407Y108551D01*
X198473Y108485D01*
X198538Y108398D01*
X198549Y108387D01*
X198571Y108354D01*
X198604Y108310D01*
X198648Y108267D01*
X198735Y108135D01*
X198768Y108081D01*
X198801Y108026D01*
X199708Y106299D01*
X197609D01*
X196615Y108124D01*
X196604Y108135D01*
X196582Y108179D01*
X196549Y108245D01*
X196505Y108310D01*
X196396Y108463D01*
X196330Y108529D01*
X196276Y108584D01*
X196265Y108595D01*
X196243Y108605D01*
X196199Y108627D01*
X196145Y108660D01*
X196079Y108682D01*
X196003Y108704D01*
X195915Y108715D01*
X195817Y108726D01*
X195664D01*
Y106299D01*
X193806D01*
Y112289D01*
X197107D01*
X197183Y112278D01*
D02*
G37*
G36*
X341300Y112376D02*
X341399D01*
X341508Y112365D01*
X341628Y112354D01*
X341759Y112333D01*
X342044Y112278D01*
X342339Y112201D01*
X342612Y112092D01*
X342743Y112027D01*
X342863Y111950D01*
X342874D01*
X342885Y111928D01*
X342962Y111873D01*
X343060Y111764D01*
X343180Y111622D01*
X343246Y111535D01*
X343301Y111436D01*
X343366Y111316D01*
X343421Y111196D01*
X343476Y111065D01*
X343519Y110923D01*
X343552Y110759D01*
X343585Y110595D01*
X341836Y110496D01*
Y110518D01*
X341825Y110562D01*
X341803Y110638D01*
X341770Y110726D01*
X341727Y110813D01*
X341683Y110912D01*
X341617Y111010D01*
X341541Y111087D01*
X341530Y111098D01*
X341497Y111119D01*
X341453Y111141D01*
X341388Y111185D01*
X341300Y111218D01*
X341191Y111240D01*
X341071Y111261D01*
X340929Y111272D01*
X340874D01*
X340820Y111261D01*
X340743Y111250D01*
X340579Y111218D01*
X340503Y111174D01*
X340437Y111130D01*
X340426Y111119D01*
X340415Y111108D01*
X340360Y111043D01*
X340306Y110933D01*
X340295Y110868D01*
X340284Y110802D01*
Y110792D01*
Y110781D01*
X340306Y110715D01*
X340338Y110627D01*
X340371Y110584D01*
X340415Y110540D01*
X340426D01*
X340448Y110518D01*
X340481Y110496D01*
X340546Y110464D01*
X340623Y110431D01*
X340732Y110398D01*
X340863Y110354D01*
X341027Y110321D01*
X341038D01*
X341082Y110310D01*
X341147Y110300D01*
X341224Y110278D01*
X341322Y110256D01*
X341442Y110223D01*
X341574Y110190D01*
X341705Y110158D01*
X341989Y110081D01*
X342284Y109983D01*
X342546Y109884D01*
X342667Y109841D01*
X342776Y109786D01*
X342787D01*
X342798Y109775D01*
X342863Y109742D01*
X342951Y109687D01*
X343071Y109611D01*
X343191Y109513D01*
X343322Y109403D01*
X343443Y109272D01*
X343541Y109130D01*
X343552Y109108D01*
X343574Y109064D01*
X343618Y108977D01*
X343661Y108868D01*
X343705Y108737D01*
X343749Y108595D01*
X343771Y108420D01*
X343781Y108245D01*
Y108234D01*
Y108223D01*
Y108190D01*
Y108146D01*
X343760Y108037D01*
X343738Y107895D01*
X343705Y107731D01*
X343639Y107545D01*
X343563Y107359D01*
X343454Y107174D01*
X343443Y107152D01*
X343399Y107097D01*
X343322Y107010D01*
X343224Y106900D01*
X343093Y106780D01*
X342940Y106660D01*
X342765Y106551D01*
X342557Y106441D01*
X342546D01*
X342535Y106430D01*
X342503Y106420D01*
X342459Y106409D01*
X342404Y106387D01*
X342328Y106365D01*
X342251Y106343D01*
X342164Y106321D01*
X341956Y106277D01*
X341705Y106234D01*
X341432Y106212D01*
X341115Y106201D01*
X340972D01*
X340863Y106212D01*
X340743Y106223D01*
X340601Y106234D01*
X340448Y106245D01*
X340273Y106277D01*
X339923Y106343D01*
X339574Y106441D01*
X339409Y106507D01*
X339257Y106594D01*
X339114Y106682D01*
X338994Y106780D01*
X338983Y106791D01*
X338972Y106813D01*
X338939Y106846D01*
X338907Y106889D01*
X338863Y106944D01*
X338808Y107010D01*
X338754Y107097D01*
X338699Y107185D01*
X338579Y107403D01*
X338470Y107666D01*
X338393Y107950D01*
X338360Y108114D01*
X338338Y108277D01*
X340098Y108398D01*
Y108376D01*
X340109Y108321D01*
X340120Y108245D01*
X340153Y108157D01*
X340218Y107939D01*
X340273Y107829D01*
X340328Y107742D01*
X340338Y107731D01*
X340382Y107687D01*
X340448Y107633D01*
X340535Y107567D01*
X340655Y107491D01*
X340798Y107436D01*
X340962Y107392D01*
X341147Y107381D01*
X341213D01*
X341279Y107392D01*
X341377Y107403D01*
X341475Y107425D01*
X341574Y107458D01*
X341672Y107501D01*
X341759Y107556D01*
X341770Y107567D01*
X341792Y107589D01*
X341825Y107633D01*
X341869Y107676D01*
X341913Y107742D01*
X341945Y107818D01*
X341967Y107906D01*
X341978Y107993D01*
Y108004D01*
Y108037D01*
X341967Y108081D01*
X341956Y108135D01*
X341923Y108201D01*
X341891Y108267D01*
X341836Y108343D01*
X341770Y108409D01*
X341759Y108420D01*
X341727Y108441D01*
X341661Y108474D01*
X341574Y108518D01*
X341442Y108573D01*
X341279Y108638D01*
X341180Y108671D01*
X341071Y108693D01*
X340951Y108726D01*
X340820Y108758D01*
X340809D01*
X340765Y108769D01*
X340699Y108791D01*
X340623Y108802D01*
X340524Y108835D01*
X340404Y108868D01*
X340284Y108901D01*
X340153Y108944D01*
X339858Y109054D01*
X339574Y109174D01*
X339311Y109316D01*
X339191Y109392D01*
X339082Y109480D01*
Y109491D01*
X339060Y109502D01*
X339005Y109556D01*
X338918Y109655D01*
X338830Y109797D01*
X338732Y109961D01*
X338644Y110158D01*
X338590Y110376D01*
X338579Y110496D01*
X338568Y110627D01*
Y110638D01*
Y110649D01*
Y110704D01*
X338579Y110802D01*
X338601Y110912D01*
X338633Y111043D01*
X338677Y111196D01*
X338743Y111349D01*
X338830Y111502D01*
X338841Y111524D01*
X338885Y111567D01*
X338950Y111644D01*
X339038Y111742D01*
X339147Y111841D01*
X339289Y111950D01*
X339453Y112048D01*
X339639Y112147D01*
X339650D01*
X339661Y112158D01*
X339694Y112169D01*
X339737Y112180D01*
X339792Y112201D01*
X339858Y112223D01*
X339934Y112245D01*
X340022Y112267D01*
X340120Y112289D01*
X340240Y112311D01*
X340492Y112354D01*
X340787Y112376D01*
X341115Y112387D01*
X341224D01*
X341300Y112376D01*
D02*
G37*
G36*
X185816Y106299D02*
X183991D01*
X182941Y110070D01*
X181892Y106299D01*
X180078D01*
X178755Y112289D01*
X180504D01*
X181138Y108944D01*
X182067Y112289D01*
X183816D01*
X184745Y108933D01*
X185379Y112289D01*
X187138D01*
X185816Y106299D01*
D02*
G37*
G36*
X293697Y112376D02*
X293828Y112365D01*
X293970Y112344D01*
X294134Y112322D01*
X294298Y112289D01*
X294484Y112245D01*
X294669Y112190D01*
X294866Y112125D01*
X295052Y112048D01*
X295238Y111950D01*
X295424Y111841D01*
X295587Y111721D01*
X295751Y111578D01*
X295762Y111567D01*
X295784Y111546D01*
X295828Y111491D01*
X295883Y111436D01*
X295937Y111349D01*
X296014Y111250D01*
X296090Y111130D01*
X296167Y110999D01*
X296243Y110846D01*
X296309Y110682D01*
X296385Y110496D01*
X296440Y110300D01*
X296495Y110081D01*
X296538Y109852D01*
X296560Y109600D01*
X296571Y109338D01*
Y109327D01*
Y109294D01*
Y109239D01*
Y109163D01*
X296560Y109075D01*
X296549Y108966D01*
X296538Y108857D01*
X296528Y108726D01*
X296484Y108452D01*
X296418Y108168D01*
X296331Y107884D01*
X296211Y107611D01*
Y107600D01*
X296200Y107578D01*
X296178Y107545D01*
X296145Y107501D01*
X296068Y107381D01*
X295948Y107228D01*
X295806Y107064D01*
X295631Y106889D01*
X295434Y106726D01*
X295194Y106572D01*
X295183D01*
X295161Y106562D01*
X295128Y106540D01*
X295074Y106518D01*
X295008Y106485D01*
X294932Y106452D01*
X294844Y106420D01*
X294735Y106387D01*
X294615Y106354D01*
X294495Y106321D01*
X294210Y106255D01*
X293882Y106212D01*
X293522Y106201D01*
X293358D01*
X293270Y106212D01*
X293172Y106223D01*
X293063D01*
X292932Y106245D01*
X292669Y106277D01*
X292396Y106332D01*
X292112Y106409D01*
X291849Y106518D01*
X291839D01*
X291817Y106529D01*
X291784Y106551D01*
X291740Y106583D01*
X291620Y106660D01*
X291467Y106769D01*
X291292Y106900D01*
X291117Y107086D01*
X290931Y107294D01*
X290767Y107534D01*
Y107545D01*
X290745Y107567D01*
X290735Y107611D01*
X290702Y107666D01*
X290669Y107731D01*
X290636Y107808D01*
X290603Y107906D01*
X290571Y108015D01*
X290527Y108135D01*
X290494Y108267D01*
X290461Y108409D01*
X290428Y108573D01*
X290385Y108912D01*
X290363Y109283D01*
Y109305D01*
Y109349D01*
X290374Y109425D01*
Y109524D01*
X290385Y109644D01*
X290407Y109786D01*
X290428Y109950D01*
X290461Y110114D01*
X290505Y110300D01*
X290560Y110485D01*
X290625Y110671D01*
X290702Y110868D01*
X290800Y111054D01*
X290910Y111240D01*
X291030Y111404D01*
X291172Y111567D01*
X291183Y111578D01*
X291215Y111600D01*
X291259Y111644D01*
X291325Y111699D01*
X291412Y111753D01*
X291511Y111830D01*
X291631Y111906D01*
X291762Y111983D01*
X291915Y112059D01*
X292090Y112125D01*
X292276Y112201D01*
X292483Y112256D01*
X292702Y112311D01*
X292942Y112354D01*
X293194Y112376D01*
X293456Y112387D01*
X293598D01*
X293697Y112376D01*
D02*
G37*
G36*
X273257Y106299D02*
X271312D01*
X271017Y107283D01*
X268918D01*
X268623Y106299D01*
X266732D01*
X268973Y112289D01*
X271006D01*
X273257Y106299D01*
D02*
G37*
G36*
X303457Y112376D02*
X303588Y112365D01*
X303730Y112344D01*
X303894Y112322D01*
X304058Y112289D01*
X304244Y112245D01*
X304430Y112190D01*
X304627Y112125D01*
X304812Y112048D01*
X304998Y111950D01*
X305184Y111841D01*
X305348Y111721D01*
X305512Y111578D01*
X305523Y111567D01*
X305545Y111546D01*
X305588Y111491D01*
X305643Y111436D01*
X305698Y111349D01*
X305774Y111250D01*
X305851Y111130D01*
X305927Y110999D01*
X306004Y110846D01*
X306069Y110682D01*
X306146Y110496D01*
X306201Y110300D01*
X306255Y110081D01*
X306299Y109852D01*
X306321Y109600D01*
X306332Y109338D01*
Y109327D01*
Y109294D01*
Y109239D01*
Y109163D01*
X306321Y109075D01*
X306310Y108966D01*
X306299Y108857D01*
X306288Y108726D01*
X306244Y108452D01*
X306179Y108168D01*
X306091Y107884D01*
X305971Y107611D01*
Y107600D01*
X305960Y107578D01*
X305938Y107545D01*
X305905Y107501D01*
X305829Y107381D01*
X305709Y107228D01*
X305567Y107064D01*
X305392Y106889D01*
X305195Y106726D01*
X304955Y106572D01*
X304944D01*
X304922Y106562D01*
X304889Y106540D01*
X304834Y106518D01*
X304769Y106485D01*
X304692Y106452D01*
X304605Y106420D01*
X304495Y106387D01*
X304375Y106354D01*
X304255Y106321D01*
X303971Y106255D01*
X303643Y106212D01*
X303282Y106201D01*
X303118D01*
X303031Y106212D01*
X302933Y106223D01*
X302823D01*
X302692Y106245D01*
X302430Y106277D01*
X302156Y106332D01*
X301872Y106409D01*
X301610Y106518D01*
X301599D01*
X301577Y106529D01*
X301544Y106551D01*
X301501Y106583D01*
X301380Y106660D01*
X301227Y106769D01*
X301052Y106900D01*
X300878Y107086D01*
X300692Y107294D01*
X300528Y107534D01*
Y107545D01*
X300506Y107567D01*
X300495Y107611D01*
X300462Y107666D01*
X300430Y107731D01*
X300397Y107808D01*
X300364Y107906D01*
X300331Y108015D01*
X300287Y108135D01*
X300255Y108267D01*
X300222Y108409D01*
X300189Y108573D01*
X300145Y108912D01*
X300123Y109283D01*
Y109305D01*
Y109349D01*
X300134Y109425D01*
Y109524D01*
X300145Y109644D01*
X300167Y109786D01*
X300189Y109950D01*
X300222Y110114D01*
X300266Y110300D01*
X300320Y110485D01*
X300386Y110671D01*
X300462Y110868D01*
X300561Y111054D01*
X300670Y111240D01*
X300790Y111404D01*
X300932Y111567D01*
X300943Y111578D01*
X300976Y111600D01*
X301020Y111644D01*
X301085Y111699D01*
X301173Y111753D01*
X301271Y111830D01*
X301391Y111906D01*
X301522Y111983D01*
X301676Y112059D01*
X301850Y112125D01*
X302036Y112201D01*
X302244Y112256D01*
X302463Y112311D01*
X302703Y112354D01*
X302954Y112376D01*
X303217Y112387D01*
X303359D01*
X303457Y112376D01*
D02*
G37*
G36*
X244018D02*
X244149Y112365D01*
X244291Y112344D01*
X244455Y112322D01*
X244619Y112289D01*
X244805Y112245D01*
X244991Y112190D01*
X245187Y112125D01*
X245373Y112048D01*
X245559Y111950D01*
X245745Y111841D01*
X245909Y111721D01*
X246073Y111578D01*
X246084Y111567D01*
X246106Y111546D01*
X246149Y111491D01*
X246204Y111436D01*
X246258Y111349D01*
X246335Y111250D01*
X246411Y111130D01*
X246488Y110999D01*
X246565Y110846D01*
X246630Y110682D01*
X246707Y110496D01*
X246761Y110300D01*
X246816Y110081D01*
X246860Y109852D01*
X246882Y109600D01*
X246892Y109338D01*
Y109327D01*
Y109294D01*
Y109239D01*
Y109163D01*
X246882Y109075D01*
X246871Y108966D01*
X246860Y108857D01*
X246849Y108726D01*
X246805Y108452D01*
X246739Y108168D01*
X246652Y107884D01*
X246532Y107611D01*
Y107600D01*
X246521Y107578D01*
X246499Y107545D01*
X246466Y107501D01*
X246390Y107381D01*
X246269Y107228D01*
X246127Y107064D01*
X245953Y106889D01*
X245756Y106726D01*
X245515Y106572D01*
X245504D01*
X245482Y106562D01*
X245450Y106540D01*
X245395Y106518D01*
X245329Y106485D01*
X245253Y106452D01*
X245165Y106420D01*
X245056Y106387D01*
X244936Y106354D01*
X244816Y106321D01*
X244532Y106255D01*
X244204Y106212D01*
X243843Y106201D01*
X243679D01*
X243592Y106212D01*
X243493Y106223D01*
X243384D01*
X243253Y106245D01*
X242990Y106277D01*
X242717Y106332D01*
X242433Y106409D01*
X242171Y106518D01*
X242160D01*
X242138Y106529D01*
X242105Y106551D01*
X242061Y106583D01*
X241941Y106660D01*
X241788Y106769D01*
X241613Y106900D01*
X241438Y107086D01*
X241253Y107294D01*
X241089Y107534D01*
Y107545D01*
X241067Y107567D01*
X241056Y107611D01*
X241023Y107666D01*
X240990Y107731D01*
X240957Y107808D01*
X240925Y107906D01*
X240892Y108015D01*
X240848Y108135D01*
X240815Y108267D01*
X240783Y108409D01*
X240750Y108573D01*
X240706Y108912D01*
X240684Y109283D01*
Y109305D01*
Y109349D01*
X240695Y109425D01*
Y109524D01*
X240706Y109644D01*
X240728Y109786D01*
X240750Y109950D01*
X240783Y110114D01*
X240826Y110300D01*
X240881Y110485D01*
X240947Y110671D01*
X241023Y110868D01*
X241121Y111054D01*
X241231Y111240D01*
X241351Y111404D01*
X241493Y111567D01*
X241504Y111578D01*
X241537Y111600D01*
X241581Y111644D01*
X241646Y111699D01*
X241734Y111753D01*
X241832Y111830D01*
X241952Y111906D01*
X242083Y111983D01*
X242236Y112059D01*
X242411Y112125D01*
X242597Y112201D01*
X242805Y112256D01*
X243023Y112311D01*
X243264Y112354D01*
X243515Y112376D01*
X243777Y112387D01*
X243919D01*
X244018Y112376D01*
D02*
G37*
G36*
X238804Y106201D02*
X237974D01*
X239482Y112387D01*
X240323D01*
X238804Y106201D01*
D02*
G37*
G36*
X237362Y106299D02*
X235613D01*
X233361Y109600D01*
Y106299D01*
X231623D01*
Y112289D01*
X233339D01*
X235613Y108966D01*
Y112289D01*
X237362D01*
Y106299D01*
D02*
G37*
G36*
X258063Y110999D02*
X255341D01*
Y109961D01*
X257669D01*
Y108747D01*
X255341D01*
Y106299D01*
X253483D01*
Y112289D01*
X258063D01*
Y110999D01*
D02*
G37*
G36*
X252478D02*
X249756D01*
Y109961D01*
X252084D01*
Y108747D01*
X249756D01*
Y106299D01*
X247898D01*
Y112289D01*
X252478D01*
Y110999D01*
D02*
G37*
G36*
X313075Y108715D02*
Y108704D01*
Y108693D01*
Y108627D01*
X313065Y108529D01*
X313054Y108398D01*
X313032Y108234D01*
X312999Y108070D01*
X312955Y107895D01*
X312901Y107709D01*
X312890Y107687D01*
X312868Y107633D01*
X312835Y107545D01*
X312770Y107436D01*
X312704Y107305D01*
X312606Y107163D01*
X312507Y107021D01*
X312376Y106889D01*
X312365Y106878D01*
X312310Y106835D01*
X312245Y106769D01*
X312157Y106693D01*
X312048Y106616D01*
X311917Y106540D01*
X311786Y106463D01*
X311644Y106398D01*
X311633D01*
X311622Y106387D01*
X311589Y106376D01*
X311545Y106365D01*
X311436Y106332D01*
X311272Y106299D01*
X311086Y106266D01*
X310868Y106234D01*
X310616Y106212D01*
X310343Y106201D01*
X310179D01*
X310059Y106212D01*
X309917D01*
X309753Y106234D01*
X309578Y106245D01*
X309381Y106266D01*
X309359D01*
X309294Y106277D01*
X309195Y106288D01*
X309086Y106321D01*
X308944Y106343D01*
X308802Y106387D01*
X308660Y106441D01*
X308518Y106496D01*
X308507Y106507D01*
X308463Y106529D01*
X308397Y106572D01*
X308310Y106627D01*
X308212Y106704D01*
X308102Y106791D01*
X307993Y106889D01*
X307884Y107010D01*
X307873Y107021D01*
X307840Y107064D01*
X307785Y107141D01*
X307731Y107228D01*
X307665Y107327D01*
X307600Y107447D01*
X307534Y107578D01*
X307490Y107709D01*
Y107720D01*
X307479Y107731D01*
Y107764D01*
X307468Y107808D01*
X307436Y107917D01*
X307414Y108048D01*
X307381Y108201D01*
X307348Y108376D01*
X307337Y108551D01*
X307326Y108715D01*
Y112289D01*
X309173D01*
Y108638D01*
Y108616D01*
Y108562D01*
X309184Y108463D01*
X309206Y108354D01*
X309239Y108234D01*
X309283Y108114D01*
X309348Y107982D01*
X309436Y107873D01*
X309447Y107862D01*
X309490Y107829D01*
X309545Y107786D01*
X309632Y107742D01*
X309742Y107687D01*
X309873Y107644D01*
X310026Y107611D01*
X310201Y107600D01*
X310277D01*
X310365Y107611D01*
X310474Y107633D01*
X310594Y107666D01*
X310725Y107709D01*
X310846Y107775D01*
X310955Y107862D01*
X310966Y107873D01*
X310999Y107917D01*
X311042Y107972D01*
X311097Y108059D01*
X311141Y108168D01*
X311185Y108310D01*
X311217Y108463D01*
X311228Y108638D01*
Y112289D01*
X313075D01*
Y108715D01*
D02*
G37*
G36*
X279597D02*
Y108704D01*
Y108693D01*
Y108627D01*
X279586Y108529D01*
X279575Y108398D01*
X279553Y108234D01*
X279520Y108070D01*
X279477Y107895D01*
X279422Y107709D01*
X279411Y107687D01*
X279389Y107633D01*
X279356Y107545D01*
X279291Y107436D01*
X279225Y107305D01*
X279127Y107163D01*
X279029Y107021D01*
X278897Y106889D01*
X278887Y106878D01*
X278832Y106835D01*
X278766Y106769D01*
X278679Y106693D01*
X278570Y106616D01*
X278438Y106540D01*
X278307Y106463D01*
X278165Y106398D01*
X278154D01*
X278143Y106387D01*
X278110Y106376D01*
X278067Y106365D01*
X277957Y106332D01*
X277793Y106299D01*
X277608Y106266D01*
X277389Y106234D01*
X277138Y106212D01*
X276864Y106201D01*
X276700D01*
X276580Y106212D01*
X276438D01*
X276274Y106234D01*
X276099Y106245D01*
X275903Y106266D01*
X275881D01*
X275815Y106277D01*
X275717Y106288D01*
X275607Y106321D01*
X275465Y106343D01*
X275323Y106387D01*
X275181Y106441D01*
X275039Y106496D01*
X275028Y106507D01*
X274984Y106529D01*
X274919Y106572D01*
X274831Y106627D01*
X274733Y106704D01*
X274624Y106791D01*
X274514Y106889D01*
X274405Y107010D01*
X274394Y107021D01*
X274361Y107064D01*
X274307Y107141D01*
X274252Y107228D01*
X274186Y107327D01*
X274121Y107447D01*
X274055Y107578D01*
X274012Y107709D01*
Y107720D01*
X274001Y107731D01*
Y107764D01*
X273990Y107808D01*
X273957Y107917D01*
X273935Y108048D01*
X273902Y108201D01*
X273870Y108376D01*
X273859Y108551D01*
X273848Y108715D01*
Y112289D01*
X275695D01*
Y108638D01*
Y108616D01*
Y108562D01*
X275706Y108463D01*
X275728Y108354D01*
X275761Y108234D01*
X275804Y108114D01*
X275870Y107982D01*
X275957Y107873D01*
X275968Y107862D01*
X276012Y107829D01*
X276066Y107786D01*
X276154Y107742D01*
X276263Y107687D01*
X276394Y107644D01*
X276547Y107611D01*
X276722Y107600D01*
X276799D01*
X276886Y107611D01*
X276996Y107633D01*
X277116Y107666D01*
X277247Y107709D01*
X277367Y107775D01*
X277477Y107862D01*
X277487Y107873D01*
X277520Y107917D01*
X277564Y107972D01*
X277619Y108059D01*
X277662Y108168D01*
X277706Y108310D01*
X277739Y108463D01*
X277750Y108638D01*
Y112289D01*
X279597D01*
Y108715D01*
D02*
G37*
G36*
X169574Y112278D02*
X169661D01*
X169760Y112267D01*
X169978Y112234D01*
X170219Y112169D01*
X170470Y112081D01*
X170711Y111972D01*
X170820Y111895D01*
X170918Y111808D01*
X170929D01*
X170940Y111786D01*
X170962Y111753D01*
X170995Y111721D01*
X171082Y111611D01*
X171170Y111458D01*
X171257Y111261D01*
X171344Y111032D01*
X171399Y110759D01*
X171421Y110617D01*
Y110453D01*
Y110442D01*
Y110409D01*
Y110365D01*
X171410Y110300D01*
Y110223D01*
X171388Y110136D01*
X171355Y109939D01*
X171290Y109709D01*
X171192Y109469D01*
X171126Y109349D01*
X171060Y109239D01*
X170973Y109130D01*
X170875Y109032D01*
X170864D01*
X170853Y109010D01*
X170820Y108988D01*
X170776Y108955D01*
X170711Y108912D01*
X170645Y108868D01*
X170558Y108824D01*
X170459Y108780D01*
X170350Y108737D01*
X170230Y108693D01*
X170088Y108649D01*
X169935Y108605D01*
X169771Y108573D01*
X169596Y108551D01*
X169410Y108540D01*
X169202Y108529D01*
X168197D01*
Y106299D01*
X166339D01*
Y112289D01*
X169508D01*
X169574Y112278D01*
D02*
G37*
G36*
X227743Y112376D02*
X227874Y112365D01*
X228016Y112344D01*
X228180Y112322D01*
X228344Y112289D01*
X228530Y112245D01*
X228716Y112190D01*
X228913Y112125D01*
X229098Y112048D01*
X229284Y111950D01*
X229470Y111841D01*
X229634Y111721D01*
X229798Y111578D01*
X229809Y111567D01*
X229831Y111546D01*
X229874Y111491D01*
X229929Y111436D01*
X229984Y111349D01*
X230060Y111250D01*
X230137Y111130D01*
X230213Y110999D01*
X230290Y110846D01*
X230355Y110682D01*
X230432Y110496D01*
X230486Y110300D01*
X230541Y110081D01*
X230585Y109852D01*
X230607Y109600D01*
X230618Y109338D01*
Y109327D01*
Y109294D01*
Y109239D01*
Y109163D01*
X230607Y109075D01*
X230596Y108966D01*
X230585Y108857D01*
X230574Y108726D01*
X230530Y108452D01*
X230465Y108168D01*
X230377Y107884D01*
X230257Y107611D01*
Y107600D01*
X230246Y107578D01*
X230224Y107545D01*
X230191Y107501D01*
X230115Y107381D01*
X229995Y107228D01*
X229853Y107064D01*
X229678Y106889D01*
X229481Y106726D01*
X229240Y106572D01*
X229230D01*
X229208Y106562D01*
X229175Y106540D01*
X229120Y106518D01*
X229055Y106485D01*
X228978Y106452D01*
X228891Y106420D01*
X228781Y106387D01*
X228661Y106354D01*
X228541Y106321D01*
X228257Y106255D01*
X227929Y106212D01*
X227568Y106201D01*
X227404D01*
X227317Y106212D01*
X227219Y106223D01*
X227109D01*
X226978Y106245D01*
X226716Y106277D01*
X226442Y106332D01*
X226158Y106409D01*
X225896Y106518D01*
X225885D01*
X225863Y106529D01*
X225830Y106551D01*
X225787Y106583D01*
X225666Y106660D01*
X225513Y106769D01*
X225339Y106900D01*
X225164Y107086D01*
X224978Y107294D01*
X224814Y107534D01*
Y107545D01*
X224792Y107567D01*
X224781Y107611D01*
X224748Y107666D01*
X224715Y107731D01*
X224683Y107808D01*
X224650Y107906D01*
X224617Y108015D01*
X224573Y108135D01*
X224541Y108267D01*
X224508Y108409D01*
X224475Y108573D01*
X224431Y108912D01*
X224410Y109283D01*
Y109305D01*
Y109349D01*
X224420Y109425D01*
Y109524D01*
X224431Y109644D01*
X224453Y109786D01*
X224475Y109950D01*
X224508Y110114D01*
X224552Y110300D01*
X224606Y110485D01*
X224672Y110671D01*
X224748Y110868D01*
X224847Y111054D01*
X224956Y111240D01*
X225076Y111404D01*
X225218Y111567D01*
X225229Y111578D01*
X225262Y111600D01*
X225306Y111644D01*
X225371Y111699D01*
X225459Y111753D01*
X225557Y111830D01*
X225677Y111906D01*
X225809Y111983D01*
X225961Y112059D01*
X226136Y112125D01*
X226322Y112201D01*
X226530Y112256D01*
X226748Y112311D01*
X226989Y112354D01*
X227240Y112376D01*
X227503Y112387D01*
X227645D01*
X227743Y112376D01*
D02*
G37*
G36*
X175498D02*
X175629Y112365D01*
X175771Y112344D01*
X175935Y112322D01*
X176099Y112289D01*
X176285Y112245D01*
X176471Y112190D01*
X176667Y112125D01*
X176853Y112048D01*
X177039Y111950D01*
X177225Y111841D01*
X177389Y111721D01*
X177553Y111578D01*
X177564Y111567D01*
X177586Y111546D01*
X177629Y111491D01*
X177684Y111436D01*
X177739Y111349D01*
X177815Y111250D01*
X177892Y111130D01*
X177968Y110999D01*
X178045Y110846D01*
X178110Y110682D01*
X178187Y110496D01*
X178241Y110300D01*
X178296Y110081D01*
X178340Y109852D01*
X178362Y109600D01*
X178373Y109338D01*
Y109327D01*
Y109294D01*
Y109239D01*
Y109163D01*
X178362Y109075D01*
X178351Y108966D01*
X178340Y108857D01*
X178329Y108726D01*
X178285Y108452D01*
X178219Y108168D01*
X178132Y107884D01*
X178012Y107611D01*
Y107600D01*
X178001Y107578D01*
X177979Y107545D01*
X177946Y107501D01*
X177870Y107381D01*
X177750Y107228D01*
X177607Y107064D01*
X177433Y106889D01*
X177236Y106726D01*
X176995Y106572D01*
X176984D01*
X176963Y106562D01*
X176930Y106540D01*
X176875Y106518D01*
X176810Y106485D01*
X176733Y106452D01*
X176646Y106420D01*
X176536Y106387D01*
X176416Y106354D01*
X176296Y106321D01*
X176012Y106255D01*
X175684Y106212D01*
X175323Y106201D01*
X175159D01*
X175072Y106212D01*
X174973Y106223D01*
X174864D01*
X174733Y106245D01*
X174470Y106277D01*
X174197Y106332D01*
X173913Y106409D01*
X173651Y106518D01*
X173640D01*
X173618Y106529D01*
X173585Y106551D01*
X173541Y106583D01*
X173421Y106660D01*
X173268Y106769D01*
X173093Y106900D01*
X172918Y107086D01*
X172733Y107294D01*
X172569Y107534D01*
Y107545D01*
X172547Y107567D01*
X172536Y107611D01*
X172503Y107666D01*
X172470Y107731D01*
X172438Y107808D01*
X172405Y107906D01*
X172372Y108015D01*
X172328Y108135D01*
X172295Y108267D01*
X172263Y108409D01*
X172230Y108573D01*
X172186Y108912D01*
X172164Y109283D01*
Y109305D01*
Y109349D01*
X172175Y109425D01*
Y109524D01*
X172186Y109644D01*
X172208Y109786D01*
X172230Y109950D01*
X172263Y110114D01*
X172306Y110300D01*
X172361Y110485D01*
X172427Y110671D01*
X172503Y110868D01*
X172601Y111054D01*
X172711Y111240D01*
X172831Y111404D01*
X172973Y111567D01*
X172984Y111578D01*
X173017Y111600D01*
X173061Y111644D01*
X173126Y111699D01*
X173214Y111753D01*
X173312Y111830D01*
X173432Y111906D01*
X173563Y111983D01*
X173716Y112059D01*
X173891Y112125D01*
X174077Y112201D01*
X174285Y112256D01*
X174503Y112311D01*
X174744Y112354D01*
X174995Y112376D01*
X175258Y112387D01*
X175400D01*
X175498Y112376D01*
D02*
G37*
G36*
X337442Y108715D02*
Y108704D01*
Y108693D01*
Y108627D01*
X337431Y108529D01*
X337420Y108398D01*
X337398Y108234D01*
X337366Y108070D01*
X337322Y107895D01*
X337267Y107709D01*
X337256Y107687D01*
X337234Y107633D01*
X337202Y107545D01*
X337136Y107436D01*
X337070Y107305D01*
X336972Y107163D01*
X336874Y107021D01*
X336743Y106889D01*
X336732Y106878D01*
X336677Y106835D01*
X336611Y106769D01*
X336524Y106693D01*
X336415Y106616D01*
X336283Y106540D01*
X336152Y106463D01*
X336010Y106398D01*
X335999D01*
X335988Y106387D01*
X335956Y106376D01*
X335912Y106365D01*
X335803Y106332D01*
X335639Y106299D01*
X335453Y106266D01*
X335234Y106234D01*
X334983Y106212D01*
X334710Y106201D01*
X334546D01*
X334425Y106212D01*
X334283D01*
X334119Y106234D01*
X333945Y106245D01*
X333748Y106266D01*
X333726D01*
X333660Y106277D01*
X333562Y106288D01*
X333453Y106321D01*
X333311Y106343D01*
X333169Y106387D01*
X333026Y106441D01*
X332884Y106496D01*
X332873Y106507D01*
X332830Y106529D01*
X332764Y106572D01*
X332677Y106627D01*
X332578Y106704D01*
X332469Y106791D01*
X332360Y106889D01*
X332250Y107010D01*
X332239Y107021D01*
X332207Y107064D01*
X332152Y107141D01*
X332097Y107228D01*
X332032Y107327D01*
X331966Y107447D01*
X331901Y107578D01*
X331857Y107709D01*
Y107720D01*
X331846Y107731D01*
Y107764D01*
X331835Y107808D01*
X331802Y107917D01*
X331780Y108048D01*
X331748Y108201D01*
X331715Y108376D01*
X331704Y108551D01*
X331693Y108715D01*
Y112289D01*
X333540D01*
Y108638D01*
Y108616D01*
Y108562D01*
X333551Y108463D01*
X333573Y108354D01*
X333606Y108234D01*
X333649Y108114D01*
X333715Y107982D01*
X333802Y107873D01*
X333813Y107862D01*
X333857Y107829D01*
X333912Y107786D01*
X333999Y107742D01*
X334108Y107687D01*
X334240Y107644D01*
X334393Y107611D01*
X334567Y107600D01*
X334644D01*
X334732Y107611D01*
X334841Y107633D01*
X334961Y107666D01*
X335092Y107709D01*
X335212Y107775D01*
X335322Y107862D01*
X335333Y107873D01*
X335365Y107917D01*
X335409Y107972D01*
X335464Y108059D01*
X335507Y108168D01*
X335551Y108310D01*
X335584Y108463D01*
X335595Y108638D01*
Y112289D01*
X337442D01*
Y108715D01*
D02*
G37*
G36*
X419617Y106299D02*
X417617D01*
X415354Y112289D01*
X417289D01*
X418633Y107972D01*
X419967Y112289D01*
X421847D01*
X419617Y106299D01*
D02*
G37*
G36*
X440767Y108715D02*
Y108704D01*
Y108693D01*
Y108627D01*
X440756Y108529D01*
X440745Y108398D01*
X440723Y108234D01*
X440690Y108070D01*
X440646Y107895D01*
X440592Y107709D01*
X440581Y107687D01*
X440559Y107633D01*
X440526Y107545D01*
X440460Y107436D01*
X440395Y107305D01*
X440297Y107163D01*
X440198Y107021D01*
X440067Y106889D01*
X440056Y106878D01*
X440001Y106835D01*
X439936Y106769D01*
X439849Y106693D01*
X439739Y106616D01*
X439608Y106540D01*
X439477Y106463D01*
X439335Y106398D01*
X439324D01*
X439313Y106387D01*
X439280Y106376D01*
X439236Y106365D01*
X439127Y106332D01*
X438963Y106299D01*
X438777Y106266D01*
X438559Y106234D01*
X438307Y106212D01*
X438034Y106201D01*
X437870D01*
X437750Y106212D01*
X437608D01*
X437444Y106234D01*
X437269Y106245D01*
X437072Y106266D01*
X437050D01*
X436985Y106277D01*
X436886Y106288D01*
X436777Y106321D01*
X436635Y106343D01*
X436493Y106387D01*
X436351Y106441D01*
X436209Y106496D01*
X436198Y106507D01*
X436154Y106529D01*
X436089Y106572D01*
X436001Y106627D01*
X435903Y106704D01*
X435793Y106791D01*
X435684Y106889D01*
X435575Y107010D01*
X435564Y107021D01*
X435531Y107064D01*
X435476Y107141D01*
X435422Y107228D01*
X435356Y107327D01*
X435291Y107447D01*
X435225Y107578D01*
X435181Y107709D01*
Y107720D01*
X435170Y107731D01*
Y107764D01*
X435159Y107808D01*
X435127Y107917D01*
X435105Y108048D01*
X435072Y108201D01*
X435039Y108376D01*
X435028Y108551D01*
X435017Y108715D01*
Y112289D01*
X436865D01*
Y108638D01*
Y108616D01*
Y108562D01*
X436875Y108463D01*
X436897Y108354D01*
X436930Y108234D01*
X436974Y108114D01*
X437040Y107982D01*
X437127Y107873D01*
X437138Y107862D01*
X437182Y107829D01*
X437236Y107786D01*
X437324Y107742D01*
X437433Y107687D01*
X437564Y107644D01*
X437717Y107611D01*
X437892Y107600D01*
X437968D01*
X438056Y107611D01*
X438165Y107633D01*
X438285Y107666D01*
X438417Y107709D01*
X438537Y107775D01*
X438646Y107862D01*
X438657Y107873D01*
X438690Y107917D01*
X438734Y107972D01*
X438788Y108059D01*
X438832Y108168D01*
X438876Y108310D01*
X438908Y108463D01*
X438919Y108638D01*
Y112289D01*
X440767D01*
Y108715D01*
D02*
G37*
G36*
X448713Y106299D02*
X447193D01*
Y110868D01*
X446024Y106299D01*
X444647D01*
X443488Y110868D01*
Y106299D01*
X441969D01*
Y112289D01*
X444406D01*
X445335Y108638D01*
X446275Y112289D01*
X448713D01*
Y106299D01*
D02*
G37*
G36*
X386311Y107775D02*
X389207D01*
Y106299D01*
X384464D01*
Y112289D01*
X386311D01*
Y107775D01*
D02*
G37*
G36*
X383382Y111010D02*
X380277D01*
Y110059D01*
X383152D01*
Y108835D01*
X380277D01*
Y107655D01*
X383469D01*
Y106299D01*
X378419D01*
Y112289D01*
X383382D01*
Y111010D01*
D02*
G37*
G36*
X410433Y146653D02*
X398622D01*
X404528Y152559D01*
X410433Y146653D01*
D02*
G37*
G36*
X425563Y112376D02*
X425694Y112365D01*
X425836Y112344D01*
X426000Y112322D01*
X426164Y112289D01*
X426350Y112245D01*
X426536Y112190D01*
X426732Y112125D01*
X426918Y112048D01*
X427104Y111950D01*
X427290Y111841D01*
X427454Y111721D01*
X427618Y111578D01*
X427629Y111567D01*
X427651Y111546D01*
X427694Y111491D01*
X427749Y111436D01*
X427804Y111349D01*
X427880Y111250D01*
X427957Y111130D01*
X428033Y110999D01*
X428110Y110846D01*
X428175Y110682D01*
X428252Y110496D01*
X428306Y110300D01*
X428361Y110081D01*
X428405Y109852D01*
X428427Y109600D01*
X428438Y109338D01*
Y109327D01*
Y109294D01*
Y109239D01*
Y109163D01*
X428427Y109075D01*
X428416Y108966D01*
X428405Y108857D01*
X428394Y108726D01*
X428350Y108452D01*
X428285Y108168D01*
X428197Y107884D01*
X428077Y107611D01*
Y107600D01*
X428066Y107578D01*
X428044Y107545D01*
X428011Y107501D01*
X427935Y107381D01*
X427814Y107228D01*
X427672Y107064D01*
X427498Y106889D01*
X427301Y106726D01*
X427060Y106572D01*
X427049D01*
X427028Y106562D01*
X426995Y106540D01*
X426940Y106518D01*
X426874Y106485D01*
X426798Y106452D01*
X426711Y106420D01*
X426601Y106387D01*
X426481Y106354D01*
X426361Y106321D01*
X426077Y106255D01*
X425749Y106212D01*
X425388Y106201D01*
X425224D01*
X425137Y106212D01*
X425038Y106223D01*
X424929D01*
X424798Y106245D01*
X424536Y106277D01*
X424262Y106332D01*
X423978Y106409D01*
X423716Y106518D01*
X423705D01*
X423683Y106529D01*
X423650Y106551D01*
X423606Y106583D01*
X423486Y106660D01*
X423333Y106769D01*
X423158Y106900D01*
X422984Y107086D01*
X422798Y107294D01*
X422634Y107534D01*
Y107545D01*
X422612Y107567D01*
X422601Y107611D01*
X422568Y107666D01*
X422535Y107731D01*
X422503Y107808D01*
X422470Y107906D01*
X422437Y108015D01*
X422393Y108135D01*
X422361Y108267D01*
X422328Y108409D01*
X422295Y108573D01*
X422251Y108912D01*
X422229Y109283D01*
Y109305D01*
Y109349D01*
X422240Y109425D01*
Y109524D01*
X422251Y109644D01*
X422273Y109786D01*
X422295Y109950D01*
X422328Y110114D01*
X422371Y110300D01*
X422426Y110485D01*
X422492Y110671D01*
X422568Y110868D01*
X422667Y111054D01*
X422776Y111240D01*
X422896Y111404D01*
X423038Y111567D01*
X423049Y111578D01*
X423082Y111600D01*
X423126Y111644D01*
X423191Y111699D01*
X423279Y111753D01*
X423377Y111830D01*
X423497Y111906D01*
X423628Y111983D01*
X423781Y112059D01*
X423956Y112125D01*
X424142Y112201D01*
X424350Y112256D01*
X424568Y112311D01*
X424809Y112354D01*
X425060Y112376D01*
X425322Y112387D01*
X425465D01*
X425563Y112376D01*
D02*
G37*
G36*
X505799Y106299D02*
X504280D01*
Y110868D01*
X503111Y106299D01*
X501733D01*
X500575Y110868D01*
Y106299D01*
X499055D01*
Y112289D01*
X501493D01*
X502422Y108638D01*
X503362Y112289D01*
X505799D01*
Y106299D01*
D02*
G37*
G36*
X528543Y146653D02*
X516732D01*
X522638Y152559D01*
X528543Y146653D01*
D02*
G37*
G36*
X454855Y111010D02*
X451751D01*
Y110059D01*
X454626D01*
Y108835D01*
X451751D01*
Y107655D01*
X454943D01*
Y106299D01*
X449893D01*
Y112289D01*
X454855D01*
Y111010D01*
D02*
G37*
G36*
X431279Y107775D02*
X434176D01*
Y106299D01*
X429432D01*
Y112289D01*
X431279D01*
Y107775D01*
D02*
G37*
G36*
X399088Y112376D02*
X399186D01*
X399296Y112365D01*
X399416Y112354D01*
X399547Y112333D01*
X399842Y112278D01*
X400137Y112190D01*
X400421Y112081D01*
X400553Y112005D01*
X400684Y111928D01*
X400695D01*
X400717Y111906D01*
X400749Y111884D01*
X400793Y111841D01*
X400848Y111797D01*
X400913Y111731D01*
X400979Y111666D01*
X401055Y111578D01*
X401132Y111491D01*
X401208Y111382D01*
X401296Y111272D01*
X401372Y111141D01*
X401449Y110999D01*
X401525Y110857D01*
X401591Y110693D01*
X401657Y110518D01*
X400017Y110158D01*
Y110168D01*
X400006Y110201D01*
X399984Y110256D01*
X399962Y110310D01*
X399897Y110442D01*
X399864Y110496D01*
X399831Y110551D01*
X399820Y110562D01*
X399810Y110584D01*
X399766Y110627D01*
X399722Y110671D01*
X399602Y110781D01*
X399449Y110879D01*
X399438Y110890D01*
X399416Y110901D01*
X399361Y110923D01*
X399307Y110944D01*
X399230Y110966D01*
X399143Y110977D01*
X399044Y110999D01*
X398880D01*
X398848Y110988D01*
X398727Y110977D01*
X398585Y110933D01*
X398432Y110879D01*
X398268Y110781D01*
X398115Y110660D01*
X398050Y110573D01*
X397984Y110485D01*
X397973Y110464D01*
X397940Y110420D01*
X397908Y110321D01*
X397864Y110201D01*
X397809Y110037D01*
X397777Y109841D01*
X397744Y109600D01*
X397733Y109316D01*
Y109305D01*
Y109272D01*
Y109218D01*
Y109152D01*
X397744Y109075D01*
Y108977D01*
X397765Y108769D01*
X397809Y108551D01*
X397853Y108321D01*
X397930Y108114D01*
X397973Y108026D01*
X398028Y107950D01*
X398039Y107939D01*
X398082Y107895D01*
X398159Y107840D01*
X398247Y107775D01*
X398367Y107698D01*
X398520Y107644D01*
X398684Y107600D01*
X398880Y107589D01*
X398968D01*
X399066Y107600D01*
X399186Y107622D01*
X399318Y107666D01*
X399449Y107709D01*
X399580Y107786D01*
X399689Y107884D01*
X399700Y107895D01*
X399733Y107939D01*
X399788Y108004D01*
X399842Y108103D01*
X399908Y108223D01*
X399973Y108376D01*
X400039Y108551D01*
X400094Y108758D01*
X401711Y108256D01*
Y108245D01*
X401700Y108223D01*
X401689Y108190D01*
X401679Y108146D01*
X401646Y108015D01*
X401580Y107862D01*
X401514Y107676D01*
X401416Y107491D01*
X401318Y107305D01*
X401187Y107119D01*
X401176Y107097D01*
X401121Y107043D01*
X401045Y106966D01*
X400946Y106857D01*
X400815Y106747D01*
X400673Y106638D01*
X400498Y106529D01*
X400312Y106430D01*
X400301D01*
X400290Y106420D01*
X400258Y106409D01*
X400225Y106398D01*
X400105Y106354D01*
X399952Y106321D01*
X399766Y106277D01*
X399536Y106234D01*
X399274Y106212D01*
X398990Y106201D01*
X398826D01*
X398738Y106212D01*
X398651D01*
X398542Y106223D01*
X398421Y106234D01*
X398170Y106266D01*
X397897Y106321D01*
X397634Y106387D01*
X397383Y106474D01*
X397372D01*
X397361Y106485D01*
X397328Y106507D01*
X397285Y106529D01*
X397164Y106605D01*
X397022Y106704D01*
X396858Y106846D01*
X396673Y107010D01*
X396498Y107217D01*
X396323Y107469D01*
Y107480D01*
X396301Y107501D01*
X396279Y107545D01*
X396257Y107600D01*
X396224Y107666D01*
X396181Y107753D01*
X396137Y107851D01*
X396104Y107972D01*
X396060Y108092D01*
X396017Y108234D01*
X395984Y108387D01*
X395940Y108551D01*
X395918Y108726D01*
X395897Y108912D01*
X395875Y109305D01*
Y109327D01*
Y109371D01*
X395886Y109447D01*
Y109545D01*
X395897Y109677D01*
X395918Y109819D01*
X395940Y109972D01*
X395973Y110147D01*
X396017Y110332D01*
X396071Y110518D01*
X396126Y110704D01*
X396203Y110901D01*
X396301Y111087D01*
X396399Y111261D01*
X396519Y111436D01*
X396662Y111589D01*
X396673Y111600D01*
X396694Y111622D01*
X396749Y111666D01*
X396804Y111710D01*
X396891Y111775D01*
X396989Y111841D01*
X397099Y111917D01*
X397241Y111994D01*
X397383Y112059D01*
X397558Y112136D01*
X397744Y112201D01*
X397940Y112267D01*
X398159Y112311D01*
X398389Y112354D01*
X398640Y112376D01*
X398902Y112387D01*
X399012D01*
X399088Y112376D01*
D02*
G37*
G36*
X404528Y129921D02*
X398622Y135827D01*
X410433D01*
X404528Y129921D01*
D02*
G37*
G36*
X348318Y112278D02*
X348394D01*
X348470Y112267D01*
X348667Y112234D01*
X348886Y112180D01*
X349104Y112103D01*
X349312Y111994D01*
X349509Y111852D01*
X349520D01*
X349531Y111830D01*
X349585Y111775D01*
X349662Y111688D01*
X349749Y111556D01*
X349826Y111404D01*
X349902Y111229D01*
X349957Y111021D01*
X349979Y110912D01*
Y110792D01*
Y110781D01*
Y110770D01*
Y110704D01*
X349957Y110606D01*
X349935Y110485D01*
X349891Y110343D01*
X349837Y110190D01*
X349749Y110037D01*
X349640Y109884D01*
X349629Y109873D01*
X349596Y109841D01*
X349552Y109797D01*
X349476Y109742D01*
X349389Y109677D01*
X349279Y109611D01*
X349148Y109545D01*
X348995Y109480D01*
X349006D01*
X349028Y109469D01*
X349061D01*
X349104Y109447D01*
X349214Y109414D01*
X349356Y109360D01*
X349509Y109283D01*
X349673Y109185D01*
X349815Y109075D01*
X349946Y108944D01*
X349957Y108922D01*
X349990Y108879D01*
X350044Y108791D01*
X350099Y108682D01*
X350154Y108551D01*
X350208Y108387D01*
X350241Y108201D01*
X350252Y107993D01*
Y107972D01*
Y107917D01*
X350241Y107829D01*
X350230Y107720D01*
X350197Y107589D01*
X350165Y107447D01*
X350110Y107305D01*
X350033Y107163D01*
X350023Y107152D01*
X349990Y107097D01*
X349946Y107032D01*
X349880Y106955D01*
X349793Y106857D01*
X349684Y106758D01*
X349564Y106660D01*
X349432Y106572D01*
X349421D01*
X349389Y106551D01*
X349334Y106529D01*
X349257Y106496D01*
X349159Y106463D01*
X349039Y106430D01*
X348897Y106409D01*
X348733Y106376D01*
X348711D01*
X348678Y106365D01*
X348634D01*
X348525Y106354D01*
X348394Y106343D01*
X348252Y106321D01*
X348121Y106310D01*
X348001Y106299D01*
X344711D01*
Y112289D01*
X348263D01*
X348318Y112278D01*
D02*
G37*
G36*
X375009Y112376D02*
X375108D01*
X375217Y112365D01*
X375337Y112354D01*
X375468Y112333D01*
X375752Y112278D01*
X376048Y112201D01*
X376321Y112092D01*
X376452Y112027D01*
X376572Y111950D01*
X376583D01*
X376594Y111928D01*
X376671Y111873D01*
X376769Y111764D01*
X376889Y111622D01*
X376955Y111535D01*
X377010Y111436D01*
X377075Y111316D01*
X377130Y111196D01*
X377184Y111065D01*
X377228Y110923D01*
X377261Y110759D01*
X377294Y110595D01*
X375545Y110496D01*
Y110518D01*
X375534Y110562D01*
X375512Y110638D01*
X375479Y110726D01*
X375436Y110813D01*
X375392Y110912D01*
X375326Y111010D01*
X375250Y111087D01*
X375239Y111098D01*
X375206Y111119D01*
X375162Y111141D01*
X375097Y111185D01*
X375009Y111218D01*
X374900Y111240D01*
X374780Y111261D01*
X374638Y111272D01*
X374583D01*
X374528Y111261D01*
X374452Y111250D01*
X374288Y111218D01*
X374211Y111174D01*
X374146Y111130D01*
X374135Y111119D01*
X374124Y111108D01*
X374069Y111043D01*
X374015Y110933D01*
X374004Y110868D01*
X373993Y110802D01*
Y110792D01*
Y110781D01*
X374015Y110715D01*
X374047Y110627D01*
X374080Y110584D01*
X374124Y110540D01*
X374135D01*
X374157Y110518D01*
X374189Y110496D01*
X374255Y110464D01*
X374332Y110431D01*
X374441Y110398D01*
X374572Y110354D01*
X374736Y110321D01*
X374747D01*
X374791Y110310D01*
X374856Y110300D01*
X374933Y110278D01*
X375031Y110256D01*
X375151Y110223D01*
X375283Y110190D01*
X375414Y110158D01*
X375698Y110081D01*
X375993Y109983D01*
X376255Y109884D01*
X376376Y109841D01*
X376485Y109786D01*
X376496D01*
X376507Y109775D01*
X376572Y109742D01*
X376660Y109687D01*
X376780Y109611D01*
X376900Y109513D01*
X377031Y109403D01*
X377152Y109272D01*
X377250Y109130D01*
X377261Y109108D01*
X377283Y109064D01*
X377326Y108977D01*
X377370Y108868D01*
X377414Y108737D01*
X377458Y108595D01*
X377480Y108420D01*
X377490Y108245D01*
Y108234D01*
Y108223D01*
Y108190D01*
Y108146D01*
X377468Y108037D01*
X377447Y107895D01*
X377414Y107731D01*
X377348Y107545D01*
X377272Y107359D01*
X377163Y107174D01*
X377152Y107152D01*
X377108Y107097D01*
X377031Y107010D01*
X376933Y106900D01*
X376802Y106780D01*
X376649Y106660D01*
X376474Y106551D01*
X376266Y106441D01*
X376255D01*
X376244Y106430D01*
X376212Y106420D01*
X376168Y106409D01*
X376113Y106387D01*
X376037Y106365D01*
X375960Y106343D01*
X375873Y106321D01*
X375665Y106277D01*
X375414Y106234D01*
X375140Y106212D01*
X374823Y106201D01*
X374681D01*
X374572Y106212D01*
X374452Y106223D01*
X374310Y106234D01*
X374157Y106245D01*
X373982Y106277D01*
X373632Y106343D01*
X373282Y106441D01*
X373118Y106507D01*
X372965Y106594D01*
X372823Y106682D01*
X372703Y106780D01*
X372692Y106791D01*
X372681Y106813D01*
X372648Y106846D01*
X372616Y106889D01*
X372572Y106944D01*
X372517Y107010D01*
X372463Y107097D01*
X372408Y107185D01*
X372288Y107403D01*
X372178Y107666D01*
X372102Y107950D01*
X372069Y108114D01*
X372047Y108277D01*
X373807Y108398D01*
Y108376D01*
X373818Y108321D01*
X373829Y108245D01*
X373862Y108157D01*
X373927Y107939D01*
X373982Y107829D01*
X374037Y107742D01*
X374047Y107731D01*
X374091Y107687D01*
X374157Y107633D01*
X374244Y107567D01*
X374364Y107491D01*
X374506Y107436D01*
X374670Y107392D01*
X374856Y107381D01*
X374922D01*
X374987Y107392D01*
X375086Y107403D01*
X375184Y107425D01*
X375283Y107458D01*
X375381Y107501D01*
X375468Y107556D01*
X375479Y107567D01*
X375501Y107589D01*
X375534Y107633D01*
X375578Y107676D01*
X375621Y107742D01*
X375654Y107818D01*
X375676Y107906D01*
X375687Y107993D01*
Y108004D01*
Y108037D01*
X375676Y108081D01*
X375665Y108135D01*
X375632Y108201D01*
X375600Y108267D01*
X375545Y108343D01*
X375479Y108409D01*
X375468Y108420D01*
X375436Y108441D01*
X375370Y108474D01*
X375283Y108518D01*
X375151Y108573D01*
X374987Y108638D01*
X374889Y108671D01*
X374780Y108693D01*
X374659Y108726D01*
X374528Y108758D01*
X374517D01*
X374474Y108769D01*
X374408Y108791D01*
X374332Y108802D01*
X374233Y108835D01*
X374113Y108868D01*
X373993Y108901D01*
X373862Y108944D01*
X373567Y109054D01*
X373282Y109174D01*
X373020Y109316D01*
X372900Y109392D01*
X372791Y109480D01*
Y109491D01*
X372769Y109502D01*
X372714Y109556D01*
X372626Y109655D01*
X372539Y109797D01*
X372441Y109961D01*
X372353Y110158D01*
X372299Y110376D01*
X372288Y110496D01*
X372277Y110627D01*
Y110638D01*
Y110649D01*
Y110704D01*
X372288Y110802D01*
X372310Y110912D01*
X372342Y111043D01*
X372386Y111196D01*
X372452Y111349D01*
X372539Y111502D01*
X372550Y111524D01*
X372594Y111567D01*
X372659Y111644D01*
X372747Y111742D01*
X372856Y111841D01*
X372998Y111950D01*
X373162Y112048D01*
X373348Y112147D01*
X373359D01*
X373370Y112158D01*
X373403Y112169D01*
X373446Y112180D01*
X373501Y112201D01*
X373567Y112223D01*
X373643Y112245D01*
X373730Y112267D01*
X373829Y112289D01*
X373949Y112311D01*
X374201Y112354D01*
X374496Y112376D01*
X374823Y112387D01*
X374933D01*
X375009Y112376D01*
D02*
G37*
G36*
X407810Y110813D02*
X405919D01*
Y106299D01*
X404072D01*
Y110813D01*
X402181D01*
Y112289D01*
X407810D01*
Y110813D01*
D02*
G37*
G36*
X395011Y111010D02*
X391907D01*
Y110059D01*
X394782D01*
Y108835D01*
X391907D01*
Y107655D01*
X395099D01*
Y106299D01*
X390049D01*
Y112289D01*
X395011D01*
Y111010D01*
D02*
G37*
G36*
X522638Y129921D02*
X516732Y135827D01*
X528543D01*
X522638Y129921D01*
D02*
G37*
%LPC*%
G36*
X227492Y110988D02*
X227470D01*
X227404Y110977D01*
X227295Y110966D01*
X227175Y110933D01*
X227033Y110890D01*
X226880Y110813D01*
X226727Y110715D01*
X226595Y110584D01*
X226585Y110562D01*
X226541Y110507D01*
X226486Y110409D01*
X226431Y110278D01*
X226399Y110190D01*
X226366Y110092D01*
X226333Y109983D01*
X226311Y109873D01*
X226289Y109742D01*
X226268Y109600D01*
X226257Y109447D01*
Y109283D01*
Y109272D01*
Y109239D01*
Y109196D01*
X226268Y109141D01*
Y109064D01*
X226278Y108977D01*
X226300Y108780D01*
X226333Y108573D01*
X226399Y108354D01*
X226475Y108146D01*
X226530Y108059D01*
X226585Y107982D01*
X226595Y107961D01*
X226650Y107917D01*
X226727Y107862D01*
X226825Y107786D01*
X226956Y107709D01*
X227120Y107655D01*
X227306Y107611D01*
X227514Y107589D01*
X227568D01*
X227612Y107600D01*
X227721Y107611D01*
X227852Y107633D01*
X227994Y107687D01*
X228148Y107753D01*
X228300Y107840D01*
X228432Y107972D01*
X228443Y107993D01*
X228486Y108048D01*
X228508Y108092D01*
X228541Y108146D01*
X228574Y108212D01*
X228607Y108289D01*
X228628Y108376D01*
X228661Y108474D01*
X228694Y108595D01*
X228716Y108715D01*
X228738Y108857D01*
X228760Y109010D01*
X228770Y109174D01*
Y109360D01*
Y109371D01*
Y109392D01*
Y109436D01*
Y109502D01*
X228760Y109567D01*
X228749Y109644D01*
X228727Y109830D01*
X228683Y110026D01*
X228628Y110234D01*
X228541Y110431D01*
X228421Y110595D01*
X228410Y110617D01*
X228355Y110660D01*
X228279Y110715D01*
X228180Y110792D01*
X228049Y110868D01*
X227885Y110923D01*
X227699Y110966D01*
X227492Y110988D01*
D02*
G37*
G36*
X160279Y166425D02*
X159492D01*
X159416Y166414D01*
X159328D01*
X159230Y166403D01*
X159044Y166370D01*
X159033D01*
X159011Y166359D01*
X158968Y166348D01*
X158913Y166326D01*
X158782Y166283D01*
X158662Y166206D01*
X158651D01*
X158640Y166184D01*
X158574Y166130D01*
X158498Y166053D01*
X158432Y165944D01*
Y165933D01*
X158421Y165922D01*
X158410Y165889D01*
X158399Y165846D01*
X158378Y165736D01*
X158367Y165605D01*
Y165594D01*
Y165550D01*
X158378Y165496D01*
X158388Y165419D01*
X158421Y165332D01*
X158454Y165244D01*
X158509Y165157D01*
X158574Y165080D01*
X158585Y165070D01*
X158618Y165048D01*
X158662Y165026D01*
X158727Y164993D01*
X158804Y164949D01*
X158902Y164927D01*
X159022Y164906D01*
X159153Y164895D01*
X159208D01*
X159263Y164906D01*
X159339Y164917D01*
X159427Y164927D01*
X159525Y164960D01*
X159624Y164993D01*
X159722Y165048D01*
X159733Y165059D01*
X159766Y165080D01*
X159820Y165113D01*
X159886Y165168D01*
X159973Y165234D01*
X160072Y165310D01*
X160170Y165408D01*
X160279Y165518D01*
Y166425D01*
D02*
G37*
G36*
X168721Y111076D02*
X168197D01*
Y109742D01*
X168732D01*
X168831Y109753D01*
X168940Y109764D01*
X169060Y109786D01*
X169191Y109819D01*
X169301Y109862D01*
X169399Y109917D01*
X169410Y109928D01*
X169432Y109950D01*
X169465Y109994D01*
X169508Y110048D01*
X169552Y110114D01*
X169585Y110201D01*
X169607Y110289D01*
X169618Y110398D01*
Y110409D01*
Y110442D01*
X169607Y110496D01*
X169596Y110562D01*
X169574Y110638D01*
X169530Y110726D01*
X169486Y110802D01*
X169421Y110879D01*
X169410Y110890D01*
X169388Y110912D01*
X169333Y110944D01*
X169268Y110977D01*
X169169Y111010D01*
X169049Y111043D01*
X168896Y111065D01*
X168721Y111076D01*
D02*
G37*
G36*
X196473D02*
X195664D01*
Y109862D01*
X196505D01*
X196549Y109873D01*
X196615Y109884D01*
X196702Y109895D01*
X196811Y109917D01*
X196932Y109939D01*
X196943D01*
X196965Y109950D01*
X196997Y109961D01*
X197041Y109972D01*
X197139Y110026D01*
X197194Y110070D01*
X197238Y110125D01*
X197249Y110136D01*
X197260Y110158D01*
X197281Y110179D01*
X197303Y110223D01*
X197336Y110332D01*
X197358Y110398D01*
Y110475D01*
Y110485D01*
Y110518D01*
X197347Y110573D01*
X197336Y110638D01*
X197314Y110704D01*
X197281Y110781D01*
X197238Y110846D01*
X197172Y110912D01*
X197161Y110923D01*
X197139Y110933D01*
X197085Y110966D01*
X197019Y110999D01*
X196921Y111021D01*
X196800Y111054D01*
X196648Y111065D01*
X196473Y111076D01*
D02*
G37*
G36*
X148628Y164676D02*
X148617D01*
X148606Y164654D01*
X148540Y164600D01*
X148464Y164534D01*
X148388Y164446D01*
X148377Y164425D01*
X148333Y164381D01*
X148278Y164326D01*
X148224Y164250D01*
X148213Y164239D01*
X148191Y164195D01*
X148169Y164130D01*
X148147Y164064D01*
Y164042D01*
Y163998D01*
X148136Y163944D01*
Y163867D01*
Y163856D01*
Y163813D01*
X148158Y163758D01*
X148180Y163692D01*
X148213Y163616D01*
X148267Y163539D01*
X148344Y163463D01*
X148442Y163397D01*
X148453Y163386D01*
X148497Y163375D01*
X148573Y163343D01*
X148672Y163321D01*
X148792Y163288D01*
X148945Y163255D01*
X149120Y163244D01*
X149317Y163233D01*
X149437D01*
X149524Y163244D01*
X149612Y163255D01*
X149710Y163266D01*
X149907Y163310D01*
X149918D01*
X149951Y163321D01*
X149994Y163343D01*
X150049Y163354D01*
X150169Y163419D01*
X150289Y163496D01*
X150300D01*
X150311Y163517D01*
X150377Y163572D01*
X150442Y163649D01*
X150508Y163758D01*
Y163769D01*
X150519Y163780D01*
X150541Y163845D01*
X150563Y163944D01*
X150574Y164064D01*
Y164075D01*
Y164108D01*
X150563Y164162D01*
X150541Y164217D01*
X150519Y164283D01*
X150475Y164359D01*
X150420Y164425D01*
X150344Y164479D01*
X150333Y164490D01*
X150300Y164501D01*
X150257Y164523D01*
X150180Y164556D01*
X150093Y164578D01*
X149994Y164600D01*
X149863Y164621D01*
X149732Y164632D01*
X148628Y164676D01*
D02*
G37*
G36*
X175247Y110988D02*
X175225D01*
X175159Y110977D01*
X175050Y110966D01*
X174930Y110933D01*
X174787Y110890D01*
X174635Y110813D01*
X174481Y110715D01*
X174350Y110584D01*
X174339Y110562D01*
X174296Y110507D01*
X174241Y110409D01*
X174186Y110278D01*
X174153Y110190D01*
X174121Y110092D01*
X174088Y109983D01*
X174066Y109873D01*
X174044Y109742D01*
X174022Y109600D01*
X174011Y109447D01*
Y109283D01*
Y109272D01*
Y109239D01*
Y109196D01*
X174022Y109141D01*
Y109064D01*
X174033Y108977D01*
X174055Y108780D01*
X174088Y108573D01*
X174153Y108354D01*
X174230Y108146D01*
X174285Y108059D01*
X174339Y107982D01*
X174350Y107961D01*
X174405Y107917D01*
X174481Y107862D01*
X174580Y107786D01*
X174711Y107709D01*
X174875Y107655D01*
X175061Y107611D01*
X175268Y107589D01*
X175323D01*
X175367Y107600D01*
X175476Y107611D01*
X175607Y107633D01*
X175749Y107687D01*
X175902Y107753D01*
X176055Y107840D01*
X176187Y107972D01*
X176198Y107993D01*
X176241Y108048D01*
X176263Y108092D01*
X176296Y108146D01*
X176329Y108212D01*
X176361Y108289D01*
X176383Y108376D01*
X176416Y108474D01*
X176449Y108595D01*
X176471Y108715D01*
X176493Y108857D01*
X176514Y109010D01*
X176525Y109174D01*
Y109360D01*
Y109371D01*
Y109392D01*
Y109436D01*
Y109502D01*
X176514Y109567D01*
X176504Y109644D01*
X176482Y109830D01*
X176438Y110026D01*
X176383Y110234D01*
X176296Y110431D01*
X176176Y110595D01*
X176165Y110617D01*
X176110Y110660D01*
X176033Y110715D01*
X175935Y110792D01*
X175804Y110868D01*
X175640Y110923D01*
X175454Y110966D01*
X175247Y110988D01*
D02*
G37*
G36*
X243766D02*
X243745D01*
X243679Y110977D01*
X243570Y110966D01*
X243449Y110933D01*
X243307Y110890D01*
X243154Y110813D01*
X243001Y110715D01*
X242870Y110584D01*
X242859Y110562D01*
X242816Y110507D01*
X242761Y110409D01*
X242706Y110278D01*
X242673Y110190D01*
X242641Y110092D01*
X242608Y109983D01*
X242586Y109873D01*
X242564Y109742D01*
X242542Y109600D01*
X242531Y109447D01*
Y109283D01*
Y109272D01*
Y109239D01*
Y109196D01*
X242542Y109141D01*
Y109064D01*
X242553Y108977D01*
X242575Y108780D01*
X242608Y108573D01*
X242673Y108354D01*
X242750Y108146D01*
X242805Y108059D01*
X242859Y107982D01*
X242870Y107961D01*
X242925Y107917D01*
X243001Y107862D01*
X243100Y107786D01*
X243231Y107709D01*
X243395Y107655D01*
X243581Y107611D01*
X243788Y107589D01*
X243843D01*
X243887Y107600D01*
X243996Y107611D01*
X244127Y107633D01*
X244269Y107687D01*
X244422Y107753D01*
X244575Y107840D01*
X244707Y107972D01*
X244717Y107993D01*
X244761Y108048D01*
X244783Y108092D01*
X244816Y108146D01*
X244848Y108212D01*
X244881Y108289D01*
X244903Y108376D01*
X244936Y108474D01*
X244969Y108595D01*
X244991Y108715D01*
X245012Y108857D01*
X245034Y109010D01*
X245045Y109174D01*
Y109360D01*
Y109371D01*
Y109392D01*
Y109436D01*
Y109502D01*
X245034Y109567D01*
X245023Y109644D01*
X245002Y109830D01*
X244958Y110026D01*
X244903Y110234D01*
X244816Y110431D01*
X244695Y110595D01*
X244685Y110617D01*
X244630Y110660D01*
X244553Y110715D01*
X244455Y110792D01*
X244324Y110868D01*
X244160Y110923D01*
X243974Y110966D01*
X243766Y110988D01*
D02*
G37*
G36*
X347509Y108802D02*
X346580D01*
Y107589D01*
X347596D01*
X347684Y107600D01*
X347782Y107611D01*
X347902Y107633D01*
X348011Y107655D01*
X348110Y107698D01*
X348197Y107753D01*
X348208Y107764D01*
X348230Y107786D01*
X348263Y107818D01*
X348296Y107873D01*
X348328Y107939D01*
X348361Y108026D01*
X348383Y108114D01*
X348394Y108212D01*
Y108223D01*
Y108256D01*
X348383Y108299D01*
X348372Y108365D01*
X348350Y108431D01*
X348306Y108507D01*
X348263Y108573D01*
X348197Y108638D01*
X348186Y108649D01*
X348164Y108660D01*
X348110Y108693D01*
X348033Y108726D01*
X347946Y108747D01*
X347826Y108780D01*
X347684Y108791D01*
X347509Y108802D01*
D02*
G37*
G36*
X404373Y181637D02*
X403444D01*
Y180424D01*
X404460D01*
X404548Y180435D01*
X404646Y180446D01*
X404766Y180467D01*
X404876Y180489D01*
X404974Y180533D01*
X405061Y180588D01*
X405072Y180598D01*
X405094Y180620D01*
X405127Y180653D01*
X405160Y180708D01*
X405193Y180773D01*
X405225Y180861D01*
X405247Y180948D01*
X405258Y181047D01*
Y181058D01*
Y181090D01*
X405247Y181134D01*
X405236Y181200D01*
X405215Y181265D01*
X405171Y181342D01*
X405127Y181407D01*
X405061Y181473D01*
X405051Y181484D01*
X405029Y181495D01*
X404974Y181527D01*
X404897Y181560D01*
X404810Y181582D01*
X404690Y181615D01*
X404548Y181626D01*
X404373Y181637D01*
D02*
G37*
G36*
X512334Y183910D02*
X511809D01*
Y182577D01*
X512345D01*
X512443Y182588D01*
X512552Y182599D01*
X512673Y182621D01*
X512804Y182653D01*
X512913Y182697D01*
X513012Y182752D01*
X513023Y182763D01*
X513044Y182784D01*
X513077Y182828D01*
X513121Y182883D01*
X513165Y182948D01*
X513197Y183036D01*
X513219Y183123D01*
X513230Y183233D01*
Y183244D01*
Y183276D01*
X513219Y183331D01*
X513208Y183397D01*
X513186Y183473D01*
X513143Y183561D01*
X513099Y183637D01*
X513033Y183713D01*
X513023Y183724D01*
X513001Y183746D01*
X512946Y183779D01*
X512880Y183812D01*
X512782Y183845D01*
X512662Y183878D01*
X512509Y183899D01*
X512334Y183910D01*
D02*
G37*
G36*
X347399Y111076D02*
X346580D01*
Y109939D01*
X347454D01*
X347531Y109950D01*
X347629Y109961D01*
X347826Y110004D01*
X347913Y110037D01*
X347990Y110081D01*
X348001Y110092D01*
X348022Y110114D01*
X348044Y110147D01*
X348077Y110190D01*
X348110Y110256D01*
X348143Y110332D01*
X348153Y110420D01*
X348164Y110518D01*
Y110529D01*
Y110562D01*
X348153Y110606D01*
X348143Y110671D01*
X348121Y110737D01*
X348088Y110802D01*
X348044Y110868D01*
X347990Y110923D01*
X347979Y110933D01*
X347957Y110944D01*
X347913Y110966D01*
X347848Y110999D01*
X347771Y111032D01*
X347673Y111054D01*
X347541Y111065D01*
X347399Y111076D01*
D02*
G37*
G36*
X425312Y110988D02*
X425290D01*
X425224Y110977D01*
X425115Y110966D01*
X424995Y110933D01*
X424853Y110890D01*
X424699Y110813D01*
X424546Y110715D01*
X424415Y110584D01*
X424404Y110562D01*
X424361Y110507D01*
X424306Y110409D01*
X424251Y110278D01*
X424219Y110190D01*
X424186Y110092D01*
X424153Y109983D01*
X424131Y109873D01*
X424109Y109742D01*
X424087Y109600D01*
X424077Y109447D01*
Y109283D01*
Y109272D01*
Y109239D01*
Y109196D01*
X424087Y109141D01*
Y109064D01*
X424098Y108977D01*
X424120Y108780D01*
X424153Y108573D01*
X424219Y108354D01*
X424295Y108146D01*
X424350Y108059D01*
X424404Y107982D01*
X424415Y107961D01*
X424470Y107917D01*
X424546Y107862D01*
X424645Y107786D01*
X424776Y107709D01*
X424940Y107655D01*
X425126Y107611D01*
X425333Y107589D01*
X425388D01*
X425432Y107600D01*
X425541Y107611D01*
X425672Y107633D01*
X425814Y107687D01*
X425967Y107753D01*
X426120Y107840D01*
X426252Y107972D01*
X426263Y107993D01*
X426306Y108048D01*
X426328Y108092D01*
X426361Y108146D01*
X426394Y108212D01*
X426426Y108289D01*
X426448Y108376D01*
X426481Y108474D01*
X426514Y108595D01*
X426536Y108715D01*
X426558Y108857D01*
X426579Y109010D01*
X426590Y109174D01*
Y109360D01*
Y109371D01*
Y109392D01*
Y109436D01*
Y109502D01*
X426579Y109567D01*
X426569Y109644D01*
X426547Y109830D01*
X426503Y110026D01*
X426448Y110234D01*
X426361Y110431D01*
X426241Y110595D01*
X426230Y110617D01*
X426175Y110660D01*
X426098Y110715D01*
X426000Y110792D01*
X425869Y110868D01*
X425705Y110923D01*
X425519Y110966D01*
X425312Y110988D01*
D02*
G37*
G36*
X482398D02*
X482376D01*
X482311Y110977D01*
X482201Y110966D01*
X482081Y110933D01*
X481939Y110890D01*
X481786Y110813D01*
X481633Y110715D01*
X481502Y110584D01*
X481491Y110562D01*
X481447Y110507D01*
X481393Y110409D01*
X481338Y110278D01*
X481305Y110190D01*
X481272Y110092D01*
X481240Y109983D01*
X481218Y109873D01*
X481196Y109742D01*
X481174Y109600D01*
X481163Y109447D01*
Y109283D01*
Y109272D01*
Y109239D01*
Y109196D01*
X481174Y109141D01*
Y109064D01*
X481185Y108977D01*
X481207Y108780D01*
X481240Y108573D01*
X481305Y108354D01*
X481382Y108146D01*
X481436Y108059D01*
X481491Y107982D01*
X481502Y107961D01*
X481557Y107917D01*
X481633Y107862D01*
X481732Y107786D01*
X481863Y107709D01*
X482027Y107655D01*
X482212Y107611D01*
X482420Y107589D01*
X482475D01*
X482518Y107600D01*
X482628Y107611D01*
X482759Y107633D01*
X482901Y107687D01*
X483054Y107753D01*
X483207Y107840D01*
X483338Y107972D01*
X483349Y107993D01*
X483393Y108048D01*
X483415Y108092D01*
X483448Y108146D01*
X483480Y108212D01*
X483513Y108289D01*
X483535Y108376D01*
X483568Y108474D01*
X483601Y108595D01*
X483622Y108715D01*
X483644Y108857D01*
X483666Y109010D01*
X483677Y109174D01*
Y109360D01*
Y109371D01*
Y109392D01*
Y109436D01*
Y109502D01*
X483666Y109567D01*
X483655Y109644D01*
X483633Y109830D01*
X483590Y110026D01*
X483535Y110234D01*
X483448Y110431D01*
X483327Y110595D01*
X483316Y110617D01*
X483262Y110660D01*
X483185Y110715D01*
X483087Y110792D01*
X482956Y110868D01*
X482792Y110923D01*
X482606Y110966D01*
X482398Y110988D01*
D02*
G37*
G36*
X416768Y183561D02*
X416112Y181418D01*
X417423D01*
X416768Y183561D01*
D02*
G37*
G36*
X404264Y183910D02*
X403444D01*
Y182774D01*
X404318D01*
X404395Y182784D01*
X404493Y182795D01*
X404690Y182839D01*
X404777Y182872D01*
X404854Y182916D01*
X404865Y182927D01*
X404887Y182948D01*
X404909Y182981D01*
X404941Y183025D01*
X404974Y183090D01*
X405007Y183167D01*
X405018Y183255D01*
X405029Y183353D01*
Y183364D01*
Y183397D01*
X405018Y183440D01*
X405007Y183506D01*
X404985Y183571D01*
X404952Y183637D01*
X404909Y183703D01*
X404854Y183757D01*
X404843Y183768D01*
X404821Y183779D01*
X404777Y183801D01*
X404712Y183834D01*
X404635Y183867D01*
X404537Y183888D01*
X404406Y183899D01*
X404264Y183910D01*
D02*
G37*
G36*
X498180Y183561D02*
X497524Y181418D01*
X498835D01*
X498180Y183561D01*
D02*
G37*
G36*
X149251Y168349D02*
X149174D01*
X149120Y168338D01*
X148989Y168316D01*
X148857Y168272D01*
X148847D01*
X148836Y168261D01*
X148759Y168217D01*
X148672Y168152D01*
X148573Y168053D01*
Y168043D01*
X148551Y168032D01*
X148508Y167966D01*
X148453Y167868D01*
X148409Y167747D01*
Y167736D01*
X148398Y167715D01*
Y167682D01*
X148388Y167638D01*
X148377Y167529D01*
X148366Y167387D01*
Y167365D01*
Y167321D01*
X148377Y167245D01*
X148398Y167146D01*
X148420Y167048D01*
X148464Y166939D01*
X148519Y166829D01*
X148595Y166731D01*
X148606Y166720D01*
X148639Y166698D01*
X148694Y166654D01*
X148770Y166611D01*
X148868Y166567D01*
X148978Y166523D01*
X149120Y166501D01*
X149273Y166490D01*
X149349D01*
X149404Y166501D01*
X149535Y166523D01*
X149666Y166556D01*
X149677D01*
X149699Y166567D01*
X149765Y166611D01*
X149863Y166676D01*
X149951Y166764D01*
X149961Y166775D01*
X149972Y166786D01*
X150016Y166851D01*
X150071Y166939D01*
X150125Y167059D01*
Y167070D01*
X150136Y167092D01*
X150147Y167124D01*
X150158Y167168D01*
X150169Y167288D01*
X150180Y167420D01*
Y167441D01*
Y167496D01*
X150169Y167572D01*
X150147Y167671D01*
X150125Y167780D01*
X150082Y167889D01*
X150016Y167999D01*
X149940Y168097D01*
X149929Y168108D01*
X149896Y168141D01*
X149841Y168174D01*
X149765Y168228D01*
X149666Y168272D01*
X149546Y168305D01*
X149415Y168338D01*
X149251Y168349D01*
D02*
G37*
G36*
X230472Y168338D02*
X230363D01*
X230297Y168327D01*
X230133Y168294D01*
X229958Y168228D01*
X229947D01*
X229925Y168207D01*
X229882Y168185D01*
X229827Y168152D01*
X229707Y168053D01*
X229587Y167933D01*
X229575Y167922D01*
X229565Y167900D01*
X229532Y167868D01*
X229510Y167813D01*
X229466Y167758D01*
X229433Y167682D01*
X229357Y167518D01*
Y167507D01*
X229346Y167474D01*
X229335Y167430D01*
X229324Y167365D01*
X229302Y167288D01*
X229291Y167212D01*
X229280Y167026D01*
X231598D01*
Y167037D01*
Y167059D01*
Y167081D01*
Y167124D01*
X231587Y167234D01*
X231565Y167376D01*
X231532Y167529D01*
X231477Y167693D01*
X231412Y167846D01*
X231313Y167988D01*
X231302Y167999D01*
X231259Y168043D01*
X231193Y168097D01*
X231106Y168163D01*
X230985Y168228D01*
X230843Y168283D01*
X230668Y168327D01*
X230472Y168338D01*
D02*
G37*
G36*
X181232Y166425D02*
X180445D01*
X180369Y166414D01*
X180281D01*
X180183Y166403D01*
X179997Y166370D01*
X179986D01*
X179964Y166359D01*
X179921Y166348D01*
X179866Y166326D01*
X179735Y166283D01*
X179614Y166206D01*
X179604D01*
X179593Y166184D01*
X179527Y166130D01*
X179451Y166053D01*
X179385Y165944D01*
Y165933D01*
X179374Y165922D01*
X179363Y165889D01*
X179352Y165846D01*
X179330Y165736D01*
X179319Y165605D01*
Y165594D01*
Y165550D01*
X179330Y165496D01*
X179341Y165419D01*
X179374Y165332D01*
X179407Y165244D01*
X179462Y165157D01*
X179527Y165080D01*
X179538Y165070D01*
X179571Y165048D01*
X179614Y165026D01*
X179680Y164993D01*
X179757Y164949D01*
X179855Y164927D01*
X179975Y164906D01*
X180106Y164895D01*
X180161D01*
X180216Y164906D01*
X180292Y164917D01*
X180380Y164927D01*
X180478Y164960D01*
X180576Y164993D01*
X180675Y165048D01*
X180686Y165059D01*
X180718Y165080D01*
X180773Y165113D01*
X180839Y165168D01*
X180926Y165234D01*
X181025Y165310D01*
X181123Y165408D01*
X181232Y165518D01*
Y166425D01*
D02*
G37*
G36*
X141392Y169802D02*
X140573D01*
Y165048D01*
X141502D01*
X141611Y165059D01*
X141753Y165070D01*
X141906Y165080D01*
X142070Y165113D01*
X142234Y165146D01*
X142387Y165190D01*
X142409Y165201D01*
X142453Y165223D01*
X142529Y165255D01*
X142627Y165299D01*
X142726Y165365D01*
X142846Y165441D01*
X142955Y165529D01*
X143065Y165638D01*
X143076Y165649D01*
X143108Y165693D01*
X143163Y165758D01*
X143218Y165846D01*
X143283Y165955D01*
X143349Y166086D01*
X143414Y166228D01*
X143469Y166392D01*
X143480Y166414D01*
X143491Y166469D01*
X143513Y166567D01*
X143545Y166698D01*
X143567Y166862D01*
X143589Y167048D01*
X143600Y167245D01*
X143611Y167474D01*
Y167485D01*
Y167496D01*
Y167562D01*
X143600Y167649D01*
Y167769D01*
X143578Y167911D01*
X143556Y168064D01*
X143524Y168228D01*
X143480Y168392D01*
Y168414D01*
X143458Y168469D01*
X143425Y168545D01*
X143393Y168655D01*
X143338Y168764D01*
X143272Y168895D01*
X143185Y169015D01*
X143097Y169135D01*
X143086Y169146D01*
X143054Y169190D01*
X142988Y169245D01*
X142912Y169321D01*
X142824Y169398D01*
X142704Y169474D01*
X142573Y169562D01*
X142431Y169627D01*
X142409Y169638D01*
X142354Y169660D01*
X142267Y169682D01*
X142147Y169715D01*
X142004Y169748D01*
X141819Y169780D01*
X141622Y169791D01*
X141392Y169802D01*
D02*
G37*
G36*
X303206Y110988D02*
X303184D01*
X303118Y110977D01*
X303009Y110966D01*
X302889Y110933D01*
X302747Y110890D01*
X302594Y110813D01*
X302441Y110715D01*
X302309Y110584D01*
X302298Y110562D01*
X302255Y110507D01*
X302200Y110409D01*
X302146Y110278D01*
X302113Y110190D01*
X302080Y110092D01*
X302047Y109983D01*
X302025Y109873D01*
X302003Y109742D01*
X301981Y109600D01*
X301971Y109447D01*
Y109283D01*
Y109272D01*
Y109239D01*
Y109196D01*
X301981Y109141D01*
Y109064D01*
X301993Y108977D01*
X302014Y108780D01*
X302047Y108573D01*
X302113Y108354D01*
X302189Y108146D01*
X302244Y108059D01*
X302298Y107982D01*
X302309Y107961D01*
X302364Y107917D01*
X302441Y107862D01*
X302539Y107786D01*
X302670Y107709D01*
X302834Y107655D01*
X303020Y107611D01*
X303228Y107589D01*
X303282D01*
X303326Y107600D01*
X303435Y107611D01*
X303566Y107633D01*
X303709Y107687D01*
X303861Y107753D01*
X304014Y107840D01*
X304146Y107972D01*
X304157Y107993D01*
X304200Y108048D01*
X304222Y108092D01*
X304255Y108146D01*
X304288Y108212D01*
X304321Y108289D01*
X304342Y108376D01*
X304375Y108474D01*
X304408Y108595D01*
X304430Y108715D01*
X304452Y108857D01*
X304474Y109010D01*
X304485Y109174D01*
Y109360D01*
Y109371D01*
Y109392D01*
Y109436D01*
Y109502D01*
X304474Y109567D01*
X304463Y109644D01*
X304441Y109830D01*
X304397Y110026D01*
X304342Y110234D01*
X304255Y110431D01*
X304135Y110595D01*
X304124Y110617D01*
X304069Y110660D01*
X303993Y110715D01*
X303894Y110792D01*
X303763Y110868D01*
X303599Y110923D01*
X303413Y110966D01*
X303206Y110988D01*
D02*
G37*
G36*
X293445D02*
X293423D01*
X293358Y110977D01*
X293249Y110966D01*
X293128Y110933D01*
X292986Y110890D01*
X292833Y110813D01*
X292680Y110715D01*
X292549Y110584D01*
X292538Y110562D01*
X292494Y110507D01*
X292440Y110409D01*
X292385Y110278D01*
X292352Y110190D01*
X292319Y110092D01*
X292287Y109983D01*
X292265Y109873D01*
X292243Y109742D01*
X292221Y109600D01*
X292210Y109447D01*
Y109283D01*
Y109272D01*
Y109239D01*
Y109196D01*
X292221Y109141D01*
Y109064D01*
X292232Y108977D01*
X292254Y108780D01*
X292287Y108573D01*
X292352Y108354D01*
X292429Y108146D01*
X292483Y108059D01*
X292538Y107982D01*
X292549Y107961D01*
X292604Y107917D01*
X292680Y107862D01*
X292778Y107786D01*
X292910Y107709D01*
X293074Y107655D01*
X293259Y107611D01*
X293467Y107589D01*
X293522D01*
X293565Y107600D01*
X293675Y107611D01*
X293806Y107633D01*
X293948Y107687D01*
X294101Y107753D01*
X294254Y107840D01*
X294385Y107972D01*
X294396Y107993D01*
X294440Y108048D01*
X294462Y108092D01*
X294495Y108146D01*
X294527Y108212D01*
X294560Y108289D01*
X294582Y108376D01*
X294615Y108474D01*
X294648Y108595D01*
X294669Y108715D01*
X294691Y108857D01*
X294713Y109010D01*
X294724Y109174D01*
Y109360D01*
Y109371D01*
Y109392D01*
Y109436D01*
Y109502D01*
X294713Y109567D01*
X294702Y109644D01*
X294680Y109830D01*
X294637Y110026D01*
X294582Y110234D01*
X294495Y110431D01*
X294374Y110595D01*
X294363Y110617D01*
X294309Y110660D01*
X294232Y110715D01*
X294134Y110792D01*
X294003Y110868D01*
X293839Y110923D01*
X293653Y110966D01*
X293445Y110988D01*
D02*
G37*
G36*
X269968Y110726D02*
X269312Y108584D01*
X270623D01*
X269968Y110726D01*
D02*
G37*
G36*
X283149Y110933D02*
X282690D01*
Y107666D01*
X283237D01*
X283335Y107676D01*
X283466D01*
X283597Y107698D01*
X283739Y107720D01*
X283860Y107742D01*
X283969Y107786D01*
X283980Y107797D01*
X284013Y107808D01*
X284056Y107840D01*
X284111Y107895D01*
X284177Y107950D01*
X284242Y108026D01*
X284308Y108124D01*
X284362Y108234D01*
X284373Y108245D01*
X284384Y108299D01*
X284406Y108376D01*
X284439Y108485D01*
X284461Y108627D01*
X284483Y108813D01*
X284493Y109021D01*
X284505Y109272D01*
Y109283D01*
Y109316D01*
Y109360D01*
Y109425D01*
X284493Y109502D01*
Y109589D01*
X284461Y109797D01*
X284428Y110004D01*
X284373Y110223D01*
X284297Y110420D01*
X284242Y110496D01*
X284188Y110573D01*
X284177Y110584D01*
X284122Y110627D01*
X284045Y110682D01*
X283936Y110759D01*
X283794Y110824D01*
X283619Y110879D01*
X283401Y110923D01*
X283149Y110933D01*
D02*
G37*
%LPD*%
D10*
X374016Y182087D02*
X398622D01*
X374016Y172244D02*
Y182087D01*
X434055D02*
X459646D01*
Y172244D02*
Y182087D01*
X553150Y172244D02*
Y182087D01*
X535433D02*
X553150D01*
X467520Y172244D02*
Y182087D01*
X485236D01*
M02*
