G04 Layer_Physical_Order=1*
G04 Layer_Color=25308*
%FSLAX25Y25*%
%MOIN*%
G70*
G01*
G75*
G36*
X202816Y186428D02*
X203147Y186402D01*
X203504Y186377D01*
X203887Y186300D01*
X204270Y186223D01*
X204627Y186096D01*
X204678Y186071D01*
X204780Y186045D01*
X204959Y185943D01*
X205163Y185841D01*
X205392Y185713D01*
X205647Y185560D01*
X205877Y185382D01*
X206106Y185178D01*
X206132Y185152D01*
X206208Y185076D01*
X206311Y184974D01*
X206438Y184820D01*
X206591Y184667D01*
X206744Y184463D01*
X207025Y184004D01*
X207050Y183979D01*
X207076Y183902D01*
X207152Y183775D01*
X207229Y183596D01*
X207305Y183392D01*
X207382Y183137D01*
X207484Y182882D01*
X207560Y182576D01*
Y182550D01*
X207586Y182499D01*
X207611Y182422D01*
X207637Y182295D01*
X207663Y182167D01*
X207688Y181989D01*
X207765Y181581D01*
X207841Y181096D01*
X207918Y180560D01*
X207943Y179948D01*
X207969Y179336D01*
Y179285D01*
Y179157D01*
Y178979D01*
X207943Y178724D01*
X207918Y178392D01*
X207892Y178035D01*
X207867Y177652D01*
X207816Y177218D01*
X207663Y176300D01*
X207433Y175382D01*
X207280Y174948D01*
X207101Y174514D01*
X206897Y174132D01*
X206668Y173775D01*
X206642Y173749D01*
X206617Y173698D01*
X206540Y173622D01*
X206413Y173494D01*
X206259Y173366D01*
X206081Y173213D01*
X205877Y173060D01*
X205622Y172907D01*
X205341Y172729D01*
X205010Y172576D01*
X204652Y172423D01*
X204244Y172295D01*
X203811Y172168D01*
X203326Y172091D01*
X202790Y172040D01*
X202229Y172014D01*
X201923D01*
X201770Y172040D01*
X201617D01*
X201208Y172091D01*
X200749Y172142D01*
X200265Y172244D01*
X199780Y172397D01*
X199346Y172576D01*
X199295Y172601D01*
X199168Y172678D01*
X198964Y172805D01*
X198734Y172984D01*
X198428Y173213D01*
X198147Y173494D01*
X197841Y173826D01*
X197561Y174208D01*
X197535Y174234D01*
X197484Y174361D01*
X197382Y174514D01*
X197280Y174769D01*
X197152Y175050D01*
X197025Y175407D01*
X196897Y175841D01*
X196795Y176300D01*
Y176326D01*
Y176351D01*
X196770Y176428D01*
X196744Y176530D01*
X196719Y176810D01*
X196668Y177193D01*
X196617Y177627D01*
X196566Y178137D01*
X196540Y178698D01*
X196515Y179285D01*
Y179336D01*
Y179463D01*
Y179667D01*
X196540Y179923D01*
X196566Y180254D01*
X196591Y180637D01*
X196642Y181045D01*
X196693Y181479D01*
X196872Y182397D01*
X197127Y183315D01*
X197280Y183749D01*
X197484Y184157D01*
X197688Y184514D01*
X197943Y184846D01*
X197969Y184871D01*
X198020Y184923D01*
X198096Y184999D01*
X198224Y185101D01*
X198377Y185229D01*
X198556Y185356D01*
X198785Y185509D01*
X199040Y185662D01*
X199321Y185790D01*
X199652Y185943D01*
X200010Y186071D01*
X200392Y186198D01*
X200826Y186300D01*
X201285Y186377D01*
X201795Y186428D01*
X202331Y186453D01*
X202561D01*
X202816Y186428D01*
D02*
G37*
G36*
X215851D02*
X216183Y186402D01*
X216540Y186377D01*
X216923Y186300D01*
X217305Y186223D01*
X217663Y186096D01*
X217713Y186071D01*
X217815Y186045D01*
X217994Y185943D01*
X218198Y185841D01*
X218428Y185713D01*
X218683Y185560D01*
X218913Y185382D01*
X219142Y185178D01*
X219168Y185152D01*
X219244Y185076D01*
X219346Y184974D01*
X219474Y184820D01*
X219627Y184667D01*
X219780Y184463D01*
X220060Y184004D01*
X220086Y183979D01*
X220111Y183902D01*
X220188Y183775D01*
X220265Y183596D01*
X220341Y183392D01*
X220418Y183137D01*
X220520Y182882D01*
X220596Y182576D01*
Y182550D01*
X220622Y182499D01*
X220647Y182422D01*
X220673Y182295D01*
X220698Y182167D01*
X220724Y181989D01*
X220800Y181581D01*
X220877Y181096D01*
X220953Y180560D01*
X220979Y179948D01*
X221004Y179336D01*
Y179285D01*
Y179157D01*
Y178979D01*
X220979Y178724D01*
X220953Y178392D01*
X220928Y178035D01*
X220902Y177652D01*
X220851Y177218D01*
X220698Y176300D01*
X220469Y175382D01*
X220316Y174948D01*
X220137Y174514D01*
X219933Y174132D01*
X219703Y173775D01*
X219678Y173749D01*
X219652Y173698D01*
X219576Y173622D01*
X219448Y173494D01*
X219295Y173366D01*
X219117Y173213D01*
X218913Y173060D01*
X218657Y172907D01*
X218377Y172729D01*
X218045Y172576D01*
X217688Y172423D01*
X217280Y172295D01*
X216846Y172168D01*
X216361Y172091D01*
X215826Y172040D01*
X215265Y172014D01*
X214958D01*
X214805Y172040D01*
X214652D01*
X214244Y172091D01*
X213785Y172142D01*
X213300Y172244D01*
X212816Y172397D01*
X212382Y172576D01*
X212331Y172601D01*
X212203Y172678D01*
X211999Y172805D01*
X211770Y172984D01*
X211464Y173213D01*
X211183Y173494D01*
X210877Y173826D01*
X210596Y174208D01*
X210571Y174234D01*
X210520Y174361D01*
X210418Y174514D01*
X210316Y174769D01*
X210188Y175050D01*
X210061Y175407D01*
X209933Y175841D01*
X209831Y176300D01*
Y176326D01*
Y176351D01*
X209805Y176428D01*
X209780Y176530D01*
X209754Y176810D01*
X209703Y177193D01*
X209652Y177627D01*
X209601Y178137D01*
X209576Y178698D01*
X209550Y179285D01*
Y179336D01*
Y179463D01*
Y179667D01*
X209576Y179923D01*
X209601Y180254D01*
X209627Y180637D01*
X209678Y181045D01*
X209729Y181479D01*
X209908Y182397D01*
X210163Y183315D01*
X210316Y183749D01*
X210520Y184157D01*
X210724Y184514D01*
X210979Y184846D01*
X211004Y184871D01*
X211055Y184923D01*
X211132Y184999D01*
X211260Y185101D01*
X211413Y185229D01*
X211591Y185356D01*
X211821Y185509D01*
X212076Y185662D01*
X212356Y185790D01*
X212688Y185943D01*
X213045Y186071D01*
X213428Y186198D01*
X213861Y186300D01*
X214321Y186377D01*
X214831Y186428D01*
X215367Y186453D01*
X215596D01*
X215851Y186428D01*
D02*
G37*
G36*
X179270Y172244D02*
X175341D01*
Y181530D01*
X175290Y181504D01*
X175188Y181402D01*
X174984Y181275D01*
X174755Y181096D01*
X174474Y180918D01*
X174142Y180713D01*
X173811Y180509D01*
X173479Y180331D01*
X173428Y180305D01*
X173326Y180254D01*
X173122Y180178D01*
X172867Y180076D01*
X172535Y179948D01*
X172178Y179795D01*
X171745Y179667D01*
X171260Y179514D01*
Y182678D01*
X171285D01*
X171336Y182703D01*
X171438Y182754D01*
X171591Y182780D01*
X171745Y182856D01*
X171949Y182933D01*
X172382Y183111D01*
X172867Y183341D01*
X173377Y183596D01*
X173887Y183877D01*
X174321Y184208D01*
X174346D01*
X174372Y184259D01*
X174500Y184361D01*
X174704Y184565D01*
X174959Y184846D01*
X175239Y185152D01*
X175520Y185535D01*
X175801Y185968D01*
X176056Y186453D01*
X179270D01*
Y172244D01*
D02*
G37*
G36*
X146677Y186428D02*
X146906D01*
X147162Y186402D01*
X147442Y186377D01*
X147748Y186326D01*
X148412Y186198D01*
X149100Y186020D01*
X149738Y185764D01*
X150044Y185611D01*
X150325Y185433D01*
X150350D01*
X150376Y185382D01*
X150555Y185254D01*
X150784Y184999D01*
X151065Y184667D01*
X151218Y184463D01*
X151345Y184234D01*
X151498Y183953D01*
X151626Y183672D01*
X151753Y183366D01*
X151856Y183035D01*
X151932Y182652D01*
X152008Y182270D01*
X147927Y182040D01*
Y182091D01*
X147901Y182193D01*
X147850Y182371D01*
X147774Y182576D01*
X147672Y182780D01*
X147570Y183009D01*
X147417Y183239D01*
X147238Y183417D01*
X147213Y183443D01*
X147136Y183494D01*
X147034Y183545D01*
X146881Y183647D01*
X146677Y183724D01*
X146422Y183775D01*
X146141Y183826D01*
X145810Y183851D01*
X145682D01*
X145554Y183826D01*
X145376Y183800D01*
X144993Y183724D01*
X144815Y183622D01*
X144662Y183519D01*
X144636Y183494D01*
X144611Y183468D01*
X144483Y183315D01*
X144355Y183060D01*
X144330Y182907D01*
X144305Y182754D01*
Y182729D01*
Y182703D01*
X144355Y182550D01*
X144432Y182346D01*
X144509Y182244D01*
X144611Y182142D01*
X144636D01*
X144687Y182091D01*
X144764Y182040D01*
X144917Y181963D01*
X145095Y181887D01*
X145350Y181810D01*
X145657Y181708D01*
X146039Y181632D01*
X146065D01*
X146167Y181606D01*
X146320Y181581D01*
X146498Y181530D01*
X146728Y181479D01*
X147009Y181402D01*
X147315Y181326D01*
X147621Y181249D01*
X148284Y181070D01*
X148973Y180841D01*
X149585Y180611D01*
X149866Y180509D01*
X150121Y180382D01*
X150146D01*
X150172Y180356D01*
X150325Y180280D01*
X150529Y180152D01*
X150810Y179974D01*
X151090Y179744D01*
X151396Y179489D01*
X151677Y179183D01*
X151907Y178851D01*
X151932Y178800D01*
X151983Y178698D01*
X152085Y178494D01*
X152187Y178239D01*
X152289Y177933D01*
X152391Y177601D01*
X152442Y177193D01*
X152468Y176785D01*
Y176759D01*
Y176734D01*
Y176657D01*
Y176555D01*
X152417Y176300D01*
X152366Y175969D01*
X152289Y175586D01*
X152136Y175152D01*
X151957Y174718D01*
X151702Y174285D01*
X151677Y174234D01*
X151575Y174106D01*
X151396Y173902D01*
X151167Y173647D01*
X150861Y173366D01*
X150503Y173086D01*
X150095Y172831D01*
X149611Y172576D01*
X149585D01*
X149560Y172550D01*
X149483Y172525D01*
X149381Y172499D01*
X149253Y172448D01*
X149075Y172397D01*
X148896Y172346D01*
X148692Y172295D01*
X148207Y172193D01*
X147621Y172091D01*
X146983Y172040D01*
X146243Y172014D01*
X145912D01*
X145657Y172040D01*
X145376Y172065D01*
X145044Y172091D01*
X144687Y172116D01*
X144279Y172193D01*
X143463Y172346D01*
X142646Y172576D01*
X142264Y172729D01*
X141907Y172933D01*
X141575Y173137D01*
X141294Y173366D01*
X141269Y173392D01*
X141243Y173443D01*
X141167Y173520D01*
X141090Y173622D01*
X140988Y173749D01*
X140861Y173902D01*
X140733Y174106D01*
X140606Y174310D01*
X140325Y174821D01*
X140070Y175433D01*
X139891Y176096D01*
X139815Y176479D01*
X139764Y176861D01*
X143871Y177142D01*
Y177091D01*
X143896Y176963D01*
X143922Y176785D01*
X143998Y176581D01*
X144151Y176071D01*
X144279Y175815D01*
X144407Y175611D01*
X144432Y175586D01*
X144534Y175484D01*
X144687Y175356D01*
X144891Y175203D01*
X145172Y175025D01*
X145503Y174897D01*
X145886Y174795D01*
X146320Y174769D01*
X146473D01*
X146626Y174795D01*
X146855Y174821D01*
X147085Y174872D01*
X147315Y174948D01*
X147544Y175050D01*
X147748Y175178D01*
X147774Y175203D01*
X147825Y175254D01*
X147901Y175356D01*
X148003Y175458D01*
X148106Y175611D01*
X148182Y175790D01*
X148233Y175994D01*
X148259Y176198D01*
Y176224D01*
Y176300D01*
X148233Y176402D01*
X148207Y176530D01*
X148131Y176683D01*
X148055Y176836D01*
X147927Y177014D01*
X147774Y177167D01*
X147748Y177193D01*
X147672Y177244D01*
X147519Y177321D01*
X147315Y177423D01*
X147009Y177550D01*
X146626Y177703D01*
X146396Y177780D01*
X146141Y177831D01*
X145861Y177907D01*
X145554Y177984D01*
X145529D01*
X145427Y178009D01*
X145274Y178060D01*
X145095Y178086D01*
X144866Y178162D01*
X144585Y178239D01*
X144305Y178315D01*
X143998Y178418D01*
X143310Y178673D01*
X142646Y178953D01*
X142034Y179285D01*
X141753Y179463D01*
X141498Y179667D01*
Y179693D01*
X141447Y179718D01*
X141320Y179846D01*
X141116Y180076D01*
X140912Y180407D01*
X140682Y180790D01*
X140478Y181249D01*
X140350Y181759D01*
X140325Y182040D01*
X140299Y182346D01*
Y182371D01*
Y182397D01*
Y182525D01*
X140325Y182754D01*
X140376Y183009D01*
X140453Y183315D01*
X140554Y183672D01*
X140708Y184030D01*
X140912Y184387D01*
X140937Y184438D01*
X141039Y184540D01*
X141192Y184718D01*
X141396Y184948D01*
X141651Y185178D01*
X141983Y185433D01*
X142366Y185662D01*
X142799Y185892D01*
X142825D01*
X142850Y185917D01*
X142927Y185943D01*
X143029Y185968D01*
X143157Y186020D01*
X143310Y186071D01*
X143488Y186121D01*
X143692Y186172D01*
X143922Y186223D01*
X144202Y186275D01*
X144789Y186377D01*
X145478Y186428D01*
X146243Y186453D01*
X146498D01*
X146677Y186428D01*
D02*
G37*
G36*
X161626D02*
X161855D01*
X162110Y186402D01*
X162391Y186377D01*
X162697Y186326D01*
X163386Y186198D01*
X164075Y185994D01*
X164738Y185739D01*
X165044Y185560D01*
X165350Y185382D01*
X165376D01*
X165427Y185331D01*
X165503Y185280D01*
X165605Y185178D01*
X165733Y185076D01*
X165886Y184923D01*
X166039Y184769D01*
X166218Y184565D01*
X166396Y184361D01*
X166575Y184106D01*
X166779Y183851D01*
X166957Y183545D01*
X167136Y183213D01*
X167315Y182882D01*
X167468Y182499D01*
X167621Y182091D01*
X163794Y181249D01*
Y181275D01*
X163769Y181351D01*
X163718Y181479D01*
X163667Y181606D01*
X163514Y181912D01*
X163437Y182040D01*
X163361Y182167D01*
X163335Y182193D01*
X163310Y182244D01*
X163207Y182346D01*
X163105Y182448D01*
X162825Y182703D01*
X162468Y182933D01*
X162442Y182958D01*
X162391Y182984D01*
X162264Y183035D01*
X162136Y183086D01*
X161957Y183137D01*
X161753Y183162D01*
X161524Y183213D01*
X161141D01*
X161065Y183188D01*
X160784Y183162D01*
X160452Y183060D01*
X160095Y182933D01*
X159713Y182703D01*
X159355Y182422D01*
X159202Y182219D01*
X159049Y182014D01*
X159024Y181963D01*
X158947Y181861D01*
X158871Y181632D01*
X158769Y181351D01*
X158641Y180968D01*
X158565Y180509D01*
X158488Y179948D01*
X158463Y179285D01*
Y179259D01*
Y179183D01*
Y179055D01*
Y178902D01*
X158488Y178724D01*
Y178494D01*
X158539Y178009D01*
X158641Y177499D01*
X158743Y176963D01*
X158922Y176479D01*
X159024Y176275D01*
X159151Y176096D01*
X159177Y176071D01*
X159279Y175969D01*
X159458Y175841D01*
X159661Y175688D01*
X159942Y175509D01*
X160299Y175382D01*
X160682Y175280D01*
X161141Y175254D01*
X161345D01*
X161575Y175280D01*
X161855Y175331D01*
X162162Y175433D01*
X162468Y175535D01*
X162774Y175713D01*
X163029Y175943D01*
X163054Y175969D01*
X163131Y176071D01*
X163258Y176224D01*
X163386Y176453D01*
X163539Y176734D01*
X163692Y177091D01*
X163845Y177499D01*
X163973Y177984D01*
X167748Y176810D01*
Y176785D01*
X167723Y176734D01*
X167697Y176657D01*
X167672Y176555D01*
X167595Y176249D01*
X167442Y175892D01*
X167289Y175458D01*
X167059Y175025D01*
X166830Y174591D01*
X166524Y174157D01*
X166498Y174106D01*
X166371Y173979D01*
X166192Y173800D01*
X165963Y173545D01*
X165656Y173290D01*
X165325Y173035D01*
X164917Y172780D01*
X164483Y172550D01*
X164457D01*
X164432Y172525D01*
X164355Y172499D01*
X164279Y172474D01*
X163998Y172372D01*
X163641Y172295D01*
X163207Y172193D01*
X162672Y172091D01*
X162059Y172040D01*
X161396Y172014D01*
X161014D01*
X160810Y172040D01*
X160605D01*
X160350Y172065D01*
X160070Y172091D01*
X159483Y172168D01*
X158845Y172295D01*
X158233Y172448D01*
X157646Y172652D01*
X157621D01*
X157595Y172678D01*
X157519Y172729D01*
X157417Y172780D01*
X157136Y172958D01*
X156804Y173188D01*
X156422Y173520D01*
X155988Y173902D01*
X155580Y174387D01*
X155172Y174974D01*
Y174999D01*
X155121Y175050D01*
X155070Y175152D01*
X155019Y175280D01*
X154942Y175433D01*
X154840Y175637D01*
X154738Y175866D01*
X154662Y176147D01*
X154560Y176428D01*
X154457Y176759D01*
X154381Y177117D01*
X154279Y177499D01*
X154228Y177907D01*
X154177Y178341D01*
X154126Y179259D01*
Y179310D01*
Y179412D01*
X154151Y179591D01*
Y179821D01*
X154177Y180127D01*
X154228Y180458D01*
X154279Y180815D01*
X154356Y181224D01*
X154457Y181657D01*
X154585Y182091D01*
X154713Y182525D01*
X154891Y182984D01*
X155121Y183417D01*
X155350Y183826D01*
X155631Y184234D01*
X155963Y184591D01*
X155988Y184616D01*
X156039Y184667D01*
X156167Y184769D01*
X156294Y184871D01*
X156498Y185025D01*
X156728Y185178D01*
X156983Y185356D01*
X157315Y185535D01*
X157646Y185688D01*
X158054Y185866D01*
X158488Y186020D01*
X158947Y186172D01*
X159458Y186275D01*
X159993Y186377D01*
X160580Y186428D01*
X161192Y186453D01*
X161447D01*
X161626Y186428D01*
D02*
G37*
G36*
X189780D02*
X190112Y186402D01*
X190469Y186377D01*
X190851Y186300D01*
X191234Y186223D01*
X191591Y186096D01*
X191642Y186071D01*
X191744Y186045D01*
X191923Y185943D01*
X192127Y185841D01*
X192357Y185713D01*
X192612Y185560D01*
X192841Y185382D01*
X193071Y185178D01*
X193096Y185152D01*
X193173Y185076D01*
X193275Y184974D01*
X193403Y184820D01*
X193555Y184667D01*
X193709Y184463D01*
X193989Y184004D01*
X194015Y183979D01*
X194040Y183902D01*
X194117Y183775D01*
X194193Y183596D01*
X194270Y183392D01*
X194346Y183137D01*
X194448Y182882D01*
X194525Y182576D01*
Y182550D01*
X194550Y182499D01*
X194576Y182422D01*
X194601Y182295D01*
X194627Y182167D01*
X194652Y181989D01*
X194729Y181581D01*
X194806Y181096D01*
X194882Y180560D01*
X194908Y179948D01*
X194933Y179336D01*
Y179285D01*
Y179157D01*
Y178979D01*
X194908Y178724D01*
X194882Y178392D01*
X194857Y178035D01*
X194831Y177652D01*
X194780Y177218D01*
X194627Y176300D01*
X194397Y175382D01*
X194244Y174948D01*
X194066Y174514D01*
X193862Y174132D01*
X193632Y173775D01*
X193607Y173749D01*
X193581Y173698D01*
X193505Y173622D01*
X193377Y173494D01*
X193224Y173366D01*
X193045Y173213D01*
X192841Y173060D01*
X192586Y172907D01*
X192306Y172729D01*
X191974Y172576D01*
X191617Y172423D01*
X191209Y172295D01*
X190775Y172168D01*
X190290Y172091D01*
X189754Y172040D01*
X189193Y172014D01*
X188887D01*
X188734Y172040D01*
X188581D01*
X188173Y172091D01*
X187714Y172142D01*
X187229Y172244D01*
X186744Y172397D01*
X186311Y172576D01*
X186260Y172601D01*
X186132Y172678D01*
X185928Y172805D01*
X185698Y172984D01*
X185392Y173213D01*
X185112Y173494D01*
X184806Y173826D01*
X184525Y174208D01*
X184500Y174234D01*
X184449Y174361D01*
X184346Y174514D01*
X184244Y174769D01*
X184117Y175050D01*
X183989Y175407D01*
X183862Y175841D01*
X183760Y176300D01*
Y176326D01*
Y176351D01*
X183734Y176428D01*
X183709Y176530D01*
X183683Y176810D01*
X183632Y177193D01*
X183581Y177627D01*
X183530Y178137D01*
X183505Y178698D01*
X183479Y179285D01*
Y179336D01*
Y179463D01*
Y179667D01*
X183505Y179923D01*
X183530Y180254D01*
X183556Y180637D01*
X183607Y181045D01*
X183658Y181479D01*
X183836Y182397D01*
X184091Y183315D01*
X184244Y183749D01*
X184449Y184157D01*
X184652Y184514D01*
X184908Y184846D01*
X184933Y184871D01*
X184984Y184923D01*
X185061Y184999D01*
X185188Y185101D01*
X185341Y185229D01*
X185520Y185356D01*
X185749Y185509D01*
X186005Y185662D01*
X186285Y185790D01*
X186617Y185943D01*
X186974Y186071D01*
X187357Y186198D01*
X187790Y186300D01*
X188250Y186377D01*
X188760Y186428D01*
X189295Y186453D01*
X189525D01*
X189780Y186428D01*
D02*
G37*
%LPC*%
G36*
X215239Y183877D02*
X215188D01*
X215086Y183851D01*
X214907Y183826D01*
X214703Y183749D01*
X214474Y183647D01*
X214244Y183468D01*
X214015Y183213D01*
X213836Y182882D01*
X213810Y182831D01*
X213785Y182780D01*
X213759Y182678D01*
X213734Y182576D01*
X213708Y182448D01*
X213657Y182270D01*
X213632Y182065D01*
X213581Y181836D01*
X213530Y181581D01*
X213504Y181275D01*
X213479Y180968D01*
X213453Y180586D01*
X213428Y180203D01*
X213402Y179770D01*
Y179285D01*
Y179259D01*
Y179157D01*
Y179030D01*
Y178851D01*
X213428Y178647D01*
Y178392D01*
X213453Y177831D01*
X213504Y177218D01*
X213606Y176606D01*
X213657Y176326D01*
X213708Y176071D01*
X213785Y175841D01*
X213861Y175637D01*
X213887Y175586D01*
X213964Y175484D01*
X214066Y175331D01*
X214219Y175152D01*
X214423Y174974D01*
X214652Y174821D01*
X214933Y174718D01*
X215239Y174668D01*
X215341D01*
X215469Y174693D01*
X215596Y174718D01*
X215775Y174769D01*
X215928Y174846D01*
X216106Y174948D01*
X216285Y175076D01*
X216311Y175101D01*
X216361Y175152D01*
X216438Y175254D01*
X216540Y175382D01*
X216642Y175586D01*
X216744Y175790D01*
X216846Y176071D01*
X216923Y176377D01*
Y176428D01*
X216948Y176555D01*
X216999Y176759D01*
X217050Y177065D01*
X217076Y177448D01*
X217127Y177933D01*
X217152Y178494D01*
Y179157D01*
Y179183D01*
Y179285D01*
Y179412D01*
Y179616D01*
X217127Y179821D01*
Y180101D01*
X217101Y180662D01*
X217025Y181300D01*
X216948Y181912D01*
X216897Y182193D01*
X216821Y182474D01*
X216744Y182703D01*
X216668Y182907D01*
X216642Y182958D01*
X216566Y183060D01*
X216463Y183213D01*
X216311Y183392D01*
X216106Y183571D01*
X215851Y183724D01*
X215571Y183826D01*
X215239Y183877D01*
D02*
G37*
G36*
X202203D02*
X202152D01*
X202050Y183851D01*
X201872Y183826D01*
X201668Y183749D01*
X201438Y183647D01*
X201208Y183468D01*
X200979Y183213D01*
X200800Y182882D01*
X200775Y182831D01*
X200749Y182780D01*
X200724Y182678D01*
X200698Y182576D01*
X200673Y182448D01*
X200622Y182270D01*
X200596Y182065D01*
X200545Y181836D01*
X200494Y181581D01*
X200469Y181275D01*
X200443Y180968D01*
X200418Y180586D01*
X200392Y180203D01*
X200367Y179770D01*
Y179285D01*
Y179259D01*
Y179157D01*
Y179030D01*
Y178851D01*
X200392Y178647D01*
Y178392D01*
X200418Y177831D01*
X200469Y177218D01*
X200571Y176606D01*
X200622Y176326D01*
X200673Y176071D01*
X200749Y175841D01*
X200826Y175637D01*
X200851Y175586D01*
X200928Y175484D01*
X201030Y175331D01*
X201183Y175152D01*
X201387Y174974D01*
X201617Y174821D01*
X201897Y174718D01*
X202203Y174668D01*
X202306D01*
X202433Y174693D01*
X202561Y174718D01*
X202739Y174769D01*
X202892Y174846D01*
X203071Y174948D01*
X203249Y175076D01*
X203275Y175101D01*
X203326Y175152D01*
X203402Y175254D01*
X203504Y175382D01*
X203607Y175586D01*
X203709Y175790D01*
X203811Y176071D01*
X203887Y176377D01*
Y176428D01*
X203913Y176555D01*
X203964Y176759D01*
X204015Y177065D01*
X204040Y177448D01*
X204091Y177933D01*
X204117Y178494D01*
Y179157D01*
Y179183D01*
Y179285D01*
Y179412D01*
Y179616D01*
X204091Y179821D01*
Y180101D01*
X204066Y180662D01*
X203989Y181300D01*
X203913Y181912D01*
X203862Y182193D01*
X203785Y182474D01*
X203709Y182703D01*
X203632Y182907D01*
X203607Y182958D01*
X203530Y183060D01*
X203428Y183213D01*
X203275Y183392D01*
X203071Y183571D01*
X202816Y183724D01*
X202535Y183826D01*
X202203Y183877D01*
D02*
G37*
G36*
X189168D02*
X189117D01*
X189015Y183851D01*
X188836Y183826D01*
X188632Y183749D01*
X188402Y183647D01*
X188173Y183468D01*
X187943Y183213D01*
X187765Y182882D01*
X187739Y182831D01*
X187714Y182780D01*
X187688Y182678D01*
X187663Y182576D01*
X187637Y182448D01*
X187586Y182270D01*
X187561Y182065D01*
X187510Y181836D01*
X187459Y181581D01*
X187433Y181275D01*
X187408Y180968D01*
X187382Y180586D01*
X187357Y180203D01*
X187331Y179770D01*
Y179285D01*
Y179259D01*
Y179157D01*
Y179030D01*
Y178851D01*
X187357Y178647D01*
Y178392D01*
X187382Y177831D01*
X187433Y177218D01*
X187535Y176606D01*
X187586Y176326D01*
X187637Y176071D01*
X187714Y175841D01*
X187790Y175637D01*
X187816Y175586D01*
X187892Y175484D01*
X187994Y175331D01*
X188147Y175152D01*
X188352Y174974D01*
X188581Y174821D01*
X188862Y174718D01*
X189168Y174668D01*
X189270D01*
X189397Y174693D01*
X189525Y174718D01*
X189704Y174769D01*
X189857Y174846D01*
X190035Y174948D01*
X190214Y175076D01*
X190239Y175101D01*
X190290Y175152D01*
X190367Y175254D01*
X190469Y175382D01*
X190571Y175586D01*
X190673Y175790D01*
X190775Y176071D01*
X190851Y176377D01*
Y176428D01*
X190877Y176555D01*
X190928Y176759D01*
X190979Y177065D01*
X191005Y177448D01*
X191056Y177933D01*
X191081Y178494D01*
Y179157D01*
Y179183D01*
Y179285D01*
Y179412D01*
Y179616D01*
X191056Y179821D01*
Y180101D01*
X191030Y180662D01*
X190954Y181300D01*
X190877Y181912D01*
X190826Y182193D01*
X190749Y182474D01*
X190673Y182703D01*
X190596Y182907D01*
X190571Y182958D01*
X190494Y183060D01*
X190392Y183213D01*
X190239Y183392D01*
X190035Y183571D01*
X189780Y183724D01*
X189499Y183826D01*
X189168Y183877D01*
D02*
G37*
%LPD*%
M02*
