G04 Layer_Color=15132400*
%FSLAX25Y25*%
%MOIN*%
G70*
G01*
G75*
G36*
X397561Y118110D02*
X396042D01*
Y122679D01*
X394872Y118110D01*
X393495D01*
X392337Y122679D01*
Y118110D01*
X390817D01*
Y124100D01*
X393255D01*
X394184Y120449D01*
X395124Y124100D01*
X397561D01*
Y118110D01*
D02*
G37*
G36*
X380915Y124187D02*
X381013D01*
X381122Y124176D01*
X381243Y124165D01*
X381374Y124144D01*
X381658Y124089D01*
X381953Y124012D01*
X382226Y123903D01*
X382358Y123838D01*
X382478Y123761D01*
X382489D01*
X382500Y123739D01*
X382576Y123685D01*
X382675Y123575D01*
X382795Y123433D01*
X382860Y123346D01*
X382915Y123247D01*
X382981Y123127D01*
X383035Y123007D01*
X383090Y122876D01*
X383134Y122734D01*
X383166Y122570D01*
X383199Y122406D01*
X381450Y122307D01*
Y122329D01*
X381439Y122373D01*
X381418Y122449D01*
X381385Y122537D01*
X381341Y122624D01*
X381297Y122723D01*
X381232Y122821D01*
X381155Y122898D01*
X381144Y122908D01*
X381112Y122930D01*
X381068Y122952D01*
X381002Y122996D01*
X380915Y123029D01*
X380805Y123051D01*
X380685Y123073D01*
X380543Y123083D01*
X380488D01*
X380434Y123073D01*
X380357Y123062D01*
X380193Y123029D01*
X380117Y122985D01*
X380051Y122941D01*
X380040Y122930D01*
X380030Y122919D01*
X379975Y122854D01*
X379920Y122745D01*
X379909Y122679D01*
X379898Y122613D01*
Y122602D01*
Y122591D01*
X379920Y122526D01*
X379953Y122439D01*
X379986Y122395D01*
X380030Y122351D01*
X380040D01*
X380062Y122329D01*
X380095Y122307D01*
X380161Y122275D01*
X380237Y122242D01*
X380346Y122209D01*
X380478Y122165D01*
X380642Y122133D01*
X380652D01*
X380696Y122122D01*
X380762Y122111D01*
X380838Y122089D01*
X380937Y122067D01*
X381057Y122034D01*
X381188Y122001D01*
X381319Y121968D01*
X381603Y121892D01*
X381898Y121794D01*
X382161Y121695D01*
X382281Y121651D01*
X382390Y121597D01*
X382401D01*
X382412Y121586D01*
X382478Y121553D01*
X382565Y121499D01*
X382685Y121422D01*
X382806Y121324D01*
X382937Y121214D01*
X383057Y121083D01*
X383155Y120941D01*
X383166Y120919D01*
X383188Y120876D01*
X383232Y120788D01*
X383276Y120679D01*
X383319Y120548D01*
X383363Y120405D01*
X383385Y120231D01*
X383396Y120056D01*
Y120045D01*
Y120034D01*
Y120001D01*
Y119957D01*
X383374Y119848D01*
X383352Y119706D01*
X383319Y119542D01*
X383254Y119356D01*
X383177Y119170D01*
X383068Y118985D01*
X383057Y118963D01*
X383013Y118908D01*
X382937Y118821D01*
X382839Y118711D01*
X382707Y118591D01*
X382554Y118471D01*
X382379Y118362D01*
X382172Y118252D01*
X382161D01*
X382150Y118241D01*
X382117Y118230D01*
X382073Y118219D01*
X382019Y118198D01*
X381942Y118176D01*
X381866Y118154D01*
X381778Y118132D01*
X381571Y118088D01*
X381319Y118045D01*
X381046Y118023D01*
X380729Y118012D01*
X380587D01*
X380478Y118023D01*
X380357Y118034D01*
X380215Y118045D01*
X380062Y118056D01*
X379887Y118088D01*
X379538Y118154D01*
X379188Y118252D01*
X379024Y118318D01*
X378871Y118405D01*
X378729Y118493D01*
X378609Y118591D01*
X378598Y118602D01*
X378587Y118624D01*
X378554Y118657D01*
X378521Y118701D01*
X378477Y118755D01*
X378423Y118821D01*
X378368Y118908D01*
X378313Y118996D01*
X378193Y119214D01*
X378084Y119476D01*
X378007Y119761D01*
X377975Y119925D01*
X377953Y120089D01*
X379713Y120209D01*
Y120187D01*
X379723Y120132D01*
X379734Y120056D01*
X379767Y119968D01*
X379833Y119750D01*
X379887Y119640D01*
X379942Y119553D01*
X379953Y119542D01*
X379997Y119498D01*
X380062Y119444D01*
X380150Y119378D01*
X380270Y119302D01*
X380412Y119247D01*
X380576Y119203D01*
X380762Y119192D01*
X380827D01*
X380893Y119203D01*
X380991Y119214D01*
X381090Y119236D01*
X381188Y119269D01*
X381286Y119313D01*
X381374Y119367D01*
X381385Y119378D01*
X381407Y119400D01*
X381439Y119444D01*
X381483Y119487D01*
X381527Y119553D01*
X381560Y119630D01*
X381581Y119717D01*
X381592Y119804D01*
Y119815D01*
Y119848D01*
X381581Y119892D01*
X381571Y119947D01*
X381538Y120012D01*
X381505Y120078D01*
X381450Y120154D01*
X381385Y120220D01*
X381374Y120231D01*
X381341Y120253D01*
X381276Y120285D01*
X381188Y120329D01*
X381057Y120384D01*
X380893Y120449D01*
X380795Y120482D01*
X380685Y120504D01*
X380565Y120537D01*
X380434Y120570D01*
X380423D01*
X380379Y120580D01*
X380314Y120602D01*
X380237Y120613D01*
X380139Y120646D01*
X380018Y120679D01*
X379898Y120712D01*
X379767Y120755D01*
X379472Y120865D01*
X379188Y120985D01*
X378925Y121127D01*
X378805Y121203D01*
X378696Y121291D01*
Y121302D01*
X378674Y121313D01*
X378620Y121367D01*
X378532Y121466D01*
X378445Y121608D01*
X378346Y121772D01*
X378259Y121968D01*
X378204Y122187D01*
X378193Y122307D01*
X378182Y122439D01*
Y122449D01*
Y122460D01*
Y122515D01*
X378193Y122613D01*
X378215Y122723D01*
X378248Y122854D01*
X378292Y123007D01*
X378357Y123160D01*
X378445Y123313D01*
X378455Y123335D01*
X378499Y123379D01*
X378565Y123455D01*
X378652Y123553D01*
X378762Y123652D01*
X378904Y123761D01*
X379068Y123859D01*
X379253Y123958D01*
X379264D01*
X379275Y123969D01*
X379308Y123980D01*
X379352Y123991D01*
X379406Y124012D01*
X379472Y124034D01*
X379549Y124056D01*
X379636Y124078D01*
X379734Y124100D01*
X379855Y124122D01*
X380106Y124165D01*
X380401Y124187D01*
X380729Y124198D01*
X380838D01*
X380915Y124187D01*
D02*
G37*
G36*
X415333Y122821D02*
X412229D01*
Y121870D01*
X415104D01*
Y120646D01*
X412229D01*
Y119466D01*
X415421D01*
Y118110D01*
X410371D01*
Y124100D01*
X415333D01*
Y122821D01*
D02*
G37*
G36*
X401966Y124089D02*
X402053D01*
X402152Y124078D01*
X402370Y124045D01*
X402611Y123980D01*
X402862Y123892D01*
X403103Y123783D01*
X403212Y123706D01*
X403310Y123619D01*
X403321D01*
X403332Y123597D01*
X403354Y123564D01*
X403387Y123531D01*
X403474Y123422D01*
X403562Y123269D01*
X403649Y123073D01*
X403737Y122843D01*
X403791Y122570D01*
X403813Y122428D01*
Y122264D01*
Y122253D01*
Y122220D01*
Y122176D01*
X403802Y122111D01*
Y122034D01*
X403780Y121947D01*
X403748Y121750D01*
X403682Y121520D01*
X403584Y121280D01*
X403518Y121160D01*
X403452Y121050D01*
X403365Y120941D01*
X403267Y120843D01*
X403256D01*
X403245Y120821D01*
X403212Y120799D01*
X403168Y120766D01*
X403103Y120722D01*
X403037Y120679D01*
X402950Y120635D01*
X402851Y120591D01*
X402742Y120548D01*
X402622Y120504D01*
X402480Y120460D01*
X402327Y120416D01*
X402163Y120384D01*
X401988Y120362D01*
X401802Y120351D01*
X401594Y120340D01*
X400589D01*
Y118110D01*
X398731D01*
Y124100D01*
X401900D01*
X401966Y124089D01*
D02*
G37*
G36*
X406633Y119586D02*
X409529D01*
Y118110D01*
X404786D01*
Y124100D01*
X406633D01*
Y119586D01*
D02*
G37*
G36*
X360569Y124089D02*
X360766Y124078D01*
X360973Y124067D01*
X361192Y124034D01*
X361400Y124002D01*
X361585Y123947D01*
X361607Y123936D01*
X361662Y123914D01*
X361749Y123881D01*
X361848Y123827D01*
X361968Y123750D01*
X362088Y123652D01*
X362208Y123542D01*
X362318Y123400D01*
X362329Y123379D01*
X362361Y123335D01*
X362405Y123247D01*
X362460Y123127D01*
X362514Y122985D01*
X362558Y122821D01*
X362591Y122635D01*
X362602Y122428D01*
Y122406D01*
Y122340D01*
X362591Y122253D01*
X362580Y122133D01*
X362547Y122001D01*
X362514Y121859D01*
X362460Y121706D01*
X362383Y121564D01*
X362372Y121553D01*
X362351Y121510D01*
X362296Y121444D01*
X362230Y121356D01*
X362143Y121269D01*
X362044Y121171D01*
X361924Y121072D01*
X361793Y120985D01*
X361782Y120974D01*
X361749Y120963D01*
X361695Y120930D01*
X361629Y120897D01*
X361531Y120865D01*
X361421Y120821D01*
X361290Y120788D01*
X361148Y120744D01*
X361159D01*
X361203Y120722D01*
X361258Y120701D01*
X361334Y120679D01*
X361487Y120602D01*
X361563Y120570D01*
X361629Y120526D01*
X361651Y120515D01*
X361673Y120493D01*
X361706Y120460D01*
X361749Y120416D01*
X361793Y120362D01*
X361859Y120296D01*
X361924Y120209D01*
X361935Y120198D01*
X361957Y120165D01*
X361990Y120121D01*
X362034Y120078D01*
X362121Y119947D01*
X362154Y119892D01*
X362187Y119837D01*
X363094Y118110D01*
X360995D01*
X360000Y119936D01*
X359990Y119947D01*
X359968Y119990D01*
X359935Y120056D01*
X359891Y120121D01*
X359782Y120274D01*
X359716Y120340D01*
X359662Y120395D01*
X359651Y120405D01*
X359629Y120416D01*
X359585Y120438D01*
X359530Y120471D01*
X359465Y120493D01*
X359388Y120515D01*
X359301Y120526D01*
X359203Y120537D01*
X359050D01*
Y118110D01*
X357191D01*
Y124100D01*
X360492D01*
X360569Y124089D01*
D02*
G37*
G36*
X349202Y118110D02*
X347376D01*
X346327Y121881D01*
X345278Y118110D01*
X343463D01*
X342141Y124100D01*
X343890D01*
X344524Y120755D01*
X345453Y124100D01*
X347201D01*
X348130Y120744D01*
X348764Y124100D01*
X350524D01*
X349202Y118110D01*
D02*
G37*
G36*
X356088Y122821D02*
X352983D01*
Y121870D01*
X355858D01*
Y120646D01*
X352983D01*
Y119466D01*
X356175D01*
Y118110D01*
X351125D01*
Y124100D01*
X356088D01*
Y122821D01*
D02*
G37*
G36*
X338884Y124187D02*
X339015Y124176D01*
X339157Y124154D01*
X339321Y124133D01*
X339485Y124100D01*
X339671Y124056D01*
X339857Y124002D01*
X340053Y123936D01*
X340239Y123859D01*
X340425Y123761D01*
X340611Y123652D01*
X340775Y123531D01*
X340939Y123389D01*
X340950Y123379D01*
X340971Y123357D01*
X341015Y123302D01*
X341070Y123247D01*
X341124Y123160D01*
X341201Y123062D01*
X341277Y122941D01*
X341354Y122810D01*
X341430Y122657D01*
X341496Y122493D01*
X341572Y122307D01*
X341627Y122111D01*
X341682Y121892D01*
X341726Y121662D01*
X341747Y121411D01*
X341758Y121149D01*
Y121138D01*
Y121105D01*
Y121050D01*
Y120974D01*
X341747Y120886D01*
X341737Y120777D01*
X341726Y120668D01*
X341715Y120537D01*
X341671Y120263D01*
X341605Y119979D01*
X341518Y119695D01*
X341398Y119422D01*
Y119411D01*
X341387Y119389D01*
X341365Y119356D01*
X341332Y119313D01*
X341256Y119192D01*
X341135Y119039D01*
X340993Y118875D01*
X340818Y118701D01*
X340622Y118536D01*
X340381Y118384D01*
X340370D01*
X340348Y118373D01*
X340316Y118351D01*
X340261Y118329D01*
X340195Y118296D01*
X340119Y118263D01*
X340031Y118230D01*
X339922Y118198D01*
X339802Y118165D01*
X339682Y118132D01*
X339398Y118067D01*
X339070Y118023D01*
X338709Y118012D01*
X338545D01*
X338457Y118023D01*
X338359Y118034D01*
X338250D01*
X338119Y118056D01*
X337856Y118088D01*
X337583Y118143D01*
X337299Y118219D01*
X337037Y118329D01*
X337026D01*
X337004Y118340D01*
X336971Y118362D01*
X336927Y118394D01*
X336807Y118471D01*
X336654Y118580D01*
X336479Y118711D01*
X336304Y118897D01*
X336119Y119105D01*
X335954Y119345D01*
Y119356D01*
X335933Y119378D01*
X335922Y119422D01*
X335889Y119476D01*
X335856Y119542D01*
X335823Y119619D01*
X335791Y119717D01*
X335758Y119826D01*
X335714Y119947D01*
X335681Y120078D01*
X335648Y120220D01*
X335616Y120384D01*
X335572Y120722D01*
X335550Y121094D01*
Y121116D01*
Y121160D01*
X335561Y121236D01*
Y121335D01*
X335572Y121455D01*
X335594Y121597D01*
X335616Y121761D01*
X335648Y121925D01*
X335692Y122111D01*
X335747Y122296D01*
X335812Y122482D01*
X335889Y122679D01*
X335987Y122865D01*
X336097Y123051D01*
X336217Y123214D01*
X336359Y123379D01*
X336370Y123389D01*
X336403Y123411D01*
X336446Y123455D01*
X336512Y123510D01*
X336599Y123564D01*
X336698Y123641D01*
X336818Y123717D01*
X336949Y123794D01*
X337102Y123870D01*
X337277Y123936D01*
X337463Y124012D01*
X337670Y124067D01*
X337889Y124122D01*
X338130Y124165D01*
X338381Y124187D01*
X338643Y124198D01*
X338785D01*
X338884Y124187D01*
D02*
G37*
G36*
X332960Y124089D02*
X333047D01*
X333145Y124078D01*
X333364Y124045D01*
X333605Y123980D01*
X333856Y123892D01*
X334096Y123783D01*
X334206Y123706D01*
X334304Y123619D01*
X334315D01*
X334326Y123597D01*
X334348Y123564D01*
X334381Y123531D01*
X334468Y123422D01*
X334556Y123269D01*
X334643Y123073D01*
X334730Y122843D01*
X334785Y122570D01*
X334807Y122428D01*
Y122264D01*
Y122253D01*
Y122220D01*
Y122176D01*
X334796Y122111D01*
Y122034D01*
X334774Y121947D01*
X334741Y121750D01*
X334676Y121520D01*
X334577Y121280D01*
X334512Y121160D01*
X334446Y121050D01*
X334359Y120941D01*
X334260Y120843D01*
X334249D01*
X334239Y120821D01*
X334206Y120799D01*
X334162Y120766D01*
X334096Y120722D01*
X334031Y120679D01*
X333943Y120635D01*
X333845Y120591D01*
X333736Y120548D01*
X333615Y120504D01*
X333473Y120460D01*
X333320Y120416D01*
X333156Y120384D01*
X332982Y120362D01*
X332796Y120351D01*
X332588Y120340D01*
X331582D01*
Y118110D01*
X329724D01*
Y124100D01*
X332894D01*
X332960Y124089D01*
D02*
G37*
G36*
X390249Y118110D02*
X388303D01*
X388008Y119094D01*
X385910D01*
X385615Y118110D01*
X383724D01*
X385964Y124100D01*
X387997D01*
X390249Y118110D01*
D02*
G37*
G36*
X162071Y122624D02*
X160180D01*
Y118110D01*
X158333D01*
Y122624D01*
X156442D01*
Y124100D01*
X162071D01*
Y122624D01*
D02*
G37*
G36*
X150957Y116313D02*
X151088Y116302D01*
X151230Y116280D01*
X151394Y116259D01*
X151558Y116226D01*
X151744Y116182D01*
X151929Y116128D01*
X152126Y116062D01*
X152312Y115985D01*
X152498Y115887D01*
X152684Y115778D01*
X152848Y115657D01*
X153012Y115515D01*
X153022Y115505D01*
X153044Y115483D01*
X153088Y115428D01*
X153143Y115373D01*
X153197Y115286D01*
X153274Y115188D01*
X153350Y115067D01*
X153427Y114936D01*
X153503Y114783D01*
X153569Y114619D01*
X153645Y114433D01*
X153700Y114237D01*
X153755Y114018D01*
X153798Y113788D01*
X153820Y113537D01*
X153831Y113275D01*
Y113264D01*
Y113231D01*
Y113176D01*
Y113100D01*
X153820Y113012D01*
X153809Y112903D01*
X153798Y112794D01*
X153788Y112663D01*
X153744Y112389D01*
X153678Y112105D01*
X153591Y111821D01*
X153471Y111548D01*
Y111537D01*
X153460Y111515D01*
X153438Y111482D01*
X153405Y111439D01*
X153329Y111318D01*
X153208Y111165D01*
X153066Y111001D01*
X152891Y110826D01*
X152694Y110662D01*
X152454Y110510D01*
X152443D01*
X152421Y110498D01*
X152389Y110477D01*
X152334Y110455D01*
X152268Y110422D01*
X152192Y110389D01*
X152104Y110356D01*
X151995Y110324D01*
X151875Y110291D01*
X151754Y110258D01*
X151470Y110193D01*
X151143Y110149D01*
X150782Y110138D01*
X150618D01*
X150530Y110149D01*
X150432Y110160D01*
X150323D01*
X150192Y110182D01*
X149929Y110214D01*
X149656Y110269D01*
X149372Y110345D01*
X149109Y110455D01*
X149099D01*
X149077Y110466D01*
X149044Y110488D01*
X149000Y110520D01*
X148880Y110597D01*
X148727Y110706D01*
X148552Y110837D01*
X148377Y111023D01*
X148191Y111231D01*
X148027Y111471D01*
Y111482D01*
X148006Y111504D01*
X147995Y111548D01*
X147962Y111602D01*
X147929Y111668D01*
X147896Y111745D01*
X147863Y111843D01*
X147831Y111952D01*
X147787Y112073D01*
X147754Y112204D01*
X147721Y112346D01*
X147689Y112510D01*
X147645Y112848D01*
X147623Y113220D01*
Y113242D01*
Y113286D01*
X147634Y113362D01*
Y113461D01*
X147645Y113581D01*
X147667Y113723D01*
X147689Y113887D01*
X147721Y114051D01*
X147765Y114237D01*
X147820Y114422D01*
X147885Y114608D01*
X147962Y114805D01*
X148060Y114991D01*
X148170Y115177D01*
X148290Y115340D01*
X148432Y115505D01*
X148443Y115515D01*
X148476Y115537D01*
X148519Y115581D01*
X148585Y115636D01*
X148672Y115690D01*
X148771Y115767D01*
X148891Y115843D01*
X149022Y115920D01*
X149175Y115996D01*
X149350Y116062D01*
X149536Y116138D01*
X149743Y116193D01*
X149962Y116248D01*
X150203Y116291D01*
X150454Y116313D01*
X150716Y116324D01*
X150858D01*
X150957Y116313D01*
D02*
G37*
G36*
X156278Y118110D02*
X154332D01*
X154037Y119094D01*
X151939D01*
X151644Y118110D01*
X149753D01*
X151993Y124100D01*
X154026D01*
X156278Y118110D01*
D02*
G37*
G36*
X141402Y124089D02*
X141479D01*
X141555Y124078D01*
X141752Y124045D01*
X141971Y123991D01*
X142189Y123914D01*
X142397Y123805D01*
X142594Y123663D01*
X142604D01*
X142615Y123641D01*
X142670Y123586D01*
X142747Y123499D01*
X142834Y123368D01*
X142911Y123214D01*
X142987Y123040D01*
X143042Y122832D01*
X143063Y122723D01*
Y122602D01*
Y122591D01*
Y122581D01*
Y122515D01*
X143042Y122417D01*
X143020Y122296D01*
X142976Y122154D01*
X142921Y122001D01*
X142834Y121848D01*
X142725Y121695D01*
X142714Y121684D01*
X142681Y121651D01*
X142637Y121608D01*
X142561Y121553D01*
X142473Y121488D01*
X142364Y121422D01*
X142233Y121356D01*
X142080Y121291D01*
X142091D01*
X142113Y121280D01*
X142145D01*
X142189Y121258D01*
X142298Y121225D01*
X142440Y121171D01*
X142594Y121094D01*
X142757Y120996D01*
X142900Y120886D01*
X143031Y120755D01*
X143042Y120733D01*
X143075Y120690D01*
X143129Y120602D01*
X143184Y120493D01*
X143238Y120362D01*
X143293Y120198D01*
X143326Y120012D01*
X143337Y119804D01*
Y119782D01*
Y119728D01*
X143326Y119640D01*
X143315Y119531D01*
X143282Y119400D01*
X143249Y119258D01*
X143195Y119116D01*
X143118Y118974D01*
X143107Y118963D01*
X143075Y118908D01*
X143031Y118842D01*
X142965Y118766D01*
X142878Y118668D01*
X142768Y118569D01*
X142648Y118471D01*
X142517Y118384D01*
X142506D01*
X142473Y118362D01*
X142419Y118340D01*
X142342Y118307D01*
X142244Y118274D01*
X142124Y118241D01*
X141981Y118219D01*
X141817Y118187D01*
X141796D01*
X141763Y118176D01*
X141719D01*
X141610Y118165D01*
X141479Y118154D01*
X141337Y118132D01*
X141205Y118121D01*
X141085Y118110D01*
X137795D01*
Y124100D01*
X141348D01*
X141402Y124089D01*
D02*
G37*
G36*
X149272Y122821D02*
X146168D01*
Y121870D01*
X149042D01*
Y120646D01*
X146168D01*
Y119466D01*
X149359D01*
Y118110D01*
X144310D01*
Y124100D01*
X149272D01*
Y122821D01*
D02*
G37*
G36*
X403720Y111712D02*
X406617D01*
Y110236D01*
X401873D01*
Y116226D01*
X403720D01*
Y111712D01*
D02*
G37*
G36*
X392058Y110236D02*
X390058D01*
X387795Y116226D01*
X389730D01*
X391074Y111908D01*
X392408Y116226D01*
X394288D01*
X392058Y110236D01*
D02*
G37*
G36*
X398004Y116313D02*
X398135Y116302D01*
X398277Y116280D01*
X398441Y116259D01*
X398605Y116226D01*
X398791Y116182D01*
X398977Y116128D01*
X399173Y116062D01*
X399359Y115985D01*
X399545Y115887D01*
X399731Y115778D01*
X399895Y115657D01*
X400059Y115515D01*
X400070Y115505D01*
X400092Y115483D01*
X400135Y115428D01*
X400190Y115373D01*
X400245Y115286D01*
X400321Y115188D01*
X400398Y115067D01*
X400474Y114936D01*
X400551Y114783D01*
X400616Y114619D01*
X400693Y114433D01*
X400747Y114237D01*
X400802Y114018D01*
X400846Y113788D01*
X400868Y113537D01*
X400878Y113275D01*
Y113264D01*
Y113231D01*
Y113176D01*
Y113100D01*
X400868Y113012D01*
X400857Y112903D01*
X400846Y112794D01*
X400835Y112663D01*
X400791Y112389D01*
X400726Y112105D01*
X400638Y111821D01*
X400518Y111548D01*
Y111537D01*
X400507Y111515D01*
X400485Y111482D01*
X400452Y111439D01*
X400376Y111318D01*
X400255Y111165D01*
X400113Y111001D01*
X399939Y110826D01*
X399742Y110662D01*
X399501Y110510D01*
X399490D01*
X399468Y110498D01*
X399436Y110477D01*
X399381Y110455D01*
X399316Y110422D01*
X399239Y110389D01*
X399151Y110356D01*
X399042Y110324D01*
X398922Y110291D01*
X398802Y110258D01*
X398518Y110193D01*
X398190Y110149D01*
X397829Y110138D01*
X397665D01*
X397578Y110149D01*
X397479Y110160D01*
X397370D01*
X397239Y110182D01*
X396976Y110214D01*
X396703Y110269D01*
X396419Y110345D01*
X396157Y110455D01*
X396146D01*
X396124Y110466D01*
X396091Y110488D01*
X396047Y110520D01*
X395927Y110597D01*
X395774Y110706D01*
X395599Y110837D01*
X395424Y111023D01*
X395239Y111231D01*
X395075Y111471D01*
Y111482D01*
X395053Y111504D01*
X395042Y111548D01*
X395009Y111602D01*
X394976Y111668D01*
X394943Y111745D01*
X394911Y111843D01*
X394878Y111952D01*
X394834Y112073D01*
X394801Y112204D01*
X394769Y112346D01*
X394736Y112510D01*
X394692Y112848D01*
X394670Y113220D01*
Y113242D01*
Y113286D01*
X394681Y113362D01*
Y113461D01*
X394692Y113581D01*
X394714Y113723D01*
X394736Y113887D01*
X394769Y114051D01*
X394812Y114237D01*
X394867Y114422D01*
X394933Y114608D01*
X395009Y114805D01*
X395108Y114991D01*
X395217Y115177D01*
X395337Y115340D01*
X395479Y115505D01*
X395490Y115515D01*
X395523Y115537D01*
X395567Y115581D01*
X395632Y115636D01*
X395720Y115690D01*
X395818Y115767D01*
X395938Y115843D01*
X396069Y115920D01*
X396222Y115996D01*
X396397Y116062D01*
X396583Y116138D01*
X396791Y116193D01*
X397009Y116248D01*
X397250Y116291D01*
X397501Y116313D01*
X397763Y116324D01*
X397905D01*
X398004Y116313D01*
D02*
G37*
G36*
X156673Y111712D02*
X159570D01*
Y110236D01*
X154826D01*
Y116226D01*
X156673D01*
Y111712D01*
D02*
G37*
G36*
X145011Y110236D02*
X143010D01*
X140748Y116226D01*
X142683D01*
X144027Y111908D01*
X145361Y116226D01*
X147240D01*
X145011Y110236D01*
D02*
G37*
G36*
X189046Y120526D02*
Y120515D01*
Y120504D01*
Y120438D01*
X189035Y120340D01*
X189024Y120209D01*
X189002Y120045D01*
X188969Y119881D01*
X188926Y119706D01*
X188871Y119520D01*
X188860Y119498D01*
X188838Y119444D01*
X188805Y119356D01*
X188740Y119247D01*
X188674Y119116D01*
X188576Y118974D01*
X188477Y118832D01*
X188346Y118701D01*
X188335Y118690D01*
X188281Y118646D01*
X188215Y118580D01*
X188128Y118504D01*
X188018Y118427D01*
X187887Y118351D01*
X187756Y118274D01*
X187614Y118209D01*
X187603D01*
X187592Y118198D01*
X187559Y118187D01*
X187515Y118176D01*
X187406Y118143D01*
X187242Y118110D01*
X187057Y118077D01*
X186838Y118045D01*
X186586Y118023D01*
X186313Y118012D01*
X186149D01*
X186029Y118023D01*
X185887D01*
X185723Y118045D01*
X185548Y118056D01*
X185351Y118077D01*
X185329D01*
X185264Y118088D01*
X185166Y118099D01*
X185056Y118132D01*
X184914Y118154D01*
X184772Y118198D01*
X184630Y118252D01*
X184488Y118307D01*
X184477Y118318D01*
X184433Y118340D01*
X184368Y118384D01*
X184280Y118438D01*
X184182Y118515D01*
X184073Y118602D01*
X183963Y118701D01*
X183854Y118821D01*
X183843Y118832D01*
X183810Y118875D01*
X183756Y118952D01*
X183701Y119039D01*
X183635Y119138D01*
X183570Y119258D01*
X183504Y119389D01*
X183460Y119520D01*
Y119531D01*
X183450Y119542D01*
Y119575D01*
X183439Y119619D01*
X183406Y119728D01*
X183384Y119859D01*
X183351Y120012D01*
X183318Y120187D01*
X183308Y120362D01*
X183297Y120526D01*
Y124100D01*
X185144D01*
Y120449D01*
Y120427D01*
Y120373D01*
X185155Y120274D01*
X185177Y120165D01*
X185209Y120045D01*
X185253Y119925D01*
X185319Y119793D01*
X185406Y119684D01*
X185417Y119673D01*
X185461Y119640D01*
X185515Y119597D01*
X185603Y119553D01*
X185712Y119498D01*
X185843Y119455D01*
X185996Y119422D01*
X186171Y119411D01*
X186248D01*
X186335Y119422D01*
X186444Y119444D01*
X186565Y119476D01*
X186696Y119520D01*
X186816Y119586D01*
X186925Y119673D01*
X186936Y119684D01*
X186969Y119728D01*
X187013Y119782D01*
X187067Y119870D01*
X187111Y119979D01*
X187155Y120121D01*
X187188Y120274D01*
X187199Y120449D01*
Y124100D01*
X189046D01*
Y120526D01*
D02*
G37*
G36*
X261655Y120526D02*
Y120515D01*
Y120504D01*
Y120438D01*
X261644Y120340D01*
X261633Y120209D01*
X261611Y120045D01*
X261578Y119881D01*
X261534Y119706D01*
X261480Y119520D01*
X261469Y119498D01*
X261447Y119444D01*
X261414Y119356D01*
X261349Y119247D01*
X261283Y119116D01*
X261185Y118974D01*
X261086Y118832D01*
X260955Y118700D01*
X260944Y118690D01*
X260890Y118646D01*
X260824Y118580D01*
X260736Y118504D01*
X260627Y118427D01*
X260496Y118351D01*
X260365Y118274D01*
X260223Y118209D01*
X260212D01*
X260201Y118198D01*
X260168Y118187D01*
X260124Y118176D01*
X260015Y118143D01*
X259851Y118110D01*
X259665Y118077D01*
X259447Y118045D01*
X259195Y118023D01*
X258922Y118012D01*
X258758D01*
X258638Y118023D01*
X258496D01*
X258332Y118045D01*
X258157Y118055D01*
X257960Y118077D01*
X257939D01*
X257873Y118088D01*
X257774Y118099D01*
X257665Y118132D01*
X257523Y118154D01*
X257381Y118198D01*
X257239Y118252D01*
X257097Y118307D01*
X257086Y118318D01*
X257042Y118340D01*
X256977Y118383D01*
X256889Y118438D01*
X256791Y118515D01*
X256681Y118602D01*
X256572Y118700D01*
X256463Y118821D01*
X256452Y118832D01*
X256419Y118875D01*
X256364Y118952D01*
X256310Y119039D01*
X256244Y119138D01*
X256179Y119258D01*
X256113Y119389D01*
X256069Y119520D01*
Y119531D01*
X256059Y119542D01*
Y119575D01*
X256048Y119618D01*
X256015Y119728D01*
X255993Y119859D01*
X255960Y120012D01*
X255927Y120187D01*
X255916Y120362D01*
X255906Y120526D01*
Y124100D01*
X257753D01*
Y120449D01*
Y120427D01*
Y120373D01*
X257764Y120274D01*
X257785Y120165D01*
X257818Y120045D01*
X257862Y119925D01*
X257927Y119793D01*
X258015Y119684D01*
X258026Y119673D01*
X258070Y119640D01*
X258124Y119597D01*
X258212Y119553D01*
X258321Y119498D01*
X258452Y119455D01*
X258605Y119422D01*
X258780Y119411D01*
X258857D01*
X258944Y119422D01*
X259053Y119444D01*
X259173Y119476D01*
X259305Y119520D01*
X259425Y119586D01*
X259534Y119673D01*
X259545Y119684D01*
X259578Y119728D01*
X259622Y119782D01*
X259676Y119870D01*
X259720Y119979D01*
X259764Y120121D01*
X259797Y120274D01*
X259807Y120449D01*
Y124100D01*
X261655D01*
Y120526D01*
D02*
G37*
G36*
X184436Y116313D02*
X184567Y116302D01*
X184709Y116280D01*
X184873Y116259D01*
X185037Y116226D01*
X185223Y116182D01*
X185409Y116128D01*
X185606Y116062D01*
X185791Y115985D01*
X185977Y115887D01*
X186163Y115778D01*
X186327Y115657D01*
X186491Y115515D01*
X186502Y115505D01*
X186524Y115483D01*
X186567Y115428D01*
X186622Y115373D01*
X186677Y115286D01*
X186753Y115188D01*
X186830Y115067D01*
X186906Y114936D01*
X186983Y114783D01*
X187048Y114619D01*
X187125Y114433D01*
X187179Y114237D01*
X187234Y114018D01*
X187278Y113788D01*
X187300Y113537D01*
X187311Y113275D01*
Y113264D01*
Y113231D01*
Y113176D01*
Y113100D01*
X187300Y113012D01*
X187289Y112903D01*
X187278Y112794D01*
X187267Y112663D01*
X187223Y112389D01*
X187158Y112105D01*
X187070Y111821D01*
X186950Y111548D01*
Y111537D01*
X186939Y111515D01*
X186917Y111482D01*
X186884Y111439D01*
X186808Y111318D01*
X186688Y111165D01*
X186546Y111001D01*
X186371Y110826D01*
X186174Y110662D01*
X185933Y110510D01*
X185923D01*
X185901Y110498D01*
X185868Y110477D01*
X185813Y110455D01*
X185748Y110422D01*
X185671Y110389D01*
X185584Y110356D01*
X185474Y110324D01*
X185354Y110291D01*
X185234Y110258D01*
X184950Y110193D01*
X184622Y110149D01*
X184261Y110138D01*
X184097D01*
X184010Y110149D01*
X183911Y110160D01*
X183802D01*
X183671Y110182D01*
X183409Y110214D01*
X183135Y110269D01*
X182851Y110345D01*
X182589Y110455D01*
X182578D01*
X182556Y110466D01*
X182523Y110488D01*
X182480Y110520D01*
X182359Y110597D01*
X182206Y110706D01*
X182031Y110837D01*
X181857Y111023D01*
X181671Y111231D01*
X181507Y111471D01*
Y111482D01*
X181485Y111504D01*
X181474Y111548D01*
X181441Y111602D01*
X181408Y111668D01*
X181376Y111745D01*
X181343Y111843D01*
X181310Y111952D01*
X181266Y112073D01*
X181234Y112204D01*
X181201Y112346D01*
X181168Y112510D01*
X181124Y112848D01*
X181102Y113220D01*
Y113242D01*
Y113286D01*
X181113Y113362D01*
Y113461D01*
X181124Y113581D01*
X181146Y113723D01*
X181168Y113887D01*
X181201Y114051D01*
X181245Y114237D01*
X181299Y114422D01*
X181365Y114608D01*
X181441Y114805D01*
X181540Y114991D01*
X181649Y115177D01*
X181769Y115340D01*
X181911Y115505D01*
X181922Y115515D01*
X181955Y115537D01*
X181999Y115581D01*
X182064Y115636D01*
X182152Y115690D01*
X182250Y115767D01*
X182370Y115843D01*
X182501Y115920D01*
X182654Y115996D01*
X182829Y116062D01*
X183015Y116138D01*
X183223Y116193D01*
X183441Y116248D01*
X183682Y116291D01*
X183933Y116313D01*
X184196Y116324D01*
X184338D01*
X184436Y116313D01*
D02*
G37*
G36*
X272530Y124089D02*
X272606D01*
X272683Y124078D01*
X272880Y124045D01*
X273098Y123990D01*
X273317Y123914D01*
X273525Y123805D01*
X273721Y123663D01*
X273732D01*
X273743Y123641D01*
X273798Y123586D01*
X273874Y123499D01*
X273962Y123368D01*
X274038Y123214D01*
X274115Y123040D01*
X274169Y122832D01*
X274191Y122723D01*
Y122602D01*
Y122591D01*
Y122581D01*
Y122515D01*
X274169Y122417D01*
X274148Y122296D01*
X274104Y122154D01*
X274049Y122001D01*
X273962Y121848D01*
X273852Y121695D01*
X273842Y121684D01*
X273809Y121651D01*
X273765Y121608D01*
X273689Y121553D01*
X273601Y121488D01*
X273492Y121422D01*
X273361Y121356D01*
X273208Y121291D01*
X273219D01*
X273240Y121280D01*
X273273D01*
X273317Y121258D01*
X273426Y121225D01*
X273568Y121171D01*
X273721Y121094D01*
X273885Y120996D01*
X274027Y120886D01*
X274159Y120755D01*
X274169Y120733D01*
X274202Y120690D01*
X274257Y120602D01*
X274312Y120493D01*
X274366Y120362D01*
X274421Y120198D01*
X274454Y120012D01*
X274465Y119804D01*
Y119782D01*
Y119728D01*
X274454Y119640D01*
X274443Y119531D01*
X274410Y119400D01*
X274377Y119258D01*
X274323Y119116D01*
X274246Y118974D01*
X274235Y118963D01*
X274202Y118908D01*
X274159Y118842D01*
X274093Y118766D01*
X274006Y118668D01*
X273896Y118569D01*
X273776Y118471D01*
X273645Y118383D01*
X273634D01*
X273601Y118362D01*
X273547Y118340D01*
X273470Y118307D01*
X273372Y118274D01*
X273251Y118241D01*
X273109Y118219D01*
X272945Y118187D01*
X272923D01*
X272891Y118176D01*
X272847D01*
X272738Y118165D01*
X272606Y118154D01*
X272464Y118132D01*
X272333Y118121D01*
X272213Y118110D01*
X268923D01*
Y124100D01*
X272475D01*
X272530Y124089D01*
D02*
G37*
G36*
X317937Y166743D02*
X318166D01*
X318422Y166717D01*
X318702Y166692D01*
X319008Y166640D01*
X319672Y166513D01*
X320360Y166334D01*
X320998Y166079D01*
X321304Y165926D01*
X321585Y165748D01*
X321610D01*
X321636Y165697D01*
X321814Y165569D01*
X322044Y165314D01*
X322324Y164982D01*
X322478Y164778D01*
X322605Y164549D01*
X322758Y164268D01*
X322886Y163988D01*
X323013Y163681D01*
X323115Y163350D01*
X323192Y162967D01*
X323268Y162584D01*
X319187Y162355D01*
Y162406D01*
X319161Y162508D01*
X319110Y162687D01*
X319034Y162891D01*
X318932Y163095D01*
X318830Y163324D01*
X318677Y163554D01*
X318498Y163732D01*
X318473Y163758D01*
X318396Y163809D01*
X318294Y163860D01*
X318141Y163962D01*
X317937Y164039D01*
X317682Y164090D01*
X317401Y164140D01*
X317070Y164166D01*
X316942D01*
X316814Y164140D01*
X316636Y164115D01*
X316253Y164039D01*
X316075Y163936D01*
X315921Y163834D01*
X315896Y163809D01*
X315870Y163783D01*
X315743Y163630D01*
X315615Y163375D01*
X315590Y163222D01*
X315564Y163069D01*
Y163044D01*
Y163018D01*
X315615Y162865D01*
X315692Y162661D01*
X315768Y162559D01*
X315870Y162457D01*
X315896D01*
X315947Y162406D01*
X316023Y162355D01*
X316177Y162278D01*
X316355Y162202D01*
X316610Y162125D01*
X316916Y162023D01*
X317299Y161947D01*
X317324D01*
X317427Y161921D01*
X317580Y161896D01*
X317758Y161845D01*
X317988Y161794D01*
X318268Y161717D01*
X318575Y161641D01*
X318881Y161564D01*
X319544Y161386D01*
X320233Y161156D01*
X320845Y160926D01*
X321126Y160824D01*
X321381Y160697D01*
X321406D01*
X321432Y160671D01*
X321585Y160595D01*
X321789Y160467D01*
X322069Y160289D01*
X322350Y160059D01*
X322656Y159804D01*
X322937Y159498D01*
X323166Y159166D01*
X323192Y159115D01*
X323243Y159013D01*
X323345Y158809D01*
X323447Y158554D01*
X323549Y158248D01*
X323651Y157916D01*
X323702Y157508D01*
X323728Y157100D01*
Y157074D01*
Y157049D01*
Y156972D01*
Y156870D01*
X323676Y156615D01*
X323625Y156283D01*
X323549Y155901D01*
X323396Y155467D01*
X323217Y155034D01*
X322962Y154600D01*
X322937Y154549D01*
X322835Y154421D01*
X322656Y154217D01*
X322427Y153962D01*
X322120Y153681D01*
X321763Y153401D01*
X321355Y153146D01*
X320870Y152891D01*
X320845D01*
X320819Y152865D01*
X320743Y152840D01*
X320641Y152814D01*
X320513Y152763D01*
X320335Y152712D01*
X320156Y152661D01*
X319952Y152610D01*
X319467Y152508D01*
X318881Y152406D01*
X318243Y152355D01*
X317503Y152329D01*
X317172D01*
X316916Y152355D01*
X316636Y152380D01*
X316304Y152406D01*
X315947Y152431D01*
X315539Y152508D01*
X314722Y152661D01*
X313906Y152891D01*
X313524Y153044D01*
X313166Y153248D01*
X312835Y153452D01*
X312554Y153681D01*
X312529Y153707D01*
X312503Y153758D01*
X312427Y153834D01*
X312350Y153937D01*
X312248Y154064D01*
X312121Y154217D01*
X311993Y154421D01*
X311865Y154625D01*
X311585Y155136D01*
X311330Y155748D01*
X311151Y156411D01*
X311075Y156794D01*
X311024Y157176D01*
X315131Y157457D01*
Y157406D01*
X315156Y157278D01*
X315182Y157100D01*
X315258Y156896D01*
X315411Y156386D01*
X315539Y156130D01*
X315666Y155926D01*
X315692Y155901D01*
X315794Y155799D01*
X315947Y155671D01*
X316151Y155518D01*
X316432Y155340D01*
X316763Y155212D01*
X317146Y155110D01*
X317580Y155085D01*
X317733D01*
X317886Y155110D01*
X318115Y155136D01*
X318345Y155186D01*
X318575Y155263D01*
X318804Y155365D01*
X319008Y155493D01*
X319034Y155518D01*
X319085Y155569D01*
X319161Y155671D01*
X319263Y155773D01*
X319365Y155926D01*
X319442Y156105D01*
X319493Y156309D01*
X319518Y156513D01*
Y156539D01*
Y156615D01*
X319493Y156717D01*
X319467Y156845D01*
X319391Y156998D01*
X319314Y157151D01*
X319187Y157329D01*
X319034Y157482D01*
X319008Y157508D01*
X318932Y157559D01*
X318779Y157635D01*
X318575Y157738D01*
X318268Y157865D01*
X317886Y158018D01*
X317656Y158095D01*
X317401Y158146D01*
X317121Y158222D01*
X316814Y158299D01*
X316789D01*
X316687Y158324D01*
X316534Y158375D01*
X316355Y158401D01*
X316126Y158477D01*
X315845Y158554D01*
X315564Y158630D01*
X315258Y158732D01*
X314569Y158987D01*
X313906Y159268D01*
X313294Y159600D01*
X313013Y159778D01*
X312758Y159982D01*
Y160008D01*
X312707Y160033D01*
X312580Y160161D01*
X312376Y160391D01*
X312172Y160722D01*
X311942Y161105D01*
X311738Y161564D01*
X311610Y162074D01*
X311585Y162355D01*
X311559Y162661D01*
Y162687D01*
Y162712D01*
Y162839D01*
X311585Y163069D01*
X311636Y163324D01*
X311712Y163630D01*
X311814Y163988D01*
X311967Y164345D01*
X312172Y164702D01*
X312197Y164753D01*
X312299Y164855D01*
X312452Y165033D01*
X312656Y165263D01*
X312911Y165493D01*
X313243Y165748D01*
X313626Y165977D01*
X314059Y166207D01*
X314085D01*
X314110Y166232D01*
X314187Y166258D01*
X314289Y166283D01*
X314416Y166334D01*
X314569Y166385D01*
X314748Y166436D01*
X314952Y166488D01*
X315182Y166539D01*
X315462Y166589D01*
X316049Y166692D01*
X316738Y166743D01*
X317503Y166768D01*
X317758D01*
X317937Y166743D01*
D02*
G37*
G36*
X332886D02*
X333115D01*
X333370Y166717D01*
X333651Y166692D01*
X333957Y166640D01*
X334646Y166513D01*
X335335Y166309D01*
X335998Y166054D01*
X336304Y165875D01*
X336610Y165697D01*
X336636D01*
X336687Y165646D01*
X336763Y165595D01*
X336865Y165493D01*
X336993Y165391D01*
X337146Y165237D01*
X337299Y165084D01*
X337477Y164880D01*
X337656Y164676D01*
X337835Y164421D01*
X338039Y164166D01*
X338217Y163860D01*
X338396Y163528D01*
X338574Y163197D01*
X338727Y162814D01*
X338880Y162406D01*
X335054Y161564D01*
Y161590D01*
X335029Y161666D01*
X334978Y161794D01*
X334927Y161921D01*
X334773Y162227D01*
X334697Y162355D01*
X334620Y162482D01*
X334595Y162508D01*
X334569Y162559D01*
X334467Y162661D01*
X334365Y162763D01*
X334085Y163018D01*
X333728Y163248D01*
X333702Y163273D01*
X333651Y163299D01*
X333523Y163350D01*
X333396Y163401D01*
X333217Y163452D01*
X333013Y163477D01*
X332784Y163528D01*
X332401D01*
X332324Y163503D01*
X332044Y163477D01*
X331712Y163375D01*
X331355Y163248D01*
X330972Y163018D01*
X330615Y162738D01*
X330462Y162533D01*
X330309Y162329D01*
X330284Y162278D01*
X330207Y162176D01*
X330131Y161947D01*
X330029Y161666D01*
X329901Y161283D01*
X329824Y160824D01*
X329748Y160263D01*
X329722Y159600D01*
Y159574D01*
Y159498D01*
Y159370D01*
Y159217D01*
X329748Y159038D01*
Y158809D01*
X329799Y158324D01*
X329901Y157814D01*
X330003Y157278D01*
X330182Y156794D01*
X330284Y156590D01*
X330411Y156411D01*
X330437Y156386D01*
X330539Y156283D01*
X330717Y156156D01*
X330921Y156003D01*
X331202Y155824D01*
X331559Y155697D01*
X331942Y155595D01*
X332401Y155569D01*
X332605D01*
X332835Y155595D01*
X333115Y155646D01*
X333421Y155748D01*
X333728Y155850D01*
X334034Y156028D01*
X334289Y156258D01*
X334314Y156283D01*
X334391Y156386D01*
X334518Y156539D01*
X334646Y156768D01*
X334799Y157049D01*
X334952Y157406D01*
X335105Y157814D01*
X335233Y158299D01*
X339008Y157125D01*
Y157100D01*
X338983Y157049D01*
X338957Y156972D01*
X338931Y156870D01*
X338855Y156564D01*
X338702Y156207D01*
X338549Y155773D01*
X338319Y155340D01*
X338090Y154906D01*
X337784Y154472D01*
X337758Y154421D01*
X337631Y154294D01*
X337452Y154115D01*
X337222Y153860D01*
X336916Y153605D01*
X336585Y153350D01*
X336176Y153095D01*
X335743Y152865D01*
X335717D01*
X335692Y152840D01*
X335615Y152814D01*
X335539Y152789D01*
X335258Y152687D01*
X334901Y152610D01*
X334467Y152508D01*
X333932Y152406D01*
X333319Y152355D01*
X332656Y152329D01*
X332273D01*
X332069Y152355D01*
X331865D01*
X331610Y152380D01*
X331329Y152406D01*
X330743Y152482D01*
X330105Y152610D01*
X329493Y152763D01*
X328906Y152967D01*
X328881D01*
X328855Y152993D01*
X328779Y153044D01*
X328677Y153095D01*
X328396Y153273D01*
X328064Y153503D01*
X327682Y153834D01*
X327248Y154217D01*
X326840Y154702D01*
X326432Y155289D01*
Y155314D01*
X326381Y155365D01*
X326330Y155467D01*
X326279Y155595D01*
X326202Y155748D01*
X326100Y155952D01*
X325998Y156181D01*
X325921Y156462D01*
X325819Y156743D01*
X325717Y157074D01*
X325641Y157431D01*
X325539Y157814D01*
X325488Y158222D01*
X325437Y158656D01*
X325386Y159574D01*
Y159625D01*
Y159727D01*
X325411Y159906D01*
Y160135D01*
X325437Y160442D01*
X325488Y160773D01*
X325539Y161130D01*
X325615Y161539D01*
X325717Y161972D01*
X325845Y162406D01*
X325972Y162839D01*
X326151Y163299D01*
X326381Y163732D01*
X326610Y164140D01*
X326891Y164549D01*
X327222Y164906D01*
X327248Y164931D01*
X327299Y164982D01*
X327427Y165084D01*
X327554Y165186D01*
X327758Y165340D01*
X327988Y165493D01*
X328243Y165671D01*
X328574Y165850D01*
X328906Y166003D01*
X329314Y166181D01*
X329748Y166334D01*
X330207Y166488D01*
X330717Y166589D01*
X331253Y166692D01*
X331840Y166743D01*
X332452Y166768D01*
X332707D01*
X332886Y166743D01*
D02*
G37*
G36*
X198719Y118110D02*
X196861D01*
Y124100D01*
X198719D01*
Y118110D01*
D02*
G37*
G36*
X200481Y114750D02*
X198590D01*
Y110236D01*
X196743D01*
Y114750D01*
X194852D01*
Y116226D01*
X200481D01*
Y114750D01*
D02*
G37*
G36*
X265513Y124187D02*
X265611D01*
X265721Y124176D01*
X265841Y124165D01*
X265972Y124144D01*
X266256Y124089D01*
X266551Y124012D01*
X266825Y123903D01*
X266956Y123837D01*
X267076Y123761D01*
X267087D01*
X267098Y123739D01*
X267174Y123685D01*
X267273Y123575D01*
X267393Y123433D01*
X267459Y123346D01*
X267513Y123247D01*
X267579Y123127D01*
X267633Y123007D01*
X267688Y122876D01*
X267732Y122734D01*
X267764Y122570D01*
X267797Y122406D01*
X266049Y122307D01*
Y122329D01*
X266038Y122373D01*
X266016Y122449D01*
X265983Y122537D01*
X265939Y122624D01*
X265896Y122723D01*
X265830Y122821D01*
X265753Y122898D01*
X265742Y122908D01*
X265710Y122930D01*
X265666Y122952D01*
X265600Y122996D01*
X265513Y123029D01*
X265404Y123050D01*
X265283Y123072D01*
X265141Y123083D01*
X265087D01*
X265032Y123072D01*
X264955Y123062D01*
X264792Y123029D01*
X264715Y122985D01*
X264650Y122941D01*
X264638Y122930D01*
X264628Y122919D01*
X264573Y122854D01*
X264518Y122745D01*
X264507Y122679D01*
X264496Y122613D01*
Y122602D01*
Y122591D01*
X264518Y122526D01*
X264551Y122439D01*
X264584Y122395D01*
X264628Y122351D01*
X264638D01*
X264660Y122329D01*
X264693Y122307D01*
X264759Y122274D01*
X264835Y122242D01*
X264945Y122209D01*
X265076Y122165D01*
X265240Y122132D01*
X265251D01*
X265294Y122122D01*
X265360Y122111D01*
X265436Y122089D01*
X265535Y122067D01*
X265655Y122034D01*
X265786Y122001D01*
X265917Y121968D01*
X266201Y121892D01*
X266497Y121794D01*
X266759Y121695D01*
X266879Y121651D01*
X266988Y121597D01*
X266999D01*
X267010Y121586D01*
X267076Y121553D01*
X267163Y121499D01*
X267284Y121422D01*
X267404Y121324D01*
X267535Y121214D01*
X267655Y121083D01*
X267754Y120941D01*
X267764Y120919D01*
X267786Y120876D01*
X267830Y120788D01*
X267874Y120679D01*
X267917Y120548D01*
X267961Y120405D01*
X267983Y120231D01*
X267994Y120056D01*
Y120045D01*
Y120034D01*
Y120001D01*
Y119957D01*
X267972Y119848D01*
X267950Y119706D01*
X267917Y119542D01*
X267852Y119356D01*
X267776Y119170D01*
X267666Y118985D01*
X267655Y118963D01*
X267612Y118908D01*
X267535Y118821D01*
X267437Y118711D01*
X267305Y118591D01*
X267152Y118471D01*
X266978Y118362D01*
X266770Y118252D01*
X266759D01*
X266748Y118241D01*
X266715Y118230D01*
X266671Y118219D01*
X266617Y118198D01*
X266540Y118176D01*
X266464Y118154D01*
X266376Y118132D01*
X266169Y118088D01*
X265917Y118045D01*
X265644Y118023D01*
X265327Y118012D01*
X265185D01*
X265076Y118023D01*
X264955Y118034D01*
X264813Y118045D01*
X264660Y118055D01*
X264486Y118088D01*
X264136Y118154D01*
X263786Y118252D01*
X263622Y118318D01*
X263469Y118405D01*
X263327Y118493D01*
X263207Y118591D01*
X263196Y118602D01*
X263185Y118624D01*
X263152Y118657D01*
X263119Y118700D01*
X263076Y118755D01*
X263021Y118821D01*
X262966Y118908D01*
X262912Y118995D01*
X262791Y119214D01*
X262682Y119476D01*
X262606Y119761D01*
X262573Y119925D01*
X262551Y120089D01*
X264311Y120209D01*
Y120187D01*
X264322Y120132D01*
X264333Y120056D01*
X264365Y119968D01*
X264431Y119750D01*
X264486Y119640D01*
X264540Y119553D01*
X264551Y119542D01*
X264595Y119498D01*
X264660Y119444D01*
X264748Y119378D01*
X264868Y119301D01*
X265010Y119247D01*
X265174Y119203D01*
X265360Y119192D01*
X265425D01*
X265491Y119203D01*
X265589Y119214D01*
X265688Y119236D01*
X265786Y119269D01*
X265885Y119313D01*
X265972Y119367D01*
X265983Y119378D01*
X266005Y119400D01*
X266038Y119444D01*
X266081Y119487D01*
X266125Y119553D01*
X266158Y119629D01*
X266180Y119717D01*
X266191Y119804D01*
Y119815D01*
Y119848D01*
X266180Y119892D01*
X266169Y119946D01*
X266136Y120012D01*
X266103Y120078D01*
X266049Y120154D01*
X265983Y120220D01*
X265972Y120231D01*
X265939Y120253D01*
X265874Y120285D01*
X265786Y120329D01*
X265655Y120384D01*
X265491Y120449D01*
X265393Y120482D01*
X265283Y120504D01*
X265163Y120537D01*
X265032Y120569D01*
X265021D01*
X264977Y120580D01*
X264912Y120602D01*
X264835Y120613D01*
X264737Y120646D01*
X264617Y120679D01*
X264496Y120712D01*
X264365Y120755D01*
X264070Y120864D01*
X263786Y120985D01*
X263524Y121127D01*
X263404Y121203D01*
X263294Y121291D01*
Y121302D01*
X263272Y121313D01*
X263218Y121367D01*
X263130Y121466D01*
X263043Y121608D01*
X262944Y121772D01*
X262857Y121968D01*
X262802Y122187D01*
X262791Y122307D01*
X262780Y122439D01*
Y122449D01*
Y122460D01*
Y122515D01*
X262791Y122613D01*
X262813Y122723D01*
X262846Y122854D01*
X262890Y123007D01*
X262955Y123160D01*
X263043Y123313D01*
X263054Y123335D01*
X263097Y123378D01*
X263163Y123455D01*
X263250Y123553D01*
X263360Y123652D01*
X263502Y123761D01*
X263666Y123859D01*
X263852Y123958D01*
X263862D01*
X263873Y123969D01*
X263906Y123980D01*
X263950Y123990D01*
X264005Y124012D01*
X264070Y124034D01*
X264147Y124056D01*
X264234Y124078D01*
X264333Y124100D01*
X264453Y124122D01*
X264704Y124165D01*
X264999Y124187D01*
X265327Y124198D01*
X265436D01*
X265513Y124187D01*
D02*
G37*
G36*
X194054Y112652D02*
Y112641D01*
Y112630D01*
Y112564D01*
X194044Y112466D01*
X194033Y112335D01*
X194011Y112171D01*
X193978Y112007D01*
X193934Y111832D01*
X193879Y111646D01*
X193869Y111624D01*
X193847Y111570D01*
X193814Y111482D01*
X193748Y111373D01*
X193683Y111242D01*
X193584Y111100D01*
X193486Y110958D01*
X193355Y110826D01*
X193344Y110816D01*
X193289Y110772D01*
X193224Y110706D01*
X193136Y110630D01*
X193027Y110553D01*
X192896Y110477D01*
X192765Y110400D01*
X192623Y110335D01*
X192612D01*
X192601Y110324D01*
X192568Y110313D01*
X192524Y110302D01*
X192415Y110269D01*
X192251Y110236D01*
X192065Y110203D01*
X191847Y110171D01*
X191595Y110149D01*
X191322Y110138D01*
X191158D01*
X191038Y110149D01*
X190896D01*
X190732Y110171D01*
X190557Y110182D01*
X190360Y110203D01*
X190338D01*
X190273Y110214D01*
X190174Y110225D01*
X190065Y110258D01*
X189923Y110280D01*
X189781Y110324D01*
X189639Y110378D01*
X189497Y110433D01*
X189486Y110444D01*
X189442Y110466D01*
X189376Y110510D01*
X189289Y110564D01*
X189191Y110641D01*
X189081Y110728D01*
X188972Y110826D01*
X188863Y110947D01*
X188852Y110958D01*
X188819Y111001D01*
X188764Y111078D01*
X188710Y111165D01*
X188644Y111264D01*
X188578Y111384D01*
X188513Y111515D01*
X188469Y111646D01*
Y111657D01*
X188458Y111668D01*
Y111701D01*
X188447Y111745D01*
X188415Y111854D01*
X188393Y111985D01*
X188360Y112138D01*
X188327Y112313D01*
X188316Y112488D01*
X188305Y112652D01*
Y116226D01*
X190152D01*
Y112575D01*
Y112553D01*
Y112499D01*
X190163Y112400D01*
X190185Y112291D01*
X190218Y112171D01*
X190262Y112051D01*
X190327Y111919D01*
X190415Y111810D01*
X190426Y111799D01*
X190469Y111766D01*
X190524Y111723D01*
X190612Y111679D01*
X190721Y111624D01*
X190852Y111581D01*
X191005Y111548D01*
X191180Y111537D01*
X191256D01*
X191344Y111548D01*
X191453Y111570D01*
X191573Y111602D01*
X191704Y111646D01*
X191825Y111712D01*
X191934Y111799D01*
X191945Y111810D01*
X191978Y111854D01*
X192021Y111908D01*
X192076Y111996D01*
X192120Y112105D01*
X192164Y112247D01*
X192196Y112400D01*
X192207Y112575D01*
Y116226D01*
X194054D01*
Y112652D01*
D02*
G37*
G36*
X203145Y124187D02*
X203277Y124176D01*
X203419Y124154D01*
X203583Y124133D01*
X203747Y124100D01*
X203932Y124056D01*
X204118Y124002D01*
X204315Y123936D01*
X204501Y123859D01*
X204687Y123761D01*
X204872Y123652D01*
X205036Y123531D01*
X205200Y123389D01*
X205211Y123379D01*
X205233Y123357D01*
X205277Y123302D01*
X205331Y123247D01*
X205386Y123160D01*
X205463Y123062D01*
X205539Y122941D01*
X205616Y122810D01*
X205692Y122657D01*
X205758Y122493D01*
X205834Y122307D01*
X205889Y122111D01*
X205943Y121892D01*
X205987Y121662D01*
X206009Y121411D01*
X206020Y121149D01*
Y121138D01*
Y121105D01*
Y121050D01*
Y120974D01*
X206009Y120886D01*
X205998Y120777D01*
X205987Y120668D01*
X205976Y120537D01*
X205933Y120263D01*
X205867Y119979D01*
X205780Y119695D01*
X205659Y119422D01*
Y119411D01*
X205648Y119389D01*
X205627Y119356D01*
X205594Y119313D01*
X205517Y119192D01*
X205397Y119039D01*
X205255Y118875D01*
X205080Y118701D01*
X204883Y118536D01*
X204643Y118384D01*
X204632D01*
X204610Y118373D01*
X204577Y118351D01*
X204523Y118329D01*
X204457Y118296D01*
X204380Y118263D01*
X204293Y118230D01*
X204184Y118198D01*
X204064Y118165D01*
X203943Y118132D01*
X203659Y118067D01*
X203331Y118023D01*
X202971Y118012D01*
X202807D01*
X202719Y118023D01*
X202621Y118034D01*
X202512D01*
X202380Y118056D01*
X202118Y118088D01*
X201845Y118143D01*
X201561Y118219D01*
X201298Y118329D01*
X201287D01*
X201266Y118340D01*
X201233Y118362D01*
X201189Y118394D01*
X201069Y118471D01*
X200916Y118580D01*
X200741Y118711D01*
X200566Y118897D01*
X200380Y119105D01*
X200216Y119345D01*
Y119356D01*
X200194Y119378D01*
X200183Y119422D01*
X200151Y119476D01*
X200118Y119542D01*
X200085Y119619D01*
X200052Y119717D01*
X200019Y119826D01*
X199976Y119947D01*
X199943Y120078D01*
X199910Y120220D01*
X199877Y120384D01*
X199834Y120722D01*
X199812Y121094D01*
Y121116D01*
Y121160D01*
X199823Y121236D01*
Y121335D01*
X199834Y121455D01*
X199855Y121597D01*
X199877Y121761D01*
X199910Y121925D01*
X199954Y122111D01*
X200009Y122296D01*
X200074Y122482D01*
X200151Y122679D01*
X200249Y122865D01*
X200358Y123051D01*
X200479Y123214D01*
X200621Y123379D01*
X200631Y123389D01*
X200664Y123411D01*
X200708Y123455D01*
X200774Y123510D01*
X200861Y123564D01*
X200959Y123641D01*
X201080Y123717D01*
X201211Y123794D01*
X201364Y123870D01*
X201539Y123936D01*
X201725Y124012D01*
X201932Y124067D01*
X202151Y124122D01*
X202391Y124165D01*
X202643Y124187D01*
X202905Y124198D01*
X203047D01*
X203145Y124187D01*
D02*
G37*
G36*
X193243Y124089D02*
X193319D01*
X193505Y124067D01*
X193724Y124045D01*
X193942Y124002D01*
X194161Y123947D01*
X194358Y123870D01*
X194369D01*
X194380Y123859D01*
X194445Y123827D01*
X194533Y123783D01*
X194653Y123706D01*
X194784Y123619D01*
X194926Y123510D01*
X195057Y123379D01*
X195188Y123236D01*
X195199Y123214D01*
X195243Y123160D01*
X195298Y123083D01*
X195374Y122963D01*
X195451Y122821D01*
X195527Y122657D01*
X195593Y122471D01*
X195658Y122275D01*
Y122264D01*
X195669Y122253D01*
Y122220D01*
X195680Y122176D01*
X195702Y122067D01*
X195735Y121925D01*
X195768Y121750D01*
X195790Y121553D01*
X195800Y121345D01*
X195811Y121116D01*
Y121105D01*
Y121072D01*
Y121028D01*
Y120963D01*
X195800Y120876D01*
Y120788D01*
X195779Y120570D01*
X195757Y120340D01*
X195713Y120089D01*
X195658Y119848D01*
X195582Y119630D01*
Y119619D01*
X195571Y119608D01*
X195538Y119542D01*
X195494Y119444D01*
X195429Y119324D01*
X195341Y119181D01*
X195232Y119039D01*
X195112Y118886D01*
X194970Y118744D01*
X194948Y118733D01*
X194904Y118690D01*
X194828Y118624D01*
X194729Y118547D01*
X194598Y118471D01*
X194467Y118394D01*
X194314Y118318D01*
X194150Y118263D01*
X194139D01*
X194128Y118252D01*
X194095D01*
X194052Y118241D01*
X193931Y118219D01*
X193778Y118187D01*
X193614Y118154D01*
X193418Y118132D01*
X193232Y118121D01*
X193035Y118110D01*
X190292D01*
Y124100D01*
X193166D01*
X193243Y124089D01*
D02*
G37*
G36*
X182706Y118110D02*
X180761D01*
X180466Y119094D01*
X178367D01*
X178072Y118110D01*
X176181D01*
X178422Y124100D01*
X180455D01*
X182706Y118110D01*
D02*
G37*
%LPC*%
G36*
X150705Y114925D02*
X150683D01*
X150618Y114914D01*
X150508Y114903D01*
X150388Y114871D01*
X150246Y114827D01*
X150093Y114750D01*
X149940Y114652D01*
X149809Y114521D01*
X149798Y114499D01*
X149754Y114444D01*
X149700Y114346D01*
X149645Y114215D01*
X149612Y114127D01*
X149580Y114029D01*
X149547Y113920D01*
X149525Y113810D01*
X149503Y113679D01*
X149481Y113537D01*
X149470Y113384D01*
Y113220D01*
Y113209D01*
Y113176D01*
Y113133D01*
X149481Y113078D01*
Y113002D01*
X149492Y112914D01*
X149514Y112717D01*
X149547Y112510D01*
X149612Y112291D01*
X149689Y112083D01*
X149743Y111996D01*
X149798Y111919D01*
X149809Y111898D01*
X149864Y111854D01*
X149940Y111799D01*
X150039Y111723D01*
X150170Y111646D01*
X150334Y111591D01*
X150520Y111548D01*
X150727Y111526D01*
X150782D01*
X150826Y111537D01*
X150935Y111548D01*
X151066Y111570D01*
X151208Y111624D01*
X151361Y111690D01*
X151514Y111777D01*
X151645Y111908D01*
X151656Y111930D01*
X151700Y111985D01*
X151722Y112029D01*
X151754Y112083D01*
X151787Y112149D01*
X151820Y112225D01*
X151842Y112313D01*
X151875Y112411D01*
X151908Y112531D01*
X151929Y112652D01*
X151951Y112794D01*
X151973Y112947D01*
X151984Y113111D01*
Y113297D01*
Y113307D01*
Y113329D01*
Y113373D01*
Y113439D01*
X151973Y113504D01*
X151962Y113581D01*
X151940Y113767D01*
X151897Y113963D01*
X151842Y114171D01*
X151754Y114368D01*
X151634Y114532D01*
X151623Y114554D01*
X151569Y114597D01*
X151492Y114652D01*
X151394Y114728D01*
X151263Y114805D01*
X151099Y114860D01*
X150913Y114903D01*
X150705Y114925D01*
D02*
G37*
G36*
X140593Y120613D02*
X139664D01*
Y119400D01*
X140681D01*
X140768Y119411D01*
X140867Y119422D01*
X140987Y119444D01*
X141096Y119466D01*
X141194Y119509D01*
X141282Y119564D01*
X141293Y119575D01*
X141315Y119597D01*
X141348Y119630D01*
X141380Y119684D01*
X141413Y119750D01*
X141446Y119837D01*
X141468Y119925D01*
X141479Y120023D01*
Y120034D01*
Y120067D01*
X141468Y120110D01*
X141457Y120176D01*
X141435Y120242D01*
X141391Y120318D01*
X141348Y120384D01*
X141282Y120449D01*
X141271Y120460D01*
X141249Y120471D01*
X141194Y120504D01*
X141118Y120537D01*
X141031Y120559D01*
X140910Y120591D01*
X140768Y120602D01*
X140593Y120613D01*
D02*
G37*
G36*
X184185Y114925D02*
X184163D01*
X184097Y114914D01*
X183988Y114903D01*
X183868Y114871D01*
X183726Y114827D01*
X183573Y114750D01*
X183420Y114652D01*
X183288Y114521D01*
X183277Y114499D01*
X183234Y114444D01*
X183179Y114346D01*
X183124Y114215D01*
X183092Y114127D01*
X183059Y114029D01*
X183026Y113920D01*
X183004Y113810D01*
X182982Y113679D01*
X182960Y113537D01*
X182949Y113384D01*
Y113220D01*
Y113209D01*
Y113176D01*
Y113133D01*
X182960Y113078D01*
Y113002D01*
X182971Y112914D01*
X182993Y112717D01*
X183026Y112510D01*
X183092Y112291D01*
X183168Y112083D01*
X183223Y111996D01*
X183277Y111919D01*
X183288Y111898D01*
X183343Y111854D01*
X183420Y111799D01*
X183518Y111723D01*
X183649Y111646D01*
X183813Y111591D01*
X183999Y111548D01*
X184206Y111526D01*
X184261D01*
X184305Y111537D01*
X184414Y111548D01*
X184545Y111570D01*
X184687Y111624D01*
X184840Y111690D01*
X184994Y111777D01*
X185125Y111908D01*
X185135Y111930D01*
X185179Y111985D01*
X185201Y112029D01*
X185234Y112083D01*
X185267Y112149D01*
X185300Y112225D01*
X185321Y112313D01*
X185354Y112411D01*
X185387Y112531D01*
X185409Y112652D01*
X185431Y112794D01*
X185452Y112947D01*
X185463Y113111D01*
Y113297D01*
Y113307D01*
Y113329D01*
Y113373D01*
Y113439D01*
X185452Y113504D01*
X185442Y113581D01*
X185420Y113767D01*
X185376Y113963D01*
X185321Y114171D01*
X185234Y114368D01*
X185114Y114532D01*
X185103Y114554D01*
X185048Y114597D01*
X184972Y114652D01*
X184873Y114728D01*
X184742Y114805D01*
X184578Y114860D01*
X184392Y114903D01*
X184185Y114925D01*
D02*
G37*
G36*
X140484Y122887D02*
X139664D01*
Y121750D01*
X140539D01*
X140615Y121761D01*
X140714Y121772D01*
X140910Y121816D01*
X140998Y121848D01*
X141074Y121892D01*
X141085Y121903D01*
X141107Y121925D01*
X141129Y121958D01*
X141162Y122001D01*
X141194Y122067D01*
X141227Y122143D01*
X141238Y122231D01*
X141249Y122329D01*
Y122340D01*
Y122373D01*
X141238Y122417D01*
X141227Y122482D01*
X141205Y122548D01*
X141173Y122613D01*
X141129Y122679D01*
X141074Y122734D01*
X141063Y122745D01*
X141042Y122756D01*
X140998Y122777D01*
X140932Y122810D01*
X140856Y122843D01*
X140757Y122865D01*
X140626Y122876D01*
X140484Y122887D01*
D02*
G37*
G36*
X152988Y122537D02*
X152332Y120395D01*
X153644D01*
X152988Y122537D01*
D02*
G37*
G36*
X401113Y122887D02*
X400589D01*
Y121553D01*
X401124D01*
X401223Y121564D01*
X401332Y121575D01*
X401452Y121597D01*
X401583Y121630D01*
X401693Y121673D01*
X401791Y121728D01*
X401802Y121739D01*
X401824Y121761D01*
X401857Y121805D01*
X401900Y121859D01*
X401944Y121925D01*
X401977Y122012D01*
X401999Y122100D01*
X402010Y122209D01*
Y122220D01*
Y122253D01*
X401999Y122307D01*
X401988Y122373D01*
X401966Y122449D01*
X401922Y122537D01*
X401878Y122613D01*
X401813Y122690D01*
X401802Y122701D01*
X401780Y122723D01*
X401725Y122756D01*
X401660Y122788D01*
X401562Y122821D01*
X401441Y122854D01*
X401288Y122876D01*
X401113Y122887D01*
D02*
G37*
G36*
X202894Y122799D02*
X202872D01*
X202807Y122788D01*
X202697Y122777D01*
X202577Y122745D01*
X202435Y122701D01*
X202282Y122624D01*
X202129Y122526D01*
X201998Y122395D01*
X201987Y122373D01*
X201943Y122318D01*
X201888Y122220D01*
X201834Y122089D01*
X201801Y122001D01*
X201768Y121903D01*
X201735Y121794D01*
X201714Y121684D01*
X201692Y121553D01*
X201670Y121411D01*
X201659Y121258D01*
Y121094D01*
Y121083D01*
Y121050D01*
Y121007D01*
X201670Y120952D01*
Y120876D01*
X201681Y120788D01*
X201703Y120591D01*
X201735Y120384D01*
X201801Y120165D01*
X201877Y119957D01*
X201932Y119870D01*
X201987Y119793D01*
X201998Y119772D01*
X202052Y119728D01*
X202129Y119673D01*
X202227Y119597D01*
X202359Y119520D01*
X202522Y119466D01*
X202708Y119422D01*
X202916Y119400D01*
X202971D01*
X203014Y119411D01*
X203124Y119422D01*
X203255Y119444D01*
X203397Y119498D01*
X203550Y119564D01*
X203703Y119651D01*
X203834Y119782D01*
X203845Y119804D01*
X203889Y119859D01*
X203910Y119903D01*
X203943Y119957D01*
X203976Y120023D01*
X204009Y120099D01*
X204031Y120187D01*
X204064Y120285D01*
X204096Y120405D01*
X204118Y120526D01*
X204140Y120668D01*
X204162Y120821D01*
X204173Y120985D01*
Y121171D01*
Y121182D01*
Y121203D01*
Y121247D01*
Y121313D01*
X204162Y121378D01*
X204151Y121455D01*
X204129Y121641D01*
X204085Y121837D01*
X204031Y122045D01*
X203943Y122242D01*
X203823Y122406D01*
X203812Y122428D01*
X203758Y122471D01*
X203681Y122526D01*
X203583Y122602D01*
X203451Y122679D01*
X203288Y122734D01*
X203102Y122777D01*
X202894Y122799D01*
D02*
G37*
G36*
X359858Y122887D02*
X359050D01*
Y121673D01*
X359891D01*
X359935Y121684D01*
X360000Y121695D01*
X360088Y121706D01*
X360197Y121728D01*
X360317Y121750D01*
X360328D01*
X360350Y121761D01*
X360383Y121772D01*
X360427Y121783D01*
X360525Y121837D01*
X360580Y121881D01*
X360624Y121936D01*
X360634Y121947D01*
X360645Y121968D01*
X360667Y121990D01*
X360689Y122034D01*
X360722Y122143D01*
X360744Y122209D01*
Y122285D01*
Y122296D01*
Y122329D01*
X360733Y122384D01*
X360722Y122449D01*
X360700Y122515D01*
X360667Y122591D01*
X360624Y122657D01*
X360558Y122723D01*
X360547Y122734D01*
X360525Y122745D01*
X360471Y122777D01*
X360405Y122810D01*
X360307Y122832D01*
X360186Y122865D01*
X360033Y122876D01*
X359858Y122887D01*
D02*
G37*
G36*
X332107D02*
X331582D01*
Y121553D01*
X332118D01*
X332216Y121564D01*
X332326Y121575D01*
X332446Y121597D01*
X332577Y121630D01*
X332686Y121673D01*
X332785Y121728D01*
X332796Y121739D01*
X332818Y121761D01*
X332850Y121805D01*
X332894Y121859D01*
X332938Y121925D01*
X332971Y122012D01*
X332993Y122100D01*
X333003Y122209D01*
Y122220D01*
Y122253D01*
X332993Y122307D01*
X332982Y122373D01*
X332960Y122449D01*
X332916Y122537D01*
X332872Y122613D01*
X332807Y122690D01*
X332796Y122701D01*
X332774Y122723D01*
X332719Y122756D01*
X332654Y122788D01*
X332555Y122821D01*
X332435Y122854D01*
X332282Y122876D01*
X332107Y122887D01*
D02*
G37*
G36*
X338632Y122799D02*
X338611D01*
X338545Y122788D01*
X338436Y122777D01*
X338315Y122745D01*
X338173Y122701D01*
X338020Y122624D01*
X337867Y122526D01*
X337736Y122395D01*
X337725Y122373D01*
X337681Y122318D01*
X337627Y122220D01*
X337572Y122089D01*
X337539Y122001D01*
X337507Y121903D01*
X337474Y121794D01*
X337452Y121684D01*
X337430Y121553D01*
X337408Y121411D01*
X337397Y121258D01*
Y121094D01*
Y121083D01*
Y121050D01*
Y121007D01*
X337408Y120952D01*
Y120876D01*
X337419Y120788D01*
X337441Y120591D01*
X337474Y120384D01*
X337539Y120165D01*
X337616Y119957D01*
X337670Y119870D01*
X337725Y119793D01*
X337736Y119772D01*
X337791Y119728D01*
X337867Y119673D01*
X337966Y119597D01*
X338097Y119520D01*
X338261Y119466D01*
X338446Y119422D01*
X338654Y119400D01*
X338709D01*
X338753Y119411D01*
X338862Y119422D01*
X338993Y119444D01*
X339135Y119498D01*
X339288Y119564D01*
X339441Y119651D01*
X339572Y119782D01*
X339583Y119804D01*
X339627Y119859D01*
X339649Y119903D01*
X339682Y119957D01*
X339714Y120023D01*
X339747Y120099D01*
X339769Y120187D01*
X339802Y120285D01*
X339835Y120405D01*
X339857Y120526D01*
X339878Y120668D01*
X339900Y120821D01*
X339911Y120985D01*
Y121171D01*
Y121182D01*
Y121203D01*
Y121247D01*
Y121313D01*
X339900Y121378D01*
X339889Y121455D01*
X339867Y121641D01*
X339824Y121837D01*
X339769Y122045D01*
X339682Y122242D01*
X339561Y122406D01*
X339550Y122428D01*
X339496Y122471D01*
X339419Y122526D01*
X339321Y122602D01*
X339190Y122679D01*
X339026Y122734D01*
X338840Y122777D01*
X338632Y122799D01*
D02*
G37*
G36*
X386959Y122537D02*
X386303Y120395D01*
X387615D01*
X386959Y122537D01*
D02*
G37*
G36*
X397752Y114925D02*
X397731D01*
X397665Y114914D01*
X397556Y114903D01*
X397435Y114871D01*
X397293Y114827D01*
X397140Y114750D01*
X396987Y114652D01*
X396856Y114521D01*
X396845Y114499D01*
X396802Y114444D01*
X396747Y114346D01*
X396692Y114215D01*
X396659Y114127D01*
X396627Y114029D01*
X396594Y113920D01*
X396572Y113810D01*
X396550Y113679D01*
X396528Y113537D01*
X396517Y113384D01*
Y113220D01*
Y113209D01*
Y113176D01*
Y113133D01*
X396528Y113078D01*
Y113002D01*
X396539Y112914D01*
X396561Y112717D01*
X396594Y112510D01*
X396659Y112291D01*
X396736Y112083D01*
X396791Y111996D01*
X396845Y111919D01*
X396856Y111898D01*
X396911Y111854D01*
X396987Y111799D01*
X397086Y111723D01*
X397217Y111646D01*
X397381Y111591D01*
X397567Y111548D01*
X397774Y111526D01*
X397829D01*
X397873Y111537D01*
X397982Y111548D01*
X398113Y111570D01*
X398255Y111624D01*
X398408Y111690D01*
X398561Y111777D01*
X398692Y111908D01*
X398703Y111930D01*
X398747Y111985D01*
X398769Y112029D01*
X398802Y112083D01*
X398835Y112149D01*
X398867Y112225D01*
X398889Y112313D01*
X398922Y112411D01*
X398955Y112531D01*
X398977Y112652D01*
X398998Y112794D01*
X399020Y112947D01*
X399031Y113111D01*
Y113297D01*
Y113307D01*
Y113329D01*
Y113373D01*
Y113439D01*
X399020Y113504D01*
X399009Y113581D01*
X398988Y113767D01*
X398944Y113963D01*
X398889Y114171D01*
X398802Y114368D01*
X398682Y114532D01*
X398671Y114554D01*
X398616Y114597D01*
X398539Y114652D01*
X398441Y114728D01*
X398310Y114805D01*
X398146Y114860D01*
X397960Y114903D01*
X397752Y114925D01*
D02*
G37*
G36*
X271612Y122887D02*
X270792D01*
Y121750D01*
X271667D01*
X271743Y121761D01*
X271841Y121772D01*
X272038Y121816D01*
X272126Y121848D01*
X272202Y121892D01*
X272213Y121903D01*
X272235Y121925D01*
X272257Y121958D01*
X272289Y122001D01*
X272322Y122067D01*
X272355Y122143D01*
X272366Y122231D01*
X272377Y122329D01*
Y122340D01*
Y122373D01*
X272366Y122417D01*
X272355Y122482D01*
X272333Y122548D01*
X272301Y122613D01*
X272257Y122679D01*
X272202Y122734D01*
X272191Y122745D01*
X272169Y122755D01*
X272126Y122777D01*
X272060Y122810D01*
X271984Y122843D01*
X271885Y122865D01*
X271754Y122876D01*
X271612Y122887D01*
D02*
G37*
G36*
X271721Y120613D02*
X270792D01*
Y119400D01*
X271809D01*
X271896Y119411D01*
X271994Y119422D01*
X272115Y119444D01*
X272224Y119465D01*
X272322Y119509D01*
X272410Y119564D01*
X272421Y119575D01*
X272443Y119597D01*
X272475Y119629D01*
X272508Y119684D01*
X272541Y119750D01*
X272574Y119837D01*
X272596Y119925D01*
X272606Y120023D01*
Y120034D01*
Y120067D01*
X272596Y120110D01*
X272585Y120176D01*
X272563Y120241D01*
X272519Y120318D01*
X272475Y120384D01*
X272410Y120449D01*
X272399Y120460D01*
X272377Y120471D01*
X272322Y120504D01*
X272246Y120537D01*
X272158Y120559D01*
X272038Y120591D01*
X271896Y120602D01*
X271721Y120613D01*
D02*
G37*
G36*
X192598Y122745D02*
X192139D01*
Y119476D01*
X192685D01*
X192784Y119487D01*
X192915D01*
X193046Y119509D01*
X193188Y119531D01*
X193308Y119553D01*
X193418Y119597D01*
X193429Y119608D01*
X193461Y119619D01*
X193505Y119651D01*
X193560Y119706D01*
X193625Y119761D01*
X193691Y119837D01*
X193756Y119936D01*
X193811Y120045D01*
X193822Y120056D01*
X193833Y120110D01*
X193855Y120187D01*
X193888Y120296D01*
X193910Y120438D01*
X193931Y120624D01*
X193942Y120832D01*
X193953Y121083D01*
Y121094D01*
Y121127D01*
Y121171D01*
Y121236D01*
X193942Y121313D01*
Y121400D01*
X193910Y121608D01*
X193877Y121816D01*
X193822Y122034D01*
X193746Y122231D01*
X193691Y122307D01*
X193636Y122384D01*
X193625Y122395D01*
X193571Y122439D01*
X193494Y122493D01*
X193385Y122570D01*
X193243Y122635D01*
X193068Y122690D01*
X192849Y122734D01*
X192598Y122745D01*
D02*
G37*
G36*
X179416Y122537D02*
X178761Y120395D01*
X180072D01*
X179416Y122537D01*
D02*
G37*
%LPD*%
M02*
