G04 Layer_Color=16764230*
%FSLAX25Y25*%
%MOIN*%
G70*
G01*
G75*
%ADD13C,0.00394*%
D13*
X356299Y127934D02*
X357286Y127996D01*
X358257Y128181D01*
X359198Y128487D01*
X360092Y128908D01*
X360927Y129437D01*
X361689Y130068D01*
X362366Y130789D01*
X362947Y131589D01*
X363424Y132455D01*
X363788Y133375D01*
X364034Y134332D01*
X364158Y135313D01*
Y136302D01*
X364034Y137283D01*
X363788Y138241D01*
X363424Y139160D01*
X362947Y140027D01*
X362366Y140827D01*
X361689Y141548D01*
X360927Y142178D01*
X360092Y142708D01*
X359198Y143129D01*
X358257Y143434D01*
X357286Y143620D01*
X356299Y143682D01*
X336614Y143682D02*
X335627Y143620D01*
X334656Y143434D01*
X333716Y143129D01*
X332821Y142708D01*
X331986Y142178D01*
X331224Y141548D01*
X330547Y140827D01*
X329966Y140027D01*
X329489Y139160D01*
X329125Y138241D01*
X328880Y137283D01*
X328756Y136302D01*
Y135313D01*
X328880Y134332D01*
X329125Y133375D01*
X329489Y132455D01*
X329966Y131589D01*
X330547Y130789D01*
X331224Y130068D01*
X331986Y129437D01*
X332821Y128908D01*
X333716Y128487D01*
X334656Y128181D01*
X335627Y127996D01*
X336614Y127934D01*
X98425Y106299D02*
X98493Y105271D01*
X98694Y104261D01*
X99025Y103286D01*
X99480Y102362D01*
X100052Y101506D01*
X100731Y100731D01*
X101506Y100052D01*
X102362Y99480D01*
X103286Y99025D01*
X104261Y98694D01*
X105271Y98493D01*
X106299Y98425D01*
X440945Y98425D02*
X441973Y98492D01*
X442983Y98693D01*
X443958Y99024D01*
X444882Y99480D01*
X445738Y100052D01*
X446513Y100731D01*
X447192Y101506D01*
X447764Y102362D01*
X448219Y103286D01*
X448551Y104261D01*
X448751Y105271D01*
X448819Y106299D01*
X336614Y127934D02*
X356299D01*
X336614Y143682D02*
X356299D01*
X98425Y171260D02*
X448819Y171260D01*
X98425Y106299D02*
Y171260D01*
X106299Y98425D02*
X440945D01*
X448819Y106299D02*
Y171260D01*
X234252Y130905D02*
Y162401D01*
X295276D01*
Y130905D02*
Y162401D01*
X234252Y130905D02*
X295276D01*
M02*
