G04 Layer_Color=20142*
%FSLAX25Y25*%
%MOIN*%
G70*
G01*
G75*
%ADD11C,0.00800*%
%ADD12C,0.01194*%
G36*
X375045Y166743D02*
X375377Y166717D01*
X375734Y166692D01*
X376116Y166615D01*
X376499Y166539D01*
X376856Y166411D01*
X376907Y166385D01*
X377009Y166360D01*
X377188Y166258D01*
X377392Y166156D01*
X377621Y166028D01*
X377876Y165875D01*
X378106Y165697D01*
X378336Y165493D01*
X378361Y165467D01*
X378438Y165391D01*
X378540Y165288D01*
X378667Y165135D01*
X378820Y164982D01*
X378973Y164778D01*
X379254Y164319D01*
X379280Y164294D01*
X379305Y164217D01*
X379382Y164090D01*
X379458Y163911D01*
X379535Y163707D01*
X379611Y163452D01*
X379713Y163197D01*
X379790Y162891D01*
Y162865D01*
X379815Y162814D01*
X379841Y162738D01*
X379866Y162610D01*
X379892Y162482D01*
X379917Y162304D01*
X379994Y161896D01*
X380070Y161411D01*
X380147Y160875D01*
X380172Y160263D01*
X380198Y159651D01*
Y159600D01*
Y159472D01*
Y159294D01*
X380172Y159038D01*
X380147Y158707D01*
X380121Y158350D01*
X380096Y157967D01*
X380045Y157533D01*
X379892Y156615D01*
X379662Y155697D01*
X379509Y155263D01*
X379331Y154829D01*
X379127Y154447D01*
X378897Y154090D01*
X378871Y154064D01*
X378846Y154013D01*
X378769Y153937D01*
X378642Y153809D01*
X378489Y153681D01*
X378310Y153528D01*
X378106Y153375D01*
X377851Y153222D01*
X377570Y153044D01*
X377239Y152891D01*
X376882Y152738D01*
X376473Y152610D01*
X376040Y152482D01*
X375555Y152406D01*
X375019Y152355D01*
X374458Y152329D01*
X374152D01*
X373999Y152355D01*
X373846D01*
X373438Y152406D01*
X372979Y152457D01*
X372494Y152559D01*
X372009Y152712D01*
X371575Y152891D01*
X371525Y152916D01*
X371397Y152993D01*
X371193Y153120D01*
X370963Y153299D01*
X370657Y153528D01*
X370377Y153809D01*
X370070Y154141D01*
X369790Y154523D01*
X369764Y154549D01*
X369713Y154676D01*
X369611Y154829D01*
X369509Y155085D01*
X369382Y155365D01*
X369254Y155722D01*
X369127Y156156D01*
X369024Y156615D01*
Y156641D01*
Y156666D01*
X368999Y156743D01*
X368973Y156845D01*
X368948Y157125D01*
X368897Y157508D01*
X368846Y157942D01*
X368795Y158452D01*
X368769Y159013D01*
X368744Y159600D01*
Y159651D01*
Y159778D01*
Y159982D01*
X368769Y160238D01*
X368795Y160569D01*
X368820Y160952D01*
X368871Y161360D01*
X368922Y161794D01*
X369101Y162712D01*
X369356Y163630D01*
X369509Y164064D01*
X369713Y164472D01*
X369917Y164829D01*
X370173Y165161D01*
X370198Y165186D01*
X370249Y165237D01*
X370325Y165314D01*
X370453Y165416D01*
X370606Y165544D01*
X370785Y165671D01*
X371014Y165824D01*
X371269Y165977D01*
X371550Y166105D01*
X371882Y166258D01*
X372239Y166385D01*
X372621Y166513D01*
X373055Y166615D01*
X373514Y166692D01*
X374025Y166743D01*
X374560Y166768D01*
X374790D01*
X375045Y166743D01*
D02*
G37*
G36*
X362009D02*
X362341Y166717D01*
X362698Y166692D01*
X363081Y166615D01*
X363463Y166539D01*
X363821Y166411D01*
X363872Y166385D01*
X363973Y166360D01*
X364152Y166258D01*
X364356Y166156D01*
X364586Y166028D01*
X364841Y165875D01*
X365071Y165697D01*
X365300Y165493D01*
X365326Y165467D01*
X365402Y165391D01*
X365504Y165288D01*
X365632Y165135D01*
X365785Y164982D01*
X365938Y164778D01*
X366218Y164319D01*
X366244Y164294D01*
X366269Y164217D01*
X366346Y164090D01*
X366423Y163911D01*
X366499Y163707D01*
X366576Y163452D01*
X366678Y163197D01*
X366754Y162891D01*
Y162865D01*
X366780Y162814D01*
X366805Y162738D01*
X366831Y162610D01*
X366856Y162482D01*
X366882Y162304D01*
X366958Y161896D01*
X367035Y161411D01*
X367111Y160875D01*
X367137Y160263D01*
X367162Y159651D01*
Y159600D01*
Y159472D01*
Y159294D01*
X367137Y159038D01*
X367111Y158707D01*
X367086Y158350D01*
X367060Y157967D01*
X367009Y157533D01*
X366856Y156615D01*
X366627Y155697D01*
X366474Y155263D01*
X366295Y154829D01*
X366091Y154447D01*
X365861Y154090D01*
X365836Y154064D01*
X365810Y154013D01*
X365734Y153937D01*
X365606Y153809D01*
X365453Y153681D01*
X365275Y153528D01*
X365071Y153375D01*
X364815Y153222D01*
X364535Y153044D01*
X364203Y152891D01*
X363846Y152738D01*
X363438Y152610D01*
X363004Y152482D01*
X362520Y152406D01*
X361984Y152355D01*
X361423Y152329D01*
X361116D01*
X360963Y152355D01*
X360810D01*
X360402Y152406D01*
X359943Y152457D01*
X359458Y152559D01*
X358974Y152712D01*
X358540Y152891D01*
X358489Y152916D01*
X358361Y152993D01*
X358157Y153120D01*
X357928Y153299D01*
X357622Y153528D01*
X357341Y153809D01*
X357035Y154141D01*
X356754Y154523D01*
X356729Y154549D01*
X356678Y154676D01*
X356576Y154829D01*
X356474Y155085D01*
X356346Y155365D01*
X356219Y155722D01*
X356091Y156156D01*
X355989Y156615D01*
Y156641D01*
Y156666D01*
X355963Y156743D01*
X355938Y156845D01*
X355912Y157125D01*
X355861Y157508D01*
X355810Y157942D01*
X355759Y158452D01*
X355734Y159013D01*
X355708Y159600D01*
Y159651D01*
Y159778D01*
Y159982D01*
X355734Y160238D01*
X355759Y160569D01*
X355785Y160952D01*
X355836Y161360D01*
X355887Y161794D01*
X356066Y162712D01*
X356321Y163630D01*
X356474Y164064D01*
X356678Y164472D01*
X356882Y164829D01*
X357137Y165161D01*
X357162Y165186D01*
X357213Y165237D01*
X357290Y165314D01*
X357417Y165416D01*
X357571Y165544D01*
X357749Y165671D01*
X357979Y165824D01*
X358234Y165977D01*
X358514Y166105D01*
X358846Y166258D01*
X359203Y166385D01*
X359586Y166513D01*
X360019Y166615D01*
X360479Y166692D01*
X360989Y166743D01*
X361525Y166768D01*
X361754D01*
X362009Y166743D01*
D02*
G37*
G36*
X353489Y163426D02*
X347214D01*
X346882Y161334D01*
X346907Y161360D01*
X346984Y161386D01*
X347137Y161436D01*
X347290Y161513D01*
X347494Y161590D01*
X347724Y161666D01*
X348183Y161794D01*
X348208D01*
X348285Y161819D01*
X348412Y161845D01*
X348591Y161870D01*
X348770Y161896D01*
X348974Y161921D01*
X349433Y161947D01*
X349637D01*
X349790Y161921D01*
X349969D01*
X350173Y161870D01*
X350632Y161794D01*
X351193Y161641D01*
X351754Y161411D01*
X352035Y161258D01*
X352315Y161105D01*
X352571Y160901D01*
X352826Y160671D01*
X352851Y160646D01*
X352877Y160620D01*
X352953Y160544D01*
X353030Y160442D01*
X353132Y160314D01*
X353234Y160161D01*
X353489Y159804D01*
X353744Y159345D01*
X353948Y158783D01*
X354101Y158171D01*
X354127Y157840D01*
X354152Y157482D01*
Y157457D01*
Y157431D01*
Y157355D01*
Y157253D01*
X354127Y156998D01*
X354076Y156641D01*
X353974Y156258D01*
X353872Y155824D01*
X353693Y155340D01*
X353463Y154880D01*
Y154855D01*
X353438Y154829D01*
X353336Y154676D01*
X353183Y154447D01*
X352979Y154166D01*
X352698Y153860D01*
X352366Y153554D01*
X351984Y153248D01*
X351550Y152967D01*
X351525D01*
X351499Y152942D01*
X351423Y152916D01*
X351321Y152865D01*
X351219Y152814D01*
X351065Y152763D01*
X350708Y152661D01*
X350249Y152533D01*
X349688Y152431D01*
X349076Y152355D01*
X348387Y152329D01*
X348157D01*
X347902Y152355D01*
X347571D01*
X347214Y152380D01*
X346805Y152431D01*
X346397Y152508D01*
X346014Y152585D01*
X345964Y152610D01*
X345862Y152636D01*
X345683Y152687D01*
X345453Y152789D01*
X345173Y152891D01*
X344892Y153018D01*
X344331Y153350D01*
X344305Y153375D01*
X344229Y153452D01*
X344101Y153554D01*
X343923Y153707D01*
X343744Y153860D01*
X343566Y154064D01*
X343208Y154523D01*
X343183Y154549D01*
X343132Y154651D01*
X343055Y154778D01*
X342979Y154982D01*
X342851Y155212D01*
X342749Y155493D01*
X342622Y155824D01*
X342520Y156181D01*
X346448Y156615D01*
Y156564D01*
X346474Y156462D01*
X346525Y156283D01*
X346576Y156079D01*
X346652Y155850D01*
X346780Y155620D01*
X346907Y155391D01*
X347086Y155186D01*
X347111Y155161D01*
X347188Y155110D01*
X347290Y155034D01*
X347443Y154957D01*
X347622Y154855D01*
X347851Y154778D01*
X348106Y154727D01*
X348361Y154702D01*
X348489D01*
X348642Y154727D01*
X348846Y154778D01*
X349050Y154855D01*
X349280Y154957D01*
X349509Y155110D01*
X349713Y155314D01*
X349739Y155340D01*
X349790Y155442D01*
X349892Y155569D01*
X349994Y155773D01*
X350071Y156028D01*
X350173Y156334D01*
X350224Y156692D01*
X350249Y157125D01*
Y157151D01*
Y157176D01*
Y157329D01*
X350224Y157559D01*
X350173Y157814D01*
X350122Y158120D01*
X350020Y158426D01*
X349892Y158707D01*
X349713Y158962D01*
X349688Y158987D01*
X349611Y159064D01*
X349509Y159141D01*
X349331Y159268D01*
X349127Y159370D01*
X348897Y159447D01*
X348591Y159523D01*
X348285Y159549D01*
X348183D01*
X348081Y159523D01*
X347928D01*
X347596Y159421D01*
X347392Y159370D01*
X347188Y159268D01*
X347163D01*
X347111Y159217D01*
X347035Y159166D01*
X346933Y159090D01*
X346805Y158987D01*
X346652Y158860D01*
X346499Y158707D01*
X346321Y158528D01*
X343030Y159013D01*
X344254Y166539D01*
X353489D01*
Y163426D01*
D02*
G37*
%LPC*%
G36*
X374433Y164192D02*
X374382D01*
X374280Y164166D01*
X374101Y164140D01*
X373897Y164064D01*
X373667Y163962D01*
X373438Y163783D01*
X373208Y163528D01*
X373030Y163197D01*
X373004Y163146D01*
X372979Y163095D01*
X372953Y162993D01*
X372928Y162891D01*
X372902Y162763D01*
X372851Y162584D01*
X372826Y162380D01*
X372775Y162151D01*
X372724Y161896D01*
X372698Y161590D01*
X372673Y161283D01*
X372647Y160901D01*
X372621Y160518D01*
X372596Y160084D01*
Y159600D01*
Y159574D01*
Y159472D01*
Y159345D01*
Y159166D01*
X372621Y158962D01*
Y158707D01*
X372647Y158146D01*
X372698Y157533D01*
X372800Y156921D01*
X372851Y156641D01*
X372902Y156386D01*
X372979Y156156D01*
X373055Y155952D01*
X373081Y155901D01*
X373157Y155799D01*
X373259Y155646D01*
X373412Y155467D01*
X373616Y155289D01*
X373846Y155136D01*
X374127Y155034D01*
X374433Y154982D01*
X374535D01*
X374662Y155008D01*
X374790Y155034D01*
X374968Y155085D01*
X375121Y155161D01*
X375300Y155263D01*
X375479Y155391D01*
X375504Y155416D01*
X375555Y155467D01*
X375632Y155569D01*
X375734Y155697D01*
X375836Y155901D01*
X375938Y156105D01*
X376040Y156386D01*
X376116Y156692D01*
Y156743D01*
X376142Y156870D01*
X376193Y157074D01*
X376244Y157380D01*
X376269Y157763D01*
X376320Y158248D01*
X376346Y158809D01*
Y159472D01*
Y159498D01*
Y159600D01*
Y159727D01*
Y159931D01*
X376320Y160135D01*
Y160416D01*
X376295Y160977D01*
X376218Y161615D01*
X376142Y162227D01*
X376091Y162508D01*
X376014Y162788D01*
X375938Y163018D01*
X375861Y163222D01*
X375836Y163273D01*
X375759Y163375D01*
X375657Y163528D01*
X375504Y163707D01*
X375300Y163885D01*
X375045Y164039D01*
X374764Y164140D01*
X374433Y164192D01*
D02*
G37*
G36*
X361397D02*
X361346D01*
X361244Y164166D01*
X361065Y164140D01*
X360861Y164064D01*
X360632Y163962D01*
X360402Y163783D01*
X360173Y163528D01*
X359994Y163197D01*
X359968Y163146D01*
X359943Y163095D01*
X359917Y162993D01*
X359892Y162891D01*
X359866Y162763D01*
X359815Y162584D01*
X359790Y162380D01*
X359739Y162151D01*
X359688Y161896D01*
X359662Y161590D01*
X359637Y161283D01*
X359611Y160901D01*
X359586Y160518D01*
X359560Y160084D01*
Y159600D01*
Y159574D01*
Y159472D01*
Y159345D01*
Y159166D01*
X359586Y158962D01*
Y158707D01*
X359611Y158146D01*
X359662Y157533D01*
X359764Y156921D01*
X359815Y156641D01*
X359866Y156386D01*
X359943Y156156D01*
X360019Y155952D01*
X360045Y155901D01*
X360121Y155799D01*
X360224Y155646D01*
X360377Y155467D01*
X360581Y155289D01*
X360810Y155136D01*
X361091Y155034D01*
X361397Y154982D01*
X361499D01*
X361627Y155008D01*
X361754Y155034D01*
X361933Y155085D01*
X362086Y155161D01*
X362264Y155263D01*
X362443Y155391D01*
X362469Y155416D01*
X362520Y155467D01*
X362596Y155569D01*
X362698Y155697D01*
X362800Y155901D01*
X362902Y156105D01*
X363004Y156386D01*
X363081Y156692D01*
Y156743D01*
X363106Y156870D01*
X363157Y157074D01*
X363208Y157380D01*
X363234Y157763D01*
X363285Y158248D01*
X363310Y158809D01*
Y159472D01*
Y159498D01*
Y159600D01*
Y159727D01*
Y159931D01*
X363285Y160135D01*
Y160416D01*
X363259Y160977D01*
X363183Y161615D01*
X363106Y162227D01*
X363055Y162508D01*
X362979Y162788D01*
X362902Y163018D01*
X362826Y163222D01*
X362800Y163273D01*
X362724Y163375D01*
X362621Y163528D01*
X362469Y163707D01*
X362264Y163885D01*
X362009Y164039D01*
X361729Y164140D01*
X361397Y164192D01*
D02*
G37*
%LPD*%
D11*
X116142Y161417D02*
D03*
Y112205D02*
D03*
X190945Y142323D02*
D03*
X431102Y112205D02*
D03*
Y161417D02*
D03*
D12*
X397638Y158701D02*
D03*
Y142717D02*
D03*
X149606D02*
D03*
Y158701D02*
D03*
M02*
