G04 Layer_Color=13813960*
%FSLAX25Y25*%
%MOIN*%
G70*
G01*
G75*
%ADD19C,0.00787*%
%ADD20C,0.00472*%
%ADD21C,0.01000*%
D19*
X266929Y191535D02*
Y194291D01*
X260630Y191535D02*
Y194291D01*
X247244Y191535D02*
Y194291D01*
X240945Y191535D02*
Y194291D01*
X227559Y191535D02*
Y194291D01*
X221260Y191535D02*
Y194291D01*
D20*
X260827Y167323D02*
Y171260D01*
X266732Y167323D02*
Y171260D01*
X241142Y167323D02*
Y171260D01*
X247047Y167323D02*
Y171260D01*
X221457Y167323D02*
Y171260D01*
X227362Y167323D02*
Y171260D01*
D21*
X218504Y175197D02*
X212506D01*
Y172198D01*
X213506Y171198D01*
X215505D01*
X216505Y172198D01*
Y175197D01*
Y173197D02*
X218504Y171198D01*
Y169199D02*
Y167199D01*
Y168199D01*
X212506D01*
X213506Y169199D01*
X238189Y175197D02*
X232191D01*
Y172198D01*
X233191Y171198D01*
X235190D01*
X236190Y172198D01*
Y175197D01*
Y173197D02*
X238189Y171198D01*
Y165200D02*
Y169199D01*
X234190Y165200D01*
X233191D01*
X232191Y166200D01*
Y168199D01*
X233191Y169199D01*
X257874Y175197D02*
X251876D01*
Y172198D01*
X252876Y171198D01*
X254875D01*
X255875Y172198D01*
Y175197D01*
Y173197D02*
X257874Y171198D01*
X252876Y169199D02*
X251876Y168199D01*
Y166200D01*
X252876Y165200D01*
X253875D01*
X254875Y166200D01*
Y167199D01*
Y166200D01*
X255875Y165200D01*
X256874D01*
X257874Y166200D01*
Y168199D01*
X256874Y169199D01*
X213584Y190946D02*
X212600Y191930D01*
Y193898D01*
X213584Y194882D01*
X217520D01*
X218504Y193898D01*
Y191930D01*
X217520Y190946D01*
X218504Y188978D02*
Y187010D01*
Y187994D01*
X212600D01*
X213584Y188978D01*
X233269Y190946D02*
X232285Y191930D01*
Y193898D01*
X233269Y194882D01*
X237205D01*
X238189Y193898D01*
Y191930D01*
X237205Y190946D01*
X238189Y185043D02*
Y188978D01*
X234253Y185043D01*
X233269D01*
X232285Y186027D01*
Y187994D01*
X233269Y188978D01*
X252954Y190946D02*
X251970Y191930D01*
Y193898D01*
X252954Y194882D01*
X256890D01*
X257874Y193898D01*
Y191930D01*
X256890Y190946D01*
X252954Y188978D02*
X251970Y187994D01*
Y186027D01*
X252954Y185043D01*
X253938D01*
X254922Y186027D01*
Y187010D01*
Y186027D01*
X255906Y185043D01*
X256890D01*
X257874Y186027D01*
Y187994D01*
X256890Y188978D01*
M02*
