G04 Layer_Color=20142*
%FSLAX25Y25*%
%MOIN*%
G70*
G01*
G75*
%ADD58R,0.10249X0.03792*%
%ADD59O,0.10249X0.03792*%
%ADD60R,0.10249X0.16548*%
%ADD61R,0.02769X0.04343*%
%ADD62R,0.01981X0.04343*%
%ADD63O,0.03556X0.10642*%
%ADD64R,0.07887X0.05918*%
%ADD65R,0.07493X0.05131*%
%ADD66R,0.04934X0.07493*%
%ADD67O,0.09855X0.03162*%
%ADD68R,0.05918X0.07887*%
%ADD69R,0.23241X0.07099*%
%ADD70R,0.07493X0.04934*%
%ADD71R,0.03162X0.05131*%
%ADD72R,0.11824X0.04540*%
%ADD73C,0.08674*%
%ADD74O,0.04737X0.07690*%
%ADD75O,0.09855X0.11036*%
%ADD76O,0.11036X0.09855*%
%ADD77O,0.06312X0.10249*%
%ADD78C,0.13398*%
%ADD79C,0.14579*%
%ADD80C,0.06706*%
%ADD81R,0.06902X0.06902*%
%ADD82C,0.06902*%
%ADD83R,0.06800X0.06800*%
%ADD84C,0.06800*%
%ADD85R,0.06706X0.06706*%
%ADD86C,0.24422*%
%ADD87R,0.07099X0.07099*%
%ADD88C,0.07099*%
%ADD89C,0.05800*%
%ADD90C,0.04737*%
G36*
X309578Y498236D02*
X309910D01*
X310267Y498210D01*
X310675Y498159D01*
X311083Y498082D01*
X311466Y498006D01*
X311517Y497980D01*
X311619Y497955D01*
X311797Y497904D01*
X312027Y497802D01*
X312307Y497700D01*
X312588Y497572D01*
X313149Y497241D01*
X313175Y497215D01*
X313251Y497139D01*
X313379Y497037D01*
X313557Y496883D01*
X313736Y496730D01*
X313914Y496526D01*
X314272Y496067D01*
X314297Y496042D01*
X314348Y495940D01*
X314425Y495812D01*
X314501Y495608D01*
X314629Y495378D01*
X314731Y495098D01*
X314858Y494766D01*
X314960Y494409D01*
X311032Y493975D01*
Y494026D01*
X311006Y494128D01*
X310955Y494307D01*
X310904Y494511D01*
X310828Y494741D01*
X310700Y494970D01*
X310573Y495200D01*
X310394Y495404D01*
X310369Y495429D01*
X310292Y495480D01*
X310190Y495557D01*
X310037Y495634D01*
X309858Y495736D01*
X309629Y495812D01*
X309374Y495863D01*
X309119Y495889D01*
X308991D01*
X308838Y495863D01*
X308634Y495812D01*
X308430Y495736D01*
X308200Y495634D01*
X307971Y495480D01*
X307767Y495276D01*
X307741Y495251D01*
X307690Y495149D01*
X307588Y495021D01*
X307486Y494817D01*
X307410Y494562D01*
X307307Y494256D01*
X307256Y493899D01*
X307231Y493465D01*
Y493440D01*
Y493414D01*
Y493261D01*
X307256Y493031D01*
X307307Y492776D01*
X307358Y492470D01*
X307460Y492164D01*
X307588Y491884D01*
X307767Y491628D01*
X307792Y491603D01*
X307869Y491526D01*
X307971Y491450D01*
X308149Y491322D01*
X308353Y491220D01*
X308583Y491144D01*
X308889Y491067D01*
X309195Y491042D01*
X309297D01*
X309399Y491067D01*
X309552D01*
X309884Y491169D01*
X310088Y491220D01*
X310292Y491322D01*
X310318D01*
X310369Y491373D01*
X310445Y491424D01*
X310547Y491501D01*
X310675Y491603D01*
X310828Y491730D01*
X310981Y491884D01*
X311159Y492062D01*
X314450Y491577D01*
X313226Y484052D01*
X303991D01*
Y487164D01*
X310267D01*
X310598Y489256D01*
X310573Y489230D01*
X310496Y489205D01*
X310343Y489154D01*
X310190Y489077D01*
X309986Y489001D01*
X309756Y488924D01*
X309297Y488797D01*
X309272D01*
X309195Y488771D01*
X309068Y488746D01*
X308889Y488720D01*
X308711Y488695D01*
X308506Y488669D01*
X308047Y488644D01*
X307843D01*
X307690Y488669D01*
X307511D01*
X307307Y488720D01*
X306848Y488797D01*
X306287Y488950D01*
X305726Y489179D01*
X305445Y489332D01*
X305165Y489486D01*
X304909Y489690D01*
X304654Y489919D01*
X304629Y489945D01*
X304603Y489970D01*
X304527Y490047D01*
X304450Y490149D01*
X304348Y490276D01*
X304246Y490429D01*
X303991Y490787D01*
X303736Y491246D01*
X303532Y491807D01*
X303379Y492419D01*
X303353Y492751D01*
X303328Y493108D01*
Y493133D01*
Y493159D01*
Y493235D01*
Y493338D01*
X303353Y493593D01*
X303404Y493950D01*
X303506Y494332D01*
X303608Y494766D01*
X303787Y495251D01*
X304017Y495710D01*
Y495736D01*
X304042Y495761D01*
X304144Y495914D01*
X304297Y496144D01*
X304501Y496424D01*
X304782Y496730D01*
X305114Y497037D01*
X305496Y497343D01*
X305930Y497623D01*
X305955D01*
X305981Y497649D01*
X306057Y497674D01*
X306159Y497725D01*
X306261Y497776D01*
X306415Y497827D01*
X306772Y497929D01*
X307231Y498057D01*
X307792Y498159D01*
X308404Y498236D01*
X309093Y498261D01*
X309323D01*
X309578Y498236D01*
D02*
G37*
G36*
X348425Y112205D02*
Y98425D01*
X275590D01*
Y112205D01*
X279527Y116142D01*
X295275D01*
X297244Y114173D01*
X312598D01*
Y115748D01*
X313386D01*
Y114173D01*
X328740D01*
X330709Y116142D01*
X344488D01*
X348425Y112205D01*
D02*
G37*
G36*
X283481Y498236D02*
X283634D01*
X284042Y498184D01*
X284502Y498133D01*
X284986Y498031D01*
X285471Y497878D01*
X285905Y497700D01*
X285956Y497674D01*
X286083Y497598D01*
X286287Y497470D01*
X286517Y497292D01*
X286823Y497062D01*
X287104Y496781D01*
X287410Y496450D01*
X287690Y496067D01*
X287716Y496042D01*
X287767Y495914D01*
X287869Y495761D01*
X287971Y495506D01*
X288098Y495225D01*
X288226Y494868D01*
X288353Y494434D01*
X288456Y493975D01*
Y493950D01*
Y493924D01*
X288481Y493848D01*
X288507Y493746D01*
X288532Y493465D01*
X288583Y493083D01*
X288634Y492649D01*
X288685Y492139D01*
X288711Y491577D01*
X288736Y490991D01*
Y490940D01*
Y490812D01*
Y490608D01*
X288711Y490353D01*
X288685Y490021D01*
X288660Y489639D01*
X288609Y489230D01*
X288558Y488797D01*
X288379Y487878D01*
X288124Y486960D01*
X287971Y486526D01*
X287767Y486118D01*
X287563Y485761D01*
X287308Y485429D01*
X287282Y485404D01*
X287231Y485353D01*
X287155Y485276D01*
X287027Y485174D01*
X286874Y485047D01*
X286695Y484919D01*
X286466Y484766D01*
X286211Y484613D01*
X285930Y484486D01*
X285598Y484333D01*
X285241Y484205D01*
X284859Y484077D01*
X284425Y483975D01*
X283966Y483899D01*
X283456Y483848D01*
X282920Y483822D01*
X282690D01*
X282435Y483848D01*
X282103Y483873D01*
X281746Y483899D01*
X281364Y483975D01*
X280981Y484052D01*
X280624Y484179D01*
X280573Y484205D01*
X280471Y484231D01*
X280292Y484333D01*
X280088Y484435D01*
X279859Y484562D01*
X279604Y484715D01*
X279374Y484894D01*
X279144Y485098D01*
X279119Y485123D01*
X279042Y485200D01*
X278940Y485302D01*
X278813Y485455D01*
X278660Y485608D01*
X278507Y485812D01*
X278226Y486271D01*
X278201Y486297D01*
X278175Y486373D01*
X278099Y486501D01*
X278022Y486679D01*
X277945Y486883D01*
X277869Y487139D01*
X277767Y487394D01*
X277690Y487700D01*
Y487725D01*
X277665Y487776D01*
X277639Y487853D01*
X277614Y487981D01*
X277588Y488108D01*
X277563Y488287D01*
X277486Y488695D01*
X277410Y489179D01*
X277333Y489715D01*
X277308Y490327D01*
X277282Y490940D01*
Y490991D01*
Y491118D01*
Y491297D01*
X277308Y491552D01*
X277333Y491884D01*
X277359Y492241D01*
X277384Y492623D01*
X277435Y493057D01*
X277588Y493975D01*
X277818Y494894D01*
X277971Y495327D01*
X278150Y495761D01*
X278354Y496144D01*
X278583Y496501D01*
X278609Y496526D01*
X278634Y496577D01*
X278711Y496654D01*
X278838Y496781D01*
X278991Y496909D01*
X279170Y497062D01*
X279374Y497215D01*
X279629Y497368D01*
X279910Y497547D01*
X280241Y497700D01*
X280598Y497853D01*
X281007Y497980D01*
X281440Y498108D01*
X281925Y498184D01*
X282461Y498236D01*
X283022Y498261D01*
X283328D01*
X283481Y498236D01*
D02*
G37*
G36*
X296517D02*
X296670D01*
X297078Y498184D01*
X297537Y498133D01*
X298022Y498031D01*
X298506Y497878D01*
X298940Y497700D01*
X298991Y497674D01*
X299119Y497598D01*
X299323Y497470D01*
X299552Y497292D01*
X299858Y497062D01*
X300139Y496781D01*
X300445Y496450D01*
X300726Y496067D01*
X300751Y496042D01*
X300802Y495914D01*
X300904Y495761D01*
X301007Y495506D01*
X301134Y495225D01*
X301262Y494868D01*
X301389Y494434D01*
X301491Y493975D01*
Y493950D01*
Y493924D01*
X301517Y493848D01*
X301542Y493746D01*
X301568Y493465D01*
X301619Y493083D01*
X301670Y492649D01*
X301721Y492139D01*
X301746Y491577D01*
X301772Y490991D01*
Y490940D01*
Y490812D01*
Y490608D01*
X301746Y490353D01*
X301721Y490021D01*
X301695Y489639D01*
X301644Y489230D01*
X301593Y488797D01*
X301415Y487878D01*
X301160Y486960D01*
X301007Y486526D01*
X300802Y486118D01*
X300598Y485761D01*
X300343Y485429D01*
X300318Y485404D01*
X300267Y485353D01*
X300190Y485276D01*
X300063Y485174D01*
X299909Y485047D01*
X299731Y484919D01*
X299501Y484766D01*
X299246Y484613D01*
X298966Y484486D01*
X298634Y484333D01*
X298277Y484205D01*
X297894Y484077D01*
X297461Y483975D01*
X297001Y483899D01*
X296491Y483848D01*
X295955Y483822D01*
X295726D01*
X295471Y483848D01*
X295139Y483873D01*
X294782Y483899D01*
X294399Y483975D01*
X294017Y484052D01*
X293660Y484179D01*
X293609Y484205D01*
X293507Y484231D01*
X293328Y484333D01*
X293124Y484435D01*
X292894Y484562D01*
X292639Y484715D01*
X292410Y484894D01*
X292180Y485098D01*
X292155Y485123D01*
X292078Y485200D01*
X291976Y485302D01*
X291848Y485455D01*
X291695Y485608D01*
X291542Y485812D01*
X291262Y486271D01*
X291236Y486297D01*
X291211Y486373D01*
X291134Y486501D01*
X291058Y486679D01*
X290981Y486883D01*
X290904Y487139D01*
X290803Y487394D01*
X290726Y487700D01*
Y487725D01*
X290700Y487776D01*
X290675Y487853D01*
X290649Y487981D01*
X290624Y488108D01*
X290598Y488287D01*
X290522Y488695D01*
X290445Y489179D01*
X290369Y489715D01*
X290343Y490327D01*
X290318Y490940D01*
Y490991D01*
Y491118D01*
Y491297D01*
X290343Y491552D01*
X290369Y491884D01*
X290394Y492241D01*
X290420Y492623D01*
X290471Y493057D01*
X290624Y493975D01*
X290854Y494894D01*
X291006Y495327D01*
X291185Y495761D01*
X291389Y496144D01*
X291619Y496501D01*
X291644Y496526D01*
X291670Y496577D01*
X291746Y496654D01*
X291874Y496781D01*
X292027Y496909D01*
X292206Y497062D01*
X292410Y497215D01*
X292665Y497368D01*
X292945Y497547D01*
X293277Y497700D01*
X293634Y497853D01*
X294042Y497980D01*
X294476Y498108D01*
X294961Y498184D01*
X295496Y498236D01*
X296058Y498261D01*
X296364D01*
X296517Y498236D01*
D02*
G37*
G36*
X292157Y139921D02*
X285321D01*
Y149921D01*
X292157D01*
Y139921D01*
D02*
G37*
G36*
X155315Y207185D02*
X147834D01*
Y214075D01*
X155315D01*
Y207185D01*
D02*
G37*
G36*
X187992Y206398D02*
X176181D01*
Y215650D01*
X187992D01*
Y206398D01*
D02*
G37*
G36*
X302157Y139921D02*
X295321D01*
Y149921D01*
X302157D01*
Y139921D01*
D02*
G37*
G36*
X171260Y206398D02*
X159449D01*
Y215650D01*
X171260D01*
Y206398D01*
D02*
G37*
%LPC*%
G36*
X296083Y495608D02*
X295981D01*
X295853Y495582D01*
X295726Y495557D01*
X295547Y495506D01*
X295394Y495429D01*
X295216Y495327D01*
X295037Y495200D01*
X295012Y495174D01*
X294961Y495123D01*
X294884Y495021D01*
X294782Y494894D01*
X294680Y494690D01*
X294578Y494486D01*
X294476Y494205D01*
X294399Y493899D01*
Y493848D01*
X294374Y493720D01*
X294323Y493516D01*
X294272Y493210D01*
X294246Y492827D01*
X294195Y492343D01*
X294170Y491782D01*
Y491118D01*
Y491093D01*
Y490991D01*
Y490863D01*
Y490659D01*
X294195Y490455D01*
Y490174D01*
X294221Y489613D01*
X294297Y488975D01*
X294374Y488363D01*
X294425Y488083D01*
X294501Y487802D01*
X294578Y487572D01*
X294654Y487368D01*
X294680Y487317D01*
X294757Y487215D01*
X294859Y487062D01*
X295012Y486883D01*
X295216Y486705D01*
X295471Y486552D01*
X295751Y486450D01*
X296083Y486399D01*
X296134D01*
X296236Y486424D01*
X296415Y486450D01*
X296619Y486526D01*
X296848Y486628D01*
X297078Y486807D01*
X297307Y487062D01*
X297486Y487394D01*
X297512Y487445D01*
X297537Y487496D01*
X297563Y487598D01*
X297588Y487700D01*
X297614Y487827D01*
X297665Y488006D01*
X297690Y488210D01*
X297741Y488440D01*
X297792Y488695D01*
X297818Y489001D01*
X297843Y489307D01*
X297869Y489690D01*
X297894Y490072D01*
X297920Y490506D01*
Y490991D01*
Y491016D01*
Y491118D01*
Y491246D01*
Y491424D01*
X297894Y491628D01*
Y491884D01*
X297869Y492445D01*
X297818Y493057D01*
X297716Y493669D01*
X297665Y493950D01*
X297614Y494205D01*
X297537Y494434D01*
X297461Y494639D01*
X297435Y494690D01*
X297358Y494792D01*
X297256Y494945D01*
X297103Y495123D01*
X296899Y495302D01*
X296670Y495455D01*
X296389Y495557D01*
X296083Y495608D01*
D02*
G37*
G36*
X283047D02*
X282945D01*
X282818Y495582D01*
X282690Y495557D01*
X282512Y495506D01*
X282359Y495429D01*
X282180Y495327D01*
X282001Y495200D01*
X281976Y495174D01*
X281925Y495123D01*
X281849Y495021D01*
X281746Y494894D01*
X281644Y494690D01*
X281542Y494486D01*
X281440Y494205D01*
X281364Y493899D01*
Y493848D01*
X281338Y493720D01*
X281287Y493516D01*
X281236Y493210D01*
X281211Y492827D01*
X281160Y492343D01*
X281134Y491782D01*
Y491118D01*
Y491093D01*
Y490991D01*
Y490863D01*
Y490659D01*
X281160Y490455D01*
Y490174D01*
X281185Y489613D01*
X281262Y488975D01*
X281338Y488363D01*
X281389Y488083D01*
X281466Y487802D01*
X281542Y487572D01*
X281619Y487368D01*
X281644Y487317D01*
X281721Y487215D01*
X281823Y487062D01*
X281976Y486883D01*
X282180Y486705D01*
X282435Y486552D01*
X282716Y486450D01*
X283047Y486399D01*
X283098D01*
X283201Y486424D01*
X283379Y486450D01*
X283583Y486526D01*
X283813Y486628D01*
X284042Y486807D01*
X284272Y487062D01*
X284451Y487394D01*
X284476Y487445D01*
X284502Y487496D01*
X284527Y487598D01*
X284553Y487700D01*
X284578Y487827D01*
X284629Y488006D01*
X284655Y488210D01*
X284706Y488440D01*
X284757Y488695D01*
X284782Y489001D01*
X284808Y489307D01*
X284833Y489690D01*
X284859Y490072D01*
X284884Y490506D01*
Y490991D01*
Y491016D01*
Y491118D01*
Y491246D01*
Y491424D01*
X284859Y491628D01*
Y491884D01*
X284833Y492445D01*
X284782Y493057D01*
X284680Y493669D01*
X284629Y493950D01*
X284578Y494205D01*
X284502Y494434D01*
X284425Y494639D01*
X284399Y494690D01*
X284323Y494792D01*
X284221Y494945D01*
X284068Y495123D01*
X283864Y495302D01*
X283634Y495455D01*
X283353Y495557D01*
X283047Y495608D01*
D02*
G37*
%LPD*%
D58*
X352913Y416555D02*
D03*
D59*
Y421555D02*
D03*
Y426555D02*
D03*
Y431555D02*
D03*
Y436555D02*
D03*
X337559Y416555D02*
D03*
Y421555D02*
D03*
Y426555D02*
D03*
Y431555D02*
D03*
Y436555D02*
D03*
X352913Y311555D02*
D03*
Y316555D02*
D03*
Y321555D02*
D03*
Y326555D02*
D03*
Y331555D02*
D03*
Y336555D02*
D03*
Y341555D02*
D03*
Y346555D02*
D03*
Y351555D02*
D03*
Y356555D02*
D03*
Y361555D02*
D03*
Y366555D02*
D03*
Y371555D02*
D03*
Y376555D02*
D03*
Y381555D02*
D03*
Y386555D02*
D03*
Y391555D02*
D03*
Y396555D02*
D03*
Y401555D02*
D03*
Y406555D02*
D03*
X337559Y311555D02*
D03*
Y316555D02*
D03*
Y321555D02*
D03*
Y326555D02*
D03*
Y331555D02*
D03*
Y336555D02*
D03*
Y341555D02*
D03*
Y346555D02*
D03*
Y351555D02*
D03*
Y356555D02*
D03*
Y361555D02*
D03*
Y366555D02*
D03*
Y371555D02*
D03*
Y376555D02*
D03*
Y381555D02*
D03*
Y386555D02*
D03*
Y391555D02*
D03*
Y396555D02*
D03*
Y401555D02*
D03*
Y406555D02*
D03*
X142913Y341555D02*
D03*
Y346555D02*
D03*
Y351555D02*
D03*
Y356555D02*
D03*
Y361555D02*
D03*
Y366555D02*
D03*
Y371555D02*
D03*
Y376555D02*
D03*
Y381555D02*
D03*
Y386555D02*
D03*
Y391555D02*
D03*
Y396555D02*
D03*
Y401555D02*
D03*
Y406555D02*
D03*
Y411555D02*
D03*
Y416555D02*
D03*
Y421555D02*
D03*
Y426555D02*
D03*
Y431555D02*
D03*
Y436555D02*
D03*
X127559Y341555D02*
D03*
Y346555D02*
D03*
Y351555D02*
D03*
Y356555D02*
D03*
Y361555D02*
D03*
Y366555D02*
D03*
Y371555D02*
D03*
Y376555D02*
D03*
Y381555D02*
D03*
Y386555D02*
D03*
Y391555D02*
D03*
Y396555D02*
D03*
Y401555D02*
D03*
Y406555D02*
D03*
Y411555D02*
D03*
Y416555D02*
D03*
Y421555D02*
D03*
Y426555D02*
D03*
Y431555D02*
D03*
Y436555D02*
D03*
X142913Y311555D02*
D03*
Y316555D02*
D03*
Y321555D02*
D03*
Y326555D02*
D03*
Y331555D02*
D03*
X127559Y311555D02*
D03*
Y316555D02*
D03*
Y321555D02*
D03*
Y326555D02*
D03*
Y331555D02*
D03*
D60*
X318504Y107480D02*
D03*
X307480D02*
D03*
D61*
X323228Y121063D02*
D03*
X302756D02*
D03*
D62*
X320866D02*
D03*
X305118D02*
D03*
X307086D02*
D03*
D63*
X247657Y273425D02*
D03*
X242657D02*
D03*
X237657D02*
D03*
X232658D02*
D03*
X247657Y254134D02*
D03*
X242657D02*
D03*
X237657D02*
D03*
X232658D02*
D03*
D64*
X151575Y232677D02*
D03*
Y243701D02*
D03*
X184055Y232677D02*
D03*
Y243701D02*
D03*
X167323Y232677D02*
D03*
Y243701D02*
D03*
X153543Y335039D02*
D03*
Y346063D02*
D03*
D65*
X151575Y267520D02*
D03*
Y256102D02*
D03*
X184055Y267520D02*
D03*
Y256102D02*
D03*
X167323Y267520D02*
D03*
Y256102D02*
D03*
X151575Y204921D02*
D03*
Y216338D02*
D03*
D66*
X324508Y322834D02*
D03*
X313287D02*
D03*
X324508Y334646D02*
D03*
X313287D02*
D03*
X346752Y198819D02*
D03*
X357972D02*
D03*
X226673Y289370D02*
D03*
X237894D02*
D03*
X226673Y307087D02*
D03*
X237894D02*
D03*
D67*
X356496Y209783D02*
D03*
Y214783D02*
D03*
Y219783D02*
D03*
Y224783D02*
D03*
Y229783D02*
D03*
Y234783D02*
D03*
Y239783D02*
D03*
Y244783D02*
D03*
Y249783D02*
D03*
Y254783D02*
D03*
X320669Y209783D02*
D03*
Y214783D02*
D03*
Y219783D02*
D03*
Y224783D02*
D03*
Y229783D02*
D03*
Y234783D02*
D03*
Y239783D02*
D03*
Y244783D02*
D03*
Y249783D02*
D03*
Y254783D02*
D03*
D68*
X322244Y198819D02*
D03*
X333268D02*
D03*
X205118Y155512D02*
D03*
X216142D02*
D03*
X247638Y236221D02*
D03*
X236614D02*
D03*
X257283Y169291D02*
D03*
X268307D02*
D03*
X257283Y196850D02*
D03*
X268307D02*
D03*
D69*
X241142Y179724D02*
D03*
Y198228D02*
D03*
D70*
X296260Y177726D02*
D03*
Y188946D02*
D03*
X284449Y188946D02*
D03*
Y177726D02*
D03*
D71*
X268504Y177953D02*
D03*
X261023D02*
D03*
Y188189D02*
D03*
X264764D02*
D03*
X268504D02*
D03*
D72*
X182087Y217028D02*
D03*
Y204232D02*
D03*
X165354Y217028D02*
D03*
Y204232D02*
D03*
D73*
X350394Y119134D02*
D03*
X377953D02*
D03*
X364173Y447834D02*
D03*
Y473425D02*
D03*
X381890D02*
D03*
Y447834D02*
D03*
X319882D02*
D03*
Y473425D02*
D03*
X337598D02*
D03*
Y447834D02*
D03*
X290354D02*
D03*
Y473425D02*
D03*
X308071D02*
D03*
Y447834D02*
D03*
X116142Y447835D02*
D03*
Y473425D02*
D03*
X98425D02*
D03*
Y447835D02*
D03*
X160433Y447834D02*
D03*
Y473425D02*
D03*
X142716D02*
D03*
Y447834D02*
D03*
X189960D02*
D03*
Y473425D02*
D03*
X172244D02*
D03*
Y447834D02*
D03*
X219488D02*
D03*
Y473425D02*
D03*
X201771D02*
D03*
Y447834D02*
D03*
X249015D02*
D03*
Y473425D02*
D03*
X231299D02*
D03*
Y447834D02*
D03*
X278543D02*
D03*
Y473425D02*
D03*
X260827D02*
D03*
Y447834D02*
D03*
X381890Y412401D02*
D03*
Y437992D02*
D03*
X364173D02*
D03*
Y412401D02*
D03*
X102362Y119134D02*
D03*
X129921D02*
D03*
X116141Y412401D02*
D03*
Y437992D02*
D03*
X98425D02*
D03*
Y412401D02*
D03*
D74*
X354331Y110236D02*
D03*
X374016D02*
D03*
X360728D02*
D03*
X367618D02*
D03*
X106299D02*
D03*
X125984D02*
D03*
X112697D02*
D03*
X119587D02*
D03*
D75*
X175197Y119685D02*
D03*
X147638Y131496D02*
D03*
X137008Y137008D02*
D03*
D76*
X173228Y149606D02*
D03*
X157480Y106299D02*
D03*
D77*
X296319Y119291D02*
D03*
X329665D02*
D03*
X328878Y104724D02*
D03*
X297106D02*
D03*
D78*
X340551Y105512D02*
D03*
X285433D02*
D03*
D79*
X257165Y130905D02*
D03*
X205433D02*
D03*
D80*
X245079Y141575D02*
D03*
X235236D02*
D03*
X227362D02*
D03*
X217520D02*
D03*
X271654Y275748D02*
D03*
X281653Y265748D02*
D03*
Y275748D02*
D03*
X291653Y265748D02*
D03*
Y275748D02*
D03*
X301654Y265748D02*
D03*
Y275748D02*
D03*
X311653Y265748D02*
D03*
Y275748D02*
D03*
D81*
X106299Y187008D02*
D03*
D82*
X116299D02*
D03*
X126299D02*
D03*
X136299D02*
D03*
D83*
X298307Y242126D02*
D03*
D84*
X288307D02*
D03*
X288740Y139921D02*
D03*
X298740D02*
D03*
Y149921D02*
D03*
X288740D02*
D03*
D85*
X271654Y265748D02*
D03*
D86*
X372047Y145669D02*
D03*
X108267Y490157D02*
D03*
Y145669D02*
D03*
X372047Y490157D02*
D03*
D87*
X326771Y177480D02*
D03*
D88*
Y167480D02*
D03*
Y157480D02*
D03*
Y147480D02*
D03*
Y137480D02*
D03*
D89*
X348425Y295275D02*
D03*
Y303150D02*
D03*
X196850Y155512D02*
D03*
X324803Y285433D02*
D03*
X312992Y175197D02*
D03*
X307086Y181102D02*
D03*
X314961Y202756D02*
D03*
X309055Y196850D02*
D03*
X303150Y202756D02*
D03*
X182087Y180118D02*
D03*
X248031Y226378D02*
D03*
X184055Y224410D02*
D03*
X167323D02*
D03*
X151575D02*
D03*
X226378Y275590D02*
D03*
X310039Y300197D02*
D03*
X155512Y180118D02*
D03*
X171260Y336614D02*
D03*
X161417Y333071D02*
D03*
D90*
X271653Y303150D02*
D03*
X275590Y307086D02*
D03*
X108268Y352362D02*
D03*
X108267Y360236D02*
D03*
X108268Y344488D02*
D03*
X112205Y356299D02*
D03*
X116141Y348425D02*
D03*
X163386Y356299D02*
D03*
X167323Y360236D02*
D03*
X163386Y364173D02*
D03*
X167323Y368110D02*
D03*
M02*
