G04 Layer_Color=8150272*
%FSLAX25Y25*%
%MOIN*%
G70*
G01*
G75*
%ADD72C,0.08674*%
%ADD73O,0.04737X0.07690*%
%ADD74O,0.09855X0.11036*%
%ADD75O,0.11036X0.09855*%
%ADD76O,0.06312X0.10249*%
%ADD77C,0.00800*%
%ADD78C,0.14579*%
%ADD79C,0.06706*%
%ADD80R,0.06902X0.06902*%
%ADD81C,0.06902*%
%ADD83C,0.06800*%
%ADD84R,0.06706X0.06706*%
%ADD85C,0.24422*%
%ADD86R,0.07099X0.07099*%
%ADD87C,0.07099*%
%ADD88C,0.05800*%
%ADD89C,0.04737*%
D72*
X350394Y119134D02*
D03*
X377953D02*
D03*
X364173Y447834D02*
D03*
Y473425D02*
D03*
X381890D02*
D03*
Y447834D02*
D03*
X319882D02*
D03*
Y473425D02*
D03*
X337598D02*
D03*
Y447834D02*
D03*
X290354D02*
D03*
Y473425D02*
D03*
X308071D02*
D03*
Y447834D02*
D03*
X116142Y447835D02*
D03*
Y473425D02*
D03*
X98425D02*
D03*
Y447835D02*
D03*
X160433Y447834D02*
D03*
Y473425D02*
D03*
X142716D02*
D03*
Y447834D02*
D03*
X189960D02*
D03*
Y473425D02*
D03*
X172244D02*
D03*
Y447834D02*
D03*
X219488D02*
D03*
Y473425D02*
D03*
X201771D02*
D03*
Y447834D02*
D03*
X249015D02*
D03*
Y473425D02*
D03*
X231299D02*
D03*
Y447834D02*
D03*
X278543D02*
D03*
Y473425D02*
D03*
X260827D02*
D03*
Y447834D02*
D03*
X381890Y412401D02*
D03*
Y437992D02*
D03*
X364173D02*
D03*
Y412401D02*
D03*
X102362Y119134D02*
D03*
X129921D02*
D03*
X116141Y412401D02*
D03*
Y437992D02*
D03*
X98425D02*
D03*
Y412401D02*
D03*
D73*
X354331Y110236D02*
D03*
X374016D02*
D03*
X360728D02*
D03*
X367618D02*
D03*
X106299D02*
D03*
X125984D02*
D03*
X112697D02*
D03*
X119587D02*
D03*
D74*
X175197Y119685D02*
D03*
X147638Y131496D02*
D03*
X137008Y137008D02*
D03*
D75*
X173228Y149606D02*
D03*
X157480Y106299D02*
D03*
D76*
X296319Y119291D02*
D03*
X329665D02*
D03*
X328878Y104724D02*
D03*
X297106D02*
D03*
D77*
X340551Y105512D02*
D03*
X285433D02*
D03*
D78*
X257165Y130905D02*
D03*
X205433D02*
D03*
D79*
X245079Y141575D02*
D03*
X235236D02*
D03*
X227362D02*
D03*
X217520D02*
D03*
X271654Y275748D02*
D03*
X281653Y265748D02*
D03*
Y275748D02*
D03*
X291653Y265748D02*
D03*
Y275748D02*
D03*
X301654Y265748D02*
D03*
Y275748D02*
D03*
X311653Y265748D02*
D03*
Y275748D02*
D03*
D80*
X106299Y218504D02*
D03*
D81*
X116299D02*
D03*
X126299D02*
D03*
X136299D02*
D03*
D83*
X298307Y242126D02*
D03*
X288307D02*
D03*
X288740Y139921D02*
D03*
X298740D02*
D03*
Y149921D02*
D03*
X288740D02*
D03*
D84*
X271654Y265748D02*
D03*
D85*
X372047Y145669D02*
D03*
X108267Y490157D02*
D03*
Y145669D02*
D03*
X372047Y490157D02*
D03*
D86*
X326771Y177480D02*
D03*
D87*
Y167480D02*
D03*
Y157480D02*
D03*
Y147480D02*
D03*
Y137480D02*
D03*
D88*
X348425Y295275D02*
D03*
Y303150D02*
D03*
X196850Y155512D02*
D03*
X324803Y285433D02*
D03*
X312992Y175197D02*
D03*
X307086Y181102D02*
D03*
X314961Y202756D02*
D03*
X309055Y196850D02*
D03*
X303150Y202756D02*
D03*
X182087Y180118D02*
D03*
X248031Y226378D02*
D03*
X184055Y224410D02*
D03*
X167323D02*
D03*
X151575D02*
D03*
X226378Y275590D02*
D03*
X310039Y300197D02*
D03*
X155512Y180118D02*
D03*
X171260Y336614D02*
D03*
X161417Y333071D02*
D03*
D89*
X271653Y303150D02*
D03*
X275590Y307086D02*
D03*
X108268Y352362D02*
D03*
X108267Y360236D02*
D03*
X108268Y344488D02*
D03*
X112205Y356299D02*
D03*
X116141Y348425D02*
D03*
X163386Y356299D02*
D03*
X167323Y360236D02*
D03*
X163386Y364173D02*
D03*
X167323Y368110D02*
D03*
M02*
