M48
;Layer_Color=6321
;FILE_FORMAT=2:5
INCH,TZ
;TYPE=PLATED
T1F00S00C0.01575
T2F00S00C0.01968
T3F00S00C0.02800
T4F00S00C0.03000
T5F00S00C0.03150
T7F00S00C0.03543
T8F00S00C0.03622
T9F00S00C0.03937
T10F00S00C0.04000
T11F00S00C0.04016
T12F00S00C0.05118
T13F00S00C0.05512
T14F00S00C0.09055
T15F00S00C0.12598
;TYPE=NON_PLATED
T16F00S00C0.05906
T17F00S00C0.06693
%
T01
X264764Y179134
Y183071
T02
X274606Y167323
Y171260
Y194882
Y198819
X271653Y303150
X275590Y307086
X116141Y348425
X108268Y352362
X112205Y356299
X108267Y360236
X108268Y344488
X163386Y356299
X167323Y360236
X163386Y364173
X167323Y368110
T03
X196850Y155512
X312992Y175197
X314961Y202756
X324803Y285433
X348425Y295275
Y303150
X310039Y300197
X309055Y196850
X303150Y202756
X307086Y181102
X248031Y226378
X184055Y224410
X167323
X182087Y180118
X226378Y275590
X151575Y224410
X155512Y180118
X161417Y333071
X171260Y336614
T04
X288740Y139921
X298740
Y149921
X288740
T05
X106299Y110236
X112697
X119587
X125984
X354331
X360728
X367618
X374016
T07
X271654Y265748
Y275748
X281653
Y265748
X291653
Y275748
X301654
Y265748
X311653
Y275748
T08
X217520Y141575
X227362
X235236
X245079
T09
X98425Y412401
X116141
Y437992
X116142Y447835
X98425
X98425Y437992
X142716Y447834
X160433
X172244
X189960
X201771
X219488
X231299
X249015
X260827
X278543
X290354
X308071
X319882
X337598
X364173
X364173Y437992
X381890
X381890Y447834
X381890Y412401
X364173
X364173Y473425
X381890
X337598
X319882
X308071
X290354
X278543
X260827
X249015
X231299
X219488
X201771
X189960
X172244
X160433
X142716
X116142Y473425
X98425
T10
X288307Y242126
X298307
T11
X326771Y137480
Y147480
Y157480
Y167480
Y177480
X136299Y218504
X126299
X116299
X106299
T12
X102362Y119134
X129921
X350394
X377953
T13
X137008Y137008
X147638Y131496
X157480Y106299
X175197Y119685
X173228Y149606
T14
X205433Y130905
X257165
T15
X108267Y145669
X372047
Y490157
X108267
T16
X340551Y105512
T17
X285433Y105512
M30
